<?php
if(!isset($color) || $color=="" || strtolower($color)=="black"){$color="000";}
if(strtolower($color)=="red"){$color="ed1c24";}
if(strtolower($color)=="blue"){$color="1c75bc";}
if(strtolower($color)=="green"){$color="00a651";}
if(strtolower($color)=="white"){$color="fff";}
header('Content-Type: text/xml');
// echo xml tag just in case short_open_tags is enabled in PHP config
echo '<?xml version="1.0" encoding="UTF-8"?>';
?>
<!-- Generator: Adobe Illustrator 15.0.0, SVG Export Plug-In . SVG Version: 6.00 Build 0)  -->
<!DOCTYPE svg PUBLIC "-//W3C//DTD SVG 1.1//EN" "http://www.w3.org/Graphics/SVG/1.1/DTD/svg11.dtd">
<svg version="1.1" id="Layer_1" xmlns="http://www.w3.org/2000/svg" xmlns:xlink="http://www.w3.org/1999/xlink" x="0px" y="0px"
	 width="10.171px" height="10.179px" viewBox="0 0 10.171 10.179" enable-background="new 0 0 10.171 10.179" xml:space="preserve">
<g>
	<path fill="#<?php echo $color; ?>" d="M10.163,1.866V1.861C9.143,1.851,8.317,1.023,8.311,0H1.869v0.004H1.86C1.856,0.731,1.438,1.361,0.83,1.667
		c0,0,0,0,0,0.001H0.826C0.577,1.792,0.295,1.861,0,1.861c0.008,0.647,0.114,5.05,1.317,6.253c1.3,1.299,3.741,2.061,3.741,2.061
		l0.024-0.016l0.033,0.02c0,0,2.439-0.762,3.739-2.059c1.204-1.203,1.309-5.608,1.317-6.254H10.163z"/>
	<polygon fill="#FFFFFF" points="3.572,3.693 3.405,1.408 5.088,2.961 6.768,1.408 6.601,3.693 8.864,4.038 6.976,5.332 
		8.116,7.314 5.926,6.645 5.088,8.775 4.246,6.645 2.056,7.314 3.198,5.332 1.31,4.038 	"/>
</g>
</svg>
