<?php
if(!isset($color) || $color=="" || strtolower($color)=="black"){$color="000";}
if(strtolower($color)=="red"){$color="ed1c24";}
if(strtolower($color)=="blue"){$color="1c75bc";}
if(strtolower($color)=="green"){$color="00a651";}
if(strtolower($color)=="white"){$color="fff";}
header('Content-Type: text/xml');
// echo xml tag just in case short_open_tags is enabled in PHP config
echo '<?xml version="1.0" encoding="UTF-8"?>';
?>
<!-- Generator: Adobe Illustrator 15.0.0, SVG Export Plug-In . SVG Version: 6.00 Build 0)  -->
<!DOCTYPE svg PUBLIC "-//W3C//DTD SVG 1.1//EN" "http://www.w3.org/Graphics/SVG/1.1/DTD/svg11.dtd">
<svg version="1.1" id="Layer_1" xmlns="http://www.w3.org/2000/svg" xmlns:xlink="http://www.w3.org/1999/xlink" x="0px" y="0px"
	 width="10.171px" height="10.179px" viewBox="0 0 10.171 10.179" enable-background="new 0 0 10.171 10.179" xml:space="preserve">
<g>
	<path fill="#<?php echo $color; ?>" d="M10.163,1.866V1.861C9.144,1.851,8.318,1.022,8.312,0H1.869v0.004H1.86C1.856,0.73,1.438,1.361,0.83,1.667c0,0,0,0,0,0.001
		H0.826C0.577,1.793,0.295,1.861,0,1.861c0.008,0.646,0.114,5.051,1.317,6.254c1.3,1.299,3.74,2.06,3.74,2.06l0.024-0.015
		l0.034,0.019c0,0,2.438-0.761,3.738-2.059c1.203-1.203,1.309-5.608,1.316-6.254H10.163z"/>
</g>
<path fill="#FFFFFF" d="M5.894,1.341v1.864H4.458V2.179H2.303v5.809H7.87V1.341H5.894z M3.458,7.524h-0.81V6.717h0.81V7.524z
	 M4.787,7.524h-0.81V6.717h0.81V7.524z M6.115,7.524H5.307V6.717h0.809V7.524z M7.444,7.524H6.636V6.717h0.809V7.524z"/>
</svg>
