<?php
if(!isset($color) || $color=="" || strtolower($color)=="black"){$color="000";}
if(strtolower($color)=="red"){$color="ed1c24";}
if(strtolower($color)=="blue"){$color="1c75bc";}
if(strtolower($color)=="green"){$color="00a651";}
if(strtolower($color)=="white"){$color="fff";}
header('Content-Type: text/xml');
// echo xml tag just in case short_open_tags is enabled in PHP config
echo '<?xml version="1.0" encoding="UTF-8"?>';
?>
<!-- Generator: Adobe Illustrator 15.0.0, SVG Export Plug-In . SVG Version: 6.00 Build 0)  -->
<!DOCTYPE svg PUBLIC "-//W3C//DTD SVG 1.1//EN" "http://www.w3.org/Graphics/SVG/1.1/DTD/svg11.dtd">
<svg version="1.1" id="Layer_1" xmlns="http://www.w3.org/2000/svg" xmlns:xlink="http://www.w3.org/1999/xlink" x="0px" y="0px"
	 width="10.171px" height="10.179px" viewBox="0 0 10.171 10.179" enable-background="new 0 0 10.171 10.179" xml:space="preserve">
<g>
	<path fill="#<?php echo $color; ?>" d="M10.163,1.866V1.861C9.144,1.851,8.318,1.022,8.312,0H1.869v0.004H1.86C1.856,0.731,1.438,1.361,0.83,1.667
		c0,0,0,0,0,0.001H0.826C0.577,1.793,0.295,1.861,0,1.861c0.008,0.647,0.114,5.05,1.317,6.253c1.3,1.299,3.74,2.061,3.74,2.061
		l0.024-0.016l0.034,0.02c0,0,2.438-0.762,3.738-2.059c1.203-1.203,1.309-5.608,1.316-6.254H10.163z"/>
	<path fill="#FFFFFF" d="M5.086,1.484L3.543,2.44V1.692H2.375v1.473l-0.99,0.613h0.949v3.837l1.757,0.001
		c0-0.012-0.002-0.026-0.002-0.04V4.618c0-0.535,0.391-0.969,0.876-0.969h0.204c0.484,0,0.876,0.434,0.876,0.969v2.958
		c0,0.014-0.003,0.028-0.003,0.04l1.797-0.001V3.778h0.948L5.086,1.484z"/>
</g>
</svg>
