<?php
if(!isset($color) || $color=="" || strtolower($color)=="black"){$color="000";}
if(strtolower($color)=="red"){$color="ed1c24";}
if(strtolower($color)=="blue"){$color="1c75bc";}
if(strtolower($color)=="green"){$color="00a651";}
if(strtolower($color)=="white"){$color="fff";}
header('Content-Type: text/xml');
// echo xml tag just in case short_open_tags is enabled in PHP config
echo '<?xml version="1.0" encoding="UTF-8"?>';
?>
<!-- Generator: Adobe Illustrator 15.0.0, SVG Export Plug-In . SVG Version: 6.00 Build 0)  -->
<!DOCTYPE svg PUBLIC "-//W3C//DTD SVG 1.1//EN" "http://www.w3.org/Graphics/SVG/1.1/DTD/svg11.dtd">
<svg version="1.1" id="Layer_1" xmlns="http://www.w3.org/2000/svg" xmlns:xlink="http://www.w3.org/1999/xlink" x="0px" y="0px"
	 width="10.171px" height="10.179px" viewBox="0 0 10.171 10.179" enable-background="new 0 0 10.171 10.179" xml:space="preserve">
<g>
	<path fill="#<?php echo $color; ?>" d="M10.163,1.866V1.861C9.144,1.851,8.318,1.022,8.312,0H1.869v0.004H1.86C1.856,0.731,1.438,1.361,0.83,1.667
		c0,0,0,0,0,0.001H0.826C0.577,1.793,0.295,1.861,0,1.861c0.008,0.647,0.114,5.051,1.317,6.254c1.3,1.299,3.74,2.06,3.74,2.06
		l0.024-0.015l0.034,0.019c0,0,2.438-0.761,3.738-2.059c1.203-1.203,1.309-5.608,1.316-6.254H10.163z"/>
	<path fill="#FFFFFF" d="M8.917,6.668c0,0.532-1.529,0.963-3.417,0.963c-1.886,0-3.416-0.431-3.416-0.963
		c0-0.045,0.015-0.088,0.035-0.131h1.824l0.61-0.832l0.096,0.044L4.201,6.537c0,0,2.438-0.024,2.43,0
		c-0.006,0.017-0.387-0.517-0.603-0.82C7.664,5.789,8.917,6.187,8.917,6.668 M3.032,1.579v2.052l-1.99,2.667h2.771l0.354-0.49
		L3.844,5.642V4.287l0.417,1.032l0.771,0.312L4.625,6.298h1.531L4.177,3.631V1.579l0.292-0.292H2.74L3.032,1.579z M7.168,5.978
		c-0.21,0-0.38,0.17-0.38,0.379c0,0.211,0.17,0.381,0.38,0.381s0.38-0.17,0.38-0.381C7.548,6.147,7.378,5.978,7.168,5.978
		 M6.472,4.237c-0.351,0-0.635,0.285-0.635,0.636s0.284,0.636,0.635,0.636s0.636-0.285,0.636-0.636S6.822,4.237,6.472,4.237
		 M7.478,3.352c-0.233,0-0.421,0.189-0.421,0.422c0,0.232,0.188,0.422,0.421,0.422c0.232,0,0.421-0.189,0.421-0.422
		C7.898,3.541,7.71,3.352,7.478,3.352 M5.989,1.783c-0.549,0-0.994,0.446-0.994,0.995c0,0.55,0.445,0.997,0.994,0.997
		c0.55,0,0.996-0.446,0.996-0.997C6.985,2.229,6.539,1.783,5.989,1.783"/>
</g>
</svg>
