<?php
if(!isset($color) || $color=="" || strtolower($color)=="black"){$color="000";}
if(strtolower($color)=="red"){$color="ed1c24";}
if(strtolower($color)=="blue"){$color="1c75bc";}
if(strtolower($color)=="green"){$color="00a651";}
if(strtolower($color)=="white"){$color="fff";}
header('Content-Type: text/xml');
// echo xml tag just in case short_open_tags is enabled in PHP config
echo '<?xml version="1.0" encoding="UTF-8"?>';
?>
<!-- Generator: Adobe Illustrator 15.0.0, SVG Export Plug-In . SVG Version: 6.00 Build 0)  -->
<!DOCTYPE svg PUBLIC "-//W3C//DTD SVG 1.1//EN" "http://www.w3.org/Graphics/SVG/1.1/DTD/svg11.dtd">
<svg version="1.1" id="Layer_1" xmlns="http://www.w3.org/2000/svg" xmlns:xlink="http://www.w3.org/1999/xlink" x="0px" y="0px"
	 width="10.171px" height="10.178px" viewBox="0 0 10.171 10.178" enable-background="new 0 0 10.171 10.178" xml:space="preserve">
<g>
	<path fill="#<?php echo $color; ?>" d="M10.163,1.866V1.861C9.144,1.851,8.318,1.022,8.312,0H1.869v0.004H1.86C1.856,0.731,1.438,1.361,0.83,1.667
		c0,0,0,0,0,0.001H0.826C0.577,1.793,0.295,1.861,0,1.861c0.008,0.647,0.114,5.051,1.317,6.254c1.3,1.3,3.74,2.06,3.74,2.06
		l0.024-0.015l0.034,0.019c0,0,2.438-0.76,3.738-2.058c1.203-1.203,1.309-5.608,1.316-6.254H10.163z"/>
	<path fill="#FFFFFF" d="M2.838,7.312C2.667,6.17,4.017,5.145,4.017,5.145S3.494,5.998,3.445,6.568
		c-0.026,0.306,0.108,0.625,0.35,0.839C3.69,7.189,3.623,6.893,3.636,6.49C3.66,5.704,4.632,5.309,4.644,4.921
		c0.019-0.629-0.326-1.189-0.326-1.189s0.586,0.704,0.569,1.202C4.866,5.633,4.149,5.731,4.271,6.48
		c0.12,0.748,0.486,0.764,0.8,0.768c0.366,0.005,0.577-0.332,0.518-0.611C5.53,6.357,5.22,5.964,5.22,5.964s0.539,0.318,0.68,0.775
		c0.066-0.21,0.111-0.467,0.126-0.794C6.089,4.43,4.641,4.402,4.435,3.022c-0.148-0.986,0.85-2.521,0.85-2.521
		S4.729,1.696,4.916,2.938c0.115,0.77,2.136,1.322,2.37,2.88C7.592,7.853,6.714,8.637,6.045,8.94H4.004
		C3.365,8.633,2.947,8.03,2.838,7.312"/>
</g>
</svg>
