<?php
if(!isset($color) || $color=="" || strtolower($color)=="black"){$color="000";}
if(strtolower($color)=="red"){$color="ed1c24";}
if(strtolower($color)=="blue"){$color="1c75bc";}
if(strtolower($color)=="green"){$color="00a651";}
if(strtolower($color)=="white"){$color="fff";}
header('Content-Type: text/xml');
// echo xml tag just in case short_open_tags is enabled in PHP config
echo '<?xml version="1.0" encoding="UTF-8"?>';
?>
<!-- Generator: Adobe Illustrator 15.0.0, SVG Export Plug-In . SVG Version: 6.00 Build 0)  -->
<!DOCTYPE svg PUBLIC "-//W3C//DTD SVG 1.1//EN" "http://www.w3.org/Graphics/SVG/1.1/DTD/svg11.dtd">
<svg version="1.1" id="Layer_1" xmlns="http://www.w3.org/2000/svg" xmlns:xlink="http://www.w3.org/1999/xlink" x="0px" y="0px"
	 width="10.171px" height="10.178px" viewBox="0 0 10.171 10.178" enable-background="new 0 0 10.171 10.178" xml:space="preserve">
<g>
	<g>
		<g>
			<g>
				<path fill="#<?php echo $color; ?>" d="M10.164,1.865V1.86C9.144,1.851,8.318,1.022,8.312,0H1.869v0.004H1.86C1.856,0.73,1.438,1.36,0.831,1.667
					c0,0,0,0,0,0.001H0.826C0.578,1.792,0.295,1.86,0,1.86c0.008,0.646,0.114,5.051,1.317,6.254c1.3,1.299,3.741,2.061,3.741,2.061
					l0.025-0.016l0.033,0.019c0,0,2.438-0.76,3.739-2.059c1.204-1.202,1.309-5.608,1.316-6.254H10.164z"/>
			</g>
			<g>
				<path fill="#FFFFFF" d="M5.096,7.367H5.089C4.62,7.368,4.183,7.232,3.808,7.015l-0.275,0.48h0
					C3.995,7.766,4.526,7.926,5.09,7.928c0.565-0.002,1.088-0.162,1.553-0.432L6.368,7.015C5.996,7.23,5.563,7.367,5.096,7.367"/>
				<path fill="#FFFFFF" d="M5.09,8.506C4.415,8.507,3.785,8.312,3.245,7.997L2.976,8.464c0.621,0.359,1.339,0.569,2.111,0.569
					c0.77,0,1.489-0.21,2.112-0.569L6.932,7.997C6.392,8.312,5.769,8.506,5.097,8.506H5.09z"/>
				<path fill="#FFFFFF" d="M5.09,6.295c-0.274,0-0.528-0.081-0.749-0.209L4.098,6.511c0.001,0,0.002,0.001,0.003,0.002
					c0.294,0.173,0.631,0.274,0.989,0.274c0.358,0,0.69-0.101,0.988-0.274c0-0.001,0.001-0.001,0.002-0.002L5.836,6.086
					C5.616,6.214,5.362,6.295,5.09,6.295"/>
				<path fill="#FFFFFF" d="M6.645,2.104L6.365,2.583c0.001,0,0.001,0.001,0.001,0.001c0.766,0.438,1.288,1.262,1.29,2.214
					L8.216,4.8C8.215,3.644,7.58,2.642,6.645,2.104"/>
				<path fill="#FFFFFF" d="M8.795,4.802L8.795,4.802l0.518,0.004c0-1.563-0.854-2.926-2.114-3.657L6.935,1.602
					C8.041,2.236,8.795,3.428,8.795,4.802"/>
				<path fill="#FFFFFF" d="M6.591,4.792l0.484,0.002C7.073,4.061,6.673,3.428,6.078,3.085C6.077,3.084,6.076,3.084,6.076,3.084
					l-0.24,0.412C6.287,3.757,6.591,4.235,6.591,4.792"/>
				<path fill="#FFFFFF" d="M4.701,5.472c0.114,0.066,0.247,0.107,0.388,0.107c0.142,0,0.273-0.041,0.389-0.107
					c0.232-0.136,0.391-0.383,0.391-0.671c0-0.289-0.159-0.539-0.391-0.673C5.361,4.061,5.23,4.021,5.088,4.021
					c-0.141,0-0.273,0.04-0.388,0.107C4.468,4.262,4.309,4.512,4.309,4.801C4.309,5.089,4.468,5.336,4.701,5.472"/>
				<path fill="#FFFFFF" d="M3.807,2.584C3.808,2.583,3.81,2.583,3.81,2.583L3.532,2.104C2.598,2.642,1.96,3.644,1.959,4.801
					L2.52,4.798C2.521,3.846,3.045,3.021,3.807,2.584"/>
				<path fill="#FFFFFF" d="M3.24,1.604L2.976,1.148C1.712,1.88,0.86,3.243,0.86,4.806l0.521-0.003V4.802
					C1.381,3.427,2.137,2.236,3.24,1.604"/>
				<path fill="#FFFFFF" d="M4.341,3.496L4.102,3.085c0,0.001-0.001,0.001-0.002,0.001c-0.594,0.342-0.997,0.976-1,1.709
					l0.488-0.003C3.588,4.235,3.893,3.757,4.341,3.496"/>
			</g>
		</g>
	</g>
</g>
</svg>
