<?php
if(!isset($color) || $color=="" || strtolower($color)=="black"){$color="000";}
if(strtolower($color)=="red"){$color="ed1c24";}
if(strtolower($color)=="blue"){$color="1c75bc";}
if(strtolower($color)=="green"){$color="00a651";}
if(strtolower($color)=="white"){$color="fff";}
header('Content-Type: text/xml');
// echo xml tag just in case short_open_tags is enabled in PHP config
echo '<?xml version="1.0" encoding="UTF-8"?>';
?>
<!-- Generator: Adobe Illustrator 15.0.0, SVG Export Plug-In . SVG Version: 6.00 Build 0)  -->
<!DOCTYPE svg PUBLIC "-//W3C//DTD SVG 1.1//EN" "http://www.w3.org/Graphics/SVG/1.1/DTD/svg11.dtd">
<svg version="1.1" id="Layer_1" xmlns="http://www.w3.org/2000/svg" xmlns:xlink="http://www.w3.org/1999/xlink" x="0px" y="0px"
	 width="10.171px" height="10.18px" viewBox="0 0 10.171 10.18" enable-background="new 0 0 10.171 10.18" xml:space="preserve">
<g>
	<path fill="#<?php echo $color; ?>" d="M10.163,1.866V1.861C9.144,1.852,8.318,1.023,8.312,0H1.869v0.004H1.86C1.856,0.731,1.438,1.361,0.83,1.667
		c0,0,0,0,0,0.001H0.826C0.577,1.793,0.295,1.861,0,1.861c0.008,0.647,0.114,5.051,1.317,6.254c1.3,1.299,3.74,2.061,3.74,2.061
		l0.024-0.016l0.034,0.02c0,0,2.438-0.762,3.738-2.06c1.203-1.203,1.309-5.607,1.316-6.254H10.163z"/>
	<path fill="#FFFFFF" d="M5.086,1.746L3.695,2.608V1.935H2.643v1.326L1.747,3.815h0.857v3.46h2.899L4.627,5.497L4.009,5.843
		L4.074,5.95L3.727,6.156L3.085,5.072l0.348-0.206l0.063,0.109l1.646-0.974c0,0,0.545-0.359,1.329-0.096
		C7.123,4.126,7.202,4.62,7.202,4.62S6.767,4.291,6.358,4.266c-0.63-0.04-0.796,0.658-0.796,0.658L5.221,5.166l1.46,2.109h0.889
		v-3.46h0.855L5.086,1.746z"/>
</g>
</svg>
