<?php
if(!isset($color) || $color=="" || strtolower($color)=="black"){$color="000";}
if(strtolower($color)=="red"){$color="ed1c24";}
if(strtolower($color)=="blue"){$color="1c75bc";}
if(strtolower($color)=="green"){$color="00a651";}
if(strtolower($color)=="white"){$color="fff";}
header('Content-Type: text/xml');
// echo xml tag just in case short_open_tags is enabled in PHP config
echo '<?xml version="1.0" encoding="UTF-8"?>';
?>
<!-- Generator: Adobe Illustrator 15.0.0, SVG Export Plug-In . SVG Version: 6.00 Build 0)  -->
<!DOCTYPE svg PUBLIC "-//W3C//DTD SVG 1.1//EN" "http://www.w3.org/Graphics/SVG/1.1/DTD/svg11.dtd">
<svg version="1.1" id="Layer_1" xmlns="http://www.w3.org/2000/svg" xmlns:xlink="http://www.w3.org/1999/xlink" x="0px" y="0px"
	 width="10.171px" height="10.179px" viewBox="0 0 10.171 10.179" enable-background="new 0 0 10.171 10.179" xml:space="preserve">
<g>
	<path fill="#<?php echo $color; ?>" d="M10.163,1.865V1.859C9.144,1.851,8.318,1.021,8.312,0H1.869v0.004H1.86C1.856,0.73,1.438,1.359,0.83,1.667c0,0,0,0,0,0.001
		H0.826C0.577,1.792,0.295,1.859,0,1.859c0.008,0.647,0.114,5.053,1.317,6.255c1.3,1.3,3.74,2.061,3.74,2.061l0.024-0.016
		l0.034,0.02c0,0,2.438-0.761,3.738-2.059c1.203-1.203,1.309-5.609,1.316-6.255H10.163z"/>
	<path fill="#FFFFFF" d="M4.898,8.048c0,0-0.574,0.513-1.263,0.563C3.031,8.654,2.409,8.389,2.021,7.993
		c-0.356-0.366-0.658-0.964-0.636-1.55c0.026-0.682,0.47-1.245,0.47-1.245l3.946-3.836c0.35-0.295,0.801-0.474,1.295-0.474
		c1.11,0,2.011,0.901,2.011,2.011c0,0.451-0.148,0.868-0.4,1.204L4.898,8.048z M6.504,6.009c0,0,0.207-0.228,0.184-0.469
		c-0.041-0.455-0.4-1.097-0.848-1.513C5.385,3.603,4.929,3.38,4.503,3.317c-0.25-0.038-0.508,0.155-0.508,0.155L2.196,5.306
		c-0.298,0.317-0.479,0.74-0.479,1.208c0,0.974,0.788,1.762,1.761,1.762c0.497,0,0.946-0.206,1.268-0.537L6.504,6.009z"/>
</g>
</svg>
