<?php
if(!isset($color) || $color=="" || strtolower($color)=="black"){$color="000";}
if(strtolower($color)=="red"){$color="ed1c24";}
if(strtolower($color)=="blue"){$color="1c75bc";}
if(strtolower($color)=="green"){$color="00a651";}
if(strtolower($color)=="white"){$color="fff";}
header('Content-Type: text/xml');
// echo xml tag just in case short_open_tags is enabled in PHP config
echo '<?xml version="1.0" encoding="UTF-8"?>';
?>
<!-- Generator: Adobe Illustrator 15.0.0, SVG Export Plug-In . SVG Version: 6.00 Build 0)  -->
<!DOCTYPE svg PUBLIC "-//W3C//DTD SVG 1.1//EN" "http://www.w3.org/Graphics/SVG/1.1/DTD/svg11.dtd">
<svg version="1.1" id="Layer_1" xmlns="http://www.w3.org/2000/svg" xmlns:xlink="http://www.w3.org/1999/xlink" x="0px" y="0px"
	 width="10.171px" height="10.179px" viewBox="0 0 10.171 10.179" enable-background="new 0 0 10.171 10.179" xml:space="preserve">
<g>
	<g>
		<g>
			<g>
				<path fill="#<?php echo $color; ?>" d="M10.164,1.866V1.86C9.144,1.851,8.318,1.022,8.312,0H1.869v0.004H1.86C1.856,0.73,1.438,1.36,0.831,1.667
					c0,0,0,0,0,0.001H0.826C0.578,1.792,0.295,1.86,0,1.86c0.008,0.647,0.114,5.052,1.317,6.254c1.3,1.3,3.741,2.061,3.741,2.061
					l0.025-0.015l0.033,0.019c0,0,2.438-0.761,3.739-2.059c1.204-1.203,1.309-5.608,1.316-6.254H10.164z"/>
			</g>
			<g>
				<path fill="#FFFFFF" d="M5.086,0.985l-1.774,1.1v-0.86H1.969v1.692L0.831,3.622h1.091v4.412h6.33V3.622h1.091L5.086,0.985z
					 M5.086,2.331c0.47,0,0.908,0.128,1.286,0.347L5.541,4.126C5.406,4.049,5.252,3.999,5.085,3.999
					c-0.166,0-0.321,0.05-0.454,0.127L3.8,2.678C4.18,2.459,4.618,2.331,5.086,2.331 M3.8,7.133
					C3.032,6.687,2.513,5.857,2.513,4.906l1.658,0.008c0,0.339,0.186,0.631,0.46,0.791L3.8,7.133z M5.322,5.318
					c-0.07,0.041-0.15,0.066-0.236,0.066S4.919,5.359,4.849,5.318c-0.142-0.08-0.238-0.234-0.238-0.409
					c0-0.176,0.096-0.326,0.238-0.409c0.07-0.04,0.15-0.065,0.236-0.065S5.252,4.46,5.322,4.5c0.142,0.083,0.239,0.233,0.239,0.409
					C5.561,5.084,5.463,5.238,5.322,5.318 M6.372,7.133L5.541,5.705C5.814,5.545,6,5.253,6,4.914l1.661-0.008
					C7.661,5.857,7.142,6.687,6.372,7.133"/>
			</g>
		</g>
	</g>
</g>
</svg>
