<?php
if(!isset($color) || $color=="" || strtolower($color)=="black"){$color="000";}
if(strtolower($color)=="red"){$color="ed1c24";}
if(strtolower($color)=="blue"){$color="1c75bc";}
if(strtolower($color)=="green"){$color="00a651";}
if(strtolower($color)=="white"){$color="fff";}
header('Content-Type: text/xml');
// echo xml tag just in case short_open_tags is enabled in PHP config
echo '<?xml version="1.0" encoding="UTF-8"?>';
?>
<!-- Generator: Adobe Illustrator 15.0.0, SVG Export Plug-In . SVG Version: 6.00 Build 0)  -->
<!DOCTYPE svg PUBLIC "-//W3C//DTD SVG 1.1//EN" "http://www.w3.org/Graphics/SVG/1.1/DTD/svg11.dtd">
<svg version="1.1" id="Layer_1" xmlns="http://www.w3.org/2000/svg" xmlns:xlink="http://www.w3.org/1999/xlink" x="0px" y="0px"
	 width="10.171px" height="10.178px" viewBox="0 0 10.171 10.178" enable-background="new 0 0 10.171 10.178" xml:space="preserve">
<g>
	<g>
		<g>
			<g>
				<path fill="#<?php echo $color; ?>" d="M10.164,1.866V1.86C9.144,1.851,8.318,1.022,8.312,0H1.869v0.004H1.861C1.856,0.73,1.438,1.36,0.831,1.667
					c0,0,0,0,0,0.001H0.826C0.578,1.792,0.295,1.86,0,1.86c0.009,0.647,0.114,5.052,1.317,6.254c1.3,1.3,3.741,2.06,3.741,2.06
					l0.025-0.014l0.033,0.018c0,0,2.438-0.76,3.739-2.058c1.204-1.203,1.309-5.609,1.316-6.254H10.164z"/>
				<path fill="#FFFFFF" d="M5.086,1.283c1.01,0,1.88,1.171,2.285,2.393L6.645,4.558L5.513,4.302L5.167,4.991L3.655,3.697
					L3.508,4.319L2.751,3.744C3.131,2.434,4.033,1.283,5.086,1.283"/>
				<path fill="#FFFFFF" d="M5.086,8.901c-1.57,0-2.528-1.119-2.528-3.753c0-0.273,0.031-0.559,0.085-0.839l1.128,0.863l0.138-0.586
					l1.395,1.194l0.438-0.876l1.065,0.241l0.703-0.855C7.578,4.585,7.615,4.88,7.615,5.147C7.615,7.728,6.763,8.901,5.086,8.901"/>
			</g>
		</g>
	</g>
</g>
</svg>
