<?php
if(!isset($color) || $color=="" || strtolower($color)=="black"){$color="000";}
if(strtolower($color)=="red"){$color="ed1c24";}
if(strtolower($color)=="blue"){$color="1c75bc";}
if(strtolower($color)=="green"){$color="00a651";}
if(strtolower($color)=="white"){$color="fff";}
header('Content-Type: text/xml');
// echo xml tag just in case short_open_tags is enabled in PHP config
echo '<?xml version="1.0" encoding="UTF-8"?>';
?>
<!-- Generator: Adobe Illustrator 15.0.0, SVG Export Plug-In . SVG Version: 6.00 Build 0)  -->
<!DOCTYPE svg PUBLIC "-//W3C//DTD SVG 1.1//EN" "http://www.w3.org/Graphics/SVG/1.1/DTD/svg11.dtd">
<svg version="1.1" id="Layer_1" xmlns="http://www.w3.org/2000/svg" xmlns:xlink="http://www.w3.org/1999/xlink" x="0px" y="0px"
	 width="10.171px" height="10.18px" viewBox="0 0 10.171 10.18" enable-background="new 0 0 10.171 10.18" xml:space="preserve">
<g>
	<path fill="#<?php echo $color; ?>" d="M10.163,1.866V1.861C9.143,1.852,8.318,1.023,8.311,0H1.869v0.004H1.86C1.856,0.731,1.438,1.361,0.83,1.667
		c0,0,0,0,0,0.001H0.826C0.577,1.793,0.295,1.861,0,1.861c0.008,0.647,0.114,5.051,1.317,6.254c1.3,1.299,3.741,2.061,3.741,2.061
		l0.025-0.016l0.032,0.02c0,0,2.439-0.762,3.739-2.06c1.204-1.203,1.309-5.607,1.317-6.254H10.163z"/>
</g>
<polygon fill="#<?php echo $color; ?>" points="8.144,7.735 5.938,4.475 5.938,1.271 4.235,1.271 4.235,4.475 2.028,7.735 "/>
<g>
	<path fill="#FFFFFF" d="M2.028,7.902c-0.062,0-0.118-0.033-0.147-0.087C1.852,7.759,1.855,7.694,1.89,7.643l2.179-3.22V1.271
		c0-0.044,0.017-0.086,0.049-0.118c0.031-0.031,0.074-0.048,0.117-0.048h1.702c0.044,0,0.087,0.017,0.119,0.048
		c0.03,0.032,0.047,0.074,0.047,0.118v3.152l2.179,3.22L8.144,7.735V7.569v0.166l0.138-0.093c0.035,0.052,0.039,0.116,0.009,0.173
		C8.263,7.869,8.205,7.902,8.144,7.902H2.028z M4.402,4.474L4.373,4.567l-2.03,3.002H7.83L5.798,4.567L5.77,4.474V1.438H4.402V4.474
		z"/>
	<polygon fill="#FFFFFF" points="7.351,7.339 5.716,4.922 4.455,4.922 2.82,7.339 	"/>
	<path fill="#FFFFFF" d="M5.986,5.462c0,0.308-0.249,0.557-0.557,0.557S4.871,5.77,4.871,5.462s0.25-0.557,0.558-0.557
		S5.986,5.154,5.986,5.462"/>
	<path fill="#<?php echo $color; ?>" d="M4.787,5.462c0-0.354,0.287-0.641,0.641-0.641s0.64,0.286,0.641,0.641c0,0.353-0.287,0.641-0.641,0.641
		S4.787,5.814,4.787,5.462 M4.954,5.462c0,0.26,0.212,0.473,0.474,0.474C5.69,5.935,5.901,5.722,5.902,5.462
		c0-0.262-0.212-0.475-0.474-0.475C5.167,4.988,4.954,5.2,4.954,5.462"/>
	<path fill="#FFFFFF" d="M5.172,6.276c0,0.307-0.25,0.557-0.558,0.557c-0.307,0-0.557-0.25-0.557-0.557
		c0-0.309,0.25-0.559,0.557-0.559C4.922,5.718,5.172,5.968,5.172,6.276"/>
	<path fill="#<?php echo $color; ?>" d="M3.975,6.276c0-0.354,0.286-0.641,0.64-0.641s0.641,0.286,0.641,0.641c0,0.353-0.287,0.639-0.641,0.639
		S3.975,6.629,3.975,6.276 M4.141,6.276c0.001,0.26,0.213,0.473,0.474,0.473c0.262,0,0.474-0.213,0.474-0.473
		c0-0.262-0.212-0.475-0.474-0.475C4.354,5.802,4.142,6.015,4.141,6.276"/>
	<path fill="#FFFFFF" d="M6.308,6.58c0,0.308-0.25,0.558-0.557,0.558c-0.308,0-0.558-0.25-0.558-0.558
		c0-0.309,0.25-0.558,0.558-0.558C6.058,6.022,6.308,6.271,6.308,6.58"/>
	<path fill="#<?php echo $color; ?>" d="M5.11,6.58c0-0.354,0.287-0.642,0.641-0.642c0.353,0,0.639,0.287,0.639,0.642c0,0.354-0.286,0.641-0.639,0.641
		C5.397,7.221,5.11,6.934,5.11,6.58 M5.276,6.58c0.001,0.261,0.212,0.473,0.475,0.474C6.012,7.053,6.224,6.841,6.224,6.58
		c0-0.263-0.212-0.474-0.473-0.475C5.488,6.106,5.277,6.317,5.276,6.58"/>
</g>
</svg>
