<?php
if(!isset($color) || $color=="" || strtolower($color)=="black"){$color="000";}
if(strtolower($color)=="red"){$color="ed1c24";}
if(strtolower($color)=="blue"){$color="1c75bc";}
if(strtolower($color)=="green"){$color="00a651";}
if(strtolower($color)=="white"){$color="fff";}
header('Content-Type: text/xml');
// echo xml tag just in case short_open_tags is enabled in PHP config
echo '<?xml version="1.0" encoding="UTF-8"?>';
?>
<!-- Generator: Adobe Illustrator 15.0.0, SVG Export Plug-In . SVG Version: 6.00 Build 0)  -->
<!DOCTYPE svg PUBLIC "-//W3C//DTD SVG 1.1//EN" "http://www.w3.org/Graphics/SVG/1.1/DTD/svg11.dtd">
<svg version="1.1" id="Layer_1" xmlns="http://www.w3.org/2000/svg" xmlns:xlink="http://www.w3.org/1999/xlink" x="0px" y="0px"
	 width="10.171px" height="10.178px" viewBox="0 0 10.171 10.178" enable-background="new 0 0 10.171 10.178" xml:space="preserve">
<g>
	<path fill="#<?php echo $color; ?>" d="M10.163,1.866V1.861C9.143,1.851,8.317,1.022,8.311,0H1.868v0.004H1.86C1.856,0.731,1.437,1.361,0.83,1.667
		c0,0,0,0,0,0.001H0.825C0.577,1.793,0.295,1.861,0,1.861c0.008,0.647,0.114,5.051,1.317,6.254c1.299,1.3,3.741,2.06,3.741,2.06
		l0.024-0.015l0.033,0.019c0,0,2.439-0.76,3.739-2.059c1.204-1.203,1.309-5.608,1.317-6.254H10.163z"/>
	<path fill="#<?php echo $color; ?>" d="M5.862,3.136c-0.243-0.103-0.51-0.159-0.789-0.159c-0.259,0-0.506,0.048-0.733,0.137l0.78,1.34L5.862,3.136z"/>
	<path fill="#<?php echo $color; ?>" d="M3.803,3.424C3.397,3.751,3.121,4.229,3.059,4.773h1.514L3.803,3.424z"/>
	<path fill="#<?php echo $color; ?>" d="M4.417,6.923c0.206,0.07,0.426,0.108,0.656,0.108c0.261,0,0.51-0.049,0.74-0.139L5.12,5.719L4.417,6.923z"/>
	<path fill="#<?php echo $color; ?>" d="M3.084,5.396c0.098,0.5,0.379,0.934,0.771,1.229l0.719-1.229H3.084z"/>
	<path fill="#<?php echo $color; ?>" d="M8.87,3.298L5.073,0.946L3.282,2.054V1.187H1.925v1.709L1.276,3.298L0.775,3.609h1.103v4.454h6.39V3.609h1.103L8.87,3.298z
		 M5.073,7.645c-1.459,0-2.641-1.182-2.641-2.641s1.182-2.64,2.641-2.64c1.458,0,2.641,1.181,2.641,2.64S6.531,7.645,5.073,7.645"/>
	<path fill="#<?php echo $color; ?>" d="M5.644,4.758h1.442c-0.061-0.51-0.313-0.962-0.681-1.283L5.644,4.758z"/>
	<path fill="#<?php echo $color; ?>" d="M6.339,6.588C6.705,6.295,6.968,5.877,7.062,5.4H5.644L6.339,6.588z"/>
	<path fill="#FFFFFF" d="M5.862,3.136c-0.243-0.103-0.51-0.159-0.789-0.159c-0.259,0-0.506,0.048-0.733,0.137l0.78,1.34L5.862,3.136
		z"/>
	<path fill="#FFFFFF" d="M3.803,3.424C3.397,3.751,3.121,4.229,3.059,4.773h1.514L3.803,3.424z"/>
	<path fill="#FFFFFF" d="M4.417,6.923c0.206,0.07,0.426,0.108,0.656,0.108c0.261,0,0.51-0.049,0.74-0.139L5.12,5.719L4.417,6.923z"
		/>
	<path fill="#FFFFFF" d="M3.084,5.396c0.098,0.5,0.379,0.934,0.771,1.229l0.719-1.229H3.084z"/>
	<path fill="#FFFFFF" d="M8.87,3.298L5.073,0.946L3.282,2.054V1.187H1.925v1.709L1.276,3.298L0.775,3.609h1.103v4.454h6.39V3.609
		h1.103L8.87,3.298z M5.073,7.645c-1.459,0-2.641-1.182-2.641-2.641s1.182-2.64,2.641-2.64c1.458,0,2.641,1.181,2.641,2.64
		S6.531,7.645,5.073,7.645"/>
	<path fill="#FFFFFF" d="M5.644,4.758h1.442c-0.061-0.51-0.313-0.962-0.681-1.283L5.644,4.758z"/>
	<path fill="#FFFFFF" d="M6.339,6.588C6.705,6.295,6.968,5.877,7.062,5.4H5.644L6.339,6.588z"/>
</g>
</svg>
