<?php
if(!isset($color) || $color=="" || strtolower($color)=="black"){$color="000";}
if(strtolower($color)=="red"){$color="ed1c24";}
if(strtolower($color)=="blue"){$color="1c75bc";}
if(strtolower($color)=="green"){$color="00a651";}
if(strtolower($color)=="white"){$color="fff";}
header('Content-Type: text/xml');
// echo xml tag just in case short_open_tags is enabled in PHP config
echo '<?xml version="1.0" encoding="UTF-8"?>';
?>
<!-- Generator: Adobe Illustrator 15.0.0, SVG Export Plug-In . SVG Version: 6.00 Build 0)  -->
<!DOCTYPE svg PUBLIC "-//W3C//DTD SVG 1.1//EN" "http://www.w3.org/Graphics/SVG/1.1/DTD/svg11.dtd">
<svg version="1.1" id="Layer_1" xmlns="http://www.w3.org/2000/svg" xmlns:xlink="http://www.w3.org/1999/xlink" x="0px" y="0px"
	 width="10.171px" height="10.179px" viewBox="0 0 10.171 10.179" enable-background="new 0 0 10.171 10.179" xml:space="preserve">
<g>
	<path fill="#<?php echo $color; ?>" d="M10.163,1.866V1.861C9.144,1.851,8.318,1.023,8.312,0H1.869v0.004H1.86C1.856,0.731,1.438,1.361,0.83,1.667
		c0,0,0,0,0,0.001H0.826C0.577,1.793,0.295,1.861,0,1.861c0.008,0.647,0.114,5.051,1.317,6.254c1.3,1.299,3.74,2.061,3.74,2.061
		l0.024-0.016l0.034,0.02c0,0,2.438-0.762,3.738-2.06c1.203-1.203,1.309-5.608,1.316-6.254H10.163z"/>
</g>
<polygon fill="#FFFFFF" points="8.87,3.298 5.073,0.946 3.283,2.055 3.283,1.188 1.926,1.188 1.926,2.896 1.277,3.298 0.776,3.609 
	1.878,3.609 1.878,8.062 8.269,8.062 8.269,3.609 9.371,3.609 "/>
<g>
	<path fill="#<?php echo $color; ?>" d="M7.921,5.101c0,1.571-1.273,2.844-2.844,2.844S2.232,6.672,2.232,5.101c0-1.57,1.274-2.844,2.845-2.844
		S7.921,3.531,7.921,5.101"/>
	<path fill="#FFFFFF" d="M6.464,4.149C5.909,5.227,5.077,5.101,5.077,5.101S5.91,4.807,6.05,4.071
		c0.211-1.11-0.113-1.813-0.113-1.813l0.738,0.243C6.675,2.501,6.831,3.435,6.464,4.149"/>
	<path fill="#FFFFFF" d="M7.667,3.735c0,0-0.406,0.922-1.141,1.32C5.675,5.517,5.077,5.101,5.077,5.101S5.433,5.673,6.417,5.5
		c0.984-0.171,1.617-1.086,1.617-1.086L7.667,3.735z"/>
	<path fill="#FFFFFF" d="M5.769,6.391c-0.847-0.499-0.691-1.29-0.691-1.29S5.072,5.805,6.214,6.149
		c0.784,0.236,1.694-0.172,1.694-0.172L7.644,6.743C7.644,6.743,6.604,6.883,5.769,6.391"/>
	<path fill="#FFFFFF" d="M6.456,7.797c0,0-1.228-0.642-1.438-1.219C4.581,5.43,5.077,5.1,5.077,5.1S4.526,5.211,4.596,6.484
		c0.04,0.71,0.978,1.492,0.978,1.492L6.456,7.797z"/>
	<path fill="#FFFFFF" d="M4.097,7.993c0,0-0.368-1.196-0.148-1.852c0.337-1,1.129-1.039,1.129-1.039S4.237,4.891,3.62,5.883
		C3.149,6.641,3.354,7.781,3.354,7.781L4.097,7.993z"/>
	<path fill="#FFFFFF" d="M2.3,6.461c0,0,0.609-1.281,1.422-1.523C4.534,4.695,5.05,5.047,5.05,5.047S4.717,4.432,3.636,4.602
		C2.792,4.734,2.05,5.625,2.05,5.625L2.3,6.461z"/>
	<path fill="#FFFFFF" d="M2.378,3.399c0,0,0.941-0.139,1.617,0.18C5.222,4.157,5.05,5.047,5.05,5.047s-0.117-0.64-0.914-0.992
		C3.339,3.704,2.238,4.102,2.238,4.102L2.378,3.399z"/>
	<path fill="#FFFFFF" d="M4.37,2.079c0,0,0.906,0.688,1.047,1.375c0.32,1.219-0.34,1.647-0.34,1.647s0.426-0.78-0.004-1.475
		C4.644,2.93,3.604,2.359,3.604,2.359C3.597,2.367,4.37,2.079,4.37,2.079"/>
	<circle fill="none" stroke="#FFFFFF" stroke-width="0.375" cx="5.073" cy="5.125" r="2.313"/>
</g>
</svg>
