<?php
if(!isset($color) || $color=="" || strtolower($color)=="black"){$color="000";}
if(strtolower($color)=="red"){$color="ed1c24";}
if(strtolower($color)=="blue"){$color="1c75bc";}
if(strtolower($color)=="green"){$color="00a651";}
if(strtolower($color)=="white"){$color="fff";}
header('Content-Type: text/xml');
// echo xml tag just in case short_open_tags is enabled in PHP config
echo '<?xml version="1.0" encoding="UTF-8"?>';
?>
<!-- Generator: Adobe Illustrator 15.0.0, SVG Export Plug-In . SVG Version: 6.00 Build 0)  -->
<!DOCTYPE svg PUBLIC "-//W3C//DTD SVG 1.1//EN" "http://www.w3.org/Graphics/SVG/1.1/DTD/svg11.dtd">
<svg version="1.1" id="Layer_1" xmlns="http://www.w3.org/2000/svg" xmlns:xlink="http://www.w3.org/1999/xlink" x="0px" y="0px"
	 width="10.171px" height="10.179px" viewBox="0 0 10.171 10.179" enable-background="new 0 0 10.171 10.179" xml:space="preserve">
<g>
	<path fill="#<?php echo $color; ?>" d="M10.163,1.866V1.86C9.144,1.851,8.318,1.022,8.312,0H1.869v0.004H1.86C1.856,0.73,1.438,1.36,0.83,1.667c0,0,0,0,0,0.001
		H0.826C0.577,1.792,0.295,1.86,0,1.86c0.008,0.647,0.114,5.052,1.317,6.255c1.3,1.299,3.74,2.06,3.74,2.06l0.024-0.015l0.034,0.019
		c0,0,2.438-0.761,3.738-2.059c1.203-1.203,1.309-5.608,1.316-6.254H10.163z"/>
	<polygon fill="#FFFFFF" points="5.22,3.084 5.678,4.411 8.598,3.437 8.598,4.776 4.9,6.013 4.441,4.686 1.574,5.678 1.574,4.347 	
		"/>
</g>
</svg>
