<?php
if(!isset($color) || $color=="" || strtolower($color)=="black"){$color="000";}
if(strtolower($color)=="red"){$color="ed1c24";}
if(strtolower($color)=="blue"){$color="1c75bc";}
if(strtolower($color)=="green"){$color="00a651";}
if(strtolower($color)=="white"){$color="fff";}
header('Content-Type: text/xml');
// echo xml tag just in case short_open_tags is enabled in PHP config
echo '<?xml version="1.0" encoding="UTF-8"?>';
?>
<!-- Generator: Adobe Illustrator 15.0.0, SVG Export Plug-In . SVG Version: 6.00 Build 0)  -->
<!DOCTYPE svg PUBLIC "-//W3C//DTD SVG 1.1//EN" "http://www.w3.org/Graphics/SVG/1.1/DTD/svg11.dtd">
<svg version="1.1" id="Layer_1" xmlns="http://www.w3.org/2000/svg" xmlns:xlink="http://www.w3.org/1999/xlink" x="0px" y="0px"
	 width="10.171px" height="10.179px" viewBox="0 0 10.171 10.179" enable-background="new 0 0 10.171 10.179" xml:space="preserve">
<g>
	<path fill="#<?php echo $color; ?>" d="M10.163,1.865V1.86C9.144,1.851,8.318,1.022,8.312,0H1.869v0.004H1.86C1.856,0.73,1.438,1.36,0.83,1.667c0,0,0,0,0,0.001
		H0.826C0.577,1.792,0.295,1.86,0,1.86c0.009,0.647,0.114,5.051,1.317,6.254c1.299,1.3,3.741,2.061,3.741,2.061l0.023-0.016
		l0.034,0.02c0,0,2.438-0.761,3.738-2.06c1.204-1.202,1.309-5.607,1.316-6.254H10.163z"/>
</g>
<polygon fill="#FFFFFF" points="5.086,0.792 6.216,2.778 3.956,2.778 "/>
<polygon fill="#FFFFFF" points="3.458,3.653 6.715,3.653 7.521,5.064 2.653,5.064 "/>
<polygon fill="#FFFFFF" points="2.153,5.941 8.019,5.941 8.822,7.353 1.351,7.353 "/>
</svg>
