<?php
if(!isset($color) || $color=="" || strtolower($color)=="black"){$color="000";}
if(strtolower($color)=="red"){$color="ed1c24";}
if(strtolower($color)=="blue"){$color="1c75bc";}
if(strtolower($color)=="green"){$color="00a651";}
if(strtolower($color)=="white"){$color="fff";}
header('Content-Type: text/xml');
// echo xml tag just in case short_open_tags is enabled in PHP config
echo '<?xml version="1.0" encoding="UTF-8"?>';
?>
<!-- Generator: Adobe Illustrator 15.0.0, SVG Export Plug-In . SVG Version: 6.00 Build 0)  -->
<!DOCTYPE svg PUBLIC "-//W3C//DTD SVG 1.1//EN" "http://www.w3.org/Graphics/SVG/1.1/DTD/svg11.dtd">
<svg version="1.1" id="Layer_1" xmlns="http://www.w3.org/2000/svg" xmlns:xlink="http://www.w3.org/1999/xlink" x="0px" y="0px"
	 width="10.172px" height="10.179px" viewBox="0 0 10.172 10.179" enable-background="new 0 0 10.172 10.179" xml:space="preserve">
<g>
	<path fill="#<?php echo $color; ?>" d="M10.164,1.866V1.861C9.144,1.851,8.318,1.022,8.312,0H1.869v0.004H1.861c-0.004,0.727-0.423,1.357-1.03,1.663
		c0,0-0.001,0-0.001,0.001H0.826C0.578,1.793,0.296,1.861,0,1.861c0.009,0.647,0.114,5.051,1.317,6.253
		c1.3,1.299,3.741,2.061,3.741,2.061l0.025-0.016l0.033,0.02c0,0,2.438-0.761,3.739-2.059c1.204-1.203,1.309-5.608,1.317-6.254
		H10.164z"/>
	<path fill="#FFFFFF" d="M5.035,2.201L4.323,4.919L2.558,7.583L1.958,7.116L3.05,5.404L1.69,6.936L1.167,6.474l1.618-2.109
		l0.187-0.516L2.5,4.107L2.175,3.615l1.031-0.664l0.047-0.172L1.417,3.583l-0.25-0.569L3.41,2.013
		C3.227,1.875,3.105,1.657,3.105,1.41c0-0.418,0.338-0.756,0.755-0.756c0.416,0,0.755,0.338,0.755,0.756
		c0,0.253-0.126,0.476-0.317,0.613L5.035,2.201z M5.433,2.047L4.761,5.031L3.537,6.915L3.62,7.271l0.617-0.992l0.798,1.39
		l0.366-1.086l1.86,0.883L6.237,5.771l2.93-0.828L6.628,3.935L8.05,2.521l-1.844,0.25l0.329-0.828L5.636,2.357L5.433,2.047z"/>
</g>
</svg>
