<?php
if(!isset($color) || $color=="" || strtolower($color)=="black"){$color="000";}
if(strtolower($color)=="red"){$color="ed1c24";}
if(strtolower($color)=="blue"){$color="1c75bc";}
if(strtolower($color)=="green"){$color="00a651";}
if(strtolower($color)=="white"){$color="fff";}
header('Content-Type: text/xml');
// echo xml tag just in case short_open_tags is enabled in PHP config
echo '<?xml version="1.0" encoding="UTF-8"?>';
?>
<!-- Generator: Adobe Illustrator 15.0.0, SVG Export Plug-In . SVG Version: 6.00 Build 0)  -->
<!DOCTYPE svg PUBLIC "-//W3C//DTD SVG 1.1//EN" "http://www.w3.org/Graphics/SVG/1.1/DTD/svg11.dtd">
<svg version="1.1" id="Layer_1" xmlns="http://www.w3.org/2000/svg" xmlns:xlink="http://www.w3.org/1999/xlink" x="0px" y="0px"
	 width="11.331px" height="10.778px" viewBox="0 0 11.331 10.778" enable-background="new 0 0 11.331 10.778" xml:space="preserve">
<polygon fill="#<?php echo $color; ?>" points="5.666,9.624 2.166,10.778 2.181,7.091 0,4.117 3.512,2.991 5.666,0 7.821,2.991 11.331,4.117 9.153,7.091 
	9.167,10.778 "/>
<g>
	<path fill="#FFFFFF" d="M8.043,3.589C7.931,3.4,7.869,3.408,7.826,3.416c-0.02,0.005-0.035,0.008-0.05-0.003
		c-0.041,0-0.082,0.003-0.123,0.013C7.62,3.454,7.546,3.396,7.461,3.603c-0.13,0.791-0.668,1.038-0.7,1.741c0,0.005,0,0.007,0,0.01
		C6.478,4.888,6.19,4.365,6.062,3.607C5.944,3.402,5.36,3.413,5.27,3.632C5.139,4.38,4.851,4.898,4.569,5.359
		c0-0.005,0.001-0.009,0.001-0.016c-0.032-0.707-0.573-0.95-0.701-1.755C3.757,3.4,3.696,3.408,3.653,3.416
		C3.634,3.421,3.618,3.424,3.604,3.413c-0.042,0-0.082,0.003-0.124,0.013c-0.034,0.028-0.107-0.03-0.192,0.177
		c-0.13,0.791-0.668,1.038-0.7,1.741C2.59,6.01,3.058,6.383,3.579,6.385C3.75,6.384,3.913,6.34,4.056,6.262
		C3.943,6.522,3.866,6.798,3.858,7.12c0.002,1.255,0.835,1.906,1.81,1.907c0.97-0.001,1.804-0.652,1.806-1.907
		C7.465,6.798,7.388,6.522,7.275,6.263C7.42,6.341,7.582,6.384,7.753,6.385c0.52-0.002,0.99-0.375,0.99-1.041
		C8.711,4.637,8.171,4.394,8.043,3.589 M3.579,6.002C3.218,5.984,2.987,5.836,2.97,5.344C2.943,4.985,3.351,4.691,3.58,3.99
		c0.227,0.7,0.637,0.995,0.608,1.354C4.172,5.836,3.941,5.984,3.579,6.002 M5.668,8.646C4.853,8.628,4.256,8.201,4.239,7.12
		c-0.03-0.96,1.013-1.571,1.387-3.321c0.025-0.003,0.056-0.005,0.083-0.004C6.079,5.547,7.123,6.16,7.091,7.12
		C7.075,8.201,6.478,8.628,5.668,8.646 M7.753,6.002C7.39,5.984,7.159,5.836,7.143,5.344c-0.027-0.358,0.38-0.652,0.61-1.354
		c0.227,0.7,0.636,0.995,0.608,1.354C8.345,5.836,8.114,5.984,7.753,6.002"/>
</g>
</svg>
