<?php
if(!isset($color) || $color=="" || strtolower($color)=="black"){$color="000";}
if(strtolower($color)=="red"){$color="ed1c24";}
if(strtolower($color)=="blue"){$color="1c75bc";}
if(strtolower($color)=="green"){$color="00a651";}
if(strtolower($color)=="white"){$color="fff";}
header('Content-Type: text/xml');
// echo xml tag just in case short_open_tags is enabled in PHP config
echo '<?xml version="1.0" encoding="UTF-8"?>';
?>
<!-- Generator: Adobe Illustrator 15.0.0, SVG Export Plug-In . SVG Version: 6.00 Build 0)  -->
<!DOCTYPE svg PUBLIC "-//W3C//DTD SVG 1.1//EN" "http://www.w3.org/Graphics/SVG/1.1/DTD/svg11.dtd">
<svg version="1.1" id="Layer_1" xmlns="http://www.w3.org/2000/svg" xmlns:xlink="http://www.w3.org/1999/xlink" x="0px" y="0px"
	 width="10.691px" height="10.689px" viewBox="0 0 10.691 10.689" enable-background="new 0 0 10.691 10.689" xml:space="preserve">
<g>
	<path fill="#<?php echo $color; ?>" d="M10.268,5.345c0-1.031-0.32-1.988-0.86-2.777L10.691,0L8.125,1.283c-0.794-0.542-1.749-0.859-2.78-0.859
		c-1.032,0-1.986,0.317-2.779,0.859L0,0l1.284,2.568C0.742,3.357,0.423,4.314,0.423,5.345c0,1.029,0.319,1.989,0.861,2.779L0,10.689
		l2.566-1.283c0.793,0.543,1.747,0.859,2.779,0.859c1.031,0,1.986-0.316,2.78-0.859l2.566,1.283L9.408,8.124
		C9.948,7.334,10.268,6.374,10.268,5.345"/>
	<path fill="#FFFFFF"  d="M9.013,3.872C7.699,3.47,6.306,3.282,4.931,3.327C4.592,3.338,1.433,3.688,1.513,3.972
		c0.312,1.132,0.626,2.264,0.941,3.396c1.914-0.605,3.86-0.613,5.774,0.001c0.172-0.621,0.344-1.241,0.516-1.862
		c0.109-0.392,0.216-0.78,0.324-1.17C9.101,4.22,9.131,4.104,9.165,3.988C9.194,3.882,9.118,3.904,9.013,3.872 M5.34,3.687
		c0.829,0,1.655,0.087,2.464,0.258C5.911,4.397,4.117,5.303,2.598,6.52C2.417,5.863,2.233,5.207,2.051,4.55
		C2.021,4.437,1.989,4.324,1.958,4.21C1.931,4.114,2.589,4,2.7,3.976C3.567,3.782,4.454,3.687,5.34,3.687"/>
</g>
</svg>
