<?php
if(!isset($color) || $color=="" || strtolower($color)=="black"){$color="000";}
if(strtolower($color)=="red"){$color="ed1c24";}
if(strtolower($color)=="blue"){$color="1c75bc";}
if(strtolower($color)=="green"){$color="00a651";}
if(strtolower($color)=="white"){$color="fff";}
header('Content-Type: text/xml');
// echo xml tag just in case short_open_tags is enabled in PHP config
echo '<?xml version="1.0" encoding="UTF-8"?>';
?>
<!-- Generator: Adobe Illustrator 15.0.0, SVG Export Plug-In . SVG Version: 6.00 Build 0)  -->
<!DOCTYPE svg PUBLIC "-//W3C//DTD SVG 1.1//EN" "http://www.w3.org/Graphics/SVG/1.1/DTD/svg11.dtd">
<svg version="1.1" id="Layer_1" xmlns="http://www.w3.org/2000/svg" xmlns:xlink="http://www.w3.org/1999/xlink" x="0px" y="0px"
	 width="10.894px" height="10.872px" viewBox="0 0 10.894 10.872" enable-background="new 0 0 10.894 10.872" xml:space="preserve">
<polygon fill="#<?php echo $color; ?>" points="0.021,10.872 1.381,8.828 0,6.711 1.381,5.436 0.021,1.36 3.417,2.717 5.457,0 7.497,2.717 10.894,1.36 
	9.533,5.436 10.894,6.793 9.533,8.828 10.894,10.872 "/>
<g>
	<path fill="#FFFFFF"  d="M8.32,5.557C8.107,5.87,7.761,6.074,7.368,6.074c-0.04,0-0.08-0.001-0.121-0.006
		C7.172,6.209,7.072,6.334,6.951,6.432C6.942,6.729,6.959,7.514,7.287,8.06c0.414,0.686,0.826,1.158,0.826,1.158
		s0.166,0.205,0,0.205c-0.165,0-0.495,0-0.703-0.205C6.732,8.541,6.46,7.646,6.46,7.646S6.212,7.785,6.377,8.095l0.165,0.309
		c0,0,0.745,0.927,1.034,1.131c0.289,0.207,0.414,0.551,0.414,0.551H2.946c0,0,0.125-0.344,0.414-0.551
		C3.65,9.33,4.394,8.403,4.394,8.403l0.166-0.309c0.165-0.31-0.083-0.448-0.083-0.448s-0.273,0.895-0.95,1.571
		C3.319,9.423,2.989,9.423,2.823,9.423c-0.165,0,0-0.205,0-0.205S3.236,8.745,3.65,8.06c0.317-0.525,0.342-1.273,0.336-1.593
		C3.848,6.361,3.731,6.229,3.647,6.068C3.608,6.073,3.568,6.074,3.526,6.074c-0.393,0-0.739-0.204-0.951-0.517
		C2.16,5.354,1.913,5.105,1.913,4.836s0.247-0.518,0.662-0.72c0.212-0.315,0.558-0.521,0.951-0.521c0.138,0,0.271,0.026,0.393,0.073
		c0.212-0.224,0.504-0.362,0.827-0.362c0.008,0,0.017,0.002,0.024,0.002c0.155-0.079,0.328-0.127,0.51-0.127
		c0.057,0,0.113,0.008,0.167,0.015c0.055-0.007,0.111-0.015,0.167-0.015c0.182,0,0.356,0.048,0.509,0.127
		c0.011,0,0.017-0.002,0.026-0.002c0.322,0,0.615,0.138,0.826,0.362c0.124-0.047,0.254-0.073,0.393-0.073
		c0.393,0,0.739,0.206,0.952,0.521c0.413,0.202,0.661,0.451,0.661,0.72S8.733,5.354,8.32,5.557"/>
</g>
</svg>
