<?php
if(!isset($color) || $color=="" || strtolower($color)=="black"){$color="000";}
if(strtolower($color)=="red"){$color="ed1c24";}
if(strtolower($color)=="blue"){$color="1c75bc";}
if(strtolower($color)=="green"){$color="00a651";}
if(strtolower($color)=="white"){$color="fff";}
header('Content-Type: text/xml');
// echo xml tag just in case short_open_tags is enabled in PHP config
echo '<?xml version="1.0" encoding="UTF-8"?>';
?>
<!-- Generator: Adobe Illustrator 15.0.0, SVG Export Plug-In . SVG Version: 6.00 Build 0)  -->
<!DOCTYPE svg PUBLIC "-//W3C//DTD SVG 1.1//EN" "http://www.w3.org/Graphics/SVG/1.1/DTD/svg11.dtd">
<svg version="1.1" id="Layer_1" xmlns="http://www.w3.org/2000/svg" xmlns:xlink="http://www.w3.org/1999/xlink" x="0px" y="0px"
	 width="10.691px" height="10.689px" viewBox="0 0 10.691 10.689" enable-background="new 0 0 10.691 10.689" xml:space="preserve">
<g>
	<path fill="#<?php echo $color; ?>" d="M10.268,5.345c0-1.031-0.32-1.988-0.86-2.776L10.691,0L8.125,1.283c-0.794-0.542-1.749-0.859-2.78-0.859
		c-1.032,0-1.986,0.317-2.779,0.859L0,0l1.284,2.568C0.742,3.356,0.423,4.313,0.423,5.345c0,1.029,0.319,1.989,0.861,2.779L0,10.689
		l2.566-1.283c0.793,0.543,1.747,0.859,2.779,0.859c1.031,0,1.986-0.316,2.78-0.859l2.566,1.283L9.408,8.124
		C9.948,7.334,10.268,6.374,10.268,5.345"/>
	<path fill="#FFFFFF"  d="M8.129,4.406C8.125,4.405,7.696,4.265,7.595,4.002c-0.186-0.485,0.032-0.461,0-0.777
		C7.556,2.839,6.914,2.797,6.914,2.797s0.205,0.207,0.205,0.396c0,0.242-0.205,0.267-0.292,0.533
		c-0.068,0.205-0.002,0.49,0.038,0.63C6.729,4.294,6.52,4.174,6.455,4.002c-0.187-0.485,0.032-0.461,0-0.777
		c-0.041-0.386-0.68-0.428-0.68-0.428s0.204,0.207,0.204,0.396c0,0.242-0.204,0.267-0.294,0.533C5.614,3.943,5.691,4.249,5.73,4.377
		C5.602,4.323,5.347,4.196,5.273,4.002c-0.186-0.485,0.033-0.461,0-0.777c-0.04-0.386-0.68-0.428-0.68-0.428
		s0.205,0.207,0.205,0.396c0,0.242-0.205,0.267-0.294,0.533C4.444,3.908,4.489,4.15,4.528,4.301
		c-0.12-0.069-0.252-0.169-0.301-0.299c-0.186-0.485,0.032-0.461,0-0.777c-0.041-0.386-0.68-0.428-0.68-0.428
		s0.205,0.207,0.205,0.396c0,0.242-0.205,0.267-0.294,0.533C3.396,3.913,3.446,4.165,3.485,4.313
		C3.358,4.246,3.212,4.142,3.159,4.002c-0.186-0.485,0.033-0.461,0-0.777c-0.04-0.386-0.68-0.428-0.68-0.428
		s0.204,0.207,0.204,0.396c0,0.242-0.204,0.267-0.293,0.533C2.298,4.004,2.36,4.43,2.361,4.437v3.44h5.768V4.406z M6.735,4.917
		c0.433,0,0.783,0.35,0.783,0.782s-0.35,0.782-0.783,0.782s-0.782-0.35-0.782-0.782S6.302,4.917,6.735,4.917 M3.86,4.917
		c0.431,0,0.782,0.35,0.782,0.782S4.292,6.481,3.86,6.481c-0.433,0-0.783-0.35-0.783-0.782S3.427,4.917,3.86,4.917 M7.9,6.847H6.705
		l-0.14,0.814H4.108L3.926,6.805h-1.28v-1.25h0.236c0,0.022-0.097,1.056,0.972,1.116c0.545,0.031,0.903-0.422,0.97-0.764
		c0.035-0.179,0-0.353,0-0.353h0.941c0,0-0.054,0.218,0.041,0.479c0.11,0.295,0.397,0.639,0.959,0.639
		c0.504,0,0.849-0.387,0.929-0.711c0.052-0.209,0-0.407,0-0.407H7.9V6.847z"/>
</g>
</svg>
