<?php
if(!isset($color) || $color=="" || strtolower($color)=="black"){$color="000";}
if(strtolower($color)=="red"){$color="ed1c24";}
if(strtolower($color)=="blue"){$color="1c75bc";}
if(strtolower($color)=="green"){$color="00a651";}
if(strtolower($color)=="white"){$color="fff";}
header('Content-Type: text/xml');
// echo xml tag just in case short_open_tags is enabled in PHP config
echo '<?xml version="1.0" encoding="UTF-8"?>';
?>
<!-- Generator: Adobe Illustrator 15.0.0, SVG Export Plug-In . SVG Version: 6.00 Build 0)  -->
<!DOCTYPE svg PUBLIC "-//W3C//DTD SVG 1.1//EN" "http://www.w3.org/Graphics/SVG/1.1/DTD/svg11.dtd">
<svg version="1.1" id="Layer_1" xmlns="http://www.w3.org/2000/svg" xmlns:xlink="http://www.w3.org/1999/xlink" x="0px" y="0px"
	 width="10.691px" height="10.689px" viewBox="0 0 10.691 10.689" enable-background="new 0 0 10.691 10.689" xml:space="preserve">
<g>
	<path fill="#<?php echo $color; ?>" d="M10.268,5.345c0-1.031-0.32-1.988-0.859-2.777L10.691,0L8.125,1.283c-0.794-0.542-1.748-0.859-2.78-0.859
		c-1.031,0-1.986,0.317-2.779,0.859L0,0l1.284,2.568C0.742,3.357,0.423,4.314,0.423,5.345c0,1.029,0.319,1.989,0.861,2.779L0,10.689
		l2.566-1.283c0.793,0.541,1.748,0.859,2.779,0.859c1.032,0,1.986-0.318,2.78-0.859l2.566,1.283L9.409,8.124
		C9.948,7.334,10.268,6.374,10.268,5.345"/>
	<polygon fill="#FFFFFF"  points="9.167,4.68 5.666,2.537 5.666,3.758 1.676,3.758 1.676,5.601 5.666,5.601 5.666,6.821 	"/>
	<path fill="#<?php echo $color; ?>" d="M8.379,6.748L8.18,6.628L8.106,6.749L8.18,6.628L5.56,5.024v0.95H2.818v1.55H5.56v0.951L8.379,6.748z M2.961,7.382V6.117
		h2.74V5.278L8.106,6.75L5.701,8.221V7.382H2.961z"/>
	<polygon fill="#FFFFFF"  points="8.106,6.75 5.702,5.279 5.702,6.117 2.961,6.117 2.961,7.382 5.702,7.382 5.702,8.22 	"/>
</g>
</svg>
