<?php
if(!isset($color) || $color=="" || strtolower($color)=="black"){$color="000";}
if(strtolower($color)=="red"){$color="ed1c24";}
if(strtolower($color)=="blue"){$color="1c75bc";}
if(strtolower($color)=="green"){$color="00a651";}
if(strtolower($color)=="white"){$color="fff";}
header('Content-Type: text/xml');
// echo xml tag just in case short_open_tags is enabled in PHP config
echo '<?xml version="1.0" encoding="UTF-8"?>';
?>
<!-- Generator: Adobe Illustrator 15.0.0, SVG Export Plug-In . SVG Version: 6.00 Build 0)  -->
<!DOCTYPE svg PUBLIC "-//W3C//DTD SVG 1.1//EN" "http://www.w3.org/Graphics/SVG/1.1/DTD/svg11.dtd">
<svg version="1.1" id="Layer_1" xmlns="http://www.w3.org/2000/svg" xmlns:xlink="http://www.w3.org/1999/xlink" x="0px" y="0px"
	 width="11.073px" height="10.527px" viewBox="0 0 11.073 10.527" enable-background="new 0 0 11.073 10.527" xml:space="preserve">
<g>
	<path fill="#<?php echo $color; ?>" d="M1.085,5.777c0.825,1.428,2.018,2.509,3.39,3.194l-0.899,1.556c1.855-0.59,3.505-1.848,4.555-3.666
		C8.964,5.42,9.302,3.83,9.2,2.286h1.873C9.634,0.974,7.72,0.175,5.62,0.175c-1.679,0-3.237,0.512-4.531,1.387L0.188,0
		C-0.229,1.902,0.037,3.959,1.085,5.777"/>
	<path fill="#FFFFFF"  d="M8.315,2.895C7.128,2.532,5.87,2.361,4.627,2.402c-0.306,0.01-3.161,0.327-3.089,0.583
		c0.282,1.022,0.566,2.046,0.85,3.068C4.117,5.506,5.877,5.5,7.606,6.055c0.155-0.56,0.311-1.121,0.466-1.682
		C8.17,4.019,8.268,3.667,8.365,3.314C8.395,3.209,8.423,3.104,8.452,3C8.479,2.903,8.41,2.923,8.315,2.895 M4.997,2.728
		c0.749,0,1.495,0.079,2.228,0.233C5.512,3.37,3.891,4.188,2.519,5.288c-0.164-0.594-0.33-1.186-0.494-1.779
		C1.997,3.406,1.968,3.304,1.94,3.202C1.916,3.114,2.512,3.011,2.612,2.989C3.395,2.814,4.195,2.728,4.997,2.728"/>
</g>
</svg>
