<?php
if(!isset($color) || $color=="" || strtolower($color)=="black"){$color="000";}
if(strtolower($color)=="red"){$color="ed1c24";}
if(strtolower($color)=="blue"){$color="1c75bc";}
if(strtolower($color)=="green"){$color="00a651";}
if(strtolower($color)=="white"){$color="fff";}
header('Content-Type: text/xml');
// echo xml tag just in case short_open_tags is enabled in PHP config
echo '<?xml version="1.0" encoding="UTF-8"?>';
?>
<!-- Generator: Adobe Illustrator 15.0.0, SVG Export Plug-In . SVG Version: 6.00 Build 0)  -->
<!DOCTYPE svg PUBLIC "-//W3C//DTD SVG 1.1//EN" "http://www.w3.org/Graphics/SVG/1.1/DTD/svg11.dtd">
<svg version="1.1" id="Layer_1" xmlns="http://www.w3.org/2000/svg" xmlns:xlink="http://www.w3.org/1999/xlink" x="0px" y="0px"
	 width="10.691px" height="10.69px" viewBox="0 0 10.691 10.69" enable-background="new 0 0 10.691 10.69" xml:space="preserve">
<g>
	<path fill="#<?php echo $color; ?>" d="M10.268,5.345c0-1.031-0.32-1.988-0.859-2.777L10.691,0L8.125,1.283c-0.794-0.542-1.748-0.859-2.78-0.859
		c-1.031,0-1.986,0.317-2.779,0.859L0,0l1.284,2.568C0.742,3.357,0.423,4.314,0.423,5.345c0,1.029,0.319,1.989,0.861,2.779L0,10.69
		l2.566-1.284c0.793,0.543,1.748,0.86,2.779,0.86c1.032,0,1.986-0.317,2.78-0.86l2.566,1.284L9.409,8.124
		C9.948,7.334,10.268,6.374,10.268,5.345"/>
	<path fill="#FFFFFF"  d="M5.002,6.176c0,0-0.136,0.081-0.31,0.075C4.519,6.244,4.454,6.167,4.454,6.167L1.79,3.502l1.474-1.474
		c0,0,1.308,1.32,1.845,1.403C5.548,3.5,6.422,2.625,7.077,2.376c0.261-0.1,0.559,0.149,0.559,0.149l0.423,0.397L8.045,3.14
		l0.137-0.137L8.68,3.5L7.008,5.207L6.035,5.686l0.201,0.202L5.199,6.925L4.724,6.449L5.002,6.176z M7.902,4.928L7.25,5.53
		L6.702,5.81l0.09,0.074L5.199,7.477l-0.91-0.91L2.936,6.505l0.681,0.518L2.762,7.636l1.577-0.038L4.184,8.989l1.069-0.987
		l0.632,0.987l0.242-1.353l0.956,0.682l-0.31-1.441l1.41,0.106L7.405,6.151l1.248-0.472l-0.72-0.31l0.634-0.504L7.902,4.928z"/>
</g>
</svg>
