<?php
if(!isset($color) || $color=="" || strtolower($color)=="black"){$color="000";}
if(strtolower($color)=="red"){$color="ed1c24";}
if(strtolower($color)=="blue"){$color="1c75bc";}
if(strtolower($color)=="green"){$color="00a651";}
if(strtolower($color)=="white"){$color="fff";}
header('Content-Type: text/xml');
// echo xml tag just in case short_open_tags is enabled in PHP config
echo '<?xml version="1.0" encoding="UTF-8"?>';
?>
<!-- Generator: Adobe Illustrator 15.0.0, SVG Export Plug-In . SVG Version: 6.00 Build 0)  -->
<!DOCTYPE svg PUBLIC "-//W3C//DTD SVG 1.1//EN" "http://www.w3.org/Graphics/SVG/1.1/DTD/svg11.dtd">
<svg version="1.1" id="Layer_1" xmlns="http://www.w3.org/2000/svg" xmlns:xlink="http://www.w3.org/1999/xlink" x="0px" y="0px"
	 width="11.073px" height="10.526px" viewBox="0 0 11.073 10.526" enable-background="new 0 0 11.073 10.526" xml:space="preserve">
<path fill="#<?php echo $color; ?>" id="Power_Trigger" d="M1.086,5.776C1.91,7.205,3.104,8.285,4.476,8.97l-0.898,1.557c1.854-0.59,3.505-1.848,4.555-3.666
	C8.964,5.421,9.302,3.83,9.2,2.286h1.873C9.634,0.974,7.72,0.175,5.62,0.175c-1.681,0-3.237,0.513-4.531,1.387L0.188,0
	C-0.229,1.901,0.037,3.959,1.086,5.776"/>
<g>
	<path fill="#FFFFFF"  d="M4.669,5.104c0,0-0.122,0.073-0.278,0.067C4.235,5.165,4.177,5.095,4.177,5.095L1.782,2.701l1.325-1.324
		c0,0,1.175,1.186,1.658,1.26c0.396,0.062,1.18-0.724,1.769-0.948C6.768,1.6,7.034,1.823,7.034,1.823l0.38,0.357L7.402,2.375
		l0.124-0.123l0.444,0.446L6.472,4.233l-0.875,0.43l0.18,0.181L4.846,5.776L4.419,5.349L4.669,5.104z M7.274,3.982L6.688,4.523
		L6.195,4.774l0.08,0.067l-1.43,1.431L4.028,5.455L2.813,5.399l0.611,0.465l-0.769,0.55l1.417-0.033l-0.14,1.25l0.96-0.888
		l0.568,0.888L5.68,6.414l0.857,0.613L6.26,5.733l1.267,0.095L6.828,5.081l1.121-0.424L7.303,4.378l0.568-0.453L7.274,3.982z"/>
</g>
</svg>
