<?php
if(!isset($color) || $color=="" || strtolower($color)=="black"){$color="000";}
if(strtolower($color)=="red"){$color="ed1c24";}
if(strtolower($color)=="blue"){$color="1c75bc";}
if(strtolower($color)=="green"){$color="00a651";}
if(strtolower($color)=="white"){$color="fff";}
header('Content-Type: text/xml');
// echo xml tag just in case short_open_tags is enabled in PHP config
echo '<?xml version="1.0" encoding="UTF-8"?>';
?>
<!-- Generator: Adobe Illustrator 15.0.0, SVG Export Plug-In . SVG Version: 6.00 Build 0)  -->
<!DOCTYPE svg PUBLIC "-//W3C//DTD SVG 1.1//EN" "http://www.w3.org/Graphics/SVG/1.1/DTD/svg11.dtd">
<svg version="1.1" id="Layer_1" xmlns="http://www.w3.org/2000/svg" xmlns:xlink="http://www.w3.org/1999/xlink" x="0px" y="0px"
	 width="10.894px" height="10.872px" viewBox="0 0 10.894 10.872" enable-background="new 0 0 10.894 10.872" xml:space="preserve">
<polygon fill="#<?php echo $color; ?>" points="0.021,10.872 1.381,8.828 0,6.711 1.381,5.436 0.021,1.36 3.417,2.717 5.457,0 7.497,2.717 10.894,1.36 
	9.533,5.436 10.894,6.793 9.533,8.828 10.894,10.872 "/>
<g>
	<path fill="#FFFFFF"  d="M6.762,3.11H4.135c-0.186,0-0.336,0.151-0.336,0.338v5.539c0,0.186,0.15,0.336,0.336,0.336h0.72v0.811
		c0,0.039,0.053,0.069,0.118,0.069h0.948c0.067,0,0.12-0.03,0.12-0.069V9.323h0.721c0.185,0,0.335-0.15,0.335-0.336V3.448
		C7.097,3.261,6.947,3.11,6.762,3.11 M6.605,8.336c0,0.074-0.104,0.134-0.235,0.134H4.526c-0.13,0-0.236-0.06-0.236-0.134V6.104
		c0-0.074,0.106-0.135,0.236-0.135H6.37c0.131,0,0.235,0.061,0.235,0.135V8.336z"/>
</g>
</svg>
