<?php
if(!isset($color) || $color=="" || strtolower($color)=="black"){$color="000";}
if(strtolower($color)=="red"){$color="ed1c24";}
if(strtolower($color)=="blue"){$color="1c75bc";}
if(strtolower($color)=="green"){$color="00a651";}
if(strtolower($color)=="white"){$color="fff";}
header('Content-Type: text/xml');
// echo xml tag just in case short_open_tags is enabled in PHP config
echo '<?xml version="1.0" encoding="UTF-8"?>';
?>
<!-- Generator: Adobe Illustrator 15.0.0, SVG Export Plug-In . SVG Version: 6.00 Build 0)  -->
<!DOCTYPE svg PUBLIC "-//W3C//DTD SVG 1.1//EN" "http://www.w3.org/Graphics/SVG/1.1/DTD/svg11.dtd">
<svg version="1.1" id="Layer_1" xmlns="http://www.w3.org/2000/svg" xmlns:xlink="http://www.w3.org/1999/xlink" x="0px" y="0px"
	 width="10.691px" height="10.69px" viewBox="0 0 10.691 10.69" enable-background="new 0 0 10.691 10.69" xml:space="preserve">
<g>
	<path fill="#<?php echo $color; ?>" d="M10.268,5.345c0-1.03-0.32-1.987-0.86-2.776L10.691,0L8.125,1.283c-0.794-0.542-1.749-0.859-2.78-0.859
		c-1.032,0-1.986,0.317-2.779,0.859L0,0l1.284,2.568C0.742,3.357,0.423,4.314,0.423,5.345c0,1.029,0.319,1.989,0.861,2.779L0,10.69
		l2.566-1.284c0.793,0.543,1.747,0.859,2.779,0.859c1.031,0,1.986-0.316,2.78-0.859l2.566,1.284L9.408,8.124
		C9.948,7.334,10.268,6.374,10.268,5.345"/>
	<path fill="#FFFFFF"  d="M8.107,8.589C5.978,9.567,3.461,8.633,2.483,6.504C1.702,4.801,2.447,2.787,4.151,2.006
		C5.513,1.379,7.124,1.978,7.75,3.34c0.501,1.089,0.022,2.379-1.068,2.879C5.811,6.62,4.779,6.237,4.38,5.364
		C4.059,4.668,4.365,3.842,5.062,3.523C5.621,3.267,6.28,3.511,6.537,4.069L6.329,4.225C6.147,3.826,5.677,3.652,5.277,3.834
		C4.781,4.063,4.561,4.651,4.791,5.148c0.284,0.622,1.02,0.895,1.643,0.609C7.21,5.401,7.55,4.481,7.195,3.704
		C6.748,2.733,5.6,2.308,4.628,2.752C3.413,3.311,2.88,4.746,3.438,5.961c0.697,1.52,2.493,2.186,4.01,1.488L8.107,8.589z"/>
</g>
</svg>
