<?php
if(!isset($color) || $color=="" || strtolower($color)=="black"){$color="000";}
if(strtolower($color)=="red"){$color="ed1c24";}
if(strtolower($color)=="blue"){$color="1c75bc";}
if(strtolower($color)=="green"){$color="00a651";}
if(strtolower($color)=="white"){$color="fff";}
header('Content-Type: text/xml');
// echo xml tag just in case short_open_tags is enabled in PHP config
echo '<?xml version="1.0" encoding="UTF-8"?>';
?>
<!-- Generator: Adobe Illustrator 15.0.0, SVG Export Plug-In . SVG Version: 6.00 Build 0)  -->
<!DOCTYPE svg PUBLIC "-//W3C//DTD SVG 1.1//EN" "http://www.w3.org/Graphics/SVG/1.1/DTD/svg11.dtd">
<svg version="1.1" id="Blast_Trigger_1_" xmlns="http://www.w3.org/2000/svg" xmlns:xlink="http://www.w3.org/1999/xlink" x="0px"
	 y="0px" width="10.892px" height="10.872px" viewBox="0 0 10.892 10.872" enable-background="new 0 0 10.892 10.872"
	 xml:space="preserve">
<polygon fill="#<?php echo $color; ?>" id="Blast_Trigger" points="0.02,10.872 1.38,8.829 0,6.712 1.38,5.437 0.02,1.36 3.416,2.718 5.457,0 7.496,2.718 
	10.892,1.36 9.533,5.437 10.892,6.794 9.533,8.829 10.892,10.872 "/>
<g>
	<path fill="#FFFFFF"  d="M2.178,6.389c0-1.803,1.463-3.262,3.268-3.262s3.268,1.459,3.268,3.262c0,1.801-1.463,3.261-3.268,3.261
		S2.178,8.19,2.178,6.389 M2.445,6.389C2.448,8.043,3.79,9.38,5.446,9.384C7.104,9.38,8.443,8.043,8.445,6.389
		C8.443,4.735,7.104,3.396,5.446,3.394C3.79,3.396,2.448,4.735,2.445,6.389"/>
	<path fill="#FFFFFF"  d="M2.615,8.02C2.318,7.506,2.178,6.946,2.178,6.392c0-1.127,0.585-2.224,1.633-2.828
		c0.516-0.296,1.077-0.437,1.631-0.437c1.129,0,2.228,0.583,2.833,1.63c0.297,0.514,0.437,1.076,0.437,1.629
		c0,1.125-0.585,2.223-1.631,2.828C6.566,9.509,6.004,9.65,5.449,9.65C4.32,9.65,3.22,9.065,2.615,8.02 M3.946,3.794
		C2.983,4.349,2.444,5.355,2.444,6.392c0,0.508,0.13,1.023,0.403,1.494c0.555,0.96,1.563,1.498,2.602,1.498
		c0.509,0,1.025-0.128,1.498-0.4L6.946,8.982C7.908,8.428,8.447,7.42,8.447,6.386c0-0.509-0.13-1.023-0.402-1.495
		c-0.557-0.96-1.564-1.498-2.603-1.498C4.933,3.394,4.418,3.522,3.946,3.794"/>
	
		<rect x="6.16" y="5.899" transform="matrix(-0.5013 0.8653 -0.8653 -0.5013 15.3994 4.8779)" fill="#FFFFFF"  width="0.267" height="1.956"/>
	
		<rect x="3.621" y="6.743" transform="matrix(-0.8662 0.4998 -0.4998 -0.8662 12.0187 10.5353)" fill="#FFFFFF"  width="1.955" height="0.268"/>
	<rect x="5.313" y="4.436" fill="#FFFFFF"  width="0.268" height="1.952"/>
	<path fill="#<?php echo $color; ?>" d="M5.18,6.851C4.925,6.702,4.838,6.376,4.985,6.123C5.131,5.868,5.458,5.78,5.712,5.928
		C5.97,6.074,6.056,6.401,5.908,6.654C5.763,6.909,5.436,6.998,5.18,6.851"/>
	<path fill="#FFFFFF"  d="M5.112,6.964L5.18,6.852l0.067-0.117c0.061,0.036,0.13,0.054,0.199,0.054
		c0.139-0.001,0.274-0.072,0.345-0.2c0.037-0.064,0.055-0.132,0.056-0.2C5.847,6.251,5.775,6.117,5.647,6.042
		c-0.064-0.036-0.132-0.053-0.2-0.053c-0.141,0-0.273,0.072-0.348,0.201C5.063,6.253,5.046,6.32,5.046,6.388
		c0,0.139,0.073,0.273,0.202,0.346L5.18,6.852L5.112,6.964C4.898,6.842,4.778,6.619,4.778,6.388c0-0.113,0.028-0.229,0.09-0.332
		c0.123-0.214,0.349-0.335,0.579-0.335c0.113,0,0.227,0.029,0.333,0.091c0.213,0.123,0.333,0.346,0.333,0.577
		c0,0.113-0.027,0.228-0.089,0.332c-0.123,0.215-0.35,0.335-0.578,0.334H5.441C5.329,7.055,5.215,7.025,5.112,6.964"/>
	<path fill="#FFFFFF"  d="M1.826,4.303h7.008v0.134V4.303h0.232l-3.62,6.258L1.826,4.303z M5.446,10.027L8.603,4.57H2.289
		L5.446,10.027z"/>
	<path fill="#<?php echo $color; ?>" d="M7.868,7.366c0,0.399-0.325,0.724-0.727,0.724c-0.399,0-0.726-0.324-0.726-0.724
		c0-0.401,0.327-0.725,0.726-0.725C7.543,6.641,7.868,6.964,7.868,7.366"/>
	<path fill="#FFFFFF"  d="M6.281,7.366c0-0.476,0.384-0.858,0.859-0.858C7.614,6.507,8,6.89,8,7.366c0,0.473-0.386,0.857-0.86,0.857
		C6.666,8.223,6.281,7.838,6.281,7.366 M6.548,7.366c0.001,0.326,0.266,0.591,0.593,0.592c0.327-0.001,0.592-0.266,0.592-0.592
		S7.467,6.774,7.141,6.773C6.813,6.774,6.549,7.04,6.548,7.366"/>
	<path fill="#<?php echo $color; ?>" d="M6.173,4.436c0,0.4-0.326,0.725-0.727,0.725c-0.4,0-0.726-0.325-0.726-0.725
		c0-0.401,0.326-0.726,0.726-0.726C5.848,3.71,6.173,4.035,6.173,4.436"/>
	<path fill="#FFFFFF"  d="M4.586,4.436c0-0.474,0.386-0.857,0.861-0.857c0.474,0,0.859,0.383,0.859,0.857h0
		c0,0.474-0.385,0.856-0.859,0.856C4.972,5.292,4.586,4.91,4.586,4.436 M4.854,4.436c0,0.327,0.266,0.591,0.593,0.591
		c0.327,0,0.59-0.264,0.591-0.591C6.038,4.11,5.774,3.845,5.447,3.845C5.12,3.845,4.854,4.11,4.854,4.436"/>
	<path fill="#<?php echo $color; ?>" d="M4.479,7.366c0,0.399-0.326,0.724-0.726,0.724c-0.401,0-0.727-0.324-0.727-0.724
		c0-0.401,0.326-0.725,0.727-0.725C4.153,6.641,4.479,6.964,4.479,7.366"/>
	<path fill="#FFFFFF"  d="M2.892,7.367c0-0.476,0.386-0.859,0.861-0.859c0.474,0,0.858,0.384,0.859,0.859h0
		c0,0.472-0.384,0.856-0.858,0.856C3.278,8.223,2.892,7.838,2.892,7.367 M3.16,7.367c0,0.325,0.265,0.589,0.593,0.59
		c0.326-0.001,0.591-0.265,0.592-0.59H4.344c0-0.326-0.265-0.593-0.591-0.594C3.425,6.774,3.16,7.041,3.16,7.367"/>
</g>
</svg>
