<?php
if(!isset($color) || $color=="" || strtolower($color)=="black"){$color="000";}
if(strtolower($color)=="red"){$color="ed1c24";}
if(strtolower($color)=="blue"){$color="1c75bc";}
if(strtolower($color)=="green"){$color="00a651";}
if(strtolower($color)=="white"){$color="fff";}
header('Content-Type: text/xml');
// echo xml tag just in case short_open_tags is enabled in PHP config
echo '<?xml version="1.0" encoding="UTF-8"?>';
?>
<!-- Generator: Adobe Illustrator 15.0.0, SVG Export Plug-In . SVG Version: 6.00 Build 0)  -->
<!DOCTYPE svg PUBLIC "-//W3C//DTD SVG 1.1//EN" "http://www.w3.org/Graphics/SVG/1.1/DTD/svg11.dtd">
<svg version="1.1" id="Layer_1" xmlns="http://www.w3.org/2000/svg" xmlns:xlink="http://www.w3.org/1999/xlink" x="0px" y="0px"
	 width="11.073px" height="10.526px" viewBox="0 0 11.073 10.526" enable-background="new 0 0 11.073 10.526" xml:space="preserve">
<g>
	<path fill="#<?php echo $color; ?>" d="M1.086,5.776C1.91,7.205,3.104,8.285,4.476,8.97l-0.898,1.557c1.854-0.59,3.505-1.848,4.555-3.666
		C8.964,5.421,9.302,3.83,9.2,2.286h1.873C9.634,0.974,7.72,0.175,5.62,0.175c-1.681,0-3.237,0.513-4.531,1.387L0.188,0
		C-0.229,1.901,0.037,3.959,1.086,5.776"/>
</g>
<polygon fill="#FFFFFF"  points="5.021,6.445 6.242,4.715 5.546,4.715 5.546,2.742 4.496,2.742 4.496,4.715 3.801,4.715 "/>
<rect x="4.496" y="2.196" fill="#FFFFFF"  width="1.051" height="0.365"/>
<rect x="4.496" y="1.649" fill="#FFFFFF"  width="1.051" height="0.365"/>
<rect x="4.496" y="1.105" fill="#FFFFFF"  width="1.051" height="0.365"/>
<polygon fill="#FFFFFF"  points="3.281,5.025 4.283,6.446 2,6.446 1.884,5.856 2.396,6.072 2.248,5.394 2.844,5.808 2.811,5.129 
	3.291,5.559 "/>
<polygon fill="#FFFFFF"  points="6.762,5.025 5.759,6.446 8.044,6.446 8.159,5.856 7.646,6.072 7.795,5.394 7.199,5.808 7.231,5.129 
	6.751,5.559 "/>
</svg>
