<?php
if(!isset($color) || $color=="" || strtolower($color)=="black"){$color="000";}
if(strtolower($color)=="red"){$color="ed1c24";}
if(strtolower($color)=="blue"){$color="1c75bc";}
if(strtolower($color)=="green"){$color="00a651";}
if(strtolower($color)=="white"){$color="fff";}
header('Content-Type: text/xml');
// echo xml tag just in case short_open_tags is enabled in PHP config
echo '<?xml version="1.0" encoding="UTF-8"?>';
?>
<!-- Generator: Adobe Illustrator 15.0.0, SVG Export Plug-In . SVG Version: 6.00 Build 0)  -->
<!DOCTYPE svg PUBLIC "-//W3C//DTD SVG 1.1//EN" "http://www.w3.org/Graphics/SVG/1.1/DTD/svg11.dtd">
<svg version="1.1" id="Layer_1" xmlns="http://www.w3.org/2000/svg" xmlns:xlink="http://www.w3.org/1999/xlink" x="0px" y="0px"
	 width="11.073px" height="10.526px" viewBox="0 0 11.073 10.526" enable-background="new 0 0 11.073 10.526" xml:space="preserve">
<g>
	<path fill="#<?php echo $color; ?>" d="M1.085,5.776c0.825,1.429,2.018,2.509,3.39,3.193l-0.899,1.557c1.855-0.59,3.505-1.848,4.555-3.665
		C8.964,5.421,9.302,3.83,9.2,2.286h1.873C9.634,0.974,7.72,0.175,5.62,0.175c-1.679,0-3.237,0.513-4.531,1.387L0.188,0
		C-0.229,1.901,0.037,3.959,1.085,5.776"/>
	<path fill="#FFFFFF"  d="M8.071,4.15c0.002-0.723-0.256-1.451-0.777-2.032C6.688,1.439,5.846,1.095,5.003,1.095
		c-0.73,0-1.464,0.26-2.05,0.785C2.276,2.483,1.93,3.327,1.93,4.17c0,0.729,0.26,1.463,0.785,2.049
		c0.232,0.258,0.501,0.454,0.777,0.608l0.202,0.116L4.252,5.93L4.056,5.818C3.877,5.716,3.716,5.597,3.58,5.444
		C3.251,5.076,3.091,4.622,3.091,4.169c0-0.526,0.215-1.046,0.636-1.426c0.366-0.327,0.821-0.486,1.277-0.486
		c0.525,0,1.047,0.213,1.425,0.636c0.325,0.363,0.483,0.81,0.484,1.264C6.912,4.518,6.809,4.881,6.607,5.195L6.094,4.624
		L5.248,7.209l2.662-0.56L7.397,6.076C7.842,5.518,8.071,4.833,8.071,4.15"/>
</g>
</svg>
