<?php
if(!isset($color) || $color=="" || strtolower($color)=="black"){$color="000";}
if(strtolower($color)=="red"){$color="ed1c24";}
if(strtolower($color)=="blue"){$color="1c75bc";}
if(strtolower($color)=="green"){$color="00a651";}
if(strtolower($color)=="white"){$color="fff";}
header('Content-Type: text/xml');
// echo xml tag just in case short_open_tags is enabled in PHP config
echo '<?xml version="1.0" encoding="UTF-8"?>';
?>
<!-- Generator: Adobe Illustrator 15.0.0, SVG Export Plug-In . SVG Version: 6.00 Build 0)  -->
<!DOCTYPE svg PUBLIC "-//W3C//DTD SVG 1.1//EN" "http://www.w3.org/Graphics/SVG/1.1/DTD/svg11.dtd">
<svg version="1.1" id="Layer_1" xmlns="http://www.w3.org/2000/svg" xmlns:xlink="http://www.w3.org/1999/xlink" x="0px" y="0px"
	 width="10.691px" height="10.689px" viewBox="0 0 10.691 10.689" enable-background="new 0 0 10.691 10.689" xml:space="preserve">
<g>
	<path fill="#<?php echo $color; ?>" d="M10.268,5.346c0-1.032-0.32-1.989-0.86-2.778L10.691,0L8.125,1.283c-0.794-0.542-1.749-0.859-2.78-0.859
		c-1.032,0-1.986,0.317-2.779,0.859L0,0l1.284,2.568C0.742,3.357,0.423,4.314,0.423,5.346c0,1.028,0.319,1.988,0.861,2.778L0,10.689
		l2.566-1.283c0.793,0.543,1.747,0.859,2.779,0.859c1.031,0,1.986-0.316,2.78-0.859l2.566,1.283L9.408,8.124
		C9.948,7.334,10.268,6.374,10.268,5.346"/>
	<path fill="#FFFFFF"  d="M7.566,5.316H6.64l0.614-1.726H6.426l0.657-1.724h-2.51L3.59,4.275h0.79l-0.777,2.01h0.97L3.59,8.808
		L7.566,5.316z M6.226,2.5L6.02,5.08H5.101L4.93,2.5H6.226z M5.578,5.308c0.358,0,0.648,0.29,0.648,0.647
		c0,0.359-0.29,0.65-0.648,0.65S4.93,6.314,4.93,5.955C4.93,5.598,5.22,5.308,5.578,5.308"/>
</g>
</svg>
