<?php
if(!isset($color) || $color=="" || strtolower($color)=="black"){$color="000";}
if(strtolower($color)=="red"){$color="ed1c24";}
if(strtolower($color)=="blue"){$color="1c75bc";}
if(strtolower($color)=="green"){$color="00a651";}
if(strtolower($color)=="white"){$color="fff";}
header('Content-Type: text/xml');
// echo xml tag just in case short_open_tags is enabled in PHP config
echo '<?xml version="1.0" encoding="UTF-8"?>';
?>
<!-- Generator: Adobe Illustrator 15.0.0, SVG Export Plug-In . SVG Version: 6.00 Build 0)  -->
<!DOCTYPE svg PUBLIC "-//W3C//DTD SVG 1.1//EN" "http://www.w3.org/Graphics/SVG/1.1/DTD/svg11.dtd">
<svg version="1.1" id="Layer_1" xmlns="http://www.w3.org/2000/svg" xmlns:xlink="http://www.w3.org/1999/xlink" x="0px" y="0px"
	 width="11.073px" height="10.526px" viewBox="0 0 11.073 10.526" enable-background="new 0 0 11.073 10.526" xml:space="preserve">
<path fill="#<?php echo $color; ?>" id="Power_Trigger" d="M1.086,5.776C1.91,7.205,3.104,8.285,4.476,8.97l-0.898,1.557c1.854-0.59,3.505-1.848,4.555-3.666
	C8.964,5.421,9.302,3.83,9.2,2.286h1.873C9.634,0.974,7.72,0.175,5.62,0.175c-1.681,0-3.237,0.513-4.531,1.387L0.188,0
	C-0.229,1.901,0.037,3.959,1.086,5.776"/>
<g>
	<path fill="#FFFFFF"  d="M5.444,7.545c-0.13,0.128-0.3,0.194-0.466,0.194c-0.17,0-0.342-0.066-0.468-0.194l-1.89-1.888
		c-0.258-0.258-0.258-0.676,0-0.936l0.108-0.107c0.258-0.259,0.673-0.259,0.934,0l0.578,0.58V1.866c0-0.366,0.293-0.661,0.66-0.661
		h0.152c0.365,0,0.659,0.295,0.659,0.661v3.328l0.58-0.58c0.259-0.259,0.676-0.259,0.933,0l0.11,0.107
		c0.257,0.259,0.257,0.677,0,0.936L5.444,7.545z"/>
</g>
</svg>
