<?php
if(!isset($color) || $color=="" || strtolower($color)=="black"){$color="000";}
if(strtolower($color)=="red"){$color="ed1c24";}
if(strtolower($color)=="blue"){$color="1c75bc";}
if(strtolower($color)=="green"){$color="00a651";}
if(strtolower($color)=="white"){$color="fff";}
header('Content-Type: text/xml');
// echo xml tag just in case short_open_tags is enabled in PHP config
echo '<?xml version="1.0" encoding="UTF-8"?>';
?>
<!-- Generator: Adobe Illustrator 15.0.0, SVG Export Plug-In . SVG Version: 6.00 Build 0)  -->
<!DOCTYPE svg PUBLIC "-//W3C//DTD SVG 1.1//EN" "http://www.w3.org/Graphics/SVG/1.1/DTD/svg11.dtd">
<svg version="1.1" id="Layer_1" xmlns="http://www.w3.org/2000/svg" xmlns:xlink="http://www.w3.org/1999/xlink" x="0px" y="0px"
	 width="10.893px" height="10.872px" viewBox="0 0 10.893 10.872" enable-background="new 0 0 10.893 10.872" xml:space="preserve">
<polygon fill="#<?php echo $color; ?>" points="0.02,10.872 1.38,8.829 0,6.712 1.38,5.436 0.02,1.359 3.416,2.718 5.457,0 7.495,2.718 10.893,1.359 9.532,5.436 
	10.893,6.794 9.532,8.829 10.893,10.872 "/>
<polygon fill="#FFFFFF"  points="8.043,9.047 7.579,9.458 8.344,9.764 8.344,8.781 "/>
<polygon fill="#FFFFFF"  points="2.473,9.773 3.265,9.458 2.473,8.759 "/>
<polygon fill="#FFFFFF"  points="3.704,8.621 3.313,7.236 4.613,7.832 5.424,6.145 6.231,7.832 7.529,7.237 7.14,8.621 8.344,8.756 
	8.344,3.193 6.26,3.193 6.26,5.159 4.745,5.159 4.745,4.078 2.472,4.078 2.472,8.757 2.906,8.709 "/>
<polygon fill="#FFFFFF"  points="4.279,9.877 4.047,9.97 3.884,10.034 5.38,10.279 6.95,10.032 6.563,9.877 6.751,9.712 7.049,9.448 
	6.397,9.377 6.446,9.199 6.625,8.562 5.92,8.885 5.424,7.846 4.925,8.885 4.22,8.562 4.447,9.377 4.267,9.396 3.795,9.448 
	4.092,9.712 "/>
<polygon fill="#<?php echo $color; ?>" points="2.472,8.758 2.473,8.759 2.473,8.758 "/>
<polygon fill="#<?php echo $color; ?>" points="8.344,8.782 8.37,8.76 8.344,8.757 "/>
<rect fill="#<?php echo $color; ?>" x="6.522" y="3.522" width="0.349" height="0.457"/>
<rect fill="#<?php echo $color; ?>" x="7.111" y="3.522" width="0.348" height="0.457"/>
<rect fill="#<?php echo $color; ?>" x="7.699" y="3.522" width="0.348" height="0.457"/>
<rect fill="#<?php echo $color; ?>" x="6.522" y="4.317" width="0.349" height="0.457"/>
<rect fill="#<?php echo $color; ?>" x="7.111" y="4.317" width="0.348" height="0.457"/>
<rect fill="#<?php echo $color; ?>" x="7.699" y="4.317" width="0.348" height="0.457"/>
<rect fill="#<?php echo $color; ?>" x="6.522" y="5.112" width="0.349" height="0.457"/>
<rect fill="#<?php echo $color; ?>" x="7.111" y="5.112" width="0.348" height="0.457"/>
<rect fill="#<?php echo $color; ?>" x="7.699" y="5.112" width="0.348" height="0.457"/>
<rect fill="#<?php echo $color; ?>" x="6.522" y="5.907" width="0.349" height="0.457"/>
<rect fill="#<?php echo $color; ?>" x="7.111" y="5.907" width="0.348" height="0.457"/>
<rect fill="#<?php echo $color; ?>" x="7.699" y="5.907" width="0.348" height="0.457"/>
<rect fill="#<?php echo $color; ?>" x="2.863" y="4.372" width="0.348" height="0.456"/>
<rect fill="#<?php echo $color; ?>" x="3.45" y="4.372" width="0.348" height="0.456"/>
<rect fill="#<?php echo $color; ?>" x="4.039" y="4.372" width="0.348" height="0.456"/>
<rect fill="#<?php echo $color; ?>" x="2.863" y="5.167" width="0.348" height="0.457"/>
<rect fill="#<?php echo $color; ?>" x="3.45" y="5.167" width="0.348" height="0.457"/>
<rect fill="#<?php echo $color; ?>" x="4.039" y="5.167" width="0.348" height="0.457"/>
<rect fill="#<?php echo $color; ?>" x="2.863" y="5.907" width="0.348" height="0.457"/>
<rect fill="#<?php echo $color; ?>" x="3.45" y="5.907" width="0.348" height="0.457"/>
<rect fill="#<?php echo $color; ?>" x="4.039" y="5.907" width="0.348" height="0.457"/>
<rect fill="#<?php echo $color; ?>" x="6.522" y="6.703" width="0.349" height="0.456"/>
<rect fill="#<?php echo $color; ?>" x="7.111" y="6.703" width="0.348" height="0.456"/>
<rect fill="#<?php echo $color; ?>" x="7.699" y="6.703" width="0.348" height="0.456"/>
</svg>
