<?php
if(!isset($color) || $color=="" || strtolower($color)=="black"){$color="000";}
if(strtolower($color)=="red"){$color="ed1c24";}
if(strtolower($color)=="blue"){$color="1c75bc";}
if(strtolower($color)=="green"){$color="00a651";}
if(strtolower($color)=="white"){$color="fff";}
header('Content-Type: text/xml');
// echo xml tag just in case short_open_tags is enabled in PHP config
echo '<?xml version="1.0" encoding="UTF-8"?>';
?>
<!-- Generator: Adobe Illustrator 15.0.0, SVG Export Plug-In . SVG Version: 6.00 Build 0)  -->
<!DOCTYPE svg PUBLIC "-//W3C//DTD SVG 1.1//EN" "http://www.w3.org/Graphics/SVG/1.1/DTD/svg11.dtd">
<svg version="1.1" id="Brawl_Trigger_1_" xmlns="http://www.w3.org/2000/svg" xmlns:xlink="http://www.w3.org/1999/xlink" x="0px"
	 y="0px" width="10.689px" height="10.689px" viewBox="0 0 10.689 10.689" enable-background="new 0 0 10.689 10.689"
	 xml:space="preserve">
<path fill="#<?php echo $color; ?>" id="Brawl_Trigger" d="M10.267,5.346c0-1.031-0.319-1.989-0.858-2.777L10.689,0L8.125,1.283
	C7.33,0.741,6.376,0.425,5.344,0.425c-1.031,0-1.986,0.316-2.779,0.858L0,0l1.284,2.568C0.741,3.356,0.422,4.314,0.422,5.346
	c0,1.028,0.319,1.988,0.862,2.778L0,10.689l2.564-1.283c0.793,0.543,1.748,0.86,2.779,0.86c1.032,0,1.986-0.317,2.781-0.86
	l2.564,1.283L9.408,8.124C9.947,7.334,10.267,6.374,10.267,5.346"/>
<g>
	<path fill="#FFFFFF"  d="M8.218,4.269C8.005,4.582,7.659,4.786,7.266,4.786c-0.04,0-0.08-0.001-0.121-0.006
		C7.07,4.921,6.97,5.046,6.849,5.144C6.84,5.441,6.857,6.226,7.185,6.771C7.599,7.457,8.011,7.93,8.011,7.93s0.166,0.205,0,0.205
		c-0.165,0-0.495,0-0.703-0.205c-0.678-0.677-0.95-1.571-0.95-1.571S6.11,6.497,6.275,6.807L6.44,7.115c0,0,0.745,0.927,1.034,1.131
		c0.289,0.207,0.414,0.551,0.414,0.551H2.844c0,0,0.125-0.344,0.414-0.551c0.29-0.204,1.033-1.131,1.033-1.131l0.166-0.309
		c0.165-0.31-0.083-0.448-0.083-0.448S4.101,7.253,3.424,7.93C3.217,8.135,2.887,8.135,2.721,8.135c-0.165,0,0-0.205,0-0.205
		s0.413-0.473,0.827-1.158C3.865,6.246,3.89,5.498,3.884,5.178C3.746,5.073,3.629,4.94,3.545,4.78
		C3.506,4.785,3.466,4.786,3.424,4.786c-0.393,0-0.739-0.204-0.951-0.517C2.058,4.065,1.811,3.817,1.811,3.548
		s0.247-0.518,0.662-0.72c0.212-0.315,0.558-0.521,0.951-0.521c0.138,0,0.271,0.026,0.393,0.073
		c0.212-0.224,0.504-0.362,0.827-0.362c0.008,0,0.017,0.002,0.024,0.002c0.155-0.079,0.328-0.127,0.51-0.127
		c0.057,0,0.113,0.008,0.167,0.015C5.4,1.901,5.456,1.893,5.512,1.893c0.182,0,0.356,0.048,0.509,0.127
		c0.011,0,0.017-0.002,0.026-0.002c0.322,0,0.615,0.138,0.826,0.362c0.124-0.047,0.254-0.073,0.393-0.073
		c0.393,0,0.739,0.206,0.952,0.521c0.413,0.202,0.661,0.451,0.661,0.72S8.631,4.065,8.218,4.269"/>
</g>
</svg>
