<?php
if(!isset($color) || $color=="" || strtolower($color)=="black"){$color="000";}
if(strtolower($color)=="red"){$color="ed1c24";}
if(strtolower($color)=="blue"){$color="1c75bc";}
if(strtolower($color)=="green"){$color="00a651";}
if(strtolower($color)=="white"){$color="fff";}
header('Content-Type: text/xml');
// echo xml tag just in case short_open_tags is enabled in PHP config
echo '<?xml version="1.0" encoding="UTF-8"?>';
?>
<!-- Generator: Adobe Illustrator 15.0.0, SVG Export Plug-In . SVG Version: 6.00 Build 0)  -->
<!DOCTYPE svg PUBLIC "-//W3C//DTD SVG 1.1//EN" "http://www.w3.org/Graphics/SVG/1.1/DTD/svg11.dtd">
<svg version="1.1" id="Layer_1" xmlns="http://www.w3.org/2000/svg" xmlns:xlink="http://www.w3.org/1999/xlink" x="0px" y="0px"
	 width="10.893px" height="10.872px" viewBox="0 0 10.893 10.872" enable-background="new 0 0 10.893 10.872" xml:space="preserve">
<polygon fill="#<?php echo $color; ?>" points="0.02,10.872 1.38,8.828 0,6.711 1.38,5.436 0.02,1.36 3.416,2.717 5.457,0 7.495,2.717 10.893,1.36 9.532,5.436 
	10.893,6.793 9.532,8.828 10.893,10.872 "/>
<g>
	<path fill="#FFFFFF"  d="M4.046,5.945c0-0.869,0.835-1.577,1.888-1.625C5.568,3.86,5.053,3.571,4.477,3.571
		c-1.104,0-2,1.062-2,2.374c0,1.309,0.896,2.372,2,2.372c0.576,0,1.092-0.289,1.457-0.75C4.881,7.521,4.046,6.813,4.046,5.945"/>
	<path fill="#FFFFFF"  d="M6.846,7.608c0,0.869-0.835,1.576-1.886,1.625C5.324,9.693,5.841,9.98,6.416,9.98c1.105,0,2-1.063,2-2.373
		s-0.895-2.373-2-2.373c-0.575,0-1.092,0.29-1.456,0.749C6.011,6.033,6.846,6.74,6.846,7.608"/>
</g>
</svg>
