<?php
if(!isset($color) || $color=="" || strtolower($color)=="black"){$color="000";}
if(strtolower($color)=="red"){$color="ed1c24";}
if(strtolower($color)=="blue"){$color="1c75bc";}
if(strtolower($color)=="green"){$color="00a651";}
if(strtolower($color)=="white"){$color="fff";}
header('Content-Type: text/xml');
// echo xml tag just in case short_open_tags is enabled in PHP config
echo '<?xml version="1.0" encoding="UTF-8"?>';
?>
<!-- Generator: Adobe Illustrator 15.0.0, SVG Export Plug-In . SVG Version: 6.00 Build 0)  -->
<!DOCTYPE svg PUBLIC "-//W3C//DTD SVG 1.1//EN" "http://www.w3.org/Graphics/SVG/1.1/DTD/svg11.dtd">
<svg version="1.1" id="Layer_1" xmlns="http://www.w3.org/2000/svg" xmlns:xlink="http://www.w3.org/1999/xlink" x="0px" y="0px"
	 width="10.691px" height="10.69px" viewBox="0 0 10.691 10.69" enable-background="new 0 0 10.691 10.69" xml:space="preserve">
<g>
	<path fill="#<?php echo $color; ?>" d="M10.268,5.345c0-1.031-0.32-1.988-0.86-2.777L10.691,0L8.125,1.283c-0.794-0.542-1.749-0.859-2.78-0.859
		c-1.032,0-1.986,0.317-2.779,0.859L0,0l1.284,2.568C0.742,3.357,0.423,4.314,0.423,5.345c0,1.029,0.319,1.989,0.861,2.779L0,10.69
		l2.566-1.284c0.793,0.543,1.747,0.86,2.779,0.86c1.031,0,1.986-0.317,2.78-0.86l2.566,1.284L9.408,8.124
		C9.948,7.334,10.268,6.374,10.268,5.345"/>
	<path fill="#FFFFFF"  d="M6.792,1.427H3.891c-0.205,0-0.372,0.166-0.372,0.372v6.119c0,0.206,0.167,0.371,0.372,0.371h0.796v0.896
		c0,0.043,0.058,0.075,0.131,0.075h1.045c0.076,0,0.134-0.032,0.134-0.075V8.29h0.796c0.205,0,0.37-0.165,0.37-0.371V1.799
		C7.163,1.593,6.998,1.427,6.792,1.427 M6.62,7.199c0,0.082-0.115,0.149-0.26,0.149H4.323c-0.144,0-0.26-0.067-0.26-0.149V4.734
		c0-0.082,0.116-0.15,0.26-0.15H6.36c0.145,0,0.26,0.068,0.26,0.15V7.199z"/>
</g>
</svg>
