<?php
if(!isset($color) || $color=="" || strtolower($color)=="black"){$color="000";}
if(strtolower($color)=="red"){$color="ed1c24";}
if(strtolower($color)=="blue"){$color="1c75bc";}
if(strtolower($color)=="green"){$color="00a651";}
if(strtolower($color)=="white"){$color="fff";}
header('Content-Type: text/xml');
// echo xml tag just in case short_open_tags is enabled in PHP config
echo '<?xml version="1.0" encoding="UTF-8"?>';
?>
<!-- Generator: Adobe Illustrator 15.0.0, SVG Export Plug-In . SVG Version: 6.00 Build 0)  -->
<!DOCTYPE svg PUBLIC "-//W3C//DTD SVG 1.1//EN" "http://www.w3.org/Graphics/SVG/1.1/DTD/svg11.dtd">
<svg version="1.1" id="Layer_1" xmlns="http://www.w3.org/2000/svg" xmlns:xlink="http://www.w3.org/1999/xlink" x="0px" y="0px"
	 width="10.69px" height="10.688px" viewBox="0 0 10.69 10.688" enable-background="new 0 0 10.69 10.688" xml:space="preserve">
<g>
	<path fill="#<?php echo $color; ?>" d="M10.268,5.345c0-1.031-0.32-1.988-0.859-2.777L10.69,0L8.125,1.283C7.33,0.741,6.376,0.424,5.344,0.424
		c-1.03,0-1.985,0.317-2.778,0.859L0,0l1.284,2.567C0.741,3.356,0.422,4.313,0.422,5.345c0,1.029,0.319,1.989,0.862,2.779L0,10.688
		l2.565-1.282c0.793,0.543,1.748,0.859,2.778,0.859c1.032,0,1.986-0.316,2.781-0.859l2.565,1.282L9.408,8.124
		C9.947,7.334,10.268,6.374,10.268,5.345"/>
	<path fill="#FFFFFF"  d="M7.882,6.188H2.799c-0.373,0-0.676-0.379-0.676-0.845S2.426,4.5,2.799,4.5h5.083
		c0.373,0,0.676,0.378,0.676,0.844S8.255,6.188,7.882,6.188"/>
</g>
</svg>
