<?php
if(!isset($color) || $color=="" || strtolower($color)=="black"){$color="000";}
if(strtolower($color)=="red"){$color="ed1c24";}
if(strtolower($color)=="blue"){$color="1c75bc";}
if(strtolower($color)=="green"){$color="00a651";}
if(strtolower($color)=="white"){$color="fff";}
header('Content-Type: text/xml');
// echo xml tag just in case short_open_tags is enabled in PHP config
echo '<?xml version="1.0" encoding="UTF-8"?>';
?>
<!-- Generator: Adobe Illustrator 15.0.0, SVG Export Plug-In . SVG Version: 6.00 Build 0)  -->
<!DOCTYPE svg PUBLIC "-//W3C//DTD SVG 1.1//EN" "http://www.w3.org/Graphics/SVG/1.1/DTD/svg11.dtd">
<svg version="1.1" id="Layer_1" xmlns="http://www.w3.org/2000/svg" xmlns:xlink="http://www.w3.org/1999/xlink" x="0px" y="0px"
	 width="10.691px" height="10.688px" viewBox="0 0 10.691 10.688" enable-background="new 0 0 10.691 10.688" xml:space="preserve">
<g>
	<path fill="#<?php echo $color; ?>" d="M10.268,5.345c0-1.031-0.32-1.988-0.859-2.777L10.691,0L8.125,1.283c-0.794-0.542-1.748-0.859-2.78-0.859
		c-1.031,0-1.986,0.317-2.779,0.859L0,0l1.284,2.567C0.742,3.356,0.423,4.313,0.423,5.345c0,1.029,0.319,1.989,0.861,2.779L0,10.688
		l2.566-1.282c0.793,0.543,1.748,0.859,2.779,0.859c1.032,0,1.986-0.316,2.78-0.859l2.566,1.282L9.409,8.124
		C9.948,7.334,10.268,6.374,10.268,5.345"/>
</g>
<polygon fill="#FFFFFF"  points="7.006,5.57 4.175,9.107 5.247,6.345 2.993,6.204 5.006,3.988 3.063,3.859 5.521,1.58 7.615,1.613 
	6.119,3.16 7.688,3.225 4.773,5.474 "/>
</svg>
