<?php
if(!isset($color) || $color=="" || strtolower($color)=="black"){$color="000";}
if(strtolower($color)=="red"){$color="ed1c24";}
if(strtolower($color)=="blue"){$color="1c75bc";}
if(strtolower($color)=="green"){$color="00a651";}
if(strtolower($color)=="white"){$color="fff";}
header('Content-Type: text/xml');
// echo xml tag just in case short_open_tags is enabled in PHP config
echo '<?xml version="1.0" encoding="UTF-8"?>';
?>
<!-- Generator: Adobe Illustrator 15.0.0, SVG Export Plug-In . SVG Version: 6.00 Build 0)  -->
<!DOCTYPE svg PUBLIC "-//W3C//DTD SVG 1.1//EN" "http://www.w3.org/Graphics/SVG/1.1/DTD/svg11.dtd">
<svg version="1.1" id="Blast_Trigger_1_" xmlns="http://www.w3.org/2000/svg" xmlns:xlink="http://www.w3.org/1999/xlink" x="0px"
	 y="0px" width="10.892px" height="10.872px" viewBox="0 0 10.892 10.872" enable-background="new 0 0 10.892 10.872"
	 xml:space="preserve">
<polygon fill="#<?php echo $color; ?>" id="Blast_Trigger" points="0.02,10.872 1.38,8.829 0,6.712 1.38,5.437 0.02,1.36 3.416,2.718 5.457,0 7.496,2.718 
	10.892,1.36 9.533,5.437 10.892,6.794 9.533,8.829 10.892,10.872 "/>
<g>
	<g>
		<g>
			<g>
				<path fill="#FFFFFF"  d="M6.146,5.061l1.609-1.612C7.883,3.32,8.133,3.361,8.31,3.537C8.487,3.714,8.528,3.962,8.397,4.09
					L6.785,5.704c-0.128,0.128-0.375,0.09-0.551-0.09C6.057,5.437,6.016,5.191,6.146,5.061"/>
				<path fill="#FFFFFF"  d="M4.994,2.68c0-0.184,0.201-0.329,0.451-0.329c0.25,0,0.455,0.146,0.455,0.329v2.279
					c0,0.183-0.204,0.33-0.455,0.33c-0.25,0-0.451-0.147-0.451-0.33V2.68z"/>
				<path fill="#FFFFFF"  d="M2.58,3.537C2.757,3.361,3.006,3.32,3.134,3.449l1.612,1.612c0.128,0.131,0.09,0.376-0.087,0.553
					c-0.176,0.18-0.426,0.218-0.554,0.09L2.492,4.09C2.364,3.961,2.403,3.714,2.58,3.537"/>
				<path fill="#FFFFFF"  d="M1.395,6.403c0-0.253,0.146-0.456,0.328-0.456h2.282c0.182,0,0.329,0.203,0.329,0.456
					c0,0.249-0.147,0.454-0.329,0.454H1.722C1.54,6.857,1.394,6.652,1.395,6.403"/>
				<path fill="#FFFFFF"  d="M4.746,7.743L3.134,9.355C3.006,9.482,2.757,9.444,2.58,9.267S2.364,8.84,2.492,8.712L4.105,7.1
					c0.128-0.128,0.378-0.09,0.554,0.089C4.836,7.365,4.875,7.615,4.746,7.743"/>
				<path fill="#FFFFFF"  d="M5.899,10.124c0,0.183-0.204,0.329-0.455,0.329c-0.25,0-0.454-0.146-0.454-0.329l0.002-2.278
					C4.991,7.661,5.195,7.514,5.445,7.514c0.25,0,0.455,0.146,0.455,0.331V10.124z"/>
				<path fill="#FFFFFF"  d="M5.445,7.121c-0.396,0-0.718-0.322-0.718-0.718c0-0.398,0.321-0.721,0.718-0.721
					c0.397,0,0.718,0.322,0.718,0.721C6.163,6.798,5.842,7.121,5.445,7.121"/>
				<path fill="#FFFFFF"  d="M8.31,9.267C8.133,9.445,7.883,9.483,7.755,9.354L6.146,7.743c-0.13-0.128-0.092-0.378,0.087-0.555
					C6.41,7.01,6.657,6.972,6.785,7.1l1.612,1.613C8.528,8.84,8.487,9.09,8.31,9.267"/>
				<path fill="#FFFFFF"  d="M9.167,6.857H6.888c-0.185,0-0.331-0.204-0.331-0.454c0-0.253,0.146-0.455,0.331-0.455h2.279
					c0.182,0,0.332,0.202,0.332,0.455C9.498,6.653,9.349,6.857,9.167,6.857"/>
			</g>
		</g>
	</g>
</g>
</svg>
