<?php
if(!isset($color) || $color=="" || strtolower($color)=="black"){$color="000";}
if(strtolower($color)=="red"){$color="ed1c24";}
if(strtolower($color)=="blue"){$color="1c75bc";}
if(strtolower($color)=="green"){$color="00a651";}
if(strtolower($color)=="white"){$color="fff";}
header('Content-Type: text/xml');
// echo xml tag just in case short_open_tags is enabled in PHP config
echo '<?xml version="1.0" encoding="UTF-8"?>';
?>
<!-- Generator: Adobe Illustrator 15.0.0, SVG Export Plug-In . SVG Version: 6.00 Build 0)  -->
<!DOCTYPE svg PUBLIC "-//W3C//DTD SVG 1.1//EN" "http://www.w3.org/Graphics/SVG/1.1/DTD/svg11.dtd">
<svg version="1.1" id="Layer_1" xmlns="http://www.w3.org/2000/svg" xmlns:xlink="http://www.w3.org/1999/xlink" x="0px" y="0px"
	 width="11.073px" height="10.526px" viewBox="0 0 11.073 10.526" enable-background="new 0 0 11.073 10.526" xml:space="preserve">
<path fill="#<?php echo $color; ?>" id="Power_Trigger" d="M1.086,5.776C1.91,7.205,3.104,8.285,4.476,8.97l-0.898,1.557c1.854-0.59,3.505-1.848,4.555-3.666
	C8.964,5.421,9.302,3.83,9.2,2.286h1.873C9.634,0.974,7.72,0.175,5.62,0.175c-1.681,0-3.237,0.513-4.531,1.387L0.188,0
	C-0.229,1.901,0.037,3.959,1.086,5.776"/>
<g>
	<path fill="#FFFFFF"  d="M3.668,3.729c0-0.81,0.779-1.47,1.761-1.515C5.089,1.785,4.607,1.515,4.07,1.515
		c-1.031,0-1.866,0.99-1.866,2.213c0,1.222,0.835,2.212,1.866,2.212c0.537,0,1.019-0.269,1.358-0.699
		C4.447,5.199,3.668,4.538,3.668,3.729"/>
	<path fill="#FFFFFF"  d="M6.279,5.28c0,0.81-0.779,1.47-1.759,1.514c0.34,0.43,0.822,0.698,1.359,0.698
		c1.031,0,1.865-0.99,1.865-2.212c0-1.222-0.834-2.213-1.865-2.213c-0.537,0-1.019,0.271-1.359,0.699
		C5.5,3.811,6.279,4.47,6.279,5.28"/>
</g>
</svg>
