<?php
if(!isset($color) || $color=="" || strtolower($color)=="black"){$color="000";}
if(strtolower($color)=="red"){$color="ed1c24";}
if(strtolower($color)=="blue"){$color="1c75bc";}
if(strtolower($color)=="green"){$color="00a651";}
if(strtolower($color)=="white"){$color="fff";}
header('Content-Type: text/xml');
// echo xml tag just in case short_open_tags is enabled in PHP config
echo '<?xml version="1.0" encoding="UTF-8"?>';
?>
<!-- Generator: Adobe Illustrator 15.0.0, SVG Export Plug-In . SVG Version: 6.00 Build 0)  -->
<!DOCTYPE svg PUBLIC "-//W3C//DTD SVG 1.1//EN" "http://www.w3.org/Graphics/SVG/1.1/DTD/svg11.dtd">
<svg version="1.1" id="Layer_1" xmlns="http://www.w3.org/2000/svg" xmlns:xlink="http://www.w3.org/1999/xlink" x="0px" y="0px"
	 width="11.073px" height="10.526px" viewBox="0 0 11.073 10.526" enable-background="new 0 0 11.073 10.526" xml:space="preserve">
<g>
	<path fill="#<?php echo $color; ?>" d="M1.085,5.776c0.825,1.429,2.018,2.508,3.39,3.193l-0.899,1.557c1.855-0.59,3.505-1.848,4.555-3.666
		C8.964,5.421,9.302,3.83,9.2,2.285h1.873C9.634,0.974,7.72,0.175,5.62,0.175c-1.679,0-3.237,0.513-4.531,1.387L0.188,0
		C-0.229,1.901,0.037,3.959,1.085,5.776"/>
	<path fill="#FFFFFF"  d="M3.713,4.62L2.932,7.323L2.307,5.544l1.195-1.619l0.575,1.067c0,0,2.761-1.592,2.738-1.553L6.588,2.979
		l1.803-0.133L7.346,4.589c0,0-0.242-0.478-0.258-0.512C7.073,4.042,4.424,6.042,4.424,6.042L3.713,4.62z M4.364,4.102
		c0,0,2.648-2,2.664-1.965s0.258,0.512,0.258,0.512l1.045-1.742L6.528,1.039L6.755,1.5c0.023-0.039-2.738,1.552-2.738,1.552
		L3.442,1.984L2.247,3.604l0.364,1.035l0.756-0.968L3.653,2.68L4.364,4.102z"/>
</g>
</svg>
