<?php
if(!isset($color) || $color=="" || strtolower($color)=="black"){$color="000";}
if(strtolower($color)=="red"){$color="ed1c24";}
if(strtolower($color)=="blue"){$color="1c75bc";}
if(strtolower($color)=="green"){$color="00a651";}
if(strtolower($color)=="white"){$color="fff";}
header('Content-Type: text/xml');
// echo xml tag just in case short_open_tags is enabled in PHP config
echo '<?xml version="1.0" encoding="UTF-8"?>';
?>
<!-- Generator: Adobe Illustrator 15.0.0, SVG Export Plug-In . SVG Version: 6.00 Build 0)  -->
<!DOCTYPE svg PUBLIC "-//W3C//DTD SVG 1.1//EN" "http://www.w3.org/Graphics/SVG/1.1/DTD/svg11.dtd">
<svg version="1.1" id="Layer_1" xmlns="http://www.w3.org/2000/svg" xmlns:xlink="http://www.w3.org/1999/xlink" x="0px" y="0px"
	 width="11.072px" height="10.527px" viewBox="0 0 11.072 10.527" enable-background="new 0 0 11.072 10.527" xml:space="preserve">
<g>
	<path fill="#<?php echo $color; ?>" d="M1.085,5.777c0.825,1.428,2.018,2.508,3.39,3.192l-0.899,1.558c1.855-0.59,3.505-1.849,4.555-3.666
		C8.963,5.421,9.301,3.83,9.2,2.286h1.873C9.633,0.975,7.72,0.175,5.62,0.175c-1.679,0-3.237,0.514-4.531,1.388L0.188,0
		C-0.229,1.902,0.037,3.959,1.085,5.777"/>
</g>
<polygon fill="#FFFFFF"  points="7.247,2.27 4.139,5.864 5.876,5.864 5.876,5.385 8.379,6.143 5.876,6.899 5.876,6.432 2.524,6.432 
	5.629,2.838 4.467,2.838 4.644,3.015 3.871,3.788 3.409,3.326 2.947,3.788 2.173,3.015 2.635,2.554 2.173,2.093 2.947,1.318 
	3.409,1.78 3.871,1.318 4.644,2.093 4.467,2.27 "/>
</svg>
