<?php
if(!isset($color) || $color=="" || strtolower($color)=="black"){$color="000";}
if(strtolower($color)=="red"){$color="ed1c24";}
if(strtolower($color)=="blue"){$color="1c75bc";}
if(strtolower($color)=="green"){$color="00a651";}
if(strtolower($color)=="white"){$color="fff";}
header('Content-Type: text/xml');
// echo xml tag just in case short_open_tags is enabled in PHP config
echo '<?xml version="1.0" encoding="UTF-8"?>';
?>
<!-- Generator: Adobe Illustrator 15.0.0, SVG Export Plug-In . SVG Version: 6.00 Build 0)  -->
<!DOCTYPE svg PUBLIC "-//W3C//DTD SVG 1.1//EN" "http://www.w3.org/Graphics/SVG/1.1/DTD/svg11.dtd">
<svg version="1.1" id="Layer_1" xmlns="http://www.w3.org/2000/svg" xmlns:xlink="http://www.w3.org/1999/xlink" x="0px" y="0px"
	 width="10.69px" height="10.69px" viewBox="0 0 10.69 10.69" enable-background="new 0 0 10.69 10.69" xml:space="preserve">
<g>
	<path fill="#<?php echo $color; ?>" d="M10.268,5.345c0-1.031-0.32-1.988-0.859-2.777L10.69,0L8.125,1.283C7.33,0.741,6.376,0.424,5.345,0.424
		S3.358,0.741,2.565,1.283L0,0l1.284,2.568C0.741,3.357,0.423,4.314,0.423,5.345c0,1.029,0.318,1.989,0.861,2.779L0,10.69
		l2.565-1.284c0.793,0.543,1.748,0.86,2.779,0.86s1.985-0.317,2.78-0.86l2.565,1.284L9.408,8.124
		C9.947,7.334,10.268,6.374,10.268,5.345"/>
	<path fill="#FFFFFF"  d="M3.94,4.513c0-0.868,0.835-1.576,1.888-1.624C5.463,2.429,4.947,2.14,4.371,2.14c-1.104,0-2,1.062-2,2.373
		c0,1.31,0.896,2.372,2,2.372c0.576,0,1.092-0.288,1.457-0.749C4.775,6.09,3.94,5.381,3.94,4.513"/>
	<path fill="#FFFFFF"  d="M6.74,6.176c0,0.869-0.835,1.576-1.886,1.624c0.364,0.461,0.881,0.748,1.456,0.748c1.105,0,2-1.062,2-2.372
		s-0.895-2.373-2-2.373c-0.575,0-1.092,0.29-1.456,0.749C5.905,4.601,6.74,5.308,6.74,6.176"/>
</g>
</svg>
