<?php
if(!isset($color) || $color=="" || strtolower($color)=="black"){$color="000";}
if(strtolower($color)=="red"){$color="ed1c24";}
if(strtolower($color)=="blue"){$color="1c75bc";}
if(strtolower($color)=="green"){$color="00a651";}
if(strtolower($color)=="white"){$color="fff";}
header('Content-Type: text/xml');
// echo xml tag just in case short_open_tags is enabled in PHP config
echo '<?xml version="1.0" encoding="UTF-8"?>';
?>
<!-- Generator: Adobe Illustrator 15.0.0, SVG Export Plug-In . SVG Version: 6.00 Build 0)  -->
<!DOCTYPE svg PUBLIC "-//W3C//DTD SVG 1.1//EN" "http://www.w3.org/Graphics/SVG/1.1/DTD/svg11.dtd">
<svg version="1.1" id="Layer_1" xmlns="http://www.w3.org/2000/svg" xmlns:xlink="http://www.w3.org/1999/xlink" x="0px" y="0px"
	 width="11.073px" height="10.526px" viewBox="0 0 11.073 10.526" enable-background="new 0 0 11.073 10.526" xml:space="preserve">
<path fill="#<?php echo $color; ?>" id="Power_Trigger" d="M1.086,5.776C1.91,7.205,3.104,8.285,4.476,8.97l-0.898,1.557c1.854-0.59,3.505-1.848,4.555-3.666
	C8.964,5.421,9.302,3.83,9.2,2.286h1.873C9.634,0.974,7.72,0.175,5.62,0.175c-1.681,0-3.237,0.513-4.531,1.387L0.188,0
	C-0.229,1.901,0.037,3.959,1.086,5.776"/>
<g>
	<path fill="#FFFFFF"  d="M7.204,4.915c0.287,0.286,1.015,1.025,1.015,1.025S7.91,4.646,7.811,4.222
		C7.712,3.798,7.441,2.417,7.441,2.417L7.056,2.899C6.523,2.272,5.788,1.92,4.994,1.92c-0.445,0-0.906,0.113-1.358,0.347
		c-0.896,0.466-1.638,1.3-1.992,2.28C1.594,4.687,1.5,5.023,1.5,5.023l0.509,0.538c0,0,0.076-0.176,0.087-0.201
		c0.361-0.802,0.859-1.648,1.607-2.037C4.131,3.1,4.563,2.998,4.979,2.998c0.569,0,1.108,0.195,1.555,0.555L6.181,4.037
		C6.181,4.037,6.916,4.629,7.204,4.915"/>
</g>
</svg>
