<?php
if(!isset($color) || $color=="" || strtolower($color)=="black"){$color="000";}
if(strtolower($color)=="red"){$color="ed1c24";}
if(strtolower($color)=="blue"){$color="1c75bc";}
if(strtolower($color)=="green"){$color="00a651";}
if(strtolower($color)=="white"){$color="fff";}
header('Content-Type: text/xml');
// echo xml tag just in case short_open_tags is enabled in PHP config
echo '<?xml version="1.0" encoding="UTF-8"?>';
?>
<!-- Generator: Adobe Illustrator 15.0.0, SVG Export Plug-In . SVG Version: 6.00 Build 0)  -->
<!DOCTYPE svg PUBLIC "-//W3C//DTD SVG 1.1//EN" "http://www.w3.org/Graphics/SVG/1.1/DTD/svg11.dtd">
<svg version="1.1" id="Layer_1" xmlns="http://www.w3.org/2000/svg" xmlns:xlink="http://www.w3.org/1999/xlink" x="0px" y="0px"
	 width="10.69px" height="10.689px" viewBox="0 0 10.69 10.689" enable-background="new 0 0 10.69 10.689" xml:space="preserve">
<g>
	<g>
		<g>
			<g>
				<path fill="#<?php echo $color; ?>" d="M10.268,5.346c0-1.031-0.32-1.989-0.859-2.777L10.69,0L8.125,1.283c-0.794-0.542-1.749-0.859-2.78-0.859
					c-1.032,0-1.986,0.317-2.779,0.859L0,0l1.284,2.568C0.742,3.356,0.423,4.314,0.423,5.346c0,1.028,0.319,1.988,0.861,2.778
					L0,10.689l2.565-1.283c0.793,0.543,1.748,0.859,2.779,0.859c1.031,0,1.986-0.316,2.78-0.859l2.565,1.283L9.408,8.124
					C9.948,7.334,10.268,6.374,10.268,5.346"/>
			</g>
			<g>
				<path fill="#FFFFFF"  d="M8.74,5.003c0-0.645-0.114-1.393-0.418-2.244c-0.006,0-1.487,0.273-3.059,0.273
					c-1.57,0-2.902-0.273-2.902-0.273c-0.304,0.849-0.418,1.596-0.42,2.239C1.938,6.935,2.968,7.93,2.968,7.93
					S2.924,6.06,3.091,4.889c0.036-0.264,0.103-0.507,0.179-0.73c0,0,0.951,0.195,1.994,0.195c1.044,0,2.15-0.195,2.15-0.195
					c0.076,0.224,0.142,0.467,0.179,0.73C7.757,6.06,7.713,7.93,7.713,7.93S8.74,6.938,8.74,5.003"/>
			</g>
		</g>
	</g>
</g>
</svg>
