<?php
if(!isset($color) || $color=="" || strtolower($color)=="black"){$color="000";}
if(strtolower($color)=="red"){$color="ed1c24";}
if(strtolower($color)=="blue"){$color="1c75bc";}
if(strtolower($color)=="green"){$color="00a651";}
if(strtolower($color)=="white"){$color="fff";}
header('Content-Type: text/xml');
// echo xml tag just in case short_open_tags is enabled in PHP config
echo '<?xml version="1.0" encoding="UTF-8"?>';
?>
<!-- Generator: Adobe Illustrator 15.0.0, SVG Export Plug-In . SVG Version: 6.00 Build 0)  -->
<!DOCTYPE svg PUBLIC "-//W3C//DTD SVG 1.1//EN" "http://www.w3.org/Graphics/SVG/1.1/DTD/svg11.dtd">
<svg version="1.1" id="Brawl_Trigger_1_" xmlns="http://www.w3.org/2000/svg" xmlns:xlink="http://www.w3.org/1999/xlink" x="0px"
	 y="0px" width="10.689px" height="10.689px" viewBox="0 0 10.689 10.689" enable-background="new 0 0 10.689 10.689"
	 xml:space="preserve">
<path fill="#<?php echo $color; ?>" id="Brawl_Trigger" d="M10.267,5.346c0-1.031-0.319-1.989-0.858-2.777L10.689,0L8.125,1.283
	C7.33,0.741,6.376,0.425,5.344,0.425c-1.031,0-1.986,0.316-2.779,0.858L0,0l1.284,2.568C0.741,3.356,0.422,4.314,0.422,5.346
	c0,1.028,0.319,1.988,0.862,2.778L0,10.689l2.564-1.283c0.793,0.543,1.748,0.86,2.779,0.86c1.032,0,1.986-0.317,2.781-0.86
	l2.564,1.283L9.408,8.124C9.947,7.334,10.267,6.374,10.267,5.346"/>
<g>
	<path fill="#FFFFFF"  d="M4.625,6.708l3.262,0.051c0.187-0.602,0.342-1.304,0.335-1.957L5.673,5.703
		C5.396,6.003,5.051,6.337,4.625,6.708"/>
	<path fill="#FFFFFF"  d="M6.551,3.684L7.437,3.03C7.106,2.801,6.652,2.658,6.041,2.638L5.67,3.075
		C6.066,3.185,6.41,3.372,6.551,3.684"/>
	<path fill="#FFFFFF"  d="M2.611,8.286h4.676c0,0,0.248-0.49,0.487-1.183l-3.55-0.056C3.766,7.424,3.232,7.836,2.611,8.286"/>
	<path fill="#FFFFFF"  d="M3.895,2.937c0,0,0.778-0.064,1.501,0.074l0.317-0.373C5.206,2.656,4.605,2.75,3.895,2.937"/>
	<path fill="#FFFFFF"  d="M6.071,5.229l2.134-0.753C8.154,3.989,7.992,3.544,7.66,3.216l-1.043,0.77
		C6.624,4.299,6.469,4.706,6.071,5.229"/>
	<path fill="#FFFFFF"  d="M3.619,3.975c-0.549,0-0.996-0.446-0.996-0.994c0-0.551,0.447-0.997,0.996-0.997
		c0.549,0,0.996,0.446,0.996,0.997C4.615,3.529,4.168,3.975,3.619,3.975"/>
	<path fill="#<?php echo $color; ?>" d="M3.619,2.139c0.464,0,0.84,0.377,0.84,0.84c0,0.465-0.376,0.842-0.84,0.842c-0.464,0-0.84-0.377-0.84-0.842
		C2.779,2.516,3.155,2.139,3.619,2.139 M3.619,1.829c-0.635,0-1.152,0.516-1.152,1.15c0,0.636,0.517,1.152,1.152,1.152
		c0.635,0,1.152-0.517,1.152-1.152C4.771,2.344,4.254,1.829,3.619,1.829"/>
</g>
</svg>
