<?php
if(!isset($color) || $color=="" || strtolower($color)=="black"){$color="000";}
if(strtolower($color)=="red"){$color="ed1c24";}
if(strtolower($color)=="blue"){$color="1c75bc";}
if(strtolower($color)=="green"){$color="00a651";}
if(strtolower($color)=="white"){$color="fff";}
header('Content-Type: text/xml');
// echo xml tag just in case short_open_tags is enabled in PHP config
echo '<?xml version="1.0" encoding="UTF-8"?>';
?>
<!-- Generator: Adobe Illustrator 15.0.0, SVG Export Plug-In . SVG Version: 6.00 Build 0)  -->
<!DOCTYPE svg PUBLIC "-//W3C//DTD SVG 1.1//EN" "http://www.w3.org/Graphics/SVG/1.1/DTD/svg11.dtd">
<svg version="1.1" id="Layer_1" xmlns="http://www.w3.org/2000/svg" xmlns:xlink="http://www.w3.org/1999/xlink" x="0px" y="0px"
	 width="11.338px" height="11.315px" viewBox="0 0 11.338 11.315" enable-background="new 0 0 11.338 11.315" xml:space="preserve">
<polygon fill="#<?php echo $color; ?>" points="0.021,11.315 1.436,9.189 0,6.986 1.436,5.658 0.021,1.416 3.556,2.829 5.679,0 7.802,2.829 11.338,1.416 
	9.922,5.658 11.338,7.071 9.922,9.189 11.338,11.315 "/>
<g>
	<path fill="#FFFFFF"  d="M9.207,6.344c0-0.671-0.119-1.449-0.436-2.335c-0.007,0-1.548,0.283-3.184,0.283
		c-1.634,0-3.021-0.283-3.021-0.283c-0.315,0.883-0.435,1.66-0.437,2.33C2.127,8.354,3.199,9.39,3.199,9.39S3.152,7.443,3.327,6.225
		c0.037-0.275,0.106-0.527,0.186-0.76c0,0,0.99,0.202,2.075,0.202c1.087,0,2.238-0.202,2.238-0.202
		c0.079,0.233,0.146,0.485,0.186,0.76C8.183,7.443,8.138,9.39,8.138,9.39S9.207,8.358,9.207,6.344"/>
</g>
</svg>
