<?php
if(!isset($color) || $color=="" || strtolower($color)=="black"){$color="000";}
if(strtolower($color)=="red"){$color="ed1c24";}
if(strtolower($color)=="blue"){$color="1c75bc";}
if(strtolower($color)=="green"){$color="00a651";}
if(strtolower($color)=="white"){$color="fff";}
header('Content-Type: text/xml');
// echo xml tag just in case short_open_tags is enabled in PHP config
echo '<?xml version="1.0" encoding="UTF-8"?>';
?>
<!-- Generator: Adobe Illustrator 15.0.0, SVG Export Plug-In . SVG Version: 6.00 Build 0)  -->
<!DOCTYPE svg PUBLIC "-//W3C//DTD SVG 1.1//EN" "http://www.w3.org/Graphics/SVG/1.1/DTD/svg11.dtd">
<svg version="1.1" id="Layer_1" xmlns="http://www.w3.org/2000/svg" xmlns:xlink="http://www.w3.org/1999/xlink" x="0px" y="0px"
	 width="10.894px" height="10.871px" viewBox="0 0 10.894 10.871" enable-background="new 0 0 10.894 10.871" xml:space="preserve">
<polygon fill="#<?php echo $color; ?>" points="0.021,10.871 1.381,8.827 0,6.711 1.381,5.436 0.021,1.359 3.417,2.718 5.457,0 7.497,2.718 10.894,1.359 
	9.533,5.436 10.894,6.793 9.533,8.827 10.894,10.871 "/>
<g>
	<path fill="#FFFFFF"  d="M3.735,7.166L2.954,9.869L2.329,8.092l1.195-1.62l0.575,1.066c0,0,2.761-1.59,2.738-1.551L6.61,5.526
		l1.803-0.133L7.368,7.136c0,0-0.242-0.477-0.258-0.513C7.095,6.588,4.446,8.588,4.446,8.588L3.735,7.166z M4.386,6.649
		c0,0,2.648-2,2.664-1.965C7.066,4.72,7.308,5.195,7.308,5.195l1.045-1.741L6.55,3.586l0.227,0.462C6.8,4.009,4.039,5.6,4.039,5.6
		L3.464,4.531l-1.195,1.62l0.364,1.035L3.389,6.22l0.286-0.992L4.386,6.649z"/>
</g>
</svg>
