<?php
if(!isset($color) || $color=="" || strtolower($color)=="black"){$color="000";}
if(strtolower($color)=="red"){$color="ed1c24";}
if(strtolower($color)=="blue"){$color="1c75bc";}
if(strtolower($color)=="green"){$color="00a651";}
if(strtolower($color)=="white"){$color="fff";}
header('Content-Type: text/xml');
// echo xml tag just in case short_open_tags is enabled in PHP config
echo '<?xml version="1.0" encoding="UTF-8"?>';
?>
<!-- Generator: Adobe Illustrator 15.0.0, SVG Export Plug-In . SVG Version: 6.00 Build 0)  -->
<!DOCTYPE svg PUBLIC "-//W3C//DTD SVG 1.1//EN" "http://www.w3.org/Graphics/SVG/1.1/DTD/svg11.dtd">
<svg version="1.1" id="Layer_1" xmlns="http://www.w3.org/2000/svg" xmlns:xlink="http://www.w3.org/1999/xlink" x="0px" y="0px"
	 width="11.073px" height="10.526px" viewBox="0 0 11.073 10.526" enable-background="new 0 0 11.073 10.526" xml:space="preserve">
<path fill="#<?php echo $color; ?>" id="Power_Trigger" d="M1.086,5.776C1.91,7.205,3.104,8.285,4.476,8.97l-0.898,1.557c1.854-0.59,3.505-1.848,4.555-3.666
	C8.964,5.421,9.302,3.83,9.2,2.286h1.873C9.634,0.974,7.72,0.175,5.62,0.175c-1.681,0-3.237,0.513-4.531,1.387L0.188,0
	C-0.229,1.901,0.037,3.959,1.086,5.776"/>
<g>
	<g>
		<g>
			<g>
				<path fill="#FFFFFF"  d="M5.641,3.382l1.39-1.393C7.142,1.877,7.357,1.913,7.51,2.065c0.153,0.153,0.188,0.368,0.076,0.479
					L6.191,3.937c-0.109,0.11-0.323,0.078-0.476-0.078C5.563,3.707,5.528,3.494,5.641,3.382"/>
				<path fill="#FFFFFF"  d="M4.646,1.325c0-0.159,0.173-0.285,0.389-0.285s0.393,0.126,0.393,0.285v1.969
					c0,0.158-0.177,0.285-0.393,0.285S4.646,3.452,4.646,3.294V1.325z"/>
				<path fill="#FFFFFF"  d="M2.56,2.065c0.153-0.152,0.368-0.188,0.479-0.076l1.392,1.393c0.111,0.113,0.078,0.325-0.075,0.478
					C4.204,4.015,3.987,4.047,3.877,3.937L2.483,2.543C2.373,2.432,2.407,2.218,2.56,2.065"/>
				<path fill="#FFFFFF"  d="M1.536,4.541c0-0.219,0.125-0.395,0.283-0.395H3.79c0.157,0,0.284,0.176,0.284,0.395
					c0,0.215-0.127,0.393-0.284,0.393H1.818C1.661,4.934,1.535,4.756,1.536,4.541"/>
				<path fill="#FFFFFF"  d="M4.431,5.698L3.039,7.091C2.927,7.201,2.712,7.168,2.56,7.015C2.407,6.863,2.373,6.646,2.483,6.536
					l1.394-1.393c0.11-0.11,0.327-0.078,0.479,0.077C4.509,5.372,4.542,5.588,4.431,5.698"/>
				<path fill="#FFFFFF"  d="M5.427,7.755c0,0.158-0.177,0.285-0.393,0.285S4.644,7.913,4.644,7.755l0.002-1.968
					c-0.002-0.16,0.173-0.286,0.389-0.286s0.393,0.126,0.393,0.286V7.755z"/>
				<path fill="#FFFFFF"  d="M5.034,5.161c-0.343,0-0.62-0.278-0.62-0.62c0-0.344,0.277-0.623,0.62-0.623s0.621,0.278,0.621,0.623
					C5.655,4.883,5.377,5.161,5.034,5.161"/>
				<path fill="#FFFFFF"  d="M7.51,7.015C7.355,7.169,7.14,7.202,7.03,7.09l-1.39-1.392c-0.112-0.11-0.079-0.327,0.075-0.479
					c0.152-0.154,0.366-0.187,0.476-0.076l1.395,1.394C7.698,6.646,7.663,6.863,7.51,7.015"/>
				<path fill="#FFFFFF"  d="M8.25,4.934H6.281c-0.16,0-0.287-0.177-0.287-0.393c0-0.219,0.127-0.394,0.287-0.394H8.25
					c0.157,0,0.285,0.175,0.285,0.394C8.535,4.757,8.407,4.934,8.25,4.934"/>
			</g>
		</g>
	</g>
</g>
</svg>
