<?php
if(!isset($color) || $color=="" || strtolower($color)=="black"){$color="000";}
if(strtolower($color)=="red"){$color="ed1c24";}
if(strtolower($color)=="blue"){$color="1c75bc";}
if(strtolower($color)=="green"){$color="00a651";}
if(strtolower($color)=="white"){$color="fff";}
header('Content-Type: text/xml');
// echo xml tag just in case short_open_tags is enabled in PHP config
echo '<?xml version="1.0" encoding="UTF-8"?>';
?>
<!-- Generator: Adobe Illustrator 15.0.0, SVG Export Plug-In . SVG Version: 6.00 Build 0)  -->
<!DOCTYPE svg PUBLIC "-//W3C//DTD SVG 1.1//EN" "http://www.w3.org/Graphics/SVG/1.1/DTD/svg11.dtd">
<svg version="1.1" id="Layer_1" xmlns="http://www.w3.org/2000/svg" xmlns:xlink="http://www.w3.org/1999/xlink" x="0px" y="0px"
	 width="11.073px" height="10.528px" viewBox="0 0 11.073 10.528" enable-background="new 0 0 11.073 10.528" xml:space="preserve">
<g>
	<path fill="#<?php echo $color; ?>" d="M1.085,5.777c0.825,1.428,2.018,2.508,3.39,3.194l-0.899,1.557c1.855-0.591,3.505-1.849,4.555-3.667
		C8.964,5.42,9.302,3.83,9.2,2.286h1.873C9.634,0.974,7.72,0.175,5.62,0.175c-1.679,0-3.237,0.512-4.531,1.387L0.188,0
		C-0.229,1.902,0.037,3.958,1.085,5.777"/>
	<path fill="#FFFFFF"  d="M7.499,2.981C7.312,3.256,7.007,3.437,6.661,3.437c-0.035,0-0.07-0.002-0.107-0.005
		C6.489,3.555,6.4,3.666,6.293,3.752C6.286,4.014,6.3,4.705,6.589,5.186C6.954,5.79,7.316,6.205,7.316,6.205s0.147,0.181,0,0.181
		c-0.145,0-0.436,0-0.619-0.181C6.101,5.61,5.861,4.821,5.861,4.821S5.643,4.944,5.788,5.216l0.145,0.272
		c0,0,0.657,0.816,0.91,0.996c0.256,0.182,0.366,0.485,0.366,0.485H2.767c0,0,0.109-0.303,0.364-0.485
		c0.254-0.18,0.91-0.996,0.91-0.996l0.145-0.272c0.146-0.272-0.072-0.395-0.072-0.395S3.873,5.61,3.277,6.205
		C3.095,6.386,2.804,6.386,2.657,6.386c-0.145,0,0-0.181,0-0.181S3.021,5.79,3.385,5.186c0.281-0.464,0.302-1.123,0.296-1.404
		C3.56,3.689,3.457,3.571,3.383,3.432C3.349,3.435,3.313,3.437,3.277,3.437c-0.347,0-0.652-0.181-0.839-0.456
		c-0.366-0.18-0.583-0.397-0.583-0.635c0-0.237,0.217-0.456,0.583-0.635c0.187-0.277,0.492-0.458,0.839-0.458
		c0.12,0,0.237,0.023,0.345,0.064C3.81,1.119,4.066,0.998,4.351,0.998C4.357,0.998,4.366,1,4.372,1
		c0.137-0.07,0.289-0.112,0.45-0.112c0.05,0,0.099,0.006,0.146,0.014c0.049-0.008,0.098-0.014,0.148-0.014
		C5.275,0.888,5.43,0.93,5.564,1c0.01,0,0.014-0.002,0.023-0.002c0.283,0,0.541,0.121,0.727,0.319
		c0.109-0.041,0.224-0.064,0.346-0.064c0.347,0,0.651,0.181,0.838,0.458C7.864,1.89,8.082,2.109,8.082,2.346
		C8.082,2.584,7.864,2.801,7.499,2.981"/>
</g>
</svg>
