<?php
if(!isset($color) || $color=="" || strtolower($color)=="black"){$color="000";}
if(strtolower($color)=="red"){$color="ed1c24";}
if(strtolower($color)=="blue"){$color="1c75bc";}
if(strtolower($color)=="green"){$color="00a651";}
if(strtolower($color)=="white"){$color="fff";}
header('Content-Type: text/xml');
// echo xml tag just in case short_open_tags is enabled in PHP config
echo '<?xml version="1.0" encoding="UTF-8"?>';
?>
<!-- Generator: Adobe Illustrator 15.0.0, SVG Export Plug-In . SVG Version: 6.00 Build 0)  -->
<!DOCTYPE svg PUBLIC "-//W3C//DTD SVG 1.1//EN" "http://www.w3.org/Graphics/SVG/1.1/DTD/svg11.dtd">
<svg version="1.1" id="Layer_1" xmlns="http://www.w3.org/2000/svg" xmlns:xlink="http://www.w3.org/1999/xlink" x="0px" y="0px"
	 width="10.69px" height="10.689px" viewBox="0 0 10.69 10.689" enable-background="new 0 0 10.69 10.689" xml:space="preserve">
<g>
	<path fill="#<?php echo $color; ?>" d="M10.267,5.345c0-1.031-0.32-1.988-0.859-2.777L10.69,0L8.125,1.283C7.33,0.741,6.376,0.424,5.344,0.424
		c-1.031,0-1.986,0.317-2.779,0.859L0,0l1.284,2.568C0.741,3.357,0.422,4.314,0.422,5.345c0,1.029,0.319,1.989,0.862,2.779L0,10.689
		l2.565-1.283c0.793,0.543,1.748,0.86,2.779,0.86c1.032,0,1.986-0.317,2.781-0.86l2.565,1.283L9.408,8.124
		C9.947,7.334,10.267,6.374,10.267,5.345"/>
	<path fill="#FFFFFF"  d="M7.843,6.397C8.15,6.702,8.926,7.491,8.926,7.491S8.596,6.11,8.49,5.657C8.386,5.204,8.096,3.73,8.096,3.73
		L7.684,4.245c-0.568-0.671-1.353-1.046-2.2-1.046c-0.476,0-0.968,0.12-1.45,0.37C3.077,4.066,2.285,4.957,1.907,6.004
		C1.853,6.153,1.753,6.512,1.753,6.512l0.543,0.575c0,0,0.081-0.189,0.093-0.216c0.386-0.855,0.917-1.759,1.716-2.175
		C4.562,4.459,5.023,4.35,5.467,4.35c0.609,0,1.184,0.207,1.661,0.593L6.751,5.459C6.751,5.459,7.536,6.091,7.843,6.397"/>
</g>
</svg>
