<?php
if(!isset($color) || $color=="" || strtolower($color)=="black"){$color="000";}
if(strtolower($color)=="red"){$color="ed1c24";}
if(strtolower($color)=="blue"){$color="1c75bc";}
if(strtolower($color)=="green"){$color="00a651";}
if(strtolower($color)=="white"){$color="fff";}
header('Content-Type: text/xml');
// echo xml tag just in case short_open_tags is enabled in PHP config
echo '<?xml version="1.0" encoding="UTF-8"?>';
?>
<!-- Generator: Adobe Illustrator 15.0.0, SVG Export Plug-In . SVG Version: 6.00 Build 0)  -->
<!DOCTYPE svg PUBLIC "-//W3C//DTD SVG 1.1//EN" "http://www.w3.org/Graphics/SVG/1.1/DTD/svg11.dtd">
<svg version="1.1" id="Layer_1" xmlns="http://www.w3.org/2000/svg" xmlns:xlink="http://www.w3.org/1999/xlink" x="0px" y="0px"
	 width="10.894px" height="10.872px" viewBox="0 0 10.894 10.872" enable-background="new 0 0 10.894 10.872" xml:space="preserve">
<polygon fill="#<?php echo $color; ?>" points="0.021,10.872 1.381,8.829 0,6.712 1.381,5.437 0.021,1.36 3.417,2.719 5.457,0 7.497,2.719 10.894,1.36 
	9.533,5.437 10.894,6.794 9.533,8.829 10.894,10.872 "/>
<polygon fill="#FFFFFF"  points="7.706,4.409 4.142,8.532 6.134,8.532 6.134,7.983 9.007,8.852 6.134,9.721 6.134,9.184 2.29,9.184 
	5.852,5.061 4.518,5.061 4.721,5.264 3.834,6.15 3.305,5.621 2.775,6.15 1.888,5.264 2.417,4.735 1.888,4.205 2.775,3.318 
	3.305,3.848 3.834,3.318 4.721,4.205 4.518,4.409 "/>
</svg>
