<?php
if(!isset($color) || $color=="" || strtolower($color)=="black"){$color="000";}
if(strtolower($color)=="red"){$color="ed1c24";}
if(strtolower($color)=="blue"){$color="1c75bc";}
if(strtolower($color)=="green"){$color="00a651";}
if(strtolower($color)=="white"){$color="fff";}
header('Content-Type: text/xml');
// echo xml tag just in case short_open_tags is enabled in PHP config
echo '<?xml version="1.0" encoding="UTF-8"?>';
?>
<!-- Generator: Adobe Illustrator 15.0.0, SVG Export Plug-In . SVG Version: 6.00 Build 0)  -->
<!DOCTYPE svg PUBLIC "-//W3C//DTD SVG 1.1//EN" "http://www.w3.org/Graphics/SVG/1.1/DTD/svg11.dtd">
<svg version="1.1" id="Layer_1" xmlns="http://www.w3.org/2000/svg" xmlns:xlink="http://www.w3.org/1999/xlink" x="0px" y="0px"
	 width="11.073px" height="10.526px" viewBox="0 0 11.073 10.526" enable-background="new 0 0 11.073 10.526" xml:space="preserve">
<path fill="#<?php echo $color; ?>" id="Power_Trigger" d="M1.086,5.776C1.91,7.205,3.104,8.285,4.476,8.97l-0.898,1.557c1.854-0.59,3.505-1.848,4.555-3.666
	C8.964,5.421,9.302,3.83,9.2,2.286h1.873C9.634,0.974,7.72,0.175,5.62,0.175c-1.681,0-3.237,0.513-4.531,1.387L0.188,0
	C-0.229,1.901,0.037,3.959,1.086,5.776"/>
<rect x="5.652" y="1.074" transform="matrix(0.7066 0.7076 -0.7076 0.7066 2.803 -3.8995)" fill="#FFFFFF"  width="0.904" height="0.713"/>
<rect x="5.447" y="0.998" transform="matrix(0.7071 0.7071 -0.7071 0.7071 2.9889 -3.4376)" fill="#FFFFFF"  width="0.394" height="1.782"/>
<rect x="6.97" y="1.561" transform="matrix(0.7071 0.7071 -0.7071 0.7071 3.5294 -4.6862)" fill="#FFFFFF"  width="0.903" height="0.713"/>
<rect x="6.573" y="1.405" transform="matrix(0.7059 0.7083 -0.7083 0.7059 3.8115 -4.0393)" fill="#FFFFFF"  width="0.393" height="2.33"/>
<polygon fill="#FFFFFF"  points="4.369,6.496 4.293,6.421 2.098,4.228 2.024,4.152 2.098,4.075 4.293,1.882 4.369,1.808 4.445,1.882 
	6.637,4.075 6.713,4.152 6.637,4.228 4.445,6.421 "/>
<path fill="#<?php echo $color; ?>" d="M4.369,1.959l2.193,2.192L4.369,6.345L2.175,4.151L4.369,1.959z M4.369,1.656l-0.15,0.152L2.024,4L1.873,4.151l0.151,0.151
	l2.195,2.193l0.15,0.151l0.152-0.151l2.192-2.193l0.151-0.151L6.713,4L4.521,1.808L4.369,1.656z"/>
<polygon fill="#FFFFFF"  points="5.029,4.66 3.898,6.769 6.16,6.769 "/>
<path fill="#<?php echo $color; ?>" d="M3.628,6.93l1.259-2.347l0.142-0.263L6.428,6.93H3.628z M4.165,6.609h1.729l-0.864-1.61L4.165,6.609z M4.888,4.735
	L5.03,4.66L4.888,4.735z"/>
<rect x="3.069" y="6.59" fill="#FFFFFF"  width="3.92" height="0.814"/>
</svg>
