<?php
if(!isset($color) || $color=="" || strtolower($color)=="black"){$color="000";}
if(strtolower($color)=="red"){$color="ed1c24";}
if(strtolower($color)=="blue"){$color="1c75bc";}
if(strtolower($color)=="green"){$color="00a651";}
if(strtolower($color)=="white"){$color="fff";}
header('Content-Type: text/xml');
// echo xml tag just in case short_open_tags is enabled in PHP config
echo '<?xml version="1.0" encoding="UTF-8"?>';
?>
<!-- Generator: Adobe Illustrator 15.0.0, SVG Export Plug-In . SVG Version: 6.00 Build 0)  -->
<!DOCTYPE svg PUBLIC "-//W3C//DTD SVG 1.1//EN" "http://www.w3.org/Graphics/SVG/1.1/DTD/svg11.dtd">
<svg version="1.1" id="Layer_1" xmlns="http://www.w3.org/2000/svg" xmlns:xlink="http://www.w3.org/1999/xlink" x="0px" y="0px"
	 width="10.691px" height="10.69px" viewBox="0 0 10.691 10.69" enable-background="new 0 0 10.691 10.69" xml:space="preserve">
<g>
	<path fill="#<?php echo $color; ?>" d="M10.268,5.345c0-1.031-0.32-1.988-0.86-2.777L10.691,0L8.125,1.283c-0.794-0.542-1.749-0.859-2.78-0.859
		c-1.032,0-1.986,0.317-2.779,0.859L0,0l1.284,2.568C0.742,3.357,0.423,4.314,0.423,5.345c0,1.029,0.319,1.988,0.861,2.779L0,10.69
		l2.566-1.284c0.793,0.543,1.747,0.86,2.779,0.86c1.031,0,1.986-0.317,2.78-0.86l2.566,1.284L9.408,8.125
		C9.948,7.333,10.268,6.375,10.268,5.345"/>
	<path fill="#FFFFFF"  d="M8.824,5.343c0.002-0.82-0.29-1.646-0.882-2.305C7.253,2.269,6.3,1.877,5.344,1.877
		c-0.828,0-1.66,0.295-2.325,0.89C2.25,3.454,1.859,4.41,1.859,5.365c0,0.827,0.295,1.66,0.889,2.325
		C3.012,7.982,3.315,8.205,3.63,8.38l0.229,0.133l0.633-1.15L4.269,7.236C4.065,7.119,3.885,6.985,3.729,6.812
		C3.356,6.394,3.176,5.878,3.176,5.364c0-0.597,0.243-1.187,0.721-1.615c0.415-0.373,0.93-0.554,1.448-0.554
		c0.596,0,1.188,0.242,1.617,0.722C7.331,4.328,7.509,4.835,7.51,5.351C7.509,5.759,7.393,6.171,7.164,6.53L6.581,5.88L5.622,8.812
		l3.02-0.635L8.059,7.529C8.563,6.894,8.824,6.118,8.824,5.343"/>
</g>
</svg>
