<?php
if(!isset($color) || $color=="" || strtolower($color)=="black"){$color="000";}
if(strtolower($color)=="red"){$color="ed1c24";}
if(strtolower($color)=="blue"){$color="1c75bc";}
if(strtolower($color)=="green"){$color="00a651";}
if(strtolower($color)=="white"){$color="fff";}
header('Content-Type: text/xml');
// echo xml tag just in case short_open_tags is enabled in PHP config
echo '<?xml version="1.0" encoding="UTF-8"?>';
?>
<!-- Generator: Adobe Illustrator 15.0.0, SVG Export Plug-In . SVG Version: 6.00 Build 0)  -->
<!DOCTYPE svg PUBLIC "-//W3C//DTD SVG 1.1//EN" "http://www.w3.org/Graphics/SVG/1.1/DTD/svg11.dtd">
<svg version="1.1" id="Layer_1" xmlns="http://www.w3.org/2000/svg" xmlns:xlink="http://www.w3.org/1999/xlink" x="0px" y="0px"
	 width="10.69px" height="10.69px" viewBox="0 0 10.69 10.69" enable-background="new 0 0 10.69 10.69" xml:space="preserve">
<g>
	<path fill="#<?php echo $color; ?>" d="M10.268,5.345c0-1.031-0.32-1.988-0.859-2.777L10.69,0L8.125,1.283C7.33,0.741,6.376,0.424,5.345,0.424
		S3.358,0.741,2.565,1.283L0,0l1.284,2.568C0.741,3.357,0.422,4.314,0.422,5.345c0,1.029,0.319,1.989,0.862,2.779L0,10.69
		l2.565-1.284c0.793,0.543,1.748,0.86,2.779,0.86s1.985-0.317,2.78-0.86l2.565,1.284L9.408,8.124
		C9.947,7.334,10.268,6.374,10.268,5.345"/>
	<path fill="#FFFFFF"  d="M4.844,5.344c0,0.875-0.708,1.585-1.583,1.585s-1.585-0.71-1.585-1.585c0-0.874,0.71-1.583,1.585-1.583
		S4.844,4.47,4.844,5.344"/>
	<path fill="#FFFFFF"  d="M9.005,5.344c0,0.875-0.71,1.585-1.585,1.585c-0.873,0-1.583-0.71-1.583-1.585
		c0-0.874,0.71-1.583,1.583-1.583C8.295,3.761,9.005,4.47,9.005,5.344"/>
</g>
</svg>
