<?php
if(!isset($color) || $color=="" || strtolower($color)=="black"){$color="000";}
if(strtolower($color)=="red"){$color="ed1c24";}
if(strtolower($color)=="blue"){$color="1c75bc";}
if(strtolower($color)=="green"){$color="00a651";}
if(strtolower($color)=="white"){$color="fff";}
header('Content-Type: text/xml');
// echo xml tag just in case short_open_tags is enabled in PHP config
echo '<?xml version="1.0" encoding="UTF-8"?>';
?>
<!-- Generator: Adobe Illustrator 15.0.0, SVG Export Plug-In . SVG Version: 6.00 Build 0)  -->
<!DOCTYPE svg PUBLIC "-//W3C//DTD SVG 1.1//EN" "http://www.w3.org/Graphics/SVG/1.1/DTD/svg11.dtd">
<svg version="1.1" id="Layer_1" xmlns="http://www.w3.org/2000/svg" xmlns:xlink="http://www.w3.org/1999/xlink" x="0px" y="0px"
	 width="10.69px" height="10.689px" viewBox="0 0 10.69 10.689" enable-background="new 0 0 10.69 10.689" xml:space="preserve">
<g>
	<path fill="#<?php echo $color; ?>" d="M10.268,5.345c0-1.031-0.32-1.988-0.859-2.777L10.69,0L8.125,1.283C7.33,0.741,6.376,0.424,5.345,0.424
		S3.358,0.741,2.565,1.283L0,0l1.284,2.568C0.741,3.357,0.422,4.314,0.422,5.345c0,1.029,0.319,1.989,0.862,2.779L0,10.689
		l2.565-1.284c0.793,0.543,1.748,0.86,2.779,0.86s1.985-0.316,2.78-0.86l2.565,1.284L9.408,8.124
		C9.947,7.334,10.268,6.374,10.268,5.345"/>
</g>
<polygon fill="#FFFFFF"  points="8.087,3.309 8.087,2.416 7.194,2.416 4.116,5.496 5.008,6.387 "/>
<g>
	<path fill="#FFFFFF"  d="M3.241,5.773c-0.12-0.118-0.119-0.313,0-0.431c0.118-0.119,0.312-0.119,0.431,0l1.583,1.583
		c0.119,0.12,0.12,0.312,0,0.431c-0.118,0.118-0.313,0.12-0.431,0L3.241,5.773z"/>
	<path fill="#FFFFFF"  d="M3.314,6.506c-0.059-0.058-0.058-0.154,0-0.211c0.059-0.06,0.153-0.059,0.212,0l0.776,0.776
		c0.059,0.058,0.059,0.153,0,0.211s-0.153,0.058-0.212,0L3.314,6.506z"/>
	<path fill="#FFFFFF"  d="M3.04,6.791c-0.06-0.059-0.059-0.154,0-0.211c0.059-0.059,0.152-0.059,0.211,0l0.776,0.776
		c0.06,0.058,0.06,0.152,0,0.212c-0.058,0.057-0.152,0.058-0.212,0L3.04,6.791z"/>
	<path fill="#FFFFFF"  d="M2.746,7.076c-0.058-0.059-0.057-0.155,0-0.213c0.059-0.058,0.154-0.058,0.212,0L3.734,7.64
		c0.059,0.059,0.059,0.153,0,0.211s-0.153,0.059-0.211,0L2.746,7.076z"/>
	<path fill="#FFFFFF"  d="M3.395,7.865L2.77,7.24C2.545,7.299,2.376,7.494,2.376,7.736c0,0.288,0.234,0.522,0.522,0.522
		C3.141,8.258,3.335,8.089,3.395,7.865"/>
</g>
</svg>
