<?php
if(!isset($color) || $color=="" || strtolower($color)=="black"){$color="000";}
if(strtolower($color)=="red"){$color="ed1c24";}
if(strtolower($color)=="blue"){$color="1c75bc";}
if(strtolower($color)=="green"){$color="00a651";}
if(strtolower($color)=="white"){$color="fff";}
header('Content-Type: text/xml');
// echo xml tag just in case short_open_tags is enabled in PHP config
echo '<?xml version="1.0" encoding="UTF-8"?>';
?>
<!-- Generator: Adobe Illustrator 15.0.0, SVG Export Plug-In . SVG Version: 6.00 Build 0)  -->
<!DOCTYPE svg PUBLIC "-//W3C//DTD SVG 1.1//EN" "http://www.w3.org/Graphics/SVG/1.1/DTD/svg11.dtd">
<svg version="1.1" id="Layer_1" xmlns="http://www.w3.org/2000/svg" xmlns:xlink="http://www.w3.org/1999/xlink" x="0px" y="0px"
	 width="10.894px" height="10.871px" viewBox="0 0 10.894 10.871" enable-background="new 0 0 10.894 10.871" xml:space="preserve">
<polygon fill="#<?php echo $color; ?>" points="0.021,10.871 1.381,8.828 0,6.711 1.381,5.436 0.021,1.36 3.417,2.717 5.457,0 7.497,2.717 10.894,1.36 
	9.533,5.436 10.894,6.793 9.533,8.828 10.894,10.871 "/>
<polygon fill="#FFFFFF"  points="9.193,6.066 5.691,3.924 5.691,5.145 1.701,5.145 1.701,6.988 5.691,6.988 5.691,8.209 "/>
<path fill="#<?php echo $color; ?>" d="M8.405,8.135L8.206,8.016L8.132,8.137l0.074-0.121L5.585,6.411v0.95h-2.74v1.551h2.74v0.95L8.405,8.135z M2.987,8.77V7.506
	h2.741v-0.84l2.404,1.471L5.728,9.608V8.77H2.987z"/>
<polygon fill="#FFFFFF"  points="8.131,8.137 5.728,6.666 5.728,7.504 2.986,7.504 2.986,8.77 5.728,8.77 5.728,9.607 "/>
</svg>
