<?php
if(!isset($color) || $color=="" || strtolower($color)=="black"){$color="000";}
if(strtolower($color)=="red"){$color="ed1c24";}
if(strtolower($color)=="blue"){$color="1c75bc";}
if(strtolower($color)=="green"){$color="00a651";}
if(strtolower($color)=="white"){$color="fff";}
header('Content-Type: text/xml');
// echo xml tag just in case short_open_tags is enabled in PHP config
echo '<?xml version="1.0" encoding="UTF-8"?>';
?>
<!-- Generator: Adobe Illustrator 15.0.0, SVG Export Plug-In . SVG Version: 6.00 Build 0)  -->
<!DOCTYPE svg PUBLIC "-//W3C//DTD SVG 1.1//EN" "http://www.w3.org/Graphics/SVG/1.1/DTD/svg11.dtd">
<svg version="1.1" id="Layer_1" xmlns="http://www.w3.org/2000/svg" xmlns:xlink="http://www.w3.org/1999/xlink" x="0px" y="0px"
	 width="10.894px" height="10.871px" viewBox="0 0 10.894 10.871" enable-background="new 0 0 10.894 10.871" xml:space="preserve">
<polygon fill="#<?php echo $color; ?>" points="0.021,10.871 1.381,8.827 0,6.712 1.381,5.436 0.021,1.359 3.417,2.718 5.457,0 7.497,2.718 10.894,1.359 
	9.533,5.436 10.894,6.794 9.533,8.827 10.894,10.871 "/>
<polygon fill="#FFFFFF"  points="3.765,6.954 4.627,6.831 4.48,7.626 5.444,7.669 5.062,8.385 5.912,8.608 5.286,9.089 7.962,9.089 
	7.961,6.076 6.537,5.144 5.914,5.553 5.901,4.693 4.421,3.722 2.936,4.68 2.932,6.544 3.675,6.283 "/>
</svg>
