<?php
if(!isset($color) || $color=="" || strtolower($color)=="black"){$color="000";}
if(strtolower($color)=="red"){$color="ed1c24";}
if(strtolower($color)=="blue"){$color="1c75bc";}
if(strtolower($color)=="green"){$color="00a651";}
if(strtolower($color)=="white"){$color="fff";}
header('Content-Type: text/xml');
// echo xml tag just in case short_open_tags is enabled in PHP config
echo '<?xml version="1.0" encoding="UTF-8"?>';
?>
<!-- Generator: Adobe Illustrator 15.0.0, SVG Export Plug-In . SVG Version: 6.00 Build 0)  -->
<!DOCTYPE svg PUBLIC "-//W3C//DTD SVG 1.1//EN" "http://www.w3.org/Graphics/SVG/1.1/DTD/svg11.dtd">
<svg version="1.1" id="Layer_1" xmlns="http://www.w3.org/2000/svg" xmlns:xlink="http://www.w3.org/1999/xlink" x="0px" y="0px"
	 width="11.072px" height="10.527px" viewBox="0 0 11.072 10.527" enable-background="new 0 0 11.072 10.527" xml:space="preserve">
<g>
	<path fill="#<?php echo $color; ?>" d="M1.085,5.777c0.825,1.428,2.018,2.508,3.39,3.194l-0.899,1.556c1.855-0.59,3.505-1.848,4.555-3.666
		C8.963,5.42,9.301,3.83,9.2,2.286h1.873C9.633,0.974,7.72,0.175,5.62,0.175c-1.679,0-3.237,0.512-4.531,1.387L0.188,0
		C-0.229,1.902,0.037,3.959,1.085,5.777"/>
</g>
<polygon fill="#FFFFFF"  points="8.948,3.358 5.447,1.216 5.447,2.438 1.456,2.438 1.456,4.28 5.447,4.28 5.447,5.501 "/>
<path fill="#<?php echo $color; ?>" d="M8.161,5.428l-0.2-0.121L7.887,5.429L7.96,5.307L5.339,3.703v0.95H2.599v1.551h2.741v0.95L8.161,5.428z M2.742,6.062V4.797
	h2.74V3.958l2.405,1.471L5.481,6.9V6.062H2.742z"/>
<polygon fill="#FFFFFF"  points="7.886,5.429 5.482,3.958 5.482,4.796 2.741,4.796 2.741,6.063 5.482,6.063 5.482,6.9 "/>
</svg>
