<?php
if(!isset($color) || $color=="" || strtolower($color)=="black"){$color="000";}
if(strtolower($color)=="red"){$color="ed1c24";}
if(strtolower($color)=="blue"){$color="1c75bc";}
if(strtolower($color)=="green"){$color="00a651";}
if(strtolower($color)=="white"){$color="fff";}
header('Content-Type: text/xml');
// echo xml tag just in case short_open_tags is enabled in PHP config
echo '<?xml version="1.0" encoding="UTF-8"?>';
?>
<!-- Generator: Adobe Illustrator 15.0.0, SVG Export Plug-In . SVG Version: 6.00 Build 0)  -->
<!DOCTYPE svg PUBLIC "-//W3C//DTD SVG 1.1//EN" "http://www.w3.org/Graphics/SVG/1.1/DTD/svg11.dtd">
<svg version="1.1" id="Layer_1" xmlns="http://www.w3.org/2000/svg" xmlns:xlink="http://www.w3.org/1999/xlink" x="0px" y="0px"
	 width="10.894px" height="10.872px" viewBox="0 0 10.894 10.872" enable-background="new 0 0 10.894 10.872" xml:space="preserve">
<polygon fill="#<?php echo $color; ?>" points="0.021,10.872 1.381,8.828 0,6.711 1.381,5.436 0.021,1.36 3.417,2.717 5.457,0 7.497,2.717 10.894,1.36 
	9.533,5.436 10.894,6.793 9.533,8.828 10.894,10.872 "/>
<g>
	<path fill="#FFFFFF"  d="M7.951,7.136C8.257,7.441,9.034,8.23,9.034,8.23s-0.33-1.381-0.436-1.834
		C8.494,5.944,8.204,4.469,8.204,4.469L7.792,4.984c-0.568-0.67-1.353-1.046-2.2-1.046c-0.476,0-0.968,0.121-1.45,0.371
		C3.185,4.806,2.393,5.697,2.015,6.743C1.96,6.893,1.86,7.251,1.86,7.251l0.543,0.575c0,0,0.081-0.188,0.093-0.215
		c0.386-0.856,0.917-1.759,1.716-2.175C4.669,5.198,5.13,5.089,5.575,5.089c0.609,0,1.184,0.208,1.661,0.593L6.858,6.199
		C6.858,6.199,7.644,6.831,7.951,7.136"/>
</g>
</svg>
