<?php
if(!isset($color) || $color=="" || strtolower($color)=="black"){$color="000";}
if(strtolower($color)=="red"){$color="ed1c24";}
if(strtolower($color)=="blue"){$color="1c75bc";}
if(strtolower($color)=="green"){$color="00a651";}
if(strtolower($color)=="white"){$color="fff";}
header('Content-Type: text/xml');
// echo xml tag just in case short_open_tags is enabled in PHP config
echo '<?xml version="1.0" encoding="UTF-8"?>';
?>
<!-- Generator: Adobe Illustrator 15.0.0, SVG Export Plug-In . SVG Version: 6.00 Build 0)  -->
<!DOCTYPE svg PUBLIC "-//W3C//DTD SVG 1.1//EN" "http://www.w3.org/Graphics/SVG/1.1/DTD/svg11.dtd">
<svg version="1.1" id="Brawl_Trigger_1_" xmlns="http://www.w3.org/2000/svg" xmlns:xlink="http://www.w3.org/1999/xlink" x="0px"
	 y="0px" width="10.689px" height="10.689px" viewBox="0 0 10.689 10.689" enable-background="new 0 0 10.689 10.689"
	 xml:space="preserve">
<path fill="#<?php echo $color; ?>" id="Brawl_Trigger" d="M10.267,5.346c0-1.031-0.319-1.989-0.858-2.777L10.689,0L8.125,1.283
	C7.33,0.741,6.376,0.425,5.344,0.425c-1.031,0-1.986,0.316-2.779,0.858L0,0l1.284,2.568C0.741,3.356,0.422,4.314,0.422,5.346
	c0,1.028,0.319,1.988,0.862,2.778L0,10.689l2.564-1.283c0.793,0.543,1.748,0.86,2.779,0.86c1.032,0,1.986-0.317,2.781-0.86
	l2.564,1.283L9.408,8.124C9.947,7.334,10.267,6.374,10.267,5.346"/>
<g>
	<g>
		<g>
			<polygon fill="#FFFFFF"  points="8.738,2.933 5.589,6.081 6.1,6.593 3.756,7.271 4.436,4.928 4.946,5.439 8.203,2.183 			"/>
			<rect x="3.126" y="4.481" fill="#FFFFFF"  width="0.675" height="0.863"/>
			<rect x="1.951" y="5.146" fill="#FFFFFF"  width="0.674" height="0.861"/>
			<rect x="2.625" y="6.289" fill="#FFFFFF"  width="0.675" height="0.863"/>
			<rect x="3.941" y="7.646" fill="#FFFFFF"  width="0.674" height="0.861"/>
			<rect x="5.229" y="7.226" fill="#FFFFFF"  width="0.675" height="0.861"/>
			<rect x="6.553" y="6.385" fill="#FFFFFF"  width="0.674" height="0.862"/>
			<rect x="7.375" y="7.457" fill="#FFFFFF"  width="0.675" height="0.862"/>
			<rect x="2.311" y="7.53" fill="#FFFFFF"  width="0.676" height="0.861"/>
		</g>
	</g>
</g>
</svg>
