<?php
if(!isset($color) || $color=="" || strtolower($color)=="black"){$color="000";}
if(strtolower($color)=="red"){$color="ed1c24";}
if(strtolower($color)=="blue"){$color="1c75bc";}
if(strtolower($color)=="green"){$color="00a651";}
if(strtolower($color)=="white"){$color="fff";}
header('Content-Type: text/xml');
// echo xml tag just in case short_open_tags is enabled in PHP config
echo '<?xml version="1.0" encoding="UTF-8"?>';
?>
<!-- Generator: Adobe Illustrator 15.0.0, SVG Export Plug-In . SVG Version: 6.00 Build 0)  -->
<!DOCTYPE svg PUBLIC "-//W3C//DTD SVG 1.1//EN" "http://www.w3.org/Graphics/SVG/1.1/DTD/svg11.dtd">
<svg version="1.1" id="Layer_1" xmlns="http://www.w3.org/2000/svg" xmlns:xlink="http://www.w3.org/1999/xlink" x="0px" y="0px"
	 width="11.073px" height="10.526px" viewBox="0 0 11.073 10.526" enable-background="new 0 0 11.073 10.526" xml:space="preserve">
<path fill="#<?php echo $color; ?>" id="Power_Trigger" d="M1.086,5.776C1.91,7.205,3.104,8.285,4.476,8.97l-0.898,1.557c1.854-0.59,3.505-1.848,4.555-3.666
	C8.964,5.421,9.302,3.83,9.2,2.286h1.873C9.634,0.974,7.72,0.175,5.62,0.175c-1.681,0-3.237,0.513-4.531,1.387L0.188,0
	C-0.229,1.901,0.037,3.959,1.086,5.776"/>
<polygon fill="#FFFFFF"  points="7.313,5.996 6.908,6.354 7.576,6.621 7.576,5.765 "/>
<polygon fill="#FFFFFF"  points="2.458,6.629 3.149,6.354 2.458,5.745 "/>
<polygon fill="#FFFFFF"  points="3.533,5.625 3.192,4.419 4.325,4.938 5.03,3.467 5.735,4.938 6.867,4.419 6.527,5.625 7.575,5.743 
	7.575,0.896 5.76,0.896 5.76,2.61 4.44,2.61 4.44,1.667 2.458,1.667 2.458,5.744 2.837,5.702 "/>
<polygon fill="#FFFFFF"  points="4.034,6.72 3.831,6.8 3.688,6.857 4.993,7.07 6.362,6.855 6.024,6.72 6.187,6.576 6.445,6.346 
	5.88,6.284 5.922,6.129 6.078,5.573 5.462,5.855 5.03,4.95 4.596,5.855 3.981,5.573 4.18,6.284 4.021,6.3 3.612,6.346 3.869,6.576 
	"/>
<path fill="#<?php echo $color; ?>" d="M2.458,5.745L2.458,5.745L2.458,5.745z"/>
<polygon fill="#<?php echo $color; ?>" points="7.575,5.767 7.599,5.746 7.575,5.744 "/>
<rect fill="#<?php echo $color; ?>" x="5.988" y="1.182" width="0.303" height="0.398"/>
<rect fill="#<?php echo $color; ?>" x="6.501" y="1.182" width="0.304" height="0.398"/>
<rect fill="#<?php echo $color; ?>" x="7.013" y="1.182" width="0.304" height="0.398"/>
<rect fill="#<?php echo $color; ?>" x="5.988" y="1.875" width="0.303" height="0.398"/>
<rect fill="#<?php echo $color; ?>" x="6.501" y="1.875" width="0.304" height="0.398"/>
<rect fill="#<?php echo $color; ?>" x="7.013" y="1.875" width="0.304" height="0.398"/>
<rect fill="#<?php echo $color; ?>" x="5.988" y="2.568" width="0.303" height="0.398"/>
<rect fill="#<?php echo $color; ?>" x="6.501" y="2.568" width="0.304" height="0.398"/>
<rect fill="#<?php echo $color; ?>" x="7.013" y="2.568" width="0.304" height="0.398"/>
<rect fill="#<?php echo $color; ?>" x="5.988" y="3.261" width="0.303" height="0.398"/>
<rect fill="#<?php echo $color; ?>" x="6.501" y="3.261" width="0.304" height="0.398"/>
<rect fill="#<?php echo $color; ?>" x="7.013" y="3.261" width="0.304" height="0.398"/>
<rect fill="#<?php echo $color; ?>" x="2.799" y="1.922" width="0.303" height="0.399"/>
<rect fill="#<?php echo $color; ?>" x="3.312" y="1.922" width="0.304" height="0.399"/>
<rect fill="#<?php echo $color; ?>" x="3.824" y="1.922" width="0.304" height="0.399"/>
<rect fill="#<?php echo $color; ?>" x="2.799" y="2.615" width="0.303" height="0.399"/>
<rect fill="#<?php echo $color; ?>" x="3.312" y="2.615" width="0.304" height="0.399"/>
<rect fill="#<?php echo $color; ?>" x="3.824" y="2.615" width="0.304" height="0.399"/>
<rect fill="#<?php echo $color; ?>" x="2.799" y="3.261" width="0.303" height="0.398"/>
<rect fill="#<?php echo $color; ?>" x="3.312" y="3.261" width="0.304" height="0.398"/>
<rect fill="#<?php echo $color; ?>" x="3.824" y="3.261" width="0.304" height="0.398"/>
<rect fill="#<?php echo $color; ?>" x="5.988" y="3.954" width="0.303" height="0.397"/>
<rect fill="#<?php echo $color; ?>" x="6.501" y="3.954" width="0.304" height="0.397"/>
<rect fill="#<?php echo $color; ?>" x="7.013" y="3.954" width="0.304" height="0.397"/>
</svg>
