<?php
if(!isset($color) || $color=="" || strtolower($color)=="black"){$color="000";}
if(strtolower($color)=="red"){$color="ed1c24";}
if(strtolower($color)=="blue"){$color="1c75bc";}
if(strtolower($color)=="green"){$color="00a651";}
if(strtolower($color)=="white"){$color="fff";}
header('Content-Type: text/xml');
// echo xml tag just in case short_open_tags is enabled in PHP config
echo '<?xml version="1.0" encoding="UTF-8"?>';
?>
<!-- Generator: Adobe Illustrator 15.0.0, SVG Export Plug-In . SVG Version: 6.00 Build 0)  -->
<!DOCTYPE svg PUBLIC "-//W3C//DTD SVG 1.1//EN" "http://www.w3.org/Graphics/SVG/1.1/DTD/svg11.dtd">
<svg version="1.1" id="Layer_1" xmlns="http://www.w3.org/2000/svg" xmlns:xlink="http://www.w3.org/1999/xlink" x="0px" y="0px"
	 width="10.894px" height="10.872px" viewBox="0 0 10.894 10.872" enable-background="new 0 0 10.894 10.872" xml:space="preserve">
<polygon fill="#<?php echo $color; ?>" points="0.021,10.872 1.381,8.829 0,6.711 1.381,5.436 0.021,1.36 3.417,2.717 5.457,0 7.497,2.717 10.894,1.36 
	9.533,5.436 10.894,6.793 9.533,8.829 10.894,10.872 "/>
<g>
	<path fill="#FFFFFF"  d="M5.109,7.345c0,0-0.136,0.081-0.31,0.075C4.625,7.413,4.56,7.336,4.56,7.336L1.895,4.67L3.37,3.198
		c0,0,1.308,1.319,1.845,1.402c0.44,0.068,1.314-0.807,1.968-1.055c0.261-0.101,0.559,0.148,0.559,0.148L8.164,4.09L8.152,4.308
		l0.137-0.136l0.496,0.496l-1.67,1.707L6.141,6.855l0.2,0.201L5.305,8.093L4.83,7.618L5.109,7.345z M8.009,6.097L7.357,6.7
		L6.808,6.979l0.089,0.074L5.305,8.646l-0.91-0.91L3.042,7.674l0.681,0.518L2.867,8.804l1.578-0.037l-0.156,1.392l1.07-0.988
		l0.632,0.988l0.242-1.354l0.956,0.683l-0.31-1.441l1.41,0.106L7.512,7.32L8.76,6.848L8.04,6.538l0.633-0.504L8.009,6.097z"/>
</g>
</svg>
