<?php
if(!isset($color) || $color=="" || strtolower($color)=="black"){$color="000";}
if(strtolower($color)=="red"){$color="ed1c24";}
if(strtolower($color)=="blue"){$color="1c75bc";}
if(strtolower($color)=="green"){$color="00a651";}
if(strtolower($color)=="white"){$color="fff";}
header('Content-Type: text/xml');
// echo xml tag just in case short_open_tags is enabled in PHP config
echo '<?xml version="1.0" encoding="UTF-8"?>';
?>
<!-- Generator: Adobe Illustrator 15.0.0, SVG Export Plug-In . SVG Version: 6.00 Build 0)  -->
<!DOCTYPE svg PUBLIC "-//W3C//DTD SVG 1.1//EN" "http://www.w3.org/Graphics/SVG/1.1/DTD/svg11.dtd">
<svg version="1.1" id="Layer_1" xmlns="http://www.w3.org/2000/svg" xmlns:xlink="http://www.w3.org/1999/xlink" x="0px" y="0px"
	 width="11.073px" height="10.526px" viewBox="0 0 11.073 10.526" enable-background="new 0 0 11.073 10.526" xml:space="preserve">
<path fill="#<?php echo $color; ?>" id="Power_Trigger" d="M1.086,5.776C1.91,7.205,3.104,8.285,4.476,8.97l-0.898,1.557c1.854-0.59,3.505-1.848,4.555-3.666
	C8.964,5.421,9.302,3.83,9.2,2.286h1.873C9.634,0.974,7.72,0.175,5.62,0.175c-1.681,0-3.237,0.513-4.531,1.387L0.188,0
	C-0.229,1.901,0.037,3.959,1.086,5.776"/>
<g>
	<path fill="#FFFFFF"  d="M2.072,4.242c0-1.67,1.356-3.022,3.029-3.022c1.672,0,3.027,1.353,3.027,3.022
		c0,1.669-1.355,3.022-3.027,3.022C3.428,7.264,2.072,5.911,2.072,4.242 M2.319,4.242c0.003,1.533,1.246,2.771,2.781,2.775
		c1.535-0.004,2.776-1.243,2.778-2.775C7.877,2.709,6.636,1.469,5.101,1.467C3.565,1.469,2.322,2.709,2.319,4.242"/>
	<path fill="#FFFFFF"  d="M2.477,5.753C2.202,5.277,2.072,4.758,2.072,4.245c0-1.044,0.542-2.061,1.514-2.621
		C4.063,1.35,4.583,1.22,5.097,1.22c1.046,0,2.064,0.541,2.626,1.51c0.275,0.476,0.404,0.997,0.404,1.509
		c0,1.043-0.542,2.059-1.511,2.62C6.139,7.133,5.618,7.264,5.104,7.264C4.057,7.264,3.038,6.722,2.477,5.753 M3.71,1.838
		C2.817,2.352,2.318,3.285,2.318,4.245c0,0.471,0.121,0.948,0.374,1.384c0.514,0.89,1.449,1.388,2.412,1.388
		c0.471,0,0.949-0.119,1.387-0.371V6.645c0.892-0.513,1.391-1.447,1.391-2.405c0-0.472-0.12-0.948-0.372-1.385
		C6.992,1.965,6.06,1.467,5.097,1.467C4.625,1.467,4.147,1.586,3.71,1.838"/>
	
		<rect x="5.762" y="3.788" transform="matrix(-0.4987 0.8668 -0.8668 -0.4987 12.8899 1.9337)" fill="#FFFFFF"  width="0.247" height="1.812"/>
	
		<rect x="3.41" y="4.57" transform="matrix(-0.8661 0.4998 -0.4998 -0.8661 10.399 6.6036)" fill="#FFFFFF"  width="1.811" height="0.249"/>
	<rect x="4.978" y="2.433" fill="#FFFFFF"  width="0.248" height="1.809"/>
	<path fill="#<?php echo $color; ?>" d="M4.854,4.67C4.617,4.532,4.538,4.23,4.674,3.996c0.136-0.236,0.438-0.318,0.673-0.18
		c0.239,0.135,0.318,0.438,0.182,0.673C5.394,4.724,5.091,4.807,4.854,4.67"/>
	<path fill="#FFFFFF"  d="M4.791,4.775l0.063-0.104l0.062-0.109c0.057,0.033,0.121,0.05,0.185,0.05
		c0.128-0.001,0.253-0.067,0.32-0.185c0.033-0.06,0.051-0.123,0.052-0.185C5.472,4.114,5.404,3.99,5.287,3.921
		c-0.06-0.034-0.123-0.049-0.186-0.049c-0.131,0-0.253,0.066-0.322,0.186c-0.034,0.059-0.05,0.12-0.05,0.184
		c0,0.128,0.067,0.253,0.187,0.32L4.854,4.671L4.791,4.775c-0.199-0.114-0.31-0.32-0.31-0.534c0-0.105,0.026-0.213,0.083-0.308
		c0.114-0.198,0.324-0.31,0.537-0.31c0.104,0,0.211,0.026,0.309,0.084c0.197,0.114,0.309,0.321,0.308,0.534
		C5.719,4.347,5.693,4.454,5.636,4.55C5.522,4.749,5.313,4.86,5.101,4.859H5.096C4.992,4.859,4.887,4.832,4.791,4.775"/>
	<path fill="#FFFFFF"  d="M1.746,2.31h6.494v0.124V2.31h0.215L5.101,8.108L1.746,2.31z M5.101,7.613l2.924-5.056h-5.85L5.101,7.613z"
		/>
	<path fill="#<?php echo $color; ?>" d="M7.345,5.147c0,0.37-0.302,0.671-0.675,0.671c-0.37,0-0.672-0.301-0.672-0.671
		c0-0.372,0.302-0.671,0.672-0.671C7.043,4.476,7.345,4.775,7.345,5.147"/>
	<path fill="#FFFFFF"  d="M5.874,5.147c0-0.44,0.355-0.795,0.796-0.795c0.439,0,0.798,0.354,0.798,0.795
		c0,0.438-0.358,0.794-0.798,0.794C6.229,5.941,5.874,5.585,5.874,5.147 M6.121,5.147C6.122,5.449,6.367,5.695,6.67,5.695
		c0.304,0,0.549-0.246,0.549-0.548c0-0.302-0.245-0.548-0.549-0.549C6.367,4.599,6.122,4.845,6.121,5.147"/>
	<path fill="#<?php echo $color; ?>" d="M5.773,2.433c0,0.371-0.301,0.672-0.673,0.672c-0.371,0-0.674-0.301-0.674-0.672
		c0-0.372,0.303-0.672,0.674-0.672C5.473,1.76,5.773,2.061,5.773,2.433"/>
	<path fill="#FFFFFF"  d="M4.304,2.433c0-0.439,0.357-0.794,0.798-0.794c0.438,0,0.795,0.355,0.796,0.794H5.896
		c0,0.439-0.356,0.793-0.795,0.793C4.661,3.226,4.304,2.872,4.304,2.433 M4.552,2.433c0,0.303,0.246,0.548,0.55,0.548
		c0.303,0,0.547-0.245,0.547-0.548c0-0.302-0.244-0.548-0.547-0.548C4.798,1.885,4.552,2.13,4.552,2.433"/>
	<path fill="#<?php echo $color; ?>" d="M4.204,5.147c0,0.37-0.302,0.671-0.673,0.671c-0.372,0-0.674-0.301-0.674-0.671
		c0-0.372,0.302-0.671,0.674-0.671C3.902,4.476,4.204,4.775,4.204,5.147"/>
	<path fill="#FFFFFF"  d="M2.733,5.148c0-0.44,0.358-0.796,0.798-0.796c0.439,0,0.795,0.355,0.796,0.796H4.326
		c0,0.437-0.356,0.793-0.795,0.793C3.091,5.941,2.733,5.585,2.733,5.148 M2.982,5.148c0,0.301,0.246,0.546,0.549,0.547
		C3.833,5.694,4.079,5.449,4.08,5.148H4.079c0-0.302-0.246-0.549-0.547-0.55C3.228,4.599,2.982,4.846,2.982,5.148"/>
</g>
</svg>
