<?php
if(!isset($color) || $color=="" || strtolower($color)=="black"){$color="000";}
if(strtolower($color)=="red"){$color="ed1c24";}
if(strtolower($color)=="blue"){$color="1c75bc";}
if(strtolower($color)=="green"){$color="00a651";}
if(strtolower($color)=="white"){$color="fff";}
header('Content-Type: text/xml');
// echo xml tag just in case short_open_tags is enabled in PHP config
echo '<?xml version="1.0" encoding="UTF-8"?>';
?>
<!-- Generator: Adobe Illustrator 15.0.0, SVG Export Plug-In . SVG Version: 6.00 Build 0)  -->
<!DOCTYPE svg PUBLIC "-//W3C//DTD SVG 1.1//EN" "http://www.w3.org/Graphics/SVG/1.1/DTD/svg11.dtd">
<svg version="1.1" id="Layer_1" xmlns="http://www.w3.org/2000/svg" xmlns:xlink="http://www.w3.org/1999/xlink" x="0px" y="0px"
	 width="10.691px" height="10.688px" viewBox="0 0 10.691 10.688" enable-background="new 0 0 10.691 10.688" xml:space="preserve">
<g>
	<path fill="#<?php echo $color; ?>" d="M10.268,5.345c0-1.031-0.32-1.989-0.86-2.777L10.691,0L8.125,1.283c-0.794-0.542-1.749-0.859-2.78-0.859
		c-1.032,0-1.986,0.317-2.779,0.859L0,0l1.284,2.567C0.742,3.355,0.423,4.313,0.423,5.345c0,1.029,0.319,1.989,0.861,2.779L0,10.688
		l2.566-1.282c0.793,0.543,1.747,0.859,2.779,0.859c1.031,0,1.986-0.316,2.78-0.859l2.566,1.282L9.408,8.124
		C9.948,7.334,10.268,6.374,10.268,5.345"/>
	<path fill="#FFFFFF"  d="M3.629,5.85L2.848,8.553L2.223,6.775l1.195-1.62l0.575,1.066c0,0,2.761-1.591,2.738-1.552L6.504,4.209
		l1.803-0.132L7.262,5.819c0,0-0.242-0.478-0.258-0.513C6.989,5.272,4.34,7.271,4.34,7.271L3.629,5.85z M4.28,5.332
		c0,0,2.648-2,2.664-1.965s0.258,0.512,0.258,0.512l1.045-1.742L6.444,2.269L6.671,2.73c0.023-0.039-2.738,1.552-2.738,1.552
		L3.358,3.215L2.163,4.834l0.364,1.035l0.756-0.967L3.569,3.91L4.28,5.332z"/>
</g>
</svg>
