<?php
if(!isset($color) || $color=="" || strtolower($color)=="black"){$color="000";}
if(strtolower($color)=="red"){$color="ed1c24";}
if(strtolower($color)=="blue"){$color="1c75bc";}
if(strtolower($color)=="green"){$color="00a651";}
if(strtolower($color)=="white"){$color="fff";}
header('Content-Type: text/xml');
// echo xml tag just in case short_open_tags is enabled in PHP config
echo '<?xml version="1.0" encoding="UTF-8"?>';
?>
<!-- Generator: Adobe Illustrator 15.0.0, SVG Export Plug-In . SVG Version: 6.00 Build 0)  -->
<!DOCTYPE svg PUBLIC "-//W3C//DTD SVG 1.1//EN" "http://www.w3.org/Graphics/SVG/1.1/DTD/svg11.dtd">
<svg version="1.1" id="Layer_1" xmlns="http://www.w3.org/2000/svg" xmlns:xlink="http://www.w3.org/1999/xlink" x="0px" y="0px"
	 width="11.073px" height="10.526px" viewBox="0 0 11.073 10.526" enable-background="new 0 0 11.073 10.526" xml:space="preserve">
<g>
	<path fill="#<?php echo $color; ?>" d="M1.085,5.776c0.825,1.43,2.018,2.508,3.39,3.194l-0.899,1.556C5.432,9.937,7.082,8.68,8.132,6.86
		C8.964,5.421,9.302,3.83,9.2,2.285h1.873C9.634,0.974,7.72,0.175,5.62,0.176c-1.679,0-3.237,0.512-4.531,1.386L0.188,0
		C-0.229,1.901,0.037,3.959,1.085,5.776"/>
	<path fill="#FFFFFF"  d="M7.948,3.046C7.943,3.045,7.515,2.904,7.413,2.643c-0.185-0.486,0.033-0.462,0-0.777
		c-0.039-0.387-0.68-0.429-0.68-0.429s0.205,0.208,0.205,0.396c0,0.242-0.205,0.267-0.292,0.533
		c-0.069,0.205-0.002,0.491,0.038,0.63C6.548,2.935,6.339,2.814,6.273,2.643c-0.186-0.486,0.033-0.462,0-0.777
		c-0.04-0.387-0.679-0.429-0.679-0.429s0.204,0.208,0.204,0.396c0,0.242-0.204,0.267-0.294,0.533
		C5.433,2.583,5.51,2.889,5.549,3.018C5.421,2.963,5.166,2.836,5.092,2.643c-0.186-0.486,0.033-0.462,0-0.777
		c-0.04-0.387-0.68-0.429-0.68-0.429s0.204,0.208,0.204,0.396c0,0.242-0.204,0.267-0.293,0.533C4.263,2.547,4.308,2.79,4.347,2.94
		c-0.12-0.068-0.252-0.169-0.302-0.298c-0.186-0.486,0.033-0.462,0-0.777c-0.04-0.387-0.679-0.429-0.679-0.429
		s0.205,0.208,0.205,0.396c0,0.242-0.205,0.267-0.294,0.533C3.215,2.553,3.264,2.805,3.304,2.954
		C3.177,2.886,3.031,2.781,2.978,2.643c-0.186-0.486,0.032-0.462,0-0.777c-0.04-0.387-0.68-0.429-0.68-0.429
		s0.204,0.208,0.204,0.396c0,0.242-0.204,0.267-0.293,0.533C2.117,2.644,2.178,3.069,2.18,3.077v3.44h5.768V3.046z M6.554,3.557
		c0.433,0,0.783,0.351,0.783,0.782c0,0.433-0.35,0.783-0.783,0.783S5.771,4.771,5.771,4.339C5.771,3.907,6.121,3.557,6.554,3.557
		 M3.678,3.557c0.432,0,0.783,0.351,0.783,0.782c0,0.433-0.351,0.783-0.783,0.783S2.896,4.771,2.896,4.339
		C2.896,3.907,3.246,3.557,3.678,3.557 M7.719,5.487H6.523L6.384,6.3H3.927L3.745,5.444h-1.28V4.195h0.236
		c0,0.021-0.097,1.055,0.971,1.116c0.545,0.03,0.904-0.423,0.971-0.766c0.035-0.177,0-0.351,0-0.351h0.94
		c0,0-0.053,0.217,0.042,0.479c0.109,0.295,0.396,0.639,0.959,0.639c0.504,0,0.849-0.388,0.929-0.711c0.051-0.209,0-0.406,0-0.406
		h0.206V5.487z"/>
</g>
</svg>
