<?php
if(!isset($color) || $color=="" || strtolower($color)=="black"){$color="000";}
if(strtolower($color)=="red"){$color="ed1c24";}
if(strtolower($color)=="blue"){$color="1c75bc";}
if(strtolower($color)=="green"){$color="00a651";}
if(strtolower($color)=="white"){$color="fff";}
header('Content-Type: text/xml');
// echo xml tag just in case short_open_tags is enabled in PHP config
echo '<?xml version="1.0" encoding="UTF-8"?>';
?>
<!-- Generator: Adobe Illustrator 15.0.0, SVG Export Plug-In . SVG Version: 6.00 Build 0)  -->
<!DOCTYPE svg PUBLIC "-//W3C//DTD SVG 1.1//EN" "http://www.w3.org/Graphics/SVG/1.1/DTD/svg11.dtd">
<svg version="1.1" id="Layer_1" xmlns="http://www.w3.org/2000/svg" xmlns:xlink="http://www.w3.org/1999/xlink" x="0px" y="0px"
	 width="10.69px" height="10.689px" viewBox="0 0 10.69 10.689" enable-background="new 0 0 10.69 10.689" xml:space="preserve">
<g>
	<g>
		<g>
			<g>
				<path fill="#<?php echo $color; ?>" d="M10.268,5.345c0-1.03-0.32-1.988-0.859-2.776L10.69,0L8.125,1.283c-0.794-0.542-1.749-0.859-2.78-0.859
					c-1.032,0-1.986,0.317-2.779,0.859L0,0l1.284,2.568C0.742,3.356,0.422,4.314,0.422,5.345c0,1.029,0.319,1.989,0.862,2.779
					L0,10.689l2.565-1.283c0.793,0.542,1.748,0.859,2.779,0.859c1.031,0,1.986-0.317,2.78-0.859l2.565,1.283L9.408,8.124
					C9.948,7.334,10.268,6.374,10.268,5.345"/>
			</g>
			<g>
				<path fill="#FFFFFF"  d="M6.041,4.003l1.609-1.612c0.128-0.129,0.378-0.088,0.555,0.088c0.177,0.178,0.218,0.426,0.087,0.554
					L6.679,4.646c-0.128,0.128-0.375,0.09-0.551-0.09C5.951,4.379,5.91,4.133,6.041,4.003"/>
				<path fill="#FFFFFF"  d="M4.888,1.622c0-0.184,0.201-0.329,0.451-0.329c0.25,0,0.455,0.146,0.455,0.329v2.279
					c0,0.183-0.204,0.33-0.455,0.33c-0.25,0-0.451-0.147-0.451-0.33V1.622z"/>
				<path fill="#FFFFFF"  d="M2.474,2.479C2.651,2.303,2.9,2.262,3.028,2.391L4.64,4.003c0.128,0.131,0.09,0.376-0.087,0.553
					c-0.176,0.18-0.426,0.218-0.554,0.09L2.386,3.032C2.258,2.903,2.297,2.656,2.474,2.479"/>
				<path fill="#FFFFFF"  d="M1.289,5.345c0-0.253,0.146-0.456,0.328-0.456h2.282c0.182,0,0.329,0.203,0.329,0.456
					c0,0.249-0.147,0.454-0.329,0.454H1.616C1.434,5.799,1.288,5.594,1.289,5.345"/>
				<path fill="#FFFFFF"  d="M4.64,6.685L3.028,8.297C2.9,8.424,2.651,8.386,2.474,8.209S2.258,7.782,2.386,7.654l1.613-1.612
					c0.128-0.128,0.378-0.09,0.554,0.089C4.73,6.307,4.769,6.557,4.64,6.685"/>
				<path fill="#FFFFFF"  d="M5.793,9.065c0,0.183-0.204,0.329-0.455,0.329c-0.25,0-0.454-0.146-0.454-0.329l0.002-2.278
					C4.885,6.603,5.089,6.456,5.339,6.456c0.25,0,0.455,0.146,0.455,0.331V9.065z"/>
				<path fill="#FFFFFF"  d="M5.339,6.063c-0.396,0-0.718-0.322-0.718-0.718c0-0.398,0.321-0.721,0.718-0.721
					c0.397,0,0.718,0.322,0.718,0.721C6.057,5.74,5.736,6.063,5.339,6.063"/>
				<path fill="#FFFFFF"  d="M8.204,8.209C8.027,8.387,7.777,8.425,7.649,8.296L6.041,6.685C5.91,6.557,5.948,6.307,6.127,6.13
					c0.176-0.178,0.423-0.216,0.551-0.088l1.612,1.613C8.422,7.782,8.381,8.032,8.204,8.209"/>
				<path fill="#FFFFFF"  d="M9.061,5.799H6.782c-0.185,0-0.331-0.204-0.331-0.454c0-0.253,0.146-0.455,0.331-0.455h2.279
					c0.182,0,0.332,0.202,0.332,0.455C9.392,5.595,9.243,5.799,9.061,5.799"/>
			</g>
		</g>
	</g>
</g>
</svg>
