<?php
if(!isset($color) || $color=="" || strtolower($color)=="black"){$color="000";}
if(strtolower($color)=="red"){$color="ed1c24";}
if(strtolower($color)=="blue"){$color="1c75bc";}
if(strtolower($color)=="green"){$color="00a651";}
if(strtolower($color)=="white"){$color="fff";}
header('Content-Type: text/xml');
// echo xml tag just in case short_open_tags is enabled in PHP config
echo '<?xml version="1.0" encoding="UTF-8"?>';
?>
<!-- Generator: Adobe Illustrator 15.0.0, SVG Export Plug-In . SVG Version: 6.00 Build 0)  -->
<!DOCTYPE svg PUBLIC "-//W3C//DTD SVG 1.1//EN" "http://www.w3.org/Graphics/SVG/1.1/DTD/svg11.dtd">
<svg version="1.1" id="Layer_1" xmlns="http://www.w3.org/2000/svg" xmlns:xlink="http://www.w3.org/1999/xlink" x="0px" y="0px"
	 width="10.689px" height="10.689px" viewBox="0 0 10.689 10.689" enable-background="new 0 0 10.689 10.689" xml:space="preserve">
<g>
	<path fill="#<?php echo $color; ?>" d="M10.267,5.346c0-1.031-0.319-1.989-0.858-2.777L10.689,0L8.125,1.283C7.33,0.741,6.376,0.425,5.344,0.425
		c-1.031,0-1.986,0.316-2.779,0.858L0,0l1.284,2.568C0.741,3.356,0.422,4.314,0.422,5.346c0,1.028,0.319,1.988,0.862,2.778L0,10.689
		l2.564-1.283c0.793,0.543,1.748,0.86,2.779,0.86c1.032,0,1.986-0.317,2.781-0.86l2.564,1.283L9.408,8.124
		C9.947,7.334,10.267,6.374,10.267,5.346"/>
	<polygon fill="#FFFFFF"  points="5.34,7.997 6.782,5.953 5.961,5.953 5.961,3.623 4.72,3.623 4.72,5.953 3.898,5.953 	"/>
	<rect x="4.72" y="2.979" fill="#FFFFFF"  width="1.24" height="0.431"/>
	<rect x="4.72" y="2.335" fill="#FFFFFF"  width="1.24" height="0.43"/>
	<rect x="4.72" y="1.69" fill="#FFFFFF"  width="1.24" height="0.431"/>
	<polygon fill="#FFFFFF"  points="3.285,6.32 4.468,7.997 1.771,7.997 1.634,7.302 2.239,7.556 2.064,6.754 2.768,7.243 2.729,6.442 
		3.297,6.95 	"/>
	<polygon fill="#FFFFFF"  points="7.395,6.32 6.211,7.997 8.909,7.997 9.046,7.302 8.438,7.556 8.614,6.754 7.912,7.243 7.951,6.442 
		7.383,6.95 	"/>
</g>
</svg>
