<?php
if(!isset($color) || $color=="" || strtolower($color)=="black"){$color="000";}
if(strtolower($color)=="red"){$color="ed1c24";}
if(strtolower($color)=="blue"){$color="1c75bc";}
if(strtolower($color)=="green"){$color="00a651";}
if(strtolower($color)=="white"){$color="fff";}
header('Content-Type: text/xml');
// echo xml tag just in case short_open_tags is enabled in PHP config
echo '<?xml version="1.0" encoding="UTF-8"?>';
?>
<!-- Generator: Adobe Illustrator 15.0.0, SVG Export Plug-In . SVG Version: 6.00 Build 0)  -->
<!DOCTYPE svg PUBLIC "-//W3C//DTD SVG 1.1//EN" "http://www.w3.org/Graphics/SVG/1.1/DTD/svg11.dtd">
<svg version="1.1" id="Layer_1" xmlns="http://www.w3.org/2000/svg" xmlns:xlink="http://www.w3.org/1999/xlink" x="0px" y="0px"
	 width="10.894px" height="10.872px" viewBox="0 0 10.894 10.872" enable-background="new 0 0 10.894 10.872" xml:space="preserve">
<polygon fill="#<?php echo $color; ?>" points="0.021,10.872 1.381,8.829 0,6.711 1.381,5.436 0.021,1.36 3.416,2.718 5.457,0 7.496,2.718 10.894,1.36 
	9.533,5.436 10.894,6.793 9.533,8.829 10.894,10.872 "/>
<g>
	<path fill="#FFFFFF"  d="M4.95,6.125C4.95,7,4.242,7.71,3.367,7.71S1.782,7,1.782,6.125c0-0.874,0.71-1.583,1.585-1.583
		S4.95,5.251,4.95,6.125"/>
	<path fill="#FFFFFF"  d="M9.111,6.125C9.111,7,8.401,7.71,7.526,7.71C6.653,7.71,5.943,7,5.943,6.125
		c0-0.874,0.71-1.583,1.583-1.583C8.401,4.542,9.111,5.251,9.111,6.125"/>
</g>
</svg>
