<?php
if(!isset($color) || $color=="" || strtolower($color)=="black"){$color="000";}
if(strtolower($color)=="red"){$color="ed1c24";}
if(strtolower($color)=="blue"){$color="1c75bc";}
if(strtolower($color)=="green"){$color="00a651";}
if(strtolower($color)=="white"){$color="fff";}
header('Content-Type: text/xml');
// echo xml tag just in case short_open_tags is enabled in PHP config
echo '<?xml version="1.0" encoding="UTF-8"?>';
?>
<!-- Generator: Adobe Illustrator 15.0.0, SVG Export Plug-In . SVG Version: 6.00 Build 0)  -->
<!DOCTYPE svg PUBLIC "-//W3C//DTD SVG 1.1//EN" "http://www.w3.org/Graphics/SVG/1.1/DTD/svg11.dtd">
<svg version="1.1" id="Brawl_Trigger_1_" xmlns="http://www.w3.org/2000/svg" xmlns:xlink="http://www.w3.org/1999/xlink" x="0px"
	 y="0px" width="10.689px" height="10.689px" viewBox="0 0 10.689 10.689" enable-background="new 0 0 10.689 10.689"
	 xml:space="preserve">
<path fill="#<?php echo $color; ?>" id="Brawl_Trigger" d="M10.267,5.346c0-1.031-0.319-1.989-0.858-2.777L10.689,0L8.125,1.283
	C7.33,0.741,6.376,0.425,5.344,0.425c-1.031,0-1.986,0.316-2.779,0.858L0,0l1.284,2.568C0.741,3.356,0.422,4.314,0.422,5.346
	c0,1.028,0.319,1.988,0.862,2.778L0,10.689l2.564-1.283c0.793,0.543,1.748,0.86,2.779,0.86c1.032,0,1.986-0.317,2.781-0.86
	l2.564,1.283L9.408,8.124C9.947,7.334,10.267,6.374,10.267,5.346"/>
<g>
	<path fill="#FFFFFF"  d="M2.077,5.39c0-1.803,1.463-3.262,3.268-3.262S8.613,3.587,8.613,5.39c0,1.801-1.463,3.261-3.268,3.261
		S2.077,7.191,2.077,5.39 M2.344,5.39c0.003,1.654,1.345,2.991,3.001,2.995C7.002,8.381,8.342,7.044,8.344,5.39
		C8.342,3.736,7.002,2.397,5.345,2.395C3.689,2.397,2.347,3.736,2.344,5.39"/>
	<path fill="#FFFFFF"  d="M2.514,7.021C2.217,6.507,2.077,5.947,2.077,5.393c0-1.127,0.585-2.224,1.633-2.828
		c0.516-0.296,1.077-0.437,1.631-0.437c1.129,0,2.228,0.583,2.833,1.63c0.297,0.514,0.437,1.076,0.437,1.629
		c0,1.125-0.585,2.223-1.631,2.828C6.465,8.51,5.903,8.651,5.348,8.651C4.219,8.651,3.119,8.066,2.514,7.021 M3.845,2.795
		C2.882,3.35,2.343,4.356,2.343,5.393c0,0.508,0.13,1.023,0.403,1.494c0.555,0.96,1.563,1.498,2.602,1.498
		c0.509,0,1.025-0.128,1.498-0.4L6.845,7.983c0.962-0.554,1.501-1.562,1.501-2.596c0-0.509-0.13-1.023-0.402-1.495
		C7.387,2.932,6.38,2.395,5.341,2.395C4.832,2.395,4.317,2.523,3.845,2.795"/>
	
		<rect x="6.059" y="4.9" transform="matrix(-0.5013 0.8653 -0.8653 -0.5013 14.3832 3.4656)" fill="#FFFFFF"  width="0.267" height="1.956"/>
	
		<rect x="3.52" y="5.744" transform="matrix(-0.8662 0.4998 -0.4998 -0.8662 11.3308 8.7214)" fill="#FFFFFF"  width="1.955" height="0.268"/>
	<rect x="5.212" y="3.437" fill="#FFFFFF"  width="0.268" height="1.952"/>
	<path fill="#<?php echo $color; ?>" d="M5.079,5.852C4.824,5.703,4.737,5.377,4.884,5.124C5.03,4.869,5.357,4.781,5.611,4.929
		c0.258,0.146,0.344,0.473,0.196,0.726C5.662,5.91,5.334,5.999,5.079,5.852"/>
	<path fill="#FFFFFF"  d="M5.011,5.965l0.068-0.113l0.067-0.117C5.208,5.771,5.276,5.79,5.345,5.79
		c0.139-0.001,0.274-0.072,0.345-0.2c0.037-0.064,0.055-0.132,0.056-0.2C5.746,5.252,5.674,5.118,5.546,5.043
		C5.481,5.007,5.414,4.99,5.346,4.99c-0.141,0-0.273,0.072-0.348,0.201C4.961,5.254,4.945,5.321,4.945,5.389
		c0,0.139,0.073,0.273,0.202,0.346L5.079,5.853L5.011,5.965C4.797,5.843,4.677,5.62,4.677,5.389c0-0.113,0.028-0.229,0.09-0.332
		C4.89,4.843,5.116,4.723,5.346,4.723c0.113,0,0.227,0.029,0.333,0.091C5.893,4.937,6.012,5.16,6.012,5.39
		c0,0.113-0.027,0.228-0.089,0.332C5.8,5.937,5.573,6.057,5.345,6.056H5.34C5.228,6.056,5.114,6.026,5.011,5.965"/>
	<path fill="#FFFFFF"  d="M1.725,3.304h7.008v0.134V3.304h0.232l-3.62,6.258L1.725,3.304z M5.345,9.028l3.156-5.457H2.188
		L5.345,9.028z"/>
	<path fill="#<?php echo $color; ?>" d="M7.767,6.367c0,0.399-0.325,0.724-0.727,0.724c-0.399,0-0.726-0.324-0.726-0.724
		c0-0.401,0.327-0.725,0.726-0.725C7.442,5.642,7.767,5.965,7.767,6.367"/>
	<path fill="#FFFFFF"  d="M6.18,6.367c0-0.476,0.384-0.858,0.859-0.858c0.474,0,0.86,0.383,0.86,0.858
		c0,0.473-0.386,0.857-0.86,0.857C6.564,7.224,6.18,6.839,6.18,6.367 M6.447,6.367C6.448,6.693,6.712,6.958,7.04,6.958
		c0.327-0.001,0.592-0.266,0.592-0.592S7.366,5.775,7.04,5.774C6.712,5.775,6.448,6.041,6.447,6.367"/>
	<path fill="#<?php echo $color; ?>" d="M6.072,3.437c0,0.4-0.326,0.725-0.727,0.725c-0.4,0-0.726-0.325-0.726-0.725
		c0-0.401,0.326-0.726,0.726-0.726C5.747,2.711,6.072,3.036,6.072,3.437"/>
	<path fill="#FFFFFF"  d="M4.485,3.437c0-0.474,0.386-0.857,0.861-0.857c0.474,0,0.859,0.383,0.859,0.857h0
		c0,0.474-0.385,0.856-0.859,0.856C4.871,4.293,4.485,3.911,4.485,3.437 M4.753,3.437c0,0.327,0.266,0.591,0.593,0.591
		c0.327,0,0.59-0.264,0.591-0.591C5.937,3.111,5.673,2.846,5.346,2.846C5.019,2.846,4.753,3.111,4.753,3.437"/>
	<path fill="#<?php echo $color; ?>" d="M4.378,6.367c0,0.399-0.326,0.724-0.726,0.724c-0.401,0-0.727-0.324-0.727-0.724
		c0-0.401,0.326-0.725,0.727-0.725C4.052,5.642,4.378,5.965,4.378,6.367"/>
	<path fill="#FFFFFF"  d="M2.791,6.368c0-0.476,0.386-0.859,0.861-0.859c0.474,0,0.858,0.384,0.859,0.859h0
		c0,0.472-0.384,0.856-0.858,0.856C3.177,7.224,2.791,6.839,2.791,6.368 M3.059,6.368c0,0.325,0.265,0.589,0.593,0.59
		c0.326-0.001,0.591-0.265,0.592-0.59H4.243c0-0.326-0.265-0.593-0.591-0.594C3.324,5.775,3.059,6.042,3.059,6.368"/>
</g>
</svg>
