<?php
if(!isset($color) || $color=="" || strtolower($color)=="black"){$color="000";}
if(strtolower($color)=="red"){$color="ed1c24";}
if(strtolower($color)=="blue"){$color="1c75bc";}
if(strtolower($color)=="green"){$color="00a651";}
if(strtolower($color)=="white"){$color="fff";}
header('Content-Type: text/xml');
// echo xml tag just in case short_open_tags is enabled in PHP config
echo '<?xml version="1.0" encoding="UTF-8"?>';
?>
<!-- Generator: Adobe Illustrator 15.0.0, SVG Export Plug-In . SVG Version: 6.00 Build 0)  -->
<!DOCTYPE svg PUBLIC "-//W3C//DTD SVG 1.1//EN" "http://www.w3.org/Graphics/SVG/1.1/DTD/svg11.dtd">
<svg version="1.1" id="Layer_1" xmlns="http://www.w3.org/2000/svg" xmlns:xlink="http://www.w3.org/1999/xlink" x="0px" y="0px"
	 width="10.894px" height="10.872px" viewBox="0 0 10.894 10.872" enable-background="new 0 0 10.894 10.872" xml:space="preserve">
<polygon fill="#<?php echo $color; ?>" points="0.021,10.872 1.381,8.828 0,6.712 1.381,5.437 0.021,1.36 3.417,2.719 5.457,0 7.497,2.719 10.894,1.36 
	9.533,5.437 10.894,6.794 9.533,8.828 10.894,10.872 "/>
<g>
	<path fill="#FFFFFF"  d="M4.728,8.05L7.99,8.101c0.187-0.602,0.342-1.304,0.335-1.957L5.775,7.045
		C5.499,7.346,5.153,7.68,4.728,8.05"/>
	<path fill="#FFFFFF"  d="M6.653,5.026L7.54,4.372C7.208,4.144,6.754,4,6.144,3.98L5.772,4.417C6.168,4.527,6.512,4.714,6.653,5.026"
		/>
	<path fill="#FFFFFF"  d="M2.714,9.628H7.39c0,0,0.248-0.49,0.487-1.183L4.327,8.39C3.869,8.767,3.334,9.179,2.714,9.628"/>
	<path fill="#FFFFFF"  d="M3.998,4.279c0,0,0.778-0.064,1.501,0.074L5.815,3.98C5.309,3.998,4.708,4.092,3.998,4.279"/>
	<path fill="#FFFFFF"  d="M6.173,6.571l2.134-0.753c-0.051-0.487-0.213-0.932-0.545-1.26l-1.043,0.77
		C6.727,5.642,6.571,6.048,6.173,6.571"/>
	<path fill="#FFFFFF"  d="M3.721,5.317c-0.549,0-0.996-0.446-0.996-0.994c0-0.551,0.447-0.997,0.996-0.997
		c0.549,0,0.996,0.446,0.996,0.997C4.717,4.871,4.271,5.317,3.721,5.317"/>
	<path fill="#<?php echo $color; ?>" d="M3.721,3.481c0.464,0,0.84,0.377,0.84,0.84c0,0.465-0.376,0.842-0.84,0.842c-0.464,0-0.84-0.377-0.84-0.842
		C2.881,3.858,3.257,3.481,3.721,3.481 M3.721,3.171c-0.635,0-1.152,0.516-1.152,1.15c0,0.636,0.517,1.152,1.152,1.152
		c0.635,0,1.152-0.517,1.152-1.152C4.874,3.687,4.356,3.171,3.721,3.171"/>
</g>
</svg>
