<?php
if(!isset($color) || $color=="" || strtolower($color)=="black"){$color="000";}
if(strtolower($color)=="red"){$color="ed1c24";}
if(strtolower($color)=="blue"){$color="1c75bc";}
if(strtolower($color)=="green"){$color="00a651";}
if(strtolower($color)=="white"){$color="fff";}
header('Content-Type: text/xml');
// echo xml tag just in case short_open_tags is enabled in PHP config
echo '<?xml version="1.0" encoding="UTF-8"?>';
?>
<!-- Generator: Adobe Illustrator 15.0.0, SVG Export Plug-In . SVG Version: 6.00 Build 0)  -->
<!DOCTYPE svg PUBLIC "-//W3C//DTD SVG 1.1//EN" "http://www.w3.org/Graphics/SVG/1.1/DTD/svg11.dtd">
<svg version="1.1" id="Layer_1" xmlns="http://www.w3.org/2000/svg" xmlns:xlink="http://www.w3.org/1999/xlink" x="0px" y="0px"
	 width="11.073px" height="10.526px" viewBox="0 0 11.073 10.526" enable-background="new 0 0 11.073 10.526" xml:space="preserve">
<path fill="#<?php echo $color; ?>" id="Power_Trigger" d="M1.086,5.776C1.91,7.205,3.104,8.285,4.476,8.97l-0.898,1.557c1.854-0.59,3.505-1.848,4.555-3.666
	C8.964,5.421,9.302,3.83,9.2,2.286h1.873C9.634,0.974,7.72,0.175,5.62,0.175c-1.681,0-3.237,0.513-4.531,1.387L0.188,0
	C-0.229,1.901,0.037,3.959,1.086,5.776"/>
<g>
	<path fill="#FFFFFF"  d="M7.399,7.02C5.521,7.883,3.301,7.059,2.438,5.181C1.75,3.679,2.407,1.902,3.91,1.213
		C5.111,0.661,6.532,1.188,7.084,2.39c0.442,0.96,0.019,2.098-0.942,2.539c-0.769,0.354-1.678,0.017-2.03-0.753
		C3.829,3.562,4.099,2.833,4.713,2.552c0.493-0.227,1.074-0.011,1.301,0.481L5.831,3.171c-0.16-0.352-0.575-0.505-0.928-0.345
		C4.465,3.028,4.271,3.547,4.474,3.985c0.25,0.548,0.899,0.789,1.45,0.537c0.685-0.314,0.983-1.125,0.67-1.811
		C6.199,1.855,5.188,1.48,4.331,1.872c-1.071,0.492-1.542,1.759-1.049,2.83c0.614,1.34,2.198,1.928,3.536,1.313L7.399,7.02z"/>
</g>
</svg>
