<?php
if(!isset($color) || $color=="" || strtolower($color)=="black"){$color="000";}
if(strtolower($color)=="red"){$color="ed1c24";}
if(strtolower($color)=="blue"){$color="1c75bc";}
if(strtolower($color)=="green"){$color="00a651";}
if(strtolower($color)=="white"){$color="fff";}
header('Content-Type: text/xml');
// echo xml tag just in case short_open_tags is enabled in PHP config
echo '<?xml version="1.0" encoding="UTF-8"?>';
?>
<!-- Generator: Adobe Illustrator 15.0.0, SVG Export Plug-In . SVG Version: 6.00 Build 0)  -->
<!DOCTYPE svg PUBLIC "-//W3C//DTD SVG 1.1//EN" "http://www.w3.org/Graphics/SVG/1.1/DTD/svg11.dtd">
<svg version="1.1" id="Layer_1" xmlns="http://www.w3.org/2000/svg" xmlns:xlink="http://www.w3.org/1999/xlink" x="0px" y="0px"
	 width="11.072px" height="10.527px" viewBox="0 0 11.072 10.527" enable-background="new 0 0 11.072 10.527" xml:space="preserve">
<g>
	<path fill="#<?php echo $color; ?>" d="M1.085,5.777c0.824,1.428,2.018,2.508,3.39,3.194l-0.9,1.556c1.856-0.591,3.506-1.849,4.556-3.666
		C8.963,5.42,9.301,3.83,9.2,2.286h1.873C9.633,0.974,7.719,0.175,5.62,0.175c-1.68,0-3.238,0.512-4.531,1.387L0.188,0
		C-0.229,1.902,0.037,3.959,1.085,5.777"/>
	<path fill="#FFFFFF"  d="M7.788,1.465c0.071,0.071,0.117,0.152,0.149,0.236C8.021,1.735,8.103,1.78,8.173,1.85
		c0.233,0.235,0.266,0.581,0.072,0.774c-0.163,0.164-0.43,0.158-0.65,0.017L6.665,3.57L6.067,2.974l0.93-0.931
		C6.855,1.822,6.85,1.556,7.013,1.393C7.208,1.199,7.553,1.231,7.788,1.465"/>
	<path fill="#FFFFFF"  d="M2.896,6.743C2.163,6.009,2.47,4.512,2.89,4.091c0.422-0.421,2.908-0.769,2.908-0.769l0.564,0.563
		c0,0-0.392,2.441-0.814,2.863S3.629,7.477,2.896,6.743"/>
</g>
</svg>
