<?php
if(!isset($color) || $color=="" || strtolower($color)=="black"){$color="000";}
if(strtolower($color)=="red"){$color="ed1c24";}
if(strtolower($color)=="blue"){$color="1c75bc";}
if(strtolower($color)=="green"){$color="00a651";}
if(strtolower($color)=="white"){$color="fff";}
header('Content-Type: text/xml');
// echo xml tag just in case short_open_tags is enabled in PHP config
echo '<?xml version="1.0" encoding="UTF-8"?>';
?>
<!-- Generator: Adobe Illustrator 15.0.0, SVG Export Plug-In . SVG Version: 6.00 Build 0)  -->
<!DOCTYPE svg PUBLIC "-//W3C//DTD SVG 1.1//EN" "http://www.w3.org/Graphics/SVG/1.1/DTD/svg11.dtd">
<svg version="1.1" id="Layer_1" xmlns="http://www.w3.org/2000/svg" xmlns:xlink="http://www.w3.org/1999/xlink" x="0px" y="0px"
	 width="10.691px" height="10.688px" viewBox="0 0 10.691 10.688" enable-background="new 0 0 10.691 10.688" xml:space="preserve">
<g>
	<path fill="#<?php echo $color; ?>" d="M10.268,5.345c0-1.031-0.32-1.989-0.859-2.777L10.691,0L8.125,1.283c-0.794-0.542-1.748-0.859-2.78-0.859
		c-1.031,0-1.986,0.317-2.779,0.859L0,0l1.284,2.567C0.742,3.355,0.423,4.313,0.423,5.345c0,1.029,0.319,1.989,0.861,2.779L0,10.688
		l2.566-1.282c0.793,0.543,1.748,0.859,2.779,0.859c1.032,0,1.986-0.316,2.78-0.859l2.566,1.282L9.409,8.124
		C9.948,7.334,10.268,6.374,10.268,5.345"/>
</g>
<rect x="2.662" y="5.646" fill="#FFFFFF"  width="0.869" height="2.606"/>
<rect x="2.662" y="2.438" fill="#FFFFFF"  width="0.869" height="2.607"/>
<g>
	<path fill="#FFFFFF"  d="M4.029,8.248V5.65c2.474,0.052,4.421,0.613,4.421,1.299C8.451,7.636,6.503,8.196,4.029,8.248"/>
	<path fill="#FFFFFF"  d="M4.029,5.04V2.442c2.474,0.052,4.421,0.613,4.421,1.299S6.503,4.989,4.029,5.04"/>
</g>
</svg>
