<?php
if(!isset($color) || $color=="" || strtolower($color)=="black"){$color="000";}
if(strtolower($color)=="red"){$color="ed1c24";}
if(strtolower($color)=="blue"){$color="1c75bc";}
if(strtolower($color)=="green"){$color="00a651";}
if(strtolower($color)=="white"){$color="fff";}
header('Content-Type: text/xml');
// echo xml tag just in case short_open_tags is enabled in PHP config
echo '<?xml version="1.0" encoding="UTF-8"?>';
?>
<!-- Generator: Adobe Illustrator 15.0.0, SVG Export Plug-In . SVG Version: 6.00 Build 0)  -->
<!DOCTYPE svg PUBLIC "-//W3C//DTD SVG 1.1//EN" "http://www.w3.org/Graphics/SVG/1.1/DTD/svg11.dtd">
<svg version="1.1" id="Layer_1" xmlns="http://www.w3.org/2000/svg" xmlns:xlink="http://www.w3.org/1999/xlink" x="0px" y="0px"
	 width="10.69px" height="10.689px" viewBox="0 0 10.69 10.689" enable-background="new 0 0 10.69 10.689" xml:space="preserve">
<g>
	<path fill="#<?php echo $color; ?>" d="M10.268,5.346c0-1.031-0.32-1.989-0.859-2.777L10.69,0L8.125,1.283C7.33,0.741,6.376,0.425,5.345,0.425
		S3.358,0.741,2.565,1.283L0,0l1.284,2.568C0.741,3.356,0.422,4.314,0.422,5.346c0,1.028,0.319,1.988,0.862,2.778L0,10.689
		l2.565-1.283c0.793,0.543,1.748,0.86,2.779,0.86s1.985-0.317,2.78-0.86l2.565,1.283L9.408,8.124
		C9.947,7.334,10.268,6.374,10.268,5.346"/>
	<path fill="#FFFFFF"  d="M5.849,8.686C5.707,8.824,5.522,8.896,5.342,8.896c-0.185,0-0.371-0.072-0.509-0.211L2.778,6.633
		c-0.28-0.281-0.28-0.735,0-1.018l0.117-0.116c0.28-0.281,0.732-0.281,1.016,0L4.539,6.13V2.512c0-0.398,0.319-0.719,0.718-0.719
		h0.166c0.396,0,0.717,0.32,0.717,0.719V6.13l0.63-0.631c0.281-0.281,0.735-0.281,1.015,0l0.119,0.116
		c0.279,0.282,0.279,0.736,0,1.018L5.849,8.686z"/>
</g>
</svg>
