<?php
if(!isset($color) || $color=="" || strtolower($color)=="black"){$color="000";}
if(strtolower($color)=="red"){$color="ed1c24";}
if(strtolower($color)=="blue"){$color="1c75bc";}
if(strtolower($color)=="green"){$color="00a651";}
if(strtolower($color)=="white"){$color="fff";}
header('Content-Type: text/xml');
// echo xml tag just in case short_open_tags is enabled in PHP config
echo '<?xml version="1.0" encoding="UTF-8"?>';
?>
<!-- Generator: Adobe Illustrator 15.0.0, SVG Export Plug-In . SVG Version: 6.00 Build 0)  -->
<!DOCTYPE svg PUBLIC "-//W3C//DTD SVG 1.1//EN" "http://www.w3.org/Graphics/SVG/1.1/DTD/svg11.dtd">
<svg version="1.1" id="Layer_1" xmlns="http://www.w3.org/2000/svg" xmlns:xlink="http://www.w3.org/1999/xlink" x="0px" y="0px"
	 width="10.691px" height="10.69px" viewBox="0 0 10.691 10.69" enable-background="new 0 0 10.691 10.69" xml:space="preserve">
<g>
	<path fill="#<?php echo $color; ?>" d="M10.268,5.345c0-1.031-0.32-1.988-0.859-2.777L10.691,0L8.125,1.283c-0.794-0.542-1.748-0.859-2.78-0.859
		c-1.031,0-1.986,0.317-2.779,0.859L0,0l1.284,2.568C0.742,3.357,0.423,4.314,0.423,5.345c0,1.029,0.319,1.99,0.861,2.779L0,10.69
		l2.566-1.284c0.793,0.543,1.748,0.86,2.779,0.86c1.032,0,1.986-0.317,2.78-0.86l2.566,1.284L9.409,8.124
		C9.948,7.334,10.268,6.374,10.268,5.345"/>
</g>
<polygon fill="#FFFFFF"  points="6.056,4.473 6.316,2.627 5.669,3.654 5.319,1.629 4.919,3.702 4.24,2.627 4.503,4.473 3.549,4.075 
	4.193,5.189 6.361,5.189 7.007,4.075 "/>
<polygon fill="#FFFFFF"  points="4.303,7.049 4.564,5.205 3.916,6.229 3.566,4.206 3.166,6.278 2.487,5.205 2.75,7.049 1.796,6.651 
	2.44,7.766 4.608,7.766 5.255,6.651 "/>
<path fill="#<?php echo $color; ?>" d="M2.391,7.85L1.599,6.477l1.045,0.436L2.349,4.828l0.773,1.226L3.57,3.743l0.391,2.256l0.741-1.172L4.407,6.913l1.047-0.436
	L4.656,7.85H2.391z M2.488,7.68h2.071l0.496-0.854l-0.72,0.301L4.197,7.184l0.227-1.604L3.869,6.46L3.561,4.676L3.208,6.504
	L2.626,5.582l0.227,1.603l-0.86-0.359L2.488,7.68z M4.386,7.061L4.303,7.049L4.386,7.061z"/>
<polygon fill="#FFFFFF"  points="7.853,7.198 8.135,5.205 7.434,6.313 7.057,4.125 6.624,6.366 5.89,5.205 6.173,7.198 5.143,6.768 
	5.839,7.974 8.182,7.974 8.882,6.768 "/>
<path fill="#<?php echo $color; ?>" d="M5.79,8.058L4.947,6.595l1.122,0.467L5.75,4.826l0.83,1.314l0.478-2.479l0.42,2.419l0.792-1.252L7.958,7.062L9.083,6.59
	L8.229,8.058H5.79z M5.888,7.889h2.246l0.548-0.947L7.885,7.276L7.748,7.333l0.248-1.753l-0.61,0.962L7.052,4.592l-0.388,2
	L6.029,5.581l0.248,1.753L5.341,6.942L5.888,7.889z M7.937,7.209L7.853,7.198L7.937,7.209z"/>
</svg>
