<?php
if(!isset($color) || $color=="" || strtolower($color)=="black"){$color="000";}
if(strtolower($color)=="red"){$color="ed1c24";}
if(strtolower($color)=="blue"){$color="1c75bc";}
if(strtolower($color)=="green"){$color="00a651";}
if(strtolower($color)=="white"){$color="fff";}
header('Content-Type: text/xml');
// echo xml tag just in case short_open_tags is enabled in PHP config
echo '<?xml version="1.0" encoding="UTF-8"?>';
?>
<!-- Generator: Adobe Illustrator 15.0.0, SVG Export Plug-In . SVG Version: 6.00 Build 0)  -->
<!DOCTYPE svg PUBLIC "-//W3C//DTD SVG 1.1//EN" "http://www.w3.org/Graphics/SVG/1.1/DTD/svg11.dtd">
<svg version="1.1" id="Layer_1" xmlns="http://www.w3.org/2000/svg" xmlns:xlink="http://www.w3.org/1999/xlink" x="0px" y="0px"
	 width="10.585px" height="10.583px" viewBox="0 0 10.585 10.583" enable-background="new 0 0 10.585 10.583" xml:space="preserve">
<g>
	<path fill="#<?php echo $color; ?>" d="M10.585,5.291c0,2.923-2.369,5.292-5.293,5.292C2.37,10.583,0,8.214,0,5.291C0,2.369,2.37,0,5.292,0
		C8.216,0,10.585,2.369,10.585,5.291"/>
</g>
<polygon fill="#FFFFFF" points="6.068,2.681 6.497,2.253 4.176,1.553 4.875,3.874 5.305,3.445 6.575,4.716 6.033,4.716 4.748,4.716 
	5.829,5.797 9.185,5.797 "/>
<polygon fill="#<?php echo $color; ?>" points="6.215,8.773 4.315,8.202 4.597,7.919 4.685,7.831 4.597,7.743 1.694,4.839 2.921,4.839 4.695,4.839 5.527,5.671 
	4.545,5.671 4.002,5.671 3.701,5.671 3.914,5.886 5.184,7.157 5.273,7.245 5.361,7.157 5.642,6.875 "/>
<path fill="#FFFFFF" d="M4.749,4.715L5.83,5.796H4.545H4.544H4.002l1.27,1.271l0.429-0.429l0.7,2.321l-2.321-0.7L4.51,7.831
	L1.393,4.715h1.529H4.749z M4.645,4.965H2.921H1.997l2.689,2.688l0.177,0.177L4.686,8.007L4.553,8.142l1.475,0.443L5.583,7.11
	L5.45,7.244L5.272,7.42L5.097,7.244l-1.271-1.27L3.398,5.545l0.604,0.001h0.542h0.681L4.645,4.965z"/>
</svg>
