<?php
if(!isset($color) || $color=="" || strtolower($color)=="black"){$color="000";}
if(strtolower($color)=="red"){$color="ed1c24";}
if(strtolower($color)=="blue"){$color="1c75bc";}
if(strtolower($color)=="green"){$color="00a651";}
if(strtolower($color)=="white"){$color="fff";}
header('Content-Type: text/xml');
// echo xml tag just in case short_open_tags is enabled in PHP config
echo '<?xml version="1.0" encoding="UTF-8"?>';
?>
<!-- Generator: Adobe Illustrator 15.0.0, SVG Export Plug-In . SVG Version: 6.00 Build 0)  -->
<!DOCTYPE svg PUBLIC "-//W3C//DTD SVG 1.1//EN" "http://www.w3.org/Graphics/SVG/1.1/DTD/svg11.dtd">
<svg version="1.1" id="Layer_1" xmlns="http://www.w3.org/2000/svg" xmlns:xlink="http://www.w3.org/1999/xlink" x="0px" y="0px"
	 width="10.585px" height="10.584px" viewBox="0 0 10.585 10.584" enable-background="new 0 0 10.585 10.584" xml:space="preserve">
<g>
	<path fill="#<?php echo $color; ?>" d="M10.585,5.292c0,2.923-2.369,5.292-5.293,5.292C2.37,10.584,0,8.215,0,5.292C0,2.37,2.37,0,5.292,0
		C8.216,0,10.585,2.37,10.585,5.292"/>
	<path fill="#FFFFFF" d="M5.867,3.167c0,0.632,0.513,1.145,1.146,1.145c0.632,0,1.144-0.513,1.144-1.145
		c0-0.633-0.512-1.146-1.144-1.146C6.38,2.021,5.867,2.534,5.867,3.167"/>
	<polygon fill="#FFFFFF" points="6.616,6.734 4.085,6.734 6.39,3.575 6.391,3.575 6.685,3.79 4.803,6.369 6.846,6.369 7.647,8.052 
		8.135,7.567 8.393,7.824 7.54,8.674 	"/>
	<polygon fill="#FFFFFF" points="4.588,4 3.846,4.818 3.577,4.574 4.516,3.536 7.048,5.033 8.346,4.505 8.482,4.844 7.018,5.438 	
		"/>
	<polygon fill="#FFFFFF" points="2.699,7.648 2.38,8.046 2.095,7.817 2.597,7.194 3.989,7.865 4.362,6.502 4.714,6.6 4.224,8.386 	
		"/>
	<rect x="2.287" y="1.839" fill="#FFFFFF" width="3.495" height="0.365"/>
	<rect x="2.288" y="2.651" fill="#FFFFFF" width="2.46" height="0.365"/>
	<rect x="2.287" y="3.463" fill="#FFFFFF" width="1.338" height="0.365"/>
	<rect x="2.287" y="4.276" fill="#FFFFFF" width="0.971" height="0.365"/>
</g>
</svg>
