<?php
if(!isset($color) || $color=="" || strtolower($color)=="black"){$color="000";}
if(strtolower($color)=="red"){$color="ed1c24";}
if(strtolower($color)=="blue"){$color="1c75bc";}
if(strtolower($color)=="green"){$color="00a651";}
if(strtolower($color)=="white"){$color="fff";}
header('Content-Type: text/xml');
// echo xml tag just in case short_open_tags is enabled in PHP config
echo '<?xml version="1.0" encoding="UTF-8"?>';
?>
<!-- Generator: Adobe Illustrator 15.0.0, SVG Export Plug-In . SVG Version: 6.00 Build 0)  -->
<!DOCTYPE svg PUBLIC "-//W3C//DTD SVG 1.1//EN" "http://www.w3.org/Graphics/SVG/1.1/DTD/svg11.dtd">
<svg version="1.1" id="Layer_1" xmlns="http://www.w3.org/2000/svg" xmlns:xlink="http://www.w3.org/1999/xlink" x="0px" y="0px"
	 width="10.585px" height="10.585px" viewBox="0 0 10.585 10.585" enable-background="new 0 0 10.585 10.585" xml:space="preserve">
<g>
	<path fill="#<?php echo $color; ?>" d="M10.585,5.292c0,2.923-2.369,5.293-5.292,5.293S0,8.215,0,5.292S2.37,0,5.293,0S10.585,2.369,10.585,5.292"/>
	<path fill="#FFFFFF" d="M2.062,5.831C2.13,7.554,3.546,8.934,5.288,8.934c1.741,0,3.158-1.38,3.226-3.103H2.062z"/>
	<path fill="#FFFFFF" d="M3.229,3.47c0.043,1.102,0.947,1.98,2.059,1.98c1.11,0,2.015-0.879,2.059-1.98H3.229z"/>
	<path fill="#FFFFFF" d="M6.657,2.898C6.628,2.167,6.026,1.58,5.288,1.58c-0.739,0-1.34,0.587-1.369,1.318H6.657z"/>
</g>
</svg>
