<?php
if(!isset($color) || $color=="" || strtolower($color)=="black"){$color="000";}
if(strtolower($color)=="red"){$color="ed1c24";}
if(strtolower($color)=="blue"){$color="1c75bc";}
if(strtolower($color)=="green"){$color="00a651";}
if(strtolower($color)=="white"){$color="fff";}
header('Content-Type: text/xml');
// echo xml tag just in case short_open_tags is enabled in PHP config
echo '<?xml version="1.0" encoding="UTF-8"?>';
?>
<!-- Generator: Adobe Illustrator 15.0.0, SVG Export Plug-In . SVG Version: 6.00 Build 0)  -->
<!DOCTYPE svg PUBLIC "-//W3C//DTD SVG 1.1//EN" "http://www.w3.org/Graphics/SVG/1.1/DTD/svg11.dtd">
<svg version="1.1" id="Layer_1" xmlns="http://www.w3.org/2000/svg" xmlns:xlink="http://www.w3.org/1999/xlink" x="0px" y="0px"
	 width="10.585px" height="10.585px" viewBox="0 0 10.585 10.585" enable-background="new 0 0 10.585 10.585" xml:space="preserve">
<g>
	<path fill="#<?php echo $color; ?>" d="M10.585,5.292c0,2.923-2.369,5.293-5.293,5.293C2.37,10.585,0,8.215,0,5.292C0,2.37,2.37,0,5.292,0
		C8.216,0,10.585,2.37,10.585,5.292"/>
	<path fill="#FFFFFF" d="M6.787,1.937c0-0.265,0.24-0.482,0.536-0.482c0.296,0,0.537,0.217,0.537,0.482v1.642
		c0,0.267-0.241,0.483-0.537,0.483c-0.296,0-0.536-0.216-0.536-0.483V1.937z"/>
	<path fill="#FFFFFF" d="M5.408,3.222c0-0.265,0.214-0.481,0.48-0.481c0.267,0,0.482,0.216,0.482,0.481v0.322
		c0,0.267-0.215,0.48-0.482,0.48c-0.266,0-0.48-0.213-0.48-0.48V3.222z"/>
	<path fill="#FFFFFF" d="M4.027,3.222c0-0.265,0.216-0.481,0.483-0.481c0.265,0,0.481,0.216,0.481,0.481v0.322
		c0,0.267-0.216,0.48-0.481,0.48c-0.267,0-0.483-0.213-0.483-0.48V3.222z"/>
	<path fill="#FFFFFF" d="M7.93,7.26c0,0.006-0.001,0.012-0.001,0.018c0,0.005,0.001,0.012,0.001,0.017c0,0.263-1.232,1.8-1.513,1.8
		H4.125c-0.282,0-1.478-0.847-1.478-2.157V1.901c0-0.265,0.216-0.481,0.483-0.481c0.265,0,0.481,0.216,0.481,0.481v3.871
		c0.025,0.094,0.068,0.191,0.143,0.251c0.178,0.143,0.607,0.143,0.607,0.143h2.046c0.019,0,0.041,0.004,0.062,0.006
		c0.025-0.011,0.049-0.025,0.068-0.041c0.179-0.142,0.179-0.499,0.179-0.499V5.599H4.61c-0.267,0-0.482-0.297-0.482-0.662
		c0-0.368,0.215-0.665,0.482-0.665h2.819c0.244,0,0.444,0.25,0.476,0.572C7.919,4.892,7.93,4.938,7.93,4.989V7.26z"/>
</g>
</svg>
