<?php
if(!isset($color) || $color=="" || strtolower($color)=="black"){$color="000";}
if(strtolower($color)=="red"){$color="ed1c24";}
if(strtolower($color)=="blue"){$color="1c75bc";}
if(strtolower($color)=="green"){$color="00a651";}
if(strtolower($color)=="white"){$color="fff";}
header('Content-Type: text/xml');
// echo xml tag just in case short_open_tags is enabled in PHP config
echo '<?xml version="1.0" encoding="UTF-8"?>';
?>
<!-- Generator: Adobe Illustrator 15.0.0, SVG Export Plug-In . SVG Version: 6.00 Build 0)  -->
<!DOCTYPE svg PUBLIC "-//W3C//DTD SVG 1.1//EN" "http://www.w3.org/Graphics/SVG/1.1/DTD/svg11.dtd">
<svg version="1.1" id="Layer_1" xmlns="http://www.w3.org/2000/svg" xmlns:xlink="http://www.w3.org/1999/xlink" x="0px" y="0px"
	 width="10.585px" height="10.585px" viewBox="0 0 10.585 10.585" enable-background="new 0 0 10.585 10.585" xml:space="preserve">
<g>
	<path fill="#<?php echo $color; ?>" d="M10.585,5.292c0,2.923-2.368,5.293-5.293,5.293C2.369,10.585,0,8.215,0,5.292S2.369,0,5.292,0
		C8.217,0,10.585,2.369,10.585,5.292"/>
</g>
<polygon fill="#FFFFFF" points="6.528,6.866 5.728,6.404 5.728,5.479 6.528,5.016 7.331,5.479 7.33,6.404 "/>
<polygon fill="#FFFFFF" points="7.53,5.132 6.729,4.67 6.729,3.744 7.53,3.282 8.332,3.744 8.333,4.67 "/>
<polygon fill="#FFFFFF" points="7.53,8.601 6.728,8.139 6.728,7.214 7.53,6.751 8.332,7.214 8.331,8.139 "/>
<polygon fill="#FFFFFF" points="5.526,5.132 4.727,4.669 4.726,3.744 5.526,3.282 6.329,3.744 6.327,4.669 "/>
<polygon fill="#FFFFFF" points="6.53,3.398 5.728,2.936 5.729,2.01 6.53,1.548 7.331,2.01 7.331,2.936 "/>
<polygon fill="#FFFFFF" points="8.532,6.866 7.73,6.404 7.73,5.479 8.532,5.017 9.334,5.479 9.334,6.404 "/>
<polygon fill="#FFFFFF" points="5.526,8.6 4.726,8.139 4.726,7.213 5.526,6.752 6.329,7.213 6.327,8.138 "/>
<g>
	<path fill="#<?php echo $color; ?>" d="M4.744,1.384h-2.5c-0.299,0-0.541,0.242-0.541,0.54c0,0.273,0.202,0.498,0.464,0.536v5.687
		C2.169,8.878,2.76,9.473,3.493,9.473c0.732,0,1.324-0.595,1.324-1.326V2.46c0.264-0.037,0.467-0.262,0.467-0.536
		C5.284,1.626,5.042,1.384,4.744,1.384"/>
	<path fill="none" stroke="#<?php echo $color; ?>" stroke-width="0.5" d="M4.744,1.384h-2.5c-0.299,0-0.541,0.242-0.541,0.54
		c0,0.273,0.202,0.498,0.464,0.536v5.687C2.169,8.878,2.76,9.473,3.493,9.473c0.732,0,1.324-0.595,1.324-1.326V2.46
		c0.264-0.037,0.467-0.262,0.467-0.536C5.284,1.626,5.042,1.384,4.744,1.384z"/>
	<path fill="#FFFFFF" d="M3.493,8.753c0.343,0,0.618-0.277,0.618-0.617V4.833C3.598,4.937,3.487,4.689,3.249,4.645
		C3.131,4.624,2.996,4.678,2.878,4.748v3.389C2.878,8.477,3.151,8.753,3.493,8.753"/>
	<path fill="#FFFFFF" d="M2.167,8.147V2.459C1.904,2.422,1.703,2.197,1.703,1.925c0-0.299,0.241-0.541,0.54-0.541h2.5v0.159v0.158
		h-2.5C2.119,1.703,2.021,1.802,2.02,1.925c0.002,0.123,0.1,0.223,0.224,0.223h0.083c0.042,0,0.083,0.016,0.112,0.045
		C2.47,2.224,2.486,2.264,2.486,2.306L2.485,8.147c0.001,0.554,0.45,1.005,1.007,1.006C4.05,9.152,4.499,8.702,4.5,8.147V2.306
		c0-0.042,0.019-0.082,0.049-0.113c0.027-0.029,0.069-0.045,0.11-0.045h0.084c0.122,0,0.223-0.1,0.223-0.223
		c0-0.123-0.101-0.222-0.223-0.224V1.542V1.384c0.299,0,0.541,0.242,0.541,0.541c0,0.274-0.203,0.499-0.466,0.535v5.688
		c0,0.731-0.593,1.324-1.326,1.324C2.76,9.472,2.169,8.878,2.167,8.147"/>
	<path fill="#FFFFFF" d="M3.286,4.131c0-0.165,0.133-0.299,0.299-0.299c0.162,0,0.294,0.134,0.295,0.299
		C3.879,4.294,3.747,4.427,3.585,4.427C3.419,4.427,3.286,4.294,3.286,4.131 M3.413,4.131c0,0.093,0.076,0.169,0.172,0.169
		c0.092,0,0.167-0.076,0.167-0.169c0-0.095-0.075-0.172-0.167-0.172C3.489,3.959,3.413,4.036,3.413,4.131"/>
	<path fill="#FFFFFF" d="M2.752,3.598c0-0.164,0.135-0.297,0.299-0.297s0.296,0.133,0.298,0.297
		C3.347,3.762,3.215,3.894,3.051,3.896C2.887,3.896,2.752,3.762,2.752,3.598 M2.881,3.598c0,0.094,0.076,0.17,0.17,0.17
		c0.095,0,0.17-0.076,0.17-0.17c0-0.094-0.075-0.169-0.17-0.171C2.957,3.429,2.881,3.504,2.881,3.598"/>
	<path fill="#FFFFFF" d="M3.288,2.511c0-0.199,0.164-0.362,0.363-0.362s0.36,0.163,0.362,0.362C4.012,2.71,3.851,2.873,3.651,2.873
		S3.288,2.711,3.288,2.511 M3.417,2.511c0,0.129,0.104,0.234,0.234,0.234S3.886,2.64,3.886,2.511c0-0.13-0.104-0.236-0.234-0.236
		C3.521,2.276,3.417,2.381,3.417,2.511"/>
</g>
</svg>
