<?php
if(!isset($color) || $color=="" || strtolower($color)=="black"){$color="000";}
if(strtolower($color)=="red"){$color="ed1c24";}
if(strtolower($color)=="blue"){$color="1c75bc";}
if(strtolower($color)=="green"){$color="00a651";}
if(strtolower($color)=="white"){$color="fff";}
header('Content-Type: text/xml');
// echo xml tag just in case short_open_tags is enabled in PHP config
echo '<?xml version="1.0" encoding="UTF-8"?>';
?>
<!-- Generator: Adobe Illustrator 15.0.0, SVG Export Plug-In . SVG Version: 6.00 Build 0)  -->
<!DOCTYPE svg PUBLIC "-//W3C//DTD SVG 1.1//EN" "http://www.w3.org/Graphics/SVG/1.1/DTD/svg11.dtd">
<svg version="1.1" id="Layer_1" xmlns="http://www.w3.org/2000/svg" xmlns:xlink="http://www.w3.org/1999/xlink" x="0px" y="0px"
	 width="10.585px" height="10.584px" viewBox="0 0 10.585 10.584" enable-background="new 0 0 10.585 10.584" xml:space="preserve">
<g>
	<path fill="#<?php echo $color; ?>" d="M10.585,5.291c0,2.924-2.369,5.293-5.292,5.293S0,8.215,0,5.291C0,2.368,2.37,0,5.293,0S10.585,2.368,10.585,5.291"/>
	<path fill="#FFFFFF" d="M7.78,2.801L6.693,2C6.574,1.912,6.55,1.722,6.637,1.575C6.726,1.429,6.894,1.382,7.012,1.47L8.1,2.27
		c0.119,0.088,0.146,0.278,0.059,0.424C8.067,2.841,7.899,2.889,7.78,2.801"/>
	<path fill="#FFFFFF" d="M5.835,1.864H2.781c-0.23,0-0.413,0.17-0.413,0.378v6.469c0,0.208,0.183,0.377,0.413,0.377h4.623
		c0.229,0,0.414-0.169,0.414-0.377V3.436L5.835,1.864z M4.891,6.526L3.95,7.903C3.829,8.082,3.585,8.128,3.406,8.006
		C3.228,7.884,3.182,7.641,3.305,7.461l0.94-1.378c0.122-0.178,0.366-0.224,0.547-0.102C4.969,6.104,5.016,6.348,4.891,6.526
		 M4.792,5.211C4.611,5.33,4.367,5.285,4.246,5.106L3.307,3.728C3.185,3.549,3.232,3.305,3.411,3.184
		c0.18-0.124,0.422-0.076,0.544,0.103l0.939,1.38C5.018,4.846,4.969,5.087,4.792,5.211 M6.697,8.01
		C6.517,8.132,6.273,8.086,6.15,7.905L5.213,6.526C5.091,6.348,5.137,6.104,5.318,5.982c0.177-0.123,0.421-0.075,0.543,0.104
		l0.938,1.378C6.921,7.645,6.876,7.889,6.697,8.01 M6.804,3.732L5.861,5.108C5.739,5.286,5.498,5.333,5.318,5.212
		C5.14,5.087,5.094,4.844,5.215,4.666l0.941-1.377C6.278,3.11,6.523,3.064,6.702,3.187C6.88,3.309,6.926,3.553,6.804,3.732"/>
</g>
</svg>
