<?php
if(!isset($color) || $color=="" || strtolower($color)=="black"){$color="000";}
if(strtolower($color)=="red"){$color="ed1c24";}
if(strtolower($color)=="blue"){$color="1c75bc";}
if(strtolower($color)=="green"){$color="00a651";}
if(strtolower($color)=="white"){$color="fff";}
header('Content-Type: text/xml');
// echo xml tag just in case short_open_tags is enabled in PHP config
echo '<?xml version="1.0" encoding="UTF-8"?>';
?>
<!-- Generator: Adobe Illustrator 15.0.0, SVG Export Plug-In . SVG Version: 6.00 Build 0)  -->
<!DOCTYPE svg PUBLIC "-//W3C//DTD SVG 1.1//EN" "http://www.w3.org/Graphics/SVG/1.1/DTD/svg11.dtd">
<svg version="1.1" id="Layer_1" xmlns="http://www.w3.org/2000/svg" xmlns:xlink="http://www.w3.org/1999/xlink" x="0px" y="0px"
	 width="10.585px" height="10.585px" viewBox="0 0 10.585 10.585" enable-background="new 0 0 10.585 10.585" xml:space="preserve">
<g>
	<defs>
		<rect fill="#<?php echo $color; ?>" id="SVGID_1_" x="0.001" width="10.584" height="10.585"/>
	</defs>
	<clipPath id="SVGID_2_">
		<use xlink:href="#SVGID_1_"  overflow="visible"/>
	</clipPath>
	<path fill="#<?php echo $color; ?>" clip-path="url(#SVGID_2_)" d="M10.585,5.292c0,2.922-2.369,5.293-5.292,5.293C2.37,10.585,0,8.214,0,5.292
		C0,2.37,2.37,0,5.293,0C8.216,0,10.585,2.37,10.585,5.292"/>
</g>
<path fill="#FFFFFF" d="M0.814,3.877l3.078-0.454l1.375-2.789l1.391,2.789l3.094,0.454L7.51,6.056l0.523,3.055l-2.75-1.453
	L2.517,9.111l0.516-3.047L0.814,3.877z M1.876,4.213l1.708,1.656l1.708-0.62L1.876,4.213z M4.238,3.886l1.054,1.363V1.744
	L4.238,3.886z M6.323,3.877L5.292,5.249l3.382-1.036L6.323,3.877z M6.984,5.869l-1.692-0.62L7.37,8.197L6.984,5.869z M5.283,7.111
	l0.009-1.862L3.188,8.197L5.283,7.111z"/>
</svg>
