<?php
if(!isset($color) || $color=="" || strtolower($color)=="black"){$color="000";}
if(strtolower($color)=="red"){$color="ed1c24";}
if(strtolower($color)=="blue"){$color="1c75bc";}
if(strtolower($color)=="green"){$color="00a651";}
if(strtolower($color)=="white"){$color="fff";}
header('Content-Type: text/xml');
// echo xml tag just in case short_open_tags is enabled in PHP config
echo '<?xml version="1.0" encoding="UTF-8"?>';
?>
<!-- Generator: Adobe Illustrator 15.0.0, SVG Export Plug-In . SVG Version: 6.00 Build 0)  -->
<!DOCTYPE svg PUBLIC "-//W3C//DTD SVG 1.1//EN" "http://www.w3.org/Graphics/SVG/1.1/DTD/svg11.dtd">
<svg version="1.1" id="Layer_1" xmlns="http://www.w3.org/2000/svg" xmlns:xlink="http://www.w3.org/1999/xlink" x="0px" y="0px"
	 width="10.584px" height="10.585px" viewBox="0 0 10.584 10.585" enable-background="new 0 0 10.584 10.585" xml:space="preserve">
<g>
	<defs>
		<rect fill="#<?php echo $color; ?>" id="SVGID_1_" width="10.584" height="10.585"/>
	</defs>
	<clipPath id="SVGID_2_">
		<use xlink:href="#SVGID_1_"  overflow="visible"/>
	</clipPath>
	<path fill="#<?php echo $color; ?>" clip-path="url(#SVGID_2_)" d="M10.584,5.291c0,2.925-2.369,5.293-5.292,5.293C2.369,10.584,0,8.216,0,5.291
		C0,2.369,2.369,0,5.292,0C8.215,0,10.584,2.369,10.584,5.291"/>
	<path clip-path="url(#SVGID_2_)" fill="#FFFFFF" d="M6.411,5.335H5.537c0.498-0.137,0.866-0.588,0.866-1.13
		c0-0.649-0.526-1.176-1.175-1.176c-0.65,0-1.176,0.527-1.176,1.176c0,0.542,0.368,0.993,0.867,1.13H4.044L1.618,1.752v2.072
		l1.88,2.875v2.095h3.459V6.699l1.88-2.875V1.752L6.411,5.335z M4.753,7.538H3.805V6.59h0.948V5.642h0.949V6.59H6.65v0.948H5.702
		v0.947H4.753V7.538 M5.702,7.538L5.702,7.538"/>
</g>
</svg>
