<?php
if(!isset($color) || $color=="" || strtolower($color)=="black"){$color="000";}
if(strtolower($color)=="red"){$color="ed1c24";}
if(strtolower($color)=="blue"){$color="1c75bc";}
if(strtolower($color)=="green"){$color="00a651";}
if(strtolower($color)=="white"){$color="fff";}
header('Content-Type: text/xml');
// echo xml tag just in case short_open_tags is enabled in PHP config
echo '<?xml version="1.0" encoding="UTF-8"?>';
?>
<!-- Generator: Adobe Illustrator 15.0.0, SVG Export Plug-In . SVG Version: 6.00 Build 0)  -->
<!DOCTYPE svg PUBLIC "-//W3C//DTD SVG 1.1//EN" "http://www.w3.org/Graphics/SVG/1.1/DTD/svg11.dtd">
<svg version="1.1" id="Layer_1" xmlns="http://www.w3.org/2000/svg" xmlns:xlink="http://www.w3.org/1999/xlink" x="0px" y="0px"
	 width="10.585px" height="10.585px" viewBox="0 0 10.585 10.585" enable-background="new 0 0 10.585 10.585" xml:space="preserve">
<g>
	<path fill="#<?php echo $color; ?>" d="M10.585,5.292c0,2.923-2.369,5.293-5.292,5.293S0,8.215,0,5.292C0,2.37,2.37,0,5.293,0S10.585,2.37,10.585,5.292"/>
	<path fill="#FFFFFF" d="M7.261,9.247L5.964,4.295h0.827V3.86H6.365c0.277-0.276,0.448-0.657,0.448-1.079
		c0-0.422-0.171-0.803-0.447-1.079h0.425V1.267H3.785v0.435h0.424C3.933,1.978,3.763,2.359,3.763,2.781
		c0,0.422,0.17,0.803,0.448,1.079H3.785v0.435h0.828L3.314,9.247h1.594V7.83h0.76v1.417H7.261z M4.219,2.781
		c0.001-0.59,0.479-1.066,1.068-1.069c0.59,0.003,1.067,0.479,1.069,1.069C6.354,3.18,6.134,3.523,5.809,3.707
		C5.655,3.795,5.479,3.849,5.287,3.849c-0.19,0-0.366-0.054-0.52-0.141C4.442,3.524,4.219,3.18,4.219,2.781"/>
</g>
</svg>
