<?php
if(!isset($color) || $color=="" || strtolower($color)=="black"){$color="000";}
if(strtolower($color)=="red"){$color="ed1c24";}
if(strtolower($color)=="blue"){$color="1c75bc";}
if(strtolower($color)=="green"){$color="00a651";}
if(strtolower($color)=="white"){$color="fff";}
header('Content-Type: text/xml');
// echo xml tag just in case short_open_tags is enabled in PHP config
echo '<?xml version="1.0" encoding="UTF-8"?>';
?>
<!-- Generator: Adobe Illustrator 15.0.0, SVG Export Plug-In . SVG Version: 6.00 Build 0)  -->
<!DOCTYPE svg PUBLIC "-//W3C//DTD SVG 1.1//EN" "http://www.w3.org/Graphics/SVG/1.1/DTD/svg11.dtd">
<svg version="1.1" id="Layer_1" xmlns="http://www.w3.org/2000/svg" xmlns:xlink="http://www.w3.org/1999/xlink" x="0px" y="0px"
	 width="10.584px" height="10.584px" viewBox="0 0 10.584 10.584" enable-background="new 0 0 10.584 10.584" xml:space="preserve">
<g>
	<defs>
		<rect fill="#<?php echo $color; ?>" id="SVGID_1_" width="10.584" height="10.584"/>
	</defs>
	<clipPath id="SVGID_2_">
		<use xlink:href="#SVGID_1_"  overflow="visible"/>
	</clipPath>
	<path fill="#<?php echo $color; ?>" clip-path="url(#SVGID_2_)" d="M10.584,5.29c0,2.924-2.369,5.293-5.292,5.293c-2.923,0-5.293-2.369-5.293-5.293
		c0-2.923,2.37-5.292,5.293-5.292C8.215-0.002,10.584,2.367,10.584,5.29"/>
	<path clip-path="url(#SVGID_2_)" fill="#FFFFFF" d="M5.679,4.803c0,0,0.322-0.786,0.754-0.947c0.291-0.107,0.499,0.196,0.603,0.291
		c0.119,0.106,0.377,0.42,0.258,0.711C7.114,5.3,6.207,5.525,6.207,5.525L2.425,9.005L1.649,8.079L5.679,4.803z M5.84,2.261
		c0,0-0.01-0.13-0.278-0.215C5.296,1.959,5.043,2.013,5.043,2.013S5.355,2.176,5.355,2.52c0,0.54-0.482,0.581-0.722,1.034
		c-0.272,0.518-0.307,1.367-0.146,1.8c0.47,1.261,1.82,1.16,2.237,1.174C7.148,6.542,9.179,6.43,9.18,4.297
		c0.002-2.51-1.443-2.834-1.443-2.834c0.269,0.281,0.204,0.55,0.204,0.55s-0.54-0.46-1.131-0.636
		C6.088,1.162,5.249,1.162,5.249,1.162s0.398,0.172,0.571,0.484C5.991,1.959,5.84,2.261,5.84,2.261"/>
</g>
</svg>
