<?php
if(!isset($color) || $color=="" || strtolower($color)=="black"){$color="000";}
if(strtolower($color)=="red"){$color="ed1c24";}
if(strtolower($color)=="blue"){$color="1c75bc";}
if(strtolower($color)=="green"){$color="00a651";}
if(strtolower($color)=="white"){$color="fff";}
header('Content-Type: text/xml');
// echo xml tag just in case short_open_tags is enabled in PHP config
echo '<?xml version="1.0" encoding="UTF-8"?>';
?>
<!-- Generator: Adobe Illustrator 15.0.0, SVG Export Plug-In . SVG Version: 6.00 Build 0)  -->
<!DOCTYPE svg PUBLIC "-//W3C//DTD SVG 1.1//EN" "http://www.w3.org/Graphics/SVG/1.1/DTD/svg11.dtd">
<svg version="1.1" id="Layer_1" xmlns="http://www.w3.org/2000/svg" xmlns:xlink="http://www.w3.org/1999/xlink" x="0px" y="0px"
	 width="10.584px" height="10.585px" viewBox="0 0 10.584 10.585" enable-background="new 0 0 10.584 10.585" xml:space="preserve">
<g>
	<defs>
		<rect fill="#<?php echo $color; ?>" id="SVGID_1_" width="10.584" height="10.585"/>
	</defs>
	<clipPath id="SVGID_2_">
		<use xlink:href="#SVGID_1_"  overflow="visible"/>
	</clipPath>
	<path fill="#<?php echo $color; ?>" clip-path="url(#SVGID_2_)" d="M10.584,5.292c0,2.923-2.369,5.293-5.292,5.293c-2.923,0-5.293-2.37-5.293-5.293
		S2.369,0,5.292,0C8.215,0,10.584,2.369,10.584,5.292"/>
</g>
<path fill="#FFFFFF" d="M8.774,3.744L7.845,3.432V1.617H6.564V3.01L2.267,1.61v1.274l0.5,0.164v2.264L2.034,6.71L2.001,6.768H1.657
	v0.804h2.828V6.768H4.145L3.331,5.216V3.243l3.24,1.048v4.965h1.274V4.705L8.786,5.01L8.774,3.744z M3.074,5.941L3.503,6.76H2.646
	L3.074,5.941z"/>
</svg>
