<?php
if(!isset($color) || $color=="" || strtolower($color)=="black"){$color="000";}
if(strtolower($color)=="red"){$color="ed1c24";}
if(strtolower($color)=="blue"){$color="1c75bc";}
if(strtolower($color)=="green"){$color="00a651";}
if(strtolower($color)=="white"){$color="fff";}
header('Content-Type: text/xml');
// echo xml tag just in case short_open_tags is enabled in PHP config
echo '<?xml version="1.0" encoding="UTF-8"?>';
?>
<!-- Generator: Adobe Illustrator 15.0.0, SVG Export Plug-In . SVG Version: 6.00 Build 0)  -->
<!DOCTYPE svg PUBLIC "-//W3C//DTD SVG 1.1//EN" "http://www.w3.org/Graphics/SVG/1.1/DTD/svg11.dtd">
<svg version="1.1" id="Layer_1" xmlns="http://www.w3.org/2000/svg" xmlns:xlink="http://www.w3.org/1999/xlink" x="0px" y="0px"
	 width="10.585px" height="10.585px" viewBox="0 0 10.585 10.585" enable-background="new 0 0 10.585 10.585" xml:space="preserve">
<g>
	<path fill="#<?php echo $color; ?>" d="M10.585,5.292c0,2.923-2.369,5.293-5.293,5.293C2.37,10.585,0,8.215,0,5.292C0,2.37,2.37,0,5.292,0
		C8.216,0,10.585,2.37,10.585,5.292"/>
	<path fill="#FFFFFF" d="M7.934,4.152c0.124-0.583,0.102-1.186-0.07-1.757C7.775,2.11,7.648,1.84,7.496,1.588
		c-0.078-0.129-0.078-0.14-0.199-0.115c-0.291,0.061-0.58,0.12-0.87,0.18c-0.141,0.03-0.453,0.045-0.554,0.123
		C6.517,2.362,6.808,3.35,6.449,4.157c-0.218,0.499-0.552,0.94-0.806,1.423c-0.22,0.415-0.347,0.887-0.36,1.358
		C5.267,7.479,5.364,8.026,5.59,8.518c0.051,0.116,0.107,0.227,0.172,0.336C5.801,8.919,5.841,8.985,5.883,9.05
		c0.014,0.006,0.025-0.016,0.038,0c0.044,0.01,0.129-0.028,0.177-0.036c0.283-0.059,0.565-0.119,0.847-0.176
		C7.07,8.812,7.338,8.797,7.425,8.73C6.855,8.213,6.51,7.301,6.769,6.551c0.147-0.428,0.414-0.796,0.64-1.185
		C7.64,4.967,7.818,4.595,7.934,4.152"/>
	<path fill="#FFFFFF" d="M5.212,4.182c0.13-0.591,0.11-1.205-0.065-1.786C5.06,2.111,4.933,1.841,4.78,1.589
		C4.701,1.46,4.701,1.448,4.577,1.474c-0.288,0.06-0.576,0.12-0.866,0.179C3.57,1.683,3.256,1.699,3.158,1.777
		c0.643,0.585,0.934,1.574,0.575,2.381c-0.22,0.497-0.55,0.94-0.804,1.42C2.71,5.996,2.583,6.466,2.567,6.939
		C2.55,7.478,2.65,8.027,2.873,8.518c0.053,0.116,0.11,0.227,0.174,0.336c0.04,0.066,0.08,0.132,0.125,0.197
		c0.014,0.006,0.019-0.015,0.033,0C3.251,9.06,3.338,9.023,3.383,9.015c0.283-0.06,0.565-0.119,0.847-0.176
		c0.124-0.027,0.392-0.042,0.48-0.108C4.14,8.214,3.796,7.302,4.052,6.552c0.147-0.429,0.415-0.797,0.64-1.188
		c0.117-0.198,0.232-0.399,0.331-0.607C5.111,4.57,5.139,4.37,5.212,4.182"/>
</g>
</svg>
