<?php
if(!isset($color) || $color=="" || strtolower($color)=="black"){$color="000";}
if(strtolower($color)=="red"){$color="ed1c24";}
if(strtolower($color)=="blue"){$color="1c75bc";}
if(strtolower($color)=="green"){$color="00a651";}
if(strtolower($color)=="white"){$color="fff";}
header('Content-Type: text/xml');
// echo xml tag just in case short_open_tags is enabled in PHP config
echo '<?xml version="1.0" encoding="UTF-8"?>';
?>
<!-- Generator: Adobe Illustrator 15.0.0, SVG Export Plug-In . SVG Version: 6.00 Build 0)  -->
<!DOCTYPE svg PUBLIC "-//W3C//DTD SVG 1.1//EN" "http://www.w3.org/Graphics/SVG/1.1/DTD/svg11.dtd">
<svg version="1.1" id="Layer_1" xmlns="http://www.w3.org/2000/svg" xmlns:xlink="http://www.w3.org/1999/xlink" x="0px" y="0px"
	 width="10.584px" height="10.584px" viewBox="0 0 10.584 10.584" enable-background="new 0 0 10.584 10.584" xml:space="preserve">
<g>
	<defs>
		<rect fill="#<?php echo $color; ?>" id="SVGID_1_" width="10.584" height="10.584"/>
	</defs>
	<clipPath id="SVGID_2_">
		<use xlink:href="#SVGID_1_"  overflow="visible"/>
	</clipPath>
	<path fill="#<?php echo $color; ?>" clip-path="url(#SVGID_2_)" d="M10.584,5.291c0,2.923-2.369,5.292-5.292,5.292c-2.923,0-5.293-2.369-5.293-5.292
		c0-2.923,2.37-5.292,5.293-5.292C8.215-0.001,10.584,2.368,10.584,5.291"/>
	<path clip-path="url(#SVGID_2_)" fill="#FFFFFF" d="M6.196,2.164c0,0,1.114-1.122,2.14-0.156c1.188,1.117,0,2.297,0,2.297
		l-4.25,4.227c0,0-1.175,0.953-2.125-0.141c-0.867-1,0.017-1.969,0.017-1.969L6.196,2.164z M3.669,5.262L5.22,6.819l1.566-1.562
		L5.275,3.713L3.669,5.262z"/>
</g>
</svg>
