<?php
if(!isset($color) || $color=="" || strtolower($color)=="black"){$color="000";}
if(strtolower($color)=="red"){$color="ed1c24";}
if(strtolower($color)=="blue"){$color="1c75bc";}
if(strtolower($color)=="green"){$color="00a651";}
if(strtolower($color)=="white"){$color="fff";}
header('Content-Type: text/xml');
// echo xml tag just in case short_open_tags is enabled in PHP config
echo '<?xml version="1.0" encoding="UTF-8"?>';
?>
<!-- Generator: Adobe Illustrator 15.0.0, SVG Export Plug-In . SVG Version: 6.00 Build 0)  -->
<!DOCTYPE svg PUBLIC "-//W3C//DTD SVG 1.1//EN" "http://www.w3.org/Graphics/SVG/1.1/DTD/svg11.dtd">
<svg version="1.1" id="Layer_1" xmlns="http://www.w3.org/2000/svg" xmlns:xlink="http://www.w3.org/1999/xlink" x="0px" y="0px"
	 width="10.392px" height="10.392px" viewBox="0 0 10.392 10.392" enable-background="new 0 0 10.392 10.392" xml:space="preserve">
<rect fill="#<?php echo $color; ?>" width="10.392" height="10.392"/>
<g>
	<path fill="#FFFFFF" d="M5.191,9.505c-0.644,0-1.166-0.483-1.166-1.072c0-0.592,0.522-1.07,1.166-1.07
		c0.645,0,1.169,0.479,1.169,1.07C6.36,9.021,5.836,9.505,5.191,9.505"/>
	<path fill="#FFFFFF" d="M6.245,6.251c0,0.119-0.037,0.218-0.082,0.218H4.221c-0.045,0-0.082-0.099-0.082-0.218L3.713,1.049
		c0-0.13,0.051-0.231,0.114-0.231h2.727c0.064,0,0.116,0.102,0.116,0.231L6.245,6.251z"/>
</g>
</svg>
