<?php
if(!isset($color) || $color=="" || strtolower($color)=="black"){$color="000";}
if(strtolower($color)=="red"){$color="ed1c24";}
if(strtolower($color)=="blue"){$color="1c75bc";}
if(strtolower($color)=="green"){$color="00a651";}
if(strtolower($color)=="white"){$color="fff";}
header('Content-Type: text/xml');
// echo xml tag just in case short_open_tags is enabled in PHP config
echo '<?xml version="1.0" encoding="UTF-8"?>';
?>
<!-- Generator: Adobe Illustrator 15.0.0, SVG Export Plug-In . SVG Version: 6.00 Build 0)  -->
<!DOCTYPE svg PUBLIC "-//W3C//DTD SVG 1.1//EN" "http://www.w3.org/Graphics/SVG/1.1/DTD/svg11.dtd">
<svg version="1.1" id="Layer_1" xmlns="http://www.w3.org/2000/svg" xmlns:xlink="http://www.w3.org/1999/xlink" x="0px" y="0px"
	 width="10.392px" height="10.393px" viewBox="0 0 10.392 10.393" enable-background="new 0 0 10.392 10.393" xml:space="preserve">
<rect fill="#<?php echo $color; ?>" width="10.392" height="10.393"/>
<g>
	<path fill="#FFFFFF" d="M1.601,7.27c0,0,0.399,0.659,0.438,0.821c0.038,0.162,0.402,0.972,0.835,0.94
		C3.308,9,4.169,8.667,4.858,8.93c0,0,0.854-0.061,0.712-0.652C5.43,7.684,4.821,7.4,4.404,7.5L3.646,6.47L1.601,7.27z"/>
	<path fill="#<?php echo $color; ?>" d="M1.854,8.134c0-0.022-0.112-0.247-0.214-0.423C1.539,7.529,1.438,7.367,1.438,7.366L1.325,7.175l2.385-0.933l0.777,1.053
		c0.029-0.003,0.059-0.003,0.088-0.003c0.479,0,1.027,0.329,1.179,0.942c0.012,0.055,0.019,0.109,0.019,0.168
		C5.71,9.114,4.87,9.1,4.871,9.116L4.829,9.119L4.79,9.104C4.624,9.041,4.441,9.016,4.252,9.016
		C3.756,9.014,3.245,9.188,2.854,9.217L2.849,9.219C2.203,9.15,1.935,8.341,1.854,8.134 M2.86,8.844
		c0.267-0.017,0.823-0.201,1.393-0.203c0.205,0,0.418,0.024,0.625,0.096C4.932,8.73,5.043,8.713,5.152,8.669
		c0.159-0.067,0.247-0.144,0.246-0.267c0-0.022-0.003-0.051-0.01-0.084C5.292,7.9,4.89,7.666,4.575,7.667
		c-0.048,0-0.091,0.004-0.124,0.013L4.328,7.712L3.579,6.696L1.874,7.363c0.121,0.205,0.302,0.523,0.347,0.683
		c0.006,0.038,0.103,0.279,0.233,0.47C2.584,8.719,2.76,8.854,2.849,8.844c0,0,0.002,0,0.005,0C2.855,8.844,2.86,8.844,2.86,8.844"
		/>
	<path fill="#FFFFFF" d="M2.38,1.838c0.734,0,0.893,0.188,1.052,0.028c0.16-0.159,0.278-0.637,0.915-0.637S5.413,1.811,5.69,1.811
		c0.277,0,0.929-0.027,1.274,0.152c0.347,0.181,0.568,0.846,1.344,0.846c0,0,0.72,0.082,0.858,0.566
		c0.139,0.485,0.25,0.859,0.25,1.15S9.332,5.286,9.209,5.647c-0.125,0.36-0.431,1.621-1.012,1.621S7.38,6.978,7.38,6.978
		S7.2,7.67,6.563,7.67c-0.637,0-1.067-0.485-1.067-0.485S5.247,7.821,4.43,7.821S3.391,7.269,3.391,7.269s-0.194,0.54-1.039,0.54
		c-0.844,0-1.121-0.582-1.26-1.039C0.954,6.313,0.857,3.916,1.244,2.655C1.244,2.655,1.313,1.838,2.38,1.838"/>
	<path fill="#<?php echo $color; ?>" d="M3.393,7.504c-0.148,0.184-0.458,0.431-1.04,0.428C1.437,7.938,1.104,7.273,0.971,6.805
		C0.898,6.555,0.846,5.91,0.844,5.142c0-0.853,0.068-1.837,0.275-2.498c0-0.015,0.11-0.937,1.261-0.932v0.127v0.123
		c-0.983,0.006-1,0.704-1.017,0.729c-0.198,0.639-0.27,1.613-0.269,2.45C1.093,5.891,1.153,6.55,1.21,6.732
		c0.146,0.447,0.368,0.945,1.142,0.95c0.395-0.001,0.62-0.124,0.754-0.239c0.132-0.115,0.168-0.219,0.168-0.219l0.11-0.307
		l0.123,0.303c0.004-0.002,0.041,0.109,0.179,0.23C3.824,7.57,4.049,7.695,4.429,7.697c0.74,0,0.947-0.559,0.95-0.559l0.074-0.189
		l0.136,0.152C5.591,7.099,5.691,7.21,5.863,7.322c0.172,0.111,0.414,0.225,0.7,0.222c0.525,0.013,0.694-0.597,0.695-0.599
		L7.32,6.707l0.155,0.189C7.479,6.895,7.517,6.949,7.63,7.013s0.297,0.129,0.567,0.129c0.405,0.06,0.786-1.155,0.892-1.536
		c0.12-0.345,0.201-0.813,0.201-1.08c0.001-0.261-0.104-0.631-0.244-1.117C8.961,3.033,8.297,2.931,8.307,2.934
		c-0.856-0.006-1.13-0.746-1.401-0.861C6.687,1.955,6.25,1.931,5.938,1.934c-0.096,0-0.181,0.002-0.248,0.002
		C5.281,1.895,4.922,1.343,4.346,1.354C3.784,1.361,3.729,1.729,3.519,1.955c-0.065,0.066-0.159,0.103-0.244,0.1
		C3.081,2.051,2.884,1.962,2.38,1.962V1.839V1.712c0.524,0,0.792,0.097,0.894,0.093c0.039-0.003,0.039-0.003,0.069-0.025
		c0.11-0.096,0.291-0.684,1.003-0.676C5.045,1.115,5.543,1.726,5.69,1.686c0.062,0,0.149-0.002,0.248-0.002
		c0.324,0.002,0.773,0.01,1.084,0.168C7.443,2.098,7.611,2.688,8.32,2.684c0.008,0.01,0.774,0.063,0.967,0.656
		C9.423,3.824,9.54,4.203,9.54,4.525c0,0.312-0.084,0.785-0.213,1.162c-0.144,0.34-0.371,1.646-1.129,1.704
		c-0.371,0.001-0.619-0.11-0.763-0.207C7.328,7.414,7.081,7.783,6.563,7.793C6.072,7.789,5.708,7.541,5.527,7.387
		C5.387,7.598,5.06,7.945,4.429,7.947H4.425C3.856,7.947,3.543,7.689,3.393,7.504"/>
	<path fill="#FFFFFF" d="M7.394,3.93c0,0,0.346,1.135-0.014,3.047"/>
	<path fill="#<?php echo $color; ?>" d="M7.356,7.1C7.288,7.087,7.243,7.021,7.257,6.953c0.121-0.646,0.161-1.201,0.161-1.652c0-0.865-0.145-1.334-0.145-1.335
		h0.002C7.254,3.9,7.291,3.83,7.358,3.811C7.422,3.79,7.492,3.828,7.513,3.893c0.003,0.01,0.155,0.514,0.155,1.408
		c0.001,0.466-0.042,1.037-0.165,1.7c-0.012,0.06-0.065,0.101-0.124,0.101C7.372,7.102,7.364,7.102,7.356,7.1"/>
	<path fill="#FFFFFF" d="M5.44,4.068c0,0,0.245,1.484,0.056,3.117"/>
	<path fill="#<?php echo $color; ?>" d="M5.482,7.31C5.413,7.301,5.364,7.238,5.371,7.172c0.052-0.451,0.071-0.89,0.07-1.289C5.442,4.85,5.318,4.09,5.317,4.088
		h0.001C5.306,4.021,5.352,3.955,5.42,3.944c0.069-0.011,0.131,0.034,0.143,0.103C5.564,4.051,5.692,4.83,5.692,5.883
		c0,0.406-0.02,0.854-0.071,1.315C5.613,7.262,5.558,7.311,5.495,7.311C5.491,7.311,5.487,7.311,5.482,7.31"/>
	<path fill="#FFFFFF" d="M3.392,7.268c0,0-0.346-1.676-0.138-3.379"/>
	<path fill="#<?php echo $color; ?>" d="M3.268,7.293C3.267,7.287,3.06,6.289,3.06,5.043c0-0.375,0.018-0.771,0.069-1.17c0.008-0.068,0.07-0.117,0.138-0.109
		c0.069,0.01,0.116,0.071,0.109,0.141C3.328,4.289,3.31,4.677,3.31,5.043c0,1.219,0.202,2.197,0.203,2.199l0,0
		c0.015,0.068-0.03,0.134-0.097,0.147C3.408,7.392,3.399,7.393,3.39,7.393C3.332,7.393,3.28,7.352,3.268,7.293"/>
</g>
</svg>
