<?php
if(!isset($color) || $color=="" || strtolower($color)=="black"){$color="000";}
if(strtolower($color)=="red"){$color="ed1c24";}
if(strtolower($color)=="blue"){$color="1c75bc";}
if(strtolower($color)=="green"){$color="00a651";}
if(strtolower($color)=="white"){$color="fff";}
header('Content-Type: text/xml');
// echo xml tag just in case short_open_tags is enabled in PHP config
echo '<?xml version="1.0" encoding="UTF-8"?>';
?>
<!-- Generator: Adobe Illustrator 15.0.0, SVG Export Plug-In . SVG Version: 6.00 Build 0)  -->
<!DOCTYPE svg PUBLIC "-//W3C//DTD SVG 1.1//EN" "http://www.w3.org/Graphics/SVG/1.1/DTD/svg11.dtd">
<svg version="1.1" id="Layer_1" xmlns="http://www.w3.org/2000/svg" xmlns:xlink="http://www.w3.org/1999/xlink" x="0px" y="0px"
	 width="10.393px" height="10.393px" viewBox="0 0 10.393 10.393" enable-background="new 0 0 10.393 10.393" xml:space="preserve">
<rect fill="#<?php echo $color; ?>" x="0.001" width="10.392" height="10.392"/>
<g>
	<defs>
		<rect fill="#<?php echo $color; ?>" id="SVGID_1_" y="0.001" width="10.392" height="10.392"/>
	</defs>
	<clipPath id="SVGID_2_">
		<use xlink:href="#SVGID_1_"  overflow="visible"/>
	</clipPath>
	<path clip-path="url(#SVGID_2_)" fill="#FFFFFF" d="M7.723,6.811c0,1.454-1.179,2.633-2.633,2.633S2.457,8.265,2.457,6.811
		S3.636,4.178,5.09,4.178S7.723,5.356,7.723,6.811 M7.135,6.265C7.021,5.19,6.373,4.574,5.198,4.567
		c-1.319,0-2.171,0.894-2.171,2.243c0,1.266,0.786,2.243,2.171,2.243c1.254,0,1.955-0.917,1.955-1.781H5.858
		C5.78,7.674,5.606,7.986,5.162,7.986c-0.617,0-0.815-0.6-0.815-1.176s0.198-1.176,0.815-1.176c0.546,0,0.666,0.474,0.69,0.63H7.135
		z M4.27,4.029L4.7,3.936L3.067,3.279V1.092h2.015V0.862H1.02v1.87L4.27,4.029z M9.153,2.732v-1.87H5.09v0.229h2.016v2.188
		L5.473,3.936l0.43,0.094L9.153,2.732z"/>
</g>
</svg>
