<?php
if(!isset($color) || $color=="" || strtolower($color)=="black"){$color="000";}
if(strtolower($color)=="red"){$color="ed1c24";}
if(strtolower($color)=="blue"){$color="1c75bc";}
if(strtolower($color)=="green"){$color="00a651";}
if(strtolower($color)=="white"){$color="fff";}
header('Content-Type: text/xml');
// echo xml tag just in case short_open_tags is enabled in PHP config
echo '<?xml version="1.0" encoding="UTF-8"?>';
?>
<!-- Generator: Adobe Illustrator 15.0.0, SVG Export Plug-In . SVG Version: 6.00 Build 0)  -->
<!DOCTYPE svg PUBLIC "-//W3C//DTD SVG 1.1//EN" "http://www.w3.org/Graphics/SVG/1.1/DTD/svg11.dtd">
<svg version="1.1" id="Layer_1" xmlns="http://www.w3.org/2000/svg" xmlns:xlink="http://www.w3.org/1999/xlink" x="0px" y="0px"
	 width="10.393px" height="10.392px" viewBox="0 0 10.393 10.392" enable-background="new 0 0 10.393 10.392" xml:space="preserve">
<rect fill="#<?php echo $color; ?>" x="0.001" width="10.392" height="10.392"/>
<path fill="#FFFFFF" d="M8.502,5.85V2.013c0,0,0.025-0.501-0.543-0.501c-0.569,0-0.569,0.476-0.569,0.476V5.85L7.037,5.49
	c0,0-0.411-0.208-0.674,0.055C6.1,5.808,6.21,6.147,6.21,6.147l1.377,1.438c0,0,0.105,0.113,0.295,0.113
	c0.229,0,0.326-0.123,0.326-0.123L9.598,6.25c0,0,0.25-0.344-0.093-0.688C9.16,5.218,8.83,5.509,8.83,5.509L8.502,5.85z"/>
<path fill="#FFFFFF" d="M3.023,5.85V2.013c0,0,0.026-0.501-0.543-0.501c-0.569,0-0.569,0.476-0.569,0.476V5.85L1.559,5.49
	c0,0-0.411-0.208-0.674,0.055C0.621,5.808,0.731,6.147,0.731,6.147L2.11,7.585c0,0,0.104,0.113,0.294,0.113
	c0.229,0,0.327-0.123,0.327-0.123L4.119,6.25c0,0,0.25-0.344-0.094-0.688C3.682,5.218,3.352,5.509,3.352,5.509L3.023,5.85z"/>
<path fill="#FFFFFF" d="M5.763,7.922V1.42c0,0,0.026-0.501-0.543-0.501S4.651,1.394,4.651,1.394v6.528l-0.353-0.36
	c0,0-0.411-0.209-0.674,0.055S3.471,8.22,3.471,8.22L4.85,9.656c0,0,0.104,0.113,0.293,0.113c0.229,0,0.327-0.123,0.327-0.123
	l1.388-1.325c0,0,0.251-0.345-0.094-0.688C6.42,7.289,6.091,7.58,6.091,7.58L5.763,7.922z"/>
</svg>
