<?php
if(!isset($color) || $color=="" || strtolower($color)=="black"){$color="000";}
if(strtolower($color)=="red"){$color="ed1c24";}
if(strtolower($color)=="blue"){$color="1c75bc";}
if(strtolower($color)=="green"){$color="00a651";}
if(strtolower($color)=="white"){$color="fff";}
header('Content-Type: text/xml');
// echo xml tag just in case short_open_tags is enabled in PHP config
echo '<?xml version="1.0" encoding="UTF-8"?>';
?>
<!-- Generator: Adobe Illustrator 15.0.0, SVG Export Plug-In . SVG Version: 6.00 Build 0)  -->
<!DOCTYPE svg PUBLIC "-//W3C//DTD SVG 1.1//EN" "http://www.w3.org/Graphics/SVG/1.1/DTD/svg11.dtd">
<svg version="1.1" id="Layer_1" xmlns="http://www.w3.org/2000/svg" xmlns:xlink="http://www.w3.org/1999/xlink" x="0px" y="0px"
	 width="10.393px" height="10.393px" viewBox="0 0 10.393 10.393" enable-background="new 0 0 10.393 10.393" xml:space="preserve">
<rect fill="#<?php echo $color; ?>" x="0.001" width="10.392" height="10.393"/>
<g>
	<defs>
		<rect fill="#<?php echo $color; ?>" id="SVGID_1_" y="0.002" width="10.392" height="10.391"/>
	</defs>
	<clipPath id="SVGID_2_">
		<use xlink:href="#SVGID_1_"  overflow="visible"/>
	</clipPath>
	<path clip-path="url(#SVGID_2_)" fill="#FFFFFF" d="M1.351,6.928C1.104,6.39,0.962,5.793,0.962,5.162s0.142-1.228,0.389-1.766
		l1.326,0.68C2.532,4.41,2.452,4.777,2.452,5.162c0,0.386,0.079,0.752,0.225,1.084L1.351,6.928z"/>
	<path clip-path="url(#SVGID_2_)" fill="#FFFFFF" d="M4.8,9.373c-1.263-0.117-2.36-0.787-3.057-1.768l1.254-0.807
		c0.439,0.588,1.108,0.994,1.876,1.084L4.8,9.373z"/>
	<path clip-path="url(#SVGID_2_)" fill="#FFFFFF" d="M4.873,2.441C4.104,2.53,3.437,2.938,2.998,3.526l-1.255-0.81
		C2.438,1.737,3.538,1.067,4.8,0.951L4.873,2.441z"/>
	<path clip-path="url(#SVGID_2_)" fill="#FFFFFF" d="M5.586,0.951c1.26,0.115,2.359,0.786,3.055,1.766L7.388,3.527
		c-0.44-0.59-1.108-0.997-1.876-1.086L5.586,0.951z"/>
	<path clip-path="url(#SVGID_2_)" fill="#FFFFFF" d="M5.586,9.373l-0.074-1.49c0.768-0.09,1.436-0.496,1.876-1.084l1.253,0.807
		C7.945,8.586,6.847,9.256,5.586,9.373"/>
	<path clip-path="url(#SVGID_2_)" fill="#FFFFFF" d="M9.033,6.928L7.71,6.246c0.144-0.332,0.223-0.698,0.223-1.084
		c0-0.385-0.079-0.752-0.225-1.086l1.325-0.68c0.248,0.538,0.392,1.135,0.392,1.766S9.281,6.39,9.033,6.928"/>
</g>
</svg>
