<?php
if(!isset($color) || $color=="" || strtolower($color)=="black"){$color="000";}
if(strtolower($color)=="red"){$color="ed1c24";}
if(strtolower($color)=="blue"){$color="1c75bc";}
if(strtolower($color)=="green"){$color="00a651";}
if(strtolower($color)=="white"){$color="fff";}
header('Content-Type: text/xml');
// echo xml tag just in case short_open_tags is enabled in PHP config
echo '<?xml version="1.0" encoding="UTF-8"?>';
?>
<!-- Generator: Adobe Illustrator 15.0.0, SVG Export Plug-In . SVG Version: 6.00 Build 0)  -->
<!DOCTYPE svg PUBLIC "-//W3C//DTD SVG 1.1//EN" "http://www.w3.org/Graphics/SVG/1.1/DTD/svg11.dtd">
<svg version="1.1" id="Layer_1" xmlns="http://www.w3.org/2000/svg" xmlns:xlink="http://www.w3.org/1999/xlink" x="0px" y="0px"
	 width="10.392px" height="10.393px" viewBox="0 0 10.392 10.393" enable-background="new 0 0 10.392 10.393" xml:space="preserve">
<rect fill="#<?php echo $color; ?>" width="10.392" height="10.393"/>
<g>
	<path fill="#FFFFFF" d="M7.756,7.986L6.191,9.551c-0.136,0.137-0.292,0.237-0.46,0.307L5.54,6.165
		c0.687-0.073,1.308-0.356,1.803-0.788C7.212,5.176,7.052,4.991,6.87,4.833c-0.449,0.39-1.037,0.631-1.677,0.631
		c-0.643,0-1.229-0.241-1.678-0.631C3.333,4.991,3.174,5.176,3.042,5.377c0.494,0.432,1.117,0.715,1.803,0.788L4.654,9.857
		C4.486,9.788,4.33,9.688,4.195,9.551L2.628,7.986V4.848c0-1.315,1.065-2.381,2.382-2.381h0.364c1.316,0,2.382,1.065,2.382,2.381
		V7.986z"/>
	<path fill="#FFFFFF" d="M3.673,3.222c-1.428,0-2.62-1.009-2.903-2.354C0.728,1.067,0.706,1.272,0.706,1.482
		c0,1.639,1.328,2.967,2.967,2.967V3.222z"/>
	<path fill="#FFFFFF" d="M6.711,3.222v1.228c1.638,0,2.967-1.328,2.967-2.967c0-0.21-0.023-0.415-0.065-0.614
		C9.331,2.213,8.138,3.222,6.711,3.222"/>
</g>
</svg>
