<?php
if(!isset($color) || $color=="" || strtolower($color)=="black"){$color="000";}
if(strtolower($color)=="red"){$color="ed1c24";}
if(strtolower($color)=="blue"){$color="1c75bc";}
if(strtolower($color)=="green"){$color="00a651";}
if(strtolower($color)=="white"){$color="fff";}
header('Content-Type: text/xml');
// echo xml tag just in case short_open_tags is enabled in PHP config
echo '<?xml version="1.0" encoding="UTF-8"?>';
?>
<!-- Generator: Adobe Illustrator 15.0.0, SVG Export Plug-In . SVG Version: 6.00 Build 0)  -->
<!DOCTYPE svg PUBLIC "-//W3C//DTD SVG 1.1//EN" "http://www.w3.org/Graphics/SVG/1.1/DTD/svg11.dtd">
<svg version="1.1" id="Layer_1" xmlns="http://www.w3.org/2000/svg" xmlns:xlink="http://www.w3.org/1999/xlink" x="0px" y="0px"
	 width="10.392px" height="10.392px" viewBox="0 0 10.392 10.392" enable-background="new 0 0 10.392 10.392" xml:space="preserve">
<rect fill="#<?php echo $color; ?>" width="10.392" height="10.392"/>
<g>
	<path fill="#FFFFFF" d="M8.625,2.998C8.467,2.747,8.28,2.51,8.063,2.29c-0.22-0.217-0.458-0.401-0.71-0.561
		C5.785,0.74,3.689,0.924,2.322,2.29C0.956,3.657,0.769,5.753,1.761,7.32c0.156,0.254,0.342,0.49,0.561,0.708
		C2.541,8.249,2.778,8.434,3.03,8.594C4.598,9.58,6.695,9.395,8.063,8.028C9.429,6.665,9.615,4.569,8.625,2.998 M2.714,6.367
		C2.212,5.342,2.387,4.064,3.241,3.211c0.856-0.854,2.131-1.027,3.158-0.525L2.714,6.367z M7.144,7.111
		c-0.855,0.854-2.13,1.027-3.159,0.527l3.685-3.684C8.17,4.983,7.997,6.258,7.144,7.111"/>
</g>
</svg>
