<?php
if(!isset($color) || $color=="" || strtolower($color)=="black"){$color="000";}
if(strtolower($color)=="red"){$color="ed1c24";}
if(strtolower($color)=="blue"){$color="1c75bc";}
if(strtolower($color)=="green"){$color="00a651";}
if(strtolower($color)=="white"){$color="fff";}
header('Content-Type: text/xml');
// echo xml tag just in case short_open_tags is enabled in PHP config
echo '<?xml version="1.0" encoding="UTF-8"?>';
?>
<!-- Generator: Adobe Illustrator 15.0.0, SVG Export Plug-In . SVG Version: 6.00 Build 0)  -->
<!DOCTYPE svg PUBLIC "-//W3C//DTD SVG 1.1//EN" "http://www.w3.org/Graphics/SVG/1.1/DTD/svg11.dtd">
<svg version="1.1" id="Layer_1" xmlns="http://www.w3.org/2000/svg" xmlns:xlink="http://www.w3.org/1999/xlink" x="0px" y="0px"
	 width="10.393px" height="10.394px" viewBox="0 0 10.393 10.394" enable-background="new 0 0 10.393 10.394" xml:space="preserve">
<rect fill="#<?php echo $color; ?>" x="0.001" width="10.392" height="10.393"/>
<g>
	<defs>
		<rect fill="#<?php echo $color; ?>" id="SVGID_1_" y="0.001" width="10.392" height="10.393"/>
	</defs>
	<clipPath id="SVGID_2_">
		<use xlink:href="#SVGID_1_"  overflow="visible"/>
	</clipPath>
	<path clip-path="url(#SVGID_2_)" fill="#FFFFFF" d="M5.086,0.873c-2.365,0-4.281,1.917-4.281,4.281s1.916,4.28,4.281,4.28
		c2.365,0,4.281-1.916,4.281-4.28S7.451,0.873,5.086,0.873 M1.765,5.155c0-1.836,1.487-3.321,3.321-3.321
		c0.771,0,1.479,0.265,2.042,0.706L6.46,3.208c-0.38-0.262-0.84-0.416-1.336-0.416c-1.305,0-2.363,1.057-2.363,2.363
		c0,0.496,0.154,0.955,0.416,1.336L2.471,7.197C2.03,6.633,1.765,5.926,1.765,5.155 M5.086,8.475c-0.717,0-1.378-0.229-1.921-0.614
		l0.709-0.709c0.363,0.229,0.789,0.365,1.25,0.365c1.306,0,2.363-1.056,2.363-2.361c0-0.462-0.137-0.888-0.365-1.251l0.67-0.671
		c0.386,0.543,0.615,1.204,0.615,1.922C8.407,6.989,6.92,8.475,5.086,8.475"/>
</g>
</svg>
