<?php
if(!isset($color) || $color=="" || strtolower($color)=="black"){$color="000";}
if(strtolower($color)=="red"){$color="ed1c24";}
if(strtolower($color)=="blue"){$color="1c75bc";}
if(strtolower($color)=="green"){$color="00a651";}
if(strtolower($color)=="white"){$color="fff";}
header('Content-Type: text/xml');
// echo xml tag just in case short_open_tags is enabled in PHP config
echo '<?xml version="1.0" encoding="UTF-8"?>';
?>
<!-- Generator: Adobe Illustrator 15.0.0, SVG Export Plug-In . SVG Version: 6.00 Build 0)  -->
<!DOCTYPE svg PUBLIC "-//W3C//DTD SVG 1.1//EN" "http://www.w3.org/Graphics/SVG/1.1/DTD/svg11.dtd">
<svg version="1.1" id="Layer_1" xmlns="http://www.w3.org/2000/svg" xmlns:xlink="http://www.w3.org/1999/xlink" x="0px" y="0px"
	 width="10.393px" height="10.392px" viewBox="0 0 10.393 10.392" enable-background="new 0 0 10.393 10.392" xml:space="preserve">
<rect fill="#<?php echo $color; ?>" width="10.393" height="10.392"/>
<path fill="#FFFFFF" d="M9.856,4.115l-3.389-0.24L5.191,0.727L3.915,3.875l-3.387,0.24l2.604,2.181l-0.825,3.3l2.884-1.802
	l2.887,1.802l-0.821-3.3L9.856,4.115z M5.192,7.198L3.135,8.481l0.588-2.354L1.864,4.572l2.417-0.172l0.911-2.247l0.91,2.247
	l2.418,0.172L6.666,6.127l0.586,2.354L5.192,7.198z"/>
<polygon fill="#FFFFFF" points="5.584,5.063 5.193,4.096 4.801,5.063 3.76,5.137 4.56,5.807 4.307,6.821 5.193,6.267 6.078,6.821 
	5.827,5.807 6.625,5.137 "/>
</svg>
