<?php
if(!isset($color) || $color=="" || strtolower($color)=="black"){$color="000";}
if(strtolower($color)=="red"){$color="ed1c24";}
if(strtolower($color)=="blue"){$color="1c75bc";}
if(strtolower($color)=="green"){$color="00a651";}
if(strtolower($color)=="white"){$color="fff";}
header('Content-Type: text/xml');
// echo xml tag just in case short_open_tags is enabled in PHP config
echo '<?xml version="1.0" encoding="UTF-8"?>';
?>
<!-- Generator: Adobe Illustrator 15.0.0, SVG Export Plug-In . SVG Version: 6.00 Build 0)  -->
<!DOCTYPE svg PUBLIC "-//W3C//DTD SVG 1.1//EN" "http://www.w3.org/Graphics/SVG/1.1/DTD/svg11.dtd">
<svg version="1.1" id="Layer_1" xmlns="http://www.w3.org/2000/svg" xmlns:xlink="http://www.w3.org/1999/xlink" x="0px" y="0px"
	 width="10.392px" height="10.392px" viewBox="0 0 10.392 10.392" enable-background="new 0 0 10.392 10.392" xml:space="preserve">
<rect fill="#<?php echo $color; ?>" width="10.392" height="10.392"/>
<g>
	<path fill="#FFFFFF" d="M2.756,4.955c0-0.084,0.138-0.2,0.244-0.278C3.067,4.627,3.154,4.604,3.216,4.62
		c0.422,0.115,2.145,0.59,3.501,0.975C6.596,5.772,6.467,6.01,6.398,6.276c-1.363-0.219-3.334-0.541-3.415-0.57
		C2.862,5.659,2.758,5.089,2.756,4.955"/>
	<path fill="#FFFFFF" d="M3.899,7.456C3.78,7.438,3.577,6.94,3.55,6.817C3.533,6.743,3.637,6.609,3.718,6.518
		c0.051-0.057,0.128-0.096,0.187-0.094C4.218,6.446,5.281,6.51,6.351,6.583c0,0.021-0.003,0.041-0.003,0.063
		c0,0.229,0.076,0.48,0.183,0.707C5.336,7.408,3.966,7.467,3.899,7.456"/>
	<path fill="#FFFFFF" d="M6.673,6.606c0-0.658,0.559-1.217,0.559-1.217C7.159,5.364,2.459,3.708,2.337,3.635
		C2.214,3.563,2.214,2.928,2.24,2.782c0.014-0.09,0.188-0.188,0.315-0.252C2.637,2.491,2.736,2.483,2.8,2.511
		c0.73,0.353,5.289,2.544,5.335,2.634c0.048,0.096,0,0.244,0,0.244S7.963,5.535,7.428,6.095C6.893,6.655,7.55,7.751,7.55,7.751
		S7.372,7.882,7.258,7.8C6.999,7.614,6.673,7.063,6.673,6.606"/>
	<polygon fill="#<?php echo $color; ?>" points="7.998,1.645 1.674,7.967 1.853,8.146 2.03,7.967 8,1.999 8.354,2.353 2.385,8.322 2.088,8.027 2.207,8.145 
		2.088,8.027 2.03,7.967 1.853,8.146 2.384,8.676 8.708,2.352 	"/>
	<path fill="#<?php echo $color; ?>" d="M2.089,8.027L2.03,7.967L2.089,8.027z"/>
	<path fill="#FFFFFF" d="M5.193,0.481L5.193,0.481c-2.586,0-4.68,2.094-4.68,4.678c0,2.586,2.095,4.681,4.68,4.681
		c2.584,0,4.679-2.095,4.679-4.681C9.872,2.575,7.777,0.481,5.193,0.481 M1.036,5.159c0.006-2.293,1.861-4.15,4.156-4.153
		C6.25,1.006,7.21,1.405,7.943,2.055L2.086,7.911C1.437,7.178,1.039,6.216,1.036,5.159 M5.192,9.315
		c-1.057-0.002-2.018-0.4-2.751-1.051l5.856-5.855c0.65,0.734,1.047,1.695,1.049,2.75C9.342,7.455,7.487,9.311,5.192,9.315"/>
</g>
</svg>
