<?php
if(!isset($color) || $color=="" || strtolower($color)=="black"){$color="000";}
if(strtolower($color)=="red"){$color="ed1c24";}
if(strtolower($color)=="blue"){$color="1c75bc";}
if(strtolower($color)=="green"){$color="00a651";}
if(strtolower($color)=="white"){$color="fff";}
header('Content-Type: text/xml');
// echo xml tag just in case short_open_tags is enabled in PHP config
echo '<?xml version="1.0" encoding="UTF-8"?>';
?>
<!-- Generator: Adobe Illustrator 15.0.0, SVG Export Plug-In . SVG Version: 6.00 Build 0)  -->
<!DOCTYPE svg PUBLIC "-//W3C//DTD SVG 1.1//EN" "http://www.w3.org/Graphics/SVG/1.1/DTD/svg11.dtd">
<svg version="1.1" id="Layer_1" xmlns="http://www.w3.org/2000/svg" xmlns:xlink="http://www.w3.org/1999/xlink" x="0px" y="0px"
	 width="10.393px" height="10.393px" viewBox="0 0 10.393 10.393" enable-background="new 0 0 10.393 10.393" xml:space="preserve">
<rect fill="#<?php echo $color; ?>" x="0.001" width="10.392" height="10.393"/>
<g>
	<defs>
		<rect fill="#<?php echo $color; ?>" id="SVGID_1_" y="0.001" width="10.392" height="10.392"/>
	</defs>
	<clipPath id="SVGID_2_">
		<use xlink:href="#SVGID_1_"  overflow="visible"/>
	</clipPath>
	<path clip-path="url(#SVGID_2_)" fill="#FFFFFF" d="M4.308,7.306c0,0.138,0.022,0.26,0.061,0.358
		C4.49,7.993,4.857,8.062,5.171,8.062c0.273,0,0.693-0.092,0.693-0.496c0-0.282-0.235-0.358-1.175-0.625
		C3.826,6.695,2.842,6.459,2.842,5.36c0-1.26,1.077-1.802,2.198-1.802c1.184,0,2.229,0.45,2.274,1.778H5.728
		c0.03-0.206-0.061-0.343-0.199-0.435C5.392,4.802,5.2,4.765,5.032,4.765c-0.229,0-0.603,0.061-0.603,0.366
		c0.031,0.39,0.809,0.474,1.58,0.688C6.78,6.032,7.544,6.391,7.544,7.39c0,1.42-1.307,1.878-2.519,1.878
		c-0.619,0-2.382-0.221-2.396-1.962H4.308z M7.59,4.216C7.897,4.521,8.673,5.31,8.673,5.31s-0.33-1.381-0.437-1.833
		C8.133,3.024,7.843,1.549,7.843,1.549L7.432,2.064c-0.569-0.671-1.354-1.047-2.2-1.047c-0.476,0-0.969,0.121-1.451,0.371
		C2.823,1.886,2.031,2.777,1.653,3.823C1.6,3.973,1.501,4.331,1.501,4.331l0.542,0.575c0,0,0.081-0.188,0.094-0.215
		c0.385-0.856,0.916-1.76,1.716-2.176C4.309,2.278,4.77,2.169,5.214,2.169c0.608,0,1.184,0.208,1.66,0.593L6.497,3.279
		C6.497,3.279,7.282,3.911,7.59,4.216"/>
</g>
</svg>
