<?php
if(!isset($color) || $color=="" || strtolower($color)=="black"){$color="000";}
if(strtolower($color)=="red"){$color="ed1c24";}
if(strtolower($color)=="blue"){$color="1c75bc";}
if(strtolower($color)=="green"){$color="00a651";}
if(strtolower($color)=="white"){$color="fff";}
header('Content-Type: text/xml');
// echo xml tag just in case short_open_tags is enabled in PHP config
echo '<?xml version="1.0" encoding="UTF-8"?>';
?>
<!-- Generator: Adobe Illustrator 15.0.0, SVG Export Plug-In . SVG Version: 6.00 Build 0)  -->
<!DOCTYPE svg PUBLIC "-//W3C//DTD SVG 1.1//EN" "http://www.w3.org/Graphics/SVG/1.1/DTD/svg11.dtd">
<svg version="1.1" id="Layer_1" xmlns="http://www.w3.org/2000/svg" xmlns:xlink="http://www.w3.org/1999/xlink" x="0px" y="0px"
	 width="10.393px" height="10.392px" viewBox="0 0 10.393 10.392" enable-background="new 0 0 10.393 10.392" xml:space="preserve">
<rect fill="#<?php echo $color; ?>" width="10.393" height="10.392"/>
<g>
	<path fill="#FFFFFF" d="M9.039,5.161c0-1.879-1.582-3.56-4.074-4.689C6.142,1.779,6.85,3.399,6.85,5.161
		c0,1.762-0.708,3.381-1.885,4.688C7.457,8.72,9.039,7.04,9.039,5.161"/>
	<path fill="#FFFFFF" d="M6.012,5.161c0-1.408-1.186-2.666-3.052-3.512c0.881,0.979,1.41,2.193,1.41,3.512
		c0,1.319-0.529,2.531-1.41,3.51C4.826,7.826,6.012,6.568,6.012,5.161"/>
	<path fill="#FFFFFF" d="M3.339,5.161c0-0.919-0.776-1.741-1.993-2.294c0.575,0.639,0.92,1.432,0.92,2.294
		c0,0.862-0.345,1.654-0.92,2.293C2.563,6.901,3.339,6.08,3.339,5.161"/>
</g>
</svg>
