<?php
if(!isset($color) || $color=="" || strtolower($color)=="black"){$color="000";}
if(strtolower($color)=="red"){$color="ed1c24";}
if(strtolower($color)=="blue"){$color="1c75bc";}
if(strtolower($color)=="green"){$color="00a651";}
if(strtolower($color)=="white"){$color="fff";}
header('Content-Type: text/xml');
// echo xml tag just in case short_open_tags is enabled in PHP config
echo '<?xml version="1.0" encoding="UTF-8"?>';
?>
<!-- Generator: Adobe Illustrator 15.0.0, SVG Export Plug-In . SVG Version: 6.00 Build 0)  -->
<!DOCTYPE svg PUBLIC "-//W3C//DTD SVG 1.1//EN" "http://www.w3.org/Graphics/SVG/1.1/DTD/svg11.dtd">
<svg version="1.1" id="Layer_1" xmlns="http://www.w3.org/2000/svg" xmlns:xlink="http://www.w3.org/1999/xlink" x="0px" y="0px"
	 width="10.392px" height="10.392px" viewBox="0 0 10.392 10.392" enable-background="new 0 0 10.392 10.392" xml:space="preserve">
<rect fill="#<?php echo $color; ?>" width="10.392" height="10.392"/>
<g>
	<path fill="#FFFFFF" d="M8.241,1.434c-0.218-0.216-0.454-0.405-0.699-0.57c0.234,0.589,0.161,1.036-0.51,1.938L2.484,2.448
		l0.3,4.506c-0.902,0.671-1.299,0.787-1.89,0.552c0.168,0.247,0.354,0.482,0.572,0.702c1.877,1.878,4.568,1.535,6.44-0.336
		C9.777,6.002,10.118,3.312,8.241,1.434 M5.072,5.04C4.692,5.42,4.317,5.772,3.957,6.092l-0.24-2.402l2.408,0.232
		C5.806,4.286,5.454,4.659,5.072,5.04"/>
</g>
</svg>
