<?php
if(!isset($color) || $color=="" || strtolower($color)=="black"){$color="000";}
if(strtolower($color)=="red"){$color="ed1c24";}
if(strtolower($color)=="blue"){$color="1c75bc";}
if(strtolower($color)=="green"){$color="00a651";}
if(strtolower($color)=="white"){$color="fff";}
header('Content-Type: text/xml');
// echo xml tag just in case short_open_tags is enabled in PHP config
echo '<?xml version="1.0" encoding="UTF-8"?>';
?>
<!-- Generator: Adobe Illustrator 15.0.0, SVG Export Plug-In . SVG Version: 6.00 Build 0)  -->
<!DOCTYPE svg PUBLIC "-//W3C//DTD SVG 1.1//EN" "http://www.w3.org/Graphics/SVG/1.1/DTD/svg11.dtd">
<svg version="1.1" id="Layer_1" xmlns="http://www.w3.org/2000/svg" xmlns:xlink="http://www.w3.org/1999/xlink" x="0px" y="0px"
	 width="10.392px" height="10.392px" viewBox="0 0 10.392 10.392" enable-background="new 0 0 10.392 10.392" xml:space="preserve">
<rect fill="#<?php echo $color; ?>" width="10.392" height="10.392"/>
<g>
	<path fill="#FFFFFF" d="M2.107,4.575C1.576,2.68,1.764,1.263,1.764,1.263s0.328,0.48,1.803,0.313
		c1.231-0.14,1.546-0.509,1.617-0.629V0.905c0,0,0.004,0.01,0.012,0.024c0.007-0.015,0.011-0.024,0.011-0.024v0.041
		c0.072,0.12,0.386,0.489,1.616,0.629C7.004,1.596,5.208,3.98,5.208,3.98L4.123,2.694C4.123,2.694,2.134,4.671,2.107,4.575"/>
	<path fill="#FFFFFF" d="M7.234,7.213C6.078,8.956,5.516,9.339,5.27,9.403C5.255,9.411,5.231,9.417,5.196,9.417
		S5.137,9.411,5.123,9.403c-0.246-0.064-0.81-0.447-1.966-2.19c-0.278-0.422-0.5-0.864-0.681-1.308l1.647-1.644l1.086,1.367
		l3.418-4.366C8.627,1.263,8.956,4.616,7.234,7.213"/>
</g>
</svg>
