<?php
if(!isset($color) || $color=="" || strtolower($color)=="black"){$color="000";}
if(strtolower($color)=="red"){$color="ed1c24";}
if(strtolower($color)=="blue"){$color="1c75bc";}
if(strtolower($color)=="green"){$color="00a651";}
if(strtolower($color)=="white"){$color="fff";}
header('Content-Type: text/xml');
// echo xml tag just in case short_open_tags is enabled in PHP config
echo '<?xml version="1.0" encoding="UTF-8"?>';
?>
<!-- Generator: Adobe Illustrator 15.0.0, SVG Export Plug-In . SVG Version: 6.00 Build 0)  -->
<!DOCTYPE svg PUBLIC "-//W3C//DTD SVG 1.1//EN" "http://www.w3.org/Graphics/SVG/1.1/DTD/svg11.dtd">
<svg version="1.1" id="Layer_1" xmlns="http://www.w3.org/2000/svg" xmlns:xlink="http://www.w3.org/1999/xlink" x="0px" y="0px"
	 width="10.393px" height="10.392px" viewBox="0 0 10.393 10.392" enable-background="new 0 0 10.393 10.392" xml:space="preserve">
<rect fill="#<?php echo $color; ?>" width="10.393" height="10.392"/>
<g>
	<path fill="#FFFFFF" d="M3.346,1.153C3.818,0.85,4.397,0.698,5.085,0.698c0.903,0,1.654,0.215,2.251,0.646
		c0.599,0.432,0.896,1.071,0.896,1.919c0,0.519-0.129,0.957-0.389,1.312C7.692,4.792,7.4,5.067,6.971,5.403l-0.425,0.33
		c-0.23,0.18-0.385,0.391-0.461,0.629C6.037,6.515,6.012,6.751,6.008,7.071H4.383c0.024-0.677,0.088-1.144,0.192-1.4
		c0.103-0.258,0.37-0.555,0.801-0.891l0.436-0.342c0.144-0.107,0.26-0.226,0.348-0.354C6.317,3.864,6.397,3.622,6.397,3.36
		c0-0.305-0.088-0.582-0.267-0.832C5.953,2.278,5.63,2.153,5.159,2.153c-0.462,0-0.79,0.154-0.984,0.463
		C3.982,2.924,3.886,3.243,3.886,3.575H2.153C2.201,2.436,2.599,1.629,3.346,1.153 M4.341,7.892h1.792v1.732H4.341V7.892z"/>
</g>
</svg>
