<?php
if(!isset($color) || $color=="" || strtolower($color)=="black"){$color="000";}
if(strtolower($color)=="red"){$color="ed1c24";}
if(strtolower($color)=="blue"){$color="1c75bc";}
if(strtolower($color)=="green"){$color="00a651";}
if(strtolower($color)=="white"){$color="fff";}
header('Content-Type: text/xml');
// echo xml tag just in case short_open_tags is enabled in PHP config
echo '<?xml version="1.0" encoding="UTF-8"?>';
?>
<!-- Generator: Adobe Illustrator 15.0.0, SVG Export Plug-In . SVG Version: 6.00 Build 0)  -->
<!DOCTYPE svg PUBLIC "-//W3C//DTD SVG 1.1//EN" "http://www.w3.org/Graphics/SVG/1.1/DTD/svg11.dtd">
<svg version="1.1" id="Layer_1" xmlns="http://www.w3.org/2000/svg" xmlns:xlink="http://www.w3.org/1999/xlink" x="0px" y="0px"
	 width="10.393px" height="10.392px" viewBox="0 0 10.393 10.392" enable-background="new 0 0 10.393 10.392" xml:space="preserve">
<g>
	<g>
		<g>
			<rect fill="#<?php echo $color; ?>" width="10.393" height="10.392"/>
			<g>
				<path fill="#FFFFFF" d="M3.792,2.573c0.027-0.178,0.021-0.356-0.02-0.525L4.17,1.899L3.915,1.339L3.54,1.541
					c-0.101-0.14-0.227-0.26-0.375-0.354l0.18-0.394L2.768,0.577l-0.124,0.41C2.47,0.958,2.293,0.964,2.126,1L1.938,0.536
					L1.399,0.78l0.219,0.438C1.476,1.319,1.35,1.447,1.251,1.599l-0.45-0.19L0.593,1.962l0.453,0.15
					c-0.033,0.18-0.029,0.361,0.007,0.534l-0.38,0.141l0.256,0.561l0.186-0.1l0.209-0.794l0.762-0.222
					c0.001-0.004,0-0.01,0.002-0.015c0.07-0.186,0.275-0.278,0.461-0.209C2.732,2.078,2.826,2.284,2.757,2.47
					C2.69,2.646,2.502,2.733,2.324,2.684L1.736,2.855L1.575,3.464c0.03,0.023,0.057,0.05,0.089,0.071L1.499,3.894L2.076,4.11
					l0.112-0.375C2.372,3.767,2.556,3.759,2.73,3.718l0.177,0.435l0.538-0.245l-0.21-0.42C3.38,3.383,3.504,3.25,3.601,3.093
					l0.442,0.187l0.209-0.554L3.792,2.573z"/>
				<path fill="#FFFFFF" d="M7.474,6.466L6.963,6.53C6.958,6.548,6.955,6.566,6.948,6.584c-0.131,0.352-0.524,0.53-0.876,0.397
					C5.72,6.85,5.543,6.457,5.675,6.105C5.692,6.062,5.712,6.02,5.736,5.981L5.705,5.947L5.027,5.033l1.208-0.752L6.011,3.757
					C5.923,3.768,5.834,3.771,5.749,3.789L5.391,2.905L4.365,3.371l0.417,0.835C4.511,4.396,4.271,4.64,4.084,4.927L3.229,4.565
					L2.833,5.618l0.86,0.287C3.631,6.247,3.638,6.592,3.707,6.921L2.985,7.188l0.485,1.065l0.66-0.353
					C4.325,8.18,4.575,8.421,4.87,8.61L4.557,9.293l1.097,0.412l0.215-0.712C6.217,9.051,6.567,9.036,6.899,8.96l0.334,0.825
					l1.025-0.466l-0.4-0.799c0.077-0.056,0.144-0.125,0.214-0.189L7.029,7.8L7.474,6.466z"/>
				<path fill="#FFFFFF" d="M9.396,8.125l0.396-1.054l-0.874-0.29c0.053-0.338,0.038-0.677-0.037-1L9.638,5.5L9.152,4.435
					L8.439,4.817C8.247,4.553,8.007,4.324,7.725,4.144l0.341-0.747L6.97,2.985l-0.236,0.78c-0.061-0.01-0.12-0.007-0.181-0.013
					l0.312,0.726L5.751,5.172L6.09,5.629l0.053,0.057c0.131-0.033,0.272-0.029,0.408,0.022c0.163,0.062,0.287,0.18,0.362,0.323
					l1.285-0.16l-0.56,1.678l0.78,0.398C8.464,7.887,8.515,7.834,8.554,7.77L9.396,8.125z"/>
			</g>
		</g>
	</g>
</g>
</svg>
