<?php
if(!isset($color) || $color=="" || strtolower($color)=="black"){$color="000";}
if(strtolower($color)=="red"){$color="ed1c24";}
if(strtolower($color)=="blue"){$color="1c75bc";}
if(strtolower($color)=="green"){$color="00a651";}
if(strtolower($color)=="white"){$color="fff";}
header('Content-Type: text/xml');
// echo xml tag just in case short_open_tags is enabled in PHP config
echo '<?xml version="1.0" encoding="UTF-8"?>';
?>
<!-- Generator: Adobe Illustrator 15.0.0, SVG Export Plug-In . SVG Version: 6.00 Build 0)  -->
<!DOCTYPE svg PUBLIC "-//W3C//DTD SVG 1.1//EN" "http://www.w3.org/Graphics/SVG/1.1/DTD/svg11.dtd">
<svg version="1.1" id="Layer_1" xmlns="http://www.w3.org/2000/svg" xmlns:xlink="http://www.w3.org/1999/xlink" x="0px" y="0px"
	 width="10.392px" height="10.392px" viewBox="0 0 10.392 10.392" enable-background="new 0 0 10.392 10.392" xml:space="preserve">
<rect fill="#<?php echo $color; ?>" width="10.392" height="10.392"/>
<g>
	<defs>
		<rect fill="#<?php echo $color; ?>" id="SVGID_1_" width="10.392" height="10.392"/>
	</defs>
	<clipPath id="SVGID_2_">
		<use xlink:href="#SVGID_1_"  overflow="visible"/>
	</clipPath>
	<path clip-path="url(#SVGID_2_)" fill="#FFFFFF" d="M6.733,3.936c0,0-0.574,0.36-0.61,0.959C6.107,5.151,6.148,5.508,6.447,5.808
		c0.908,0.913,1.777,0.062,1.777,0.062S8.262,6.2,8.265,6.383c0.001,0.109-1.64,0.28-3.296,0.275
		C3.452,6.654,1.905,6.484,1.906,6.409C1.908,6.169,1.97,5.751,1.97,5.751s0.796,0.974,1.807,0.161
		c0.582-0.469,0.407-1.174,0.275-1.479C3.905,4.093,3.519,3.91,3.519,3.91s0.533-0.262,1.357-0.262
		C5.625,3.648,6.733,3.936,6.733,3.936 M7.355,4.093c-0.501,0-0.908,0.407-0.908,0.91c0,0.39,0.245,0.723,0.591,0.852
		c0.099,0.036,0.207-1.589,0.317-1.589c0.097,0,0.189,1.633,0.277,1.604c0.367-0.117,0.633-0.461,0.633-0.866
		C8.265,4.5,7.857,4.093,7.355,4.093 M2.946,4.093c-0.502,0-0.909,0.407-0.909,0.91c0,0.39,0.246,0.723,0.592,0.852
		c0.099,0.036,0.205-1.589,0.317-1.589c0.096,0,0.189,1.633,0.276,1.604c0.367-0.117,0.633-0.461,0.633-0.866
		C3.855,4.5,3.448,4.093,2.946,4.093 M4.261,5.912c-0.115,0-0.209,0.093-0.209,0.208c0,0.117,0.094,0.211,0.209,0.211
		c0.116,0,0.21-0.094,0.21-0.211C4.471,6.005,4.377,5.912,4.261,5.912 M6.028,5.912c-0.115,0-0.21,0.093-0.21,0.208
		c0,0.117,0.095,0.211,0.21,0.211c0.116,0,0.21-0.094,0.21-0.211C6.238,6.005,6.144,5.912,6.028,5.912 M0.656,5.679H1.45L1.554,5.16
		c0,0-0.044-0.75,0.417-1.179c0.461-0.431,1.083-0.417,1.083-0.417s0.68-0.386,2.031-0.386c0.718,0,2.097,0.385,2.097,0.385
		s0.831-0.058,1.216,0.48c0.375,0.523,0.271,1.375,0.271,1.375l0.041,0.26h0.875V0.723H0.656V5.679z"/>
</g>
</svg>
