<?php
if(!isset($color) || $color=="" || strtolower($color)=="black"){$color="000";}
if(strtolower($color)=="red"){$color="ed1c24";}
if(strtolower($color)=="blue"){$color="1c75bc";}
if(strtolower($color)=="green"){$color="00a651";}
if(strtolower($color)=="white"){$color="fff";}
header('Content-Type: text/xml');
// echo xml tag just in case short_open_tags is enabled in PHP config
echo '<?xml version="1.0" encoding="UTF-8"?>';
?>
<!-- Generator: Adobe Illustrator 15.0.0, SVG Export Plug-In . SVG Version: 6.00 Build 0)  -->
<!DOCTYPE svg PUBLIC "-//W3C//DTD SVG 1.1//EN" "http://www.w3.org/Graphics/SVG/1.1/DTD/svg11.dtd">
<svg version="1.1" id="Layer_1" xmlns="http://www.w3.org/2000/svg" xmlns:xlink="http://www.w3.org/1999/xlink" x="0px" y="0px"
	 width="10.393px" height="10.393px" viewBox="0 0 10.393 10.393" enable-background="new 0 0 10.393 10.393" xml:space="preserve">
<g>
	<g>
		<g>
			<rect fill="#<?php echo $color; ?>" width="10.393" height="10.393"/>
			<g>
				<path fill="#FFFFFF" d="M5.188,1.475c0.553,0,0.999,0.537,0.999,1.199c0,0.664-0.446,1.202-0.999,1.202
					c-0.551,0-0.996-0.538-0.996-1.202C4.191,2.012,4.637,1.475,5.188,1.475"/>
				<path fill="#FFFFFF" d="M6.881,5.16c0,0-0.408,2.829-0.408,3.089c0,0.257-0.286,0.599-0.713,0.599H4.618
					c-0.427,0-0.713-0.342-0.713-0.599c0-0.26-0.409-3.089-0.409-3.089L1.049,4.389c0,0,0.942-1.971,1.005-2.229
					c0.063-0.257,0.503-0.17,0.503-0.17L2.182,3.617l1.151,0.345l1.854,0.317l1.856-0.317l1.162-0.345L7.829,1.99
					c0,0,0.438-0.087,0.5,0.17c0.064,0.258,1.008,2.229,1.008,2.229L6.881,5.16z"/>
			</g>
		</g>
	</g>
</g>
</svg>
