<?php
if(!isset($color) || $color=="" || strtolower($color)=="black"){$color="000";}
if(strtolower($color)=="red"){$color="ed1c24";}
if(strtolower($color)=="blue"){$color="1c75bc";}
if(strtolower($color)=="green"){$color="00a651";}
if(strtolower($color)=="white"){$color="fff";}
header('Content-Type: text/xml');
// echo xml tag just in case short_open_tags is enabled in PHP config
echo '<?xml version="1.0" encoding="UTF-8"?>';
?>
<!-- Generator: Adobe Illustrator 15.0.0, SVG Export Plug-In . SVG Version: 6.00 Build 0)  -->
<!DOCTYPE svg PUBLIC "-//W3C//DTD SVG 1.1//EN" "http://www.w3.org/Graphics/SVG/1.1/DTD/svg11.dtd">
<svg version="1.1" id="Layer_1" xmlns="http://www.w3.org/2000/svg" xmlns:xlink="http://www.w3.org/1999/xlink" x="0px" y="0px"
	 width="10.392px" height="10.392px" viewBox="0 0 10.392 10.392" enable-background="new 0 0 10.392 10.392" xml:space="preserve">
<rect fill="#<?php echo $color; ?>" width="10.392" height="10.392"/>
<g>
	<path fill="#FFFFFF" d="M6.274,8.374c0.06-0.365,0.21-0.882,0.587-1.223C7.5,6.571,8.557,5.942,8.557,5.942S7.28,7.339,7.205,7.745
		C7.154,8.037,7.085,8.454,7.05,8.668c0.193,0.16,0.212,0.36-0.366,0.479C5.806,9.328,5.049,9.31,5.049,9.31
		S3.026,9.401,2.493,9.349c-0.344-0.031-0.572-0.16-0.52-0.301C1.775,8.681,1.59,7.126,2.122,5.642
		c0.615-1.715,1.059-2.846,1.059-2.846S2.843,5.587,3.086,6.742C3.168,7.129,3.238,7.591,3.29,7.917
		c0.189-1.074,0.6-2.781,1.421-3.796c1.266-1.56,3.261-3.165,3.261-3.165s-2.6,3.834-2.843,5.021
		C4.986,6.677,4.797,7.636,4.667,8.304c0.005,0,0.014,0,0.019,0c0.069-0.012,0.143-0.019,0.222-0.021
		C5.014,7.65,5.316,6.29,6.057,5.529C7.044,4.515,8.61,3.466,8.61,3.466S6.583,5.957,6.4,6.728c-0.116,0.49-0.274,1.174-0.373,1.608
		C6.114,8.347,6.197,8.36,6.274,8.374"/>
</g>
</svg>
