<?php
if(!isset($color) || $color=="" || strtolower($color)=="black"){$color="000";}
if(strtolower($color)=="red"){$color="ed1c24";}
if(strtolower($color)=="blue"){$color="1c75bc";}
if(strtolower($color)=="green"){$color="00a651";}
if(strtolower($color)=="white"){$color="fff";}
header('Content-Type: text/xml');
// echo xml tag just in case short_open_tags is enabled in PHP config
echo '<?xml version="1.0" encoding="UTF-8"?>';
?>
<!-- Generator: Adobe Illustrator 15.0.0, SVG Export Plug-In . SVG Version: 6.00 Build 0)  -->
<!DOCTYPE svg PUBLIC "-//W3C//DTD SVG 1.1//EN" "http://www.w3.org/Graphics/SVG/1.1/DTD/svg11.dtd">
<svg version="1.1" id="Layer_1" xmlns="http://www.w3.org/2000/svg" xmlns:xlink="http://www.w3.org/1999/xlink" x="0px" y="0px"
	 width="10.392px" height="10.392px" viewBox="0 0 10.392 10.392" enable-background="new 0 0 10.392 10.392" xml:space="preserve">
<rect fill="#<?php echo $color; ?>" width="10.392" height="10.392"/>
<polygon fill="#FFFFFF" points="2.76,0.839 2.899,1.297 2.688,2.006 3.114,2.006 5.308,0.839 "/>
<polygon fill="#FFFFFF" points="5.005,8.741 5.123,9.13 5.287,8.592 "/>
<polygon fill="#FFFFFF" points="6.556,4.207 4.089,5.521 4.274,6.132 4.063,6.839 4.49,6.839 4.482,6.813 6.013,5.999 6.439,5.999 
	6.225,5.296 "/>
<polygon fill="#FFFFFF" points="5.933,6.364 4.539,7.104 4.732,7.743 4.521,8.45 4.948,8.45 5.366,8.227 5.793,8.227 5.581,7.523 
	"/>
<polygon fill="#FFFFFF" points="7.19,2.015 3.629,3.907 3.816,4.521 3.605,5.228 4.03,5.228 6.637,3.843 7.063,3.843 6.849,3.14 "/>
<polygon fill="#FFFFFF" points="7.485,0.946 7.488,0.938 5.727,0.938 3.172,2.296 3.359,2.909 3.146,3.616 3.573,3.616 3.573,3.618 
	7.271,1.649 7.697,1.649 "/>
<g>
	<path fill="#FFFFFF" d="M6.597,9.471C6.488,9.438,6.435,9.34,6.478,9.255l2.506-5.073c0.043-0.086,0.166-0.129,0.276-0.097
		c0.108,0.035,0.163,0.132,0.12,0.219L6.872,9.376C6.839,9.441,6.759,9.482,6.673,9.482C6.648,9.482,6.622,9.479,6.597,9.471"/>
	<path fill="#FFFFFF" d="M6.542,9.446C6.451,9.389,6.435,9.284,6.508,9.211l2.507-2.5c0.074-0.073,0.207-0.085,0.298-0.027
		c0.092,0.058,0.108,0.163,0.034,0.235l-2.506,2.5C6.799,9.461,6.736,9.481,6.673,9.481C6.627,9.481,6.581,9.471,6.542,9.446"/>
	<path fill="#FFFFFF" d="M6.48,9.383C6.432,9.298,6.482,9.198,6.589,9.161l2.508-0.869c0.107-0.037,0.232,0.001,0.279,0.086
		c0.047,0.084-0.001,0.183-0.109,0.221L6.759,9.468c-0.028,0.01-0.056,0.014-0.085,0.014C6.593,9.481,6.515,9.446,6.48,9.383"/>
	<path fill="#FFFFFF" d="M3.513,9.376L1.004,4.304C0.962,4.218,1.016,4.119,1.125,4.087c0.108-0.035,0.231,0.008,0.274,0.095
		l2.509,5.073C3.951,9.341,3.896,9.438,3.788,9.47C3.761,9.479,3.735,9.482,3.71,9.482C3.625,9.482,3.544,9.442,3.513,9.376"/>
	<path fill="#FFFFFF" d="M3.543,9.419l-2.508-2.5C0.963,6.846,0.979,6.741,1.07,6.685c0.092-0.059,0.225-0.046,0.298,0.026
		l2.508,2.5C3.95,9.284,3.933,9.389,3.842,9.446C3.803,9.471,3.755,9.483,3.709,9.483C3.647,9.483,3.585,9.461,3.543,9.419"/>
	<path fill="#FFFFFF" d="M3.625,9.468L1.117,8.599C1.01,8.562,0.96,8.462,1.008,8.378c0.047-0.084,0.172-0.123,0.28-0.086
		l2.507,0.869c0.107,0.037,0.156,0.137,0.109,0.221C3.869,9.445,3.792,9.482,3.71,9.482C3.682,9.482,3.652,9.479,3.625,9.468"/>
</g>
</svg>
