<?php
if(!isset($color) || $color=="" || strtolower($color)=="black"){$color="000";}
if(strtolower($color)=="red"){$color="ed1c24";}
if(strtolower($color)=="blue"){$color="1c75bc";}
if(strtolower($color)=="green"){$color="00a651";}
if(strtolower($color)=="white"){$color="fff";}
header('Content-Type: text/xml');
// echo xml tag just in case short_open_tags is enabled in PHP config
echo '<?xml version="1.0" encoding="UTF-8"?>';
?>
<!-- Generator: Adobe Illustrator 15.0.0, SVG Export Plug-In . SVG Version: 6.00 Build 0)  -->
<!DOCTYPE svg PUBLIC "-//W3C//DTD SVG 1.1//EN" "http://www.w3.org/Graphics/SVG/1.1/DTD/svg11.dtd">
<svg version="1.1" id="Layer_1" xmlns="http://www.w3.org/2000/svg" xmlns:xlink="http://www.w3.org/1999/xlink" x="0px" y="0px"
	 width="10.392px" height="10.392px" viewBox="0 0 10.392 10.392" enable-background="new 0 0 10.392 10.392" xml:space="preserve">
<g>
	<g>
		<g>
			<rect fill="#<?php echo $color; ?>" width="10.392" height="10.392"/>
			<g>
				<path fill="#FFFFFF" d="M7.907,3.684L7.882,3.735l0.022-0.052C7.626,3.563,7.308,3.465,6.967,3.388
					c-0.08-0.34-0.174-0.661-0.297-0.941C6.357,1.745,5.892,1.178,5.195,1.158c-0.702,0.02-1.167,0.587-1.48,1.287
					C3.591,2.727,3.496,3.048,3.417,3.387c-0.34,0.078-0.661,0.176-0.939,0.297C1.776,3.995,1.208,4.46,1.19,5.16
					c0.018,0.7,0.586,1.165,1.288,1.478C2.757,6.76,3.079,6.858,3.417,6.936c0.079,0.339,0.174,0.659,0.297,0.94
					c0.313,0.7,0.779,1.271,1.478,1.287c0.7-0.017,1.166-0.587,1.478-1.287c0.124-0.279,0.217-0.602,0.297-0.94
					C7.308,6.856,7.626,6.76,7.905,6.64c0.705-0.314,1.271-0.779,1.29-1.478C9.176,4.46,8.609,3.995,7.907,3.684 M3.276,6.115
					C3.098,6.062,2.933,6.003,2.787,5.938C2.2,5.688,1.947,5.353,1.953,5.182l0.001-0.009V5.142
					c-0.006-0.173,0.244-0.506,0.832-0.76c0.147-0.063,0.312-0.121,0.49-0.173C3.24,4.514,3.215,4.83,3.215,5.159
					C3.215,5.493,3.24,5.81,3.276,6.115 M4.416,2.755C4.667,2.167,5,1.915,5.173,1.921h0.01h0.028
					c0.172-0.006,0.505,0.245,0.76,0.834C6.035,2.9,6.095,3.066,6.146,3.244C5.84,3.209,5.524,3.184,5.193,3.183
					C4.861,3.184,4.545,3.209,4.239,3.244C4.292,3.068,4.351,2.9,4.416,2.755 M5.971,7.567c-0.254,0.587-0.587,0.837-0.76,0.831
					H5.199H5.185H5.173C5,8.404,4.666,8.154,4.416,7.567C4.351,7.421,4.292,7.253,4.239,7.078c0.305,0.035,0.622,0.06,0.954,0.06
					c0.332,0,0.648-0.024,0.954-0.06C6.095,7.253,6.035,7.421,5.971,7.567 M6.403,5.167c0,0.393-0.029,0.771-0.085,1.121
					C5.975,6.34,5.606,6.371,5.224,6.371H5.189H5.164c-0.386,0-0.754-0.031-1.099-0.083C4.01,5.938,3.981,5.558,3.981,5.16
					c0-0.396,0.029-0.774,0.083-1.126C4.412,3.98,4.786,3.948,5.177,3.948h0.005h0.026c0.392,0,0.764,0.03,1.11,0.086
					c0.056,0.348,0.085,0.727,0.085,1.118v0.013V5.167z M8.43,5.182C8.436,5.351,8.184,5.686,7.6,5.938
					C7.453,6.003,7.286,6.063,7.107,6.115C7.143,5.81,7.169,5.493,7.169,5.16c0-0.332-0.027-0.647-0.062-0.954
					C7.286,4.258,7.453,4.318,7.6,4.382C8.186,4.636,8.436,4.967,8.43,5.14v0.022V5.182z M5.193,4.315
					c-0.467,0-0.846,0.379-0.846,0.845c0,0.47,0.379,0.845,0.846,0.848c0.467,0,0.846-0.378,0.846-0.848
					C6.039,4.694,5.66,4.315,5.193,4.315"/>
			</g>
		</g>
	</g>
</g>
</svg>
