<?php
if(!isset($color) || $color=="" || strtolower($color)=="black"){$color="000";}
if(strtolower($color)=="red"){$color="ed1c24";}
if(strtolower($color)=="blue"){$color="1c75bc";}
if(strtolower($color)=="green"){$color="00a651";}
if(strtolower($color)=="white"){$color="fff";}
header('Content-Type: text/xml');
// echo xml tag just in case short_open_tags is enabled in PHP config
echo '<?xml version="1.0" encoding="UTF-8"?>';
?>
<!-- Generator: Adobe Illustrator 15.0.0, SVG Export Plug-In . SVG Version: 6.00 Build 0)  -->
<!DOCTYPE svg PUBLIC "-//W3C//DTD SVG 1.1//EN" "http://www.w3.org/Graphics/SVG/1.1/DTD/svg11.dtd">
<svg version="1.1" id="Layer_1" xmlns="http://www.w3.org/2000/svg" xmlns:xlink="http://www.w3.org/1999/xlink" x="0px" y="0px"
	 width="10.392px" height="10.392px" viewBox="0 0 10.392 10.392" enable-background="new 0 0 10.392 10.392" xml:space="preserve">
<rect fill="#<?php echo $color; ?>" width="10.392" height="10.392"/>
<g>
	<defs>
		<rect fill="#<?php echo $color; ?>" id="SVGID_1_" width="10.392" height="10.392"/>
	</defs>
	<clipPath id="SVGID_2_">
		<use xlink:href="#SVGID_1_"  overflow="visible"/>
	</clipPath>
	<path clip-path="url(#SVGID_2_)" fill="#FFFFFF" d="M8.49,4.679C8.278,3.223,7.129,2.072,5.672,1.861V0.71H4.711v1.151
		c-1.457,0.212-2.606,1.361-2.817,2.82H0.742v0.96h1.152c0.21,1.456,1.36,2.605,2.817,2.816V9.61h0.961V8.458
		C7.129,8.247,8.28,7.098,8.49,5.642h1.153V4.679H8.49z M7.507,5.642c-0.191,0.92-0.911,1.642-1.835,1.832V6.355H4.711v1.118
		C3.79,7.283,3.069,6.562,2.877,5.642h1.12V4.679h-1.12c0.192-0.92,0.913-1.642,1.834-1.833v1.119h0.961V2.846
		c0.922,0.191,1.642,0.913,1.835,1.836h-1.12v0.96H7.507z"/>
</g>
</svg>
