<?php
if(!isset($color) || $color=="" || strtolower($color)=="black"){$color="000";}
if(strtolower($color)=="red"){$color="ed1c24";}
if(strtolower($color)=="blue"){$color="1c75bc";}
if(strtolower($color)=="green"){$color="00a651";}
if(strtolower($color)=="white"){$color="fff";}
header('Content-Type: text/xml');
// echo xml tag just in case short_open_tags is enabled in PHP config
echo '<?xml version="1.0" encoding="UTF-8"?>';
?>
<!-- Generator: Adobe Illustrator 15.0.0, SVG Export Plug-In . SVG Version: 6.00 Build 0)  -->
<!DOCTYPE svg PUBLIC "-//W3C//DTD SVG 1.1//EN" "http://www.w3.org/Graphics/SVG/1.1/DTD/svg11.dtd">
<svg version="1.1" id="Layer_1" xmlns="http://www.w3.org/2000/svg" xmlns:xlink="http://www.w3.org/1999/xlink" x="0px" y="0px"
	 width="10.392px" height="10.393px" viewBox="0 0 10.392 10.393" enable-background="new 0 0 10.392 10.393" xml:space="preserve">
<rect fill="#<?php echo $color; ?>" width="10.392" height="10.393"/>
<g>
	<path fill="#FFFFFF" d="M8.494,4.439c0,0.435-0.352,0.785-0.786,0.785c-0.433,0-0.785-0.351-0.785-0.785s0.352-0.786,0.785-0.786
		C8.142,3.653,8.494,4.005,8.494,4.439"/>
	<path fill="#FFFFFF" d="M5.826,4.481L6.67,5.479h1.993c0,0,0.557,0.15,0.557,0.557v1.739c0,0-0.153,0.423-0.506,0.423V6.508
		c0,0-0.035-0.219-0.338-0.219L8.41,9.817H7.194c0,0-0.658-1.655-0.658-3.613l-2.361-1.03C4.175,5.174,5.319,5.479,5.826,4.481"/>
	<path fill="#FFFFFF" d="M3.952,4.229c0,0-0.557-1.165,1.266-1.165c0,0,0.912-1.554,1.3-1.3c0.389,0.253-0.152,1.334-0.726,1.738
		c0,0-0.048,1.029-0.929,1.367c-0.88,0.338-1.949-0.127-2.009-0.185c-0.059-0.06-0.54-0.608-0.54-0.98
		c0-0.371,0.911-1.469,2.934-1.282L5.113,2.826C5.113,2.826,2.868,2.958,3.952,4.229"/>
	<path fill="#FFFFFF" d="M4.696,2.287c0,0,0.458-0.094,0.54,0c0,0-0.069-1.031-0.289-1.286c-0.22-0.255-0.795-0.62-0.94-0.453
		C3.863,0.716,3.919,1.074,4.233,1.22C4.546,1.366,4.772,1.5,4.696,2.287"/>
	<path fill="#FFFFFF" d="M3.502,2.418c0,0,0.538-0.238,0.663-0.155c0,0-0.357-1.141-0.695-1.364
		C3.133,0.676,2.327,0.431,2.194,0.661c-0.133,0.23,0.031,0.617,0.455,0.691C3.073,1.426,3.386,1.512,3.502,2.418"/>
	<path fill="#FFFFFF" d="M2.708,2.821c0,0,0.441-0.304,0.566-0.259c0,0-0.498-0.896-0.834-1.021
		c-0.334-0.124-1.09-0.176-1.172,0.044C1.187,1.808,1.393,2.103,1.782,2.083C2.171,2.064,2.462,2.077,2.708,2.821"/>
	<path fill="#FFFFFF" d="M2.217,3.401c0,0,0.234-0.343,0.339-0.34c0,0-0.633-0.547-0.918-0.555C1.353,2.499,0.781,2.653,0.786,2.84
		c0.005,0.188,0.246,0.357,0.527,0.243C1.594,2.969,1.813,2.904,2.217,3.401"/>
</g>
</svg>
