<?php
if(!isset($color) || $color=="" || strtolower($color)=="black"){$color="000";}
if(strtolower($color)=="red"){$color="ed1c24";}
if(strtolower($color)=="blue"){$color="1c75bc";}
if(strtolower($color)=="green"){$color="00a651";}
if(strtolower($color)=="white"){$color="fff";}
header('Content-Type: text/xml');
// echo xml tag just in case short_open_tags is enabled in PHP config
echo '<?xml version="1.0" encoding="UTF-8"?>';
?>
<!-- Generator: Adobe Illustrator 15.0.0, SVG Export Plug-In . SVG Version: 6.00 Build 0)  -->
<!DOCTYPE svg PUBLIC "-//W3C//DTD SVG 1.1//EN" "http://www.w3.org/Graphics/SVG/1.1/DTD/svg11.dtd">
<svg version="1.1" id="Layer_1" xmlns="http://www.w3.org/2000/svg" xmlns:xlink="http://www.w3.org/1999/xlink" x="0px" y="0px"
	 width="10.393px" height="10.392px" viewBox="0 0 10.393 10.392" enable-background="new 0 0 10.393 10.392" xml:space="preserve">
<rect fill="#<?php echo $color; ?>" x="0.001" width="10.392" height="10.392"/>
<g>
	<defs>
		<rect fill="#<?php echo $color; ?>" id="SVGID_1_" width="10.392" height="10.392"/>
	</defs>
	<clipPath id="SVGID_2_">
		<use xlink:href="#SVGID_1_"  overflow="visible"/>
	</clipPath>
	<path clip-path="url(#SVGID_2_)" fill="#FFFFFF" d="M6.617,2.256C6.962,2.911,7.794,3.09,8.231,4.444
		c0.273,0.845,0.42,2.041,0.42,2.041c0,1.992-1.512,3.422-3.504,3.422c-1.99,0-3.687-1.338-3.625-3.358
		C1.55,5.694,1.659,5.235,1.856,4.455C2.032,3.761,2.346,3.58,2.419,3.058c0.056-0.399-0.063-1.26-0.063-1.26
		S2.993,2.19,3.189,2.725c0.333,0.906,0.021,1.24,0.333,1.26C3.689,3.997,3.59,3.634,3.711,3.194c0.208-0.76,0.76-0.688,0.802-1.396
		c0.043-0.73-0.271-1.396-0.271-1.396S5.488,0.795,5.68,2.08c0.197,1.323-0.659,1.481-0.473,1.989
		C5.416,4.64,5.684,4.836,5.805,4.83C5.927,4.823,6.367,4.34,6.336,4.131C6.278,3.745,5.856,3.465,5.888,2.768
		C5.921,2.036,6.784,1.6,6.784,1.6S6.465,1.966,6.617,2.256 M7.698,5.181L6.682,4.166L5.06,5.786L3.501,4.227L2.484,5.245
		l1.559,1.559L2.494,8.352L3.51,9.37l1.55-1.551l1.612,1.612l1.016-1.016l-1.61-1.612L7.698,5.181z"/>
</g>
</svg>
