<?php
if(!isset($color) || $color=="" || strtolower($color)=="black"){$color="000";}
if(strtolower($color)=="red"){$color="ed1c24";}
if(strtolower($color)=="blue"){$color="1c75bc";}
if(strtolower($color)=="green"){$color="00a651";}
if(strtolower($color)=="white"){$color="fff";}
header('Content-Type: text/xml');
// echo xml tag just in case short_open_tags is enabled in PHP config
echo '<?xml version="1.0" encoding="UTF-8"?>';
?>
<!-- Generator: Adobe Illustrator 15.0.0, SVG Export Plug-In . SVG Version: 6.00 Build 0)  -->
<!DOCTYPE svg PUBLIC "-//W3C//DTD SVG 1.1//EN" "http://www.w3.org/Graphics/SVG/1.1/DTD/svg11.dtd">
<svg version="1.1" id="Layer_1" xmlns="http://www.w3.org/2000/svg" xmlns:xlink="http://www.w3.org/1999/xlink" x="0px" y="0px"
	 width="10.392px" height="10.392px" viewBox="0 0 10.392 10.392" enable-background="new 0 0 10.392 10.392" xml:space="preserve">
<rect fill="#<?php echo $color; ?>" width="10.392" height="10.392"/>
<rect x="7.309" y="1.832" fill="#FFFFFF" width="1.116" height="1.116"/>
<rect x="8.694" y="1.832" fill="#FFFFFF" width="1.116" height="1.116"/>
<rect x="7.309" y="3.218" fill="#FFFFFF" width="1.116" height="1.116"/>
<rect x="8.694" y="3.218" fill="#FFFFFF" width="1.116" height="1.116"/>
<rect x="7.309" y="4.603" fill="#FFFFFF" width="1.116" height="1.116"/>
<rect x="8.694" y="4.603" fill="#FFFFFF" width="1.116" height="1.116"/>
<rect x="7.309" y="5.989" fill="#FFFFFF" width="1.116" height="1.116"/>
<rect x="8.694" y="5.989" fill="#FFFFFF" width="1.116" height="1.116"/>
<rect x="7.309" y="7.374" fill="#FFFFFF" width="1.116" height="1.116"/>
<rect x="8.694" y="7.374" fill="#FFFFFF" width="1.116" height="1.116"/>
<rect x="0.574" y="1.832" fill="#FFFFFF" width="1.116" height="1.116"/>
<rect x="1.959" y="1.832" fill="#FFFFFF" width="1.116" height="1.116"/>
<rect x="0.574" y="3.218" fill="#FFFFFF" width="1.116" height="1.116"/>
<rect x="1.959" y="3.218" fill="#FFFFFF" width="1.116" height="1.116"/>
<rect x="0.574" y="4.603" fill="#FFFFFF" width="1.116" height="1.116"/>
<rect x="1.959" y="4.603" fill="#FFFFFF" width="1.116" height="1.116"/>
<rect x="0.574" y="5.989" fill="#FFFFFF" width="1.116" height="1.116"/>
<rect x="1.959" y="5.989" fill="#FFFFFF" width="1.116" height="1.116"/>
<rect x="0.574" y="7.374" fill="#FFFFFF" width="1.116" height="1.116"/>
<rect x="1.959" y="7.374" fill="#FFFFFF" width="1.116" height="1.116"/>
<g>
	<path fill="#FFFFFF" d="M6.891,5.161c0,0.938-0.76,1.699-1.699,1.699c-0.938,0-1.699-0.762-1.699-1.699
		c0-0.938,0.761-1.698,1.699-1.698C6.131,3.463,6.891,4.223,6.891,5.161"/>
	<rect fill="#<?php echo $color; ?>" x="4.436" y="4.406" width="1.511" height="1.51"/>
</g>
</svg>
