<?php
if(!isset($color) || $color=="" || strtolower($color)=="black"){$color="000";}
if(strtolower($color)=="red"){$color="ed1c24";}
if(strtolower($color)=="blue"){$color="1c75bc";}
if(strtolower($color)=="green"){$color="00a651";}
if(strtolower($color)=="white"){$color="fff";}
header('Content-Type: text/xml');
// echo xml tag just in case short_open_tags is enabled in PHP config
echo '<?xml version="1.0" encoding="UTF-8"?>';
?>
<!-- Generator: Adobe Illustrator 15.0.0, SVG Export Plug-In . SVG Version: 6.00 Build 0)  -->
<!DOCTYPE svg PUBLIC "-//W3C//DTD SVG 1.1//EN" "http://www.w3.org/Graphics/SVG/1.1/DTD/svg11.dtd">
<svg version="1.1" id="Layer_1" xmlns="http://www.w3.org/2000/svg" xmlns:xlink="http://www.w3.org/1999/xlink" x="0px" y="0px"
	 width="10.392px" height="10.392px" viewBox="0 0 10.392 10.392" enable-background="new 0 0 10.392 10.392" xml:space="preserve">
<rect fill="#<?php echo $color; ?>" width="10.392" height="10.392"/>
<g>
	<path fill="#FFFFFF" d="M1.942,9.96L2.004,9.66c0.095-0.462,0.398-0.828,0.81-0.978c0.248-0.089,0.612-0.14,0.997-0.192
		c0.245-0.035,0.49-0.068,0.723-0.114C4.54,8.375,4.545,8.374,4.551,8.373V7.001c-2.138-0.313-3.724-2.13-3.724-4.315
		c0-0.701,0.164-1.372,0.486-1.997l0.169-0.328h7.42l0.169,0.328c0.323,0.625,0.485,1.297,0.485,1.997
		c0,2.186-1.585,4.004-3.723,4.315v1.372c0.005,0.001,0.01,0.001,0.016,0.003c0.233,0.044,0.477,0.078,0.714,0.11
		c0.396,0.056,0.758,0.106,1.005,0.195c0.415,0.15,0.719,0.516,0.812,0.979l0.06,0.3H1.942z M2.242,1.573
		C2.107,1.927,2.038,2.301,2.038,2.686c0,1.601,1.2,2.946,2.791,3.131c0.12,0.014,0.24,0.022,0.363,0.022s0.243-0.009,0.362-0.022
		c1.592-0.183,2.792-1.528,2.792-3.131c0-0.385-0.068-0.759-0.204-1.113H2.242z"/>
	<path fill="#<?php echo $color; ?>" d="M8.751,0.611L8.85,0.805c0.303,0.589,0.457,1.221,0.457,1.881c0,2.137-1.638,3.896-3.724,4.094v1.791
		c0.071,0.018,0.14,0.035,0.219,0.051c0.238,0.046,0.486,0.08,0.727,0.113c0.375,0.053,0.73,0.101,0.955,0.182
		C7.816,9.038,8.061,9.339,8.135,9.71H2.249c0.064-0.306,0.258-0.651,0.65-0.794c0.225-0.081,0.58-0.129,0.957-0.182
		c0.239-0.033,0.488-0.067,0.726-0.113c0.08-0.016,0.149-0.033,0.219-0.051V6.78C2.715,6.583,1.078,4.823,1.078,2.686
		c0-0.66,0.153-1.292,0.457-1.881l0.099-0.193H8.751 M5.193,6.089c0.133,0,0.262-0.01,0.39-0.024
		C7.277,5.871,8.596,4.43,8.596,2.686c0-0.475-0.095-0.932-0.286-1.364H2.075C1.884,1.754,1.788,2.211,1.788,2.686
		c0,1.744,1.321,3.184,3.013,3.379C4.93,6.08,5.06,6.089,5.193,6.089 M9.054,0.111H8.751H1.634H1.33L1.19,0.382L1.091,0.576
		c-0.34,0.66-0.513,1.37-0.513,2.11c0,2.237,1.571,4.109,3.723,4.526v0.951C4.131,8.192,3.957,8.215,3.787,8.24
		C3.378,8.296,3.003,8.348,2.731,8.446C2.234,8.626,1.872,9.061,1.759,9.61L1.636,10.21h0.613h5.886h0.611l-0.12-0.599
		C8.514,9.063,8.152,8.627,7.654,8.448c-0.272-0.1-0.647-0.151-1.044-0.206C6.418,8.215,6.246,8.19,6.083,8.164V7.212
		c2.153-0.416,3.724-2.289,3.724-4.526c0-0.74-0.173-1.45-0.512-2.109L9.194,0.381L9.054,0.111z M2.42,1.823h5.544
		C8.053,2.1,8.096,2.389,8.096,2.686c0,1.475-1.104,2.715-2.569,2.883C5.405,5.583,5.296,5.589,5.193,5.589
		c-0.104,0-0.214-0.007-0.334-0.021C3.393,5.399,2.288,4.16,2.288,2.686C2.288,2.389,2.333,2.1,2.42,1.823"/>
	<polygon fill="#FFFFFF" points="1.914,0.897 8.539,0.897 8.913,2.633 8.374,4.997 6.711,6.075 5.414,6.497 4.372,6.497 
		2.615,5.418 1.421,3.428 1.421,2.024 	"/>
	<polyline fill="none" stroke="#<?php echo $color; ?>" stroke-width="0.5" points="8.096,0.612 8.208,2.877 6.412,1.905 6.899,4.262 4.654,3.139 
		5.173,5.414 2.933,4.187 2.587,6.057 	"/>
</g>
</svg>
