<?php
if(!isset($color) || $color=="" || strtolower($color)=="black"){$color="000";}
if(strtolower($color)=="red"){$color="ed1c24";}
if(strtolower($color)=="blue"){$color="1c75bc";}
if(strtolower($color)=="green"){$color="00a651";}
if(strtolower($color)=="white"){$color="fff";}
header('Content-Type: text/xml');
// echo xml tag just in case short_open_tags is enabled in PHP config
echo '<?xml version="1.0" encoding="UTF-8"?>';
?>
<!-- Generator: Adobe Illustrator 15.0.0, SVG Export Plug-In . SVG Version: 6.00 Build 0)  -->
<!DOCTYPE svg PUBLIC "-//W3C//DTD SVG 1.1//EN" "http://www.w3.org/Graphics/SVG/1.1/DTD/svg11.dtd">
<svg version="1.1" id="Layer_1" xmlns="http://www.w3.org/2000/svg" xmlns:xlink="http://www.w3.org/1999/xlink" x="0px" y="0px"
	 width="10.393px" height="10.393px" viewBox="0 0 10.393 10.393" enable-background="new 0 0 10.393 10.393" xml:space="preserve">
<rect fill="#<?php echo $color; ?>" x="0.001" width="10.392" height="10.393"/>
<g>
	<defs>
		<rect fill="#<?php echo $color; ?>" id="SVGID_1_" y="0.001" width="10.392" height="10.392"/>
	</defs>
	<clipPath id="SVGID_2_">
		<use xlink:href="#SVGID_1_"  overflow="visible"/>
	</clipPath>
	<path clip-path="url(#SVGID_2_)" fill="#FFFFFF" d="M2.543,4.808c0,0-0.378-0.117-0.503-0.357C1.915,4.211,1.959,4.016,1.959,4.016
		l0.459,0.042c0,0-0.292-0.114-0.417-0.313S1.876,3.297,1.876,3.297S1.99,3.329,2.147,3.339c0.156,0.01,0.25,0,0.25,0
		S2.063,3.131,2.001,2.881c-0.063-0.25-0.052-0.438-0.052-0.438s0.125,0.104,0.344,0.094c0.218-0.011,0.26-0.021,0.26-0.021
		S2.272,2.245,2.241,1.922C2.21,1.599,2.303,1.318,2.303,1.318s0,0.094,0.146,0.229c0.146,0.136,0.479,0.261,0.479,0.261
		S2.824,1.36,2.907,1.12c0.084-0.239,0.469-0.594,0.469-0.594s0.176,1.813,0.75,3.261c0.24,0.604,0.579,0.614,0.646,0.927
		c0.177,0.833,0.114,1.5-0.146,1.625c-0.413,0.198-1.104-0.261-1.74-0.646C2.251,5.308,2.168,4.787,2.168,4.787L2.543,4.808z
		 M2.053,6.464c0,0,0.161,0.236,0.563,0.542c0.26,0.198,0.833,0.143,1.51,0.489c0.58,0.298,0.67,0.599,1.219,1.063
		c1.406,1.188,2.729,1.225,2.729,1.225S8.363,9.5,8.282,8.87C8.199,8.224,7.174,7.702,6.789,6.704
		c-0.384-0.993-0.496-1.74-0.496-1.74S5.876,5.12,5.616,5.162C5.355,5.204,5.132,5.073,5.132,5.073s0.161,1.235-0.433,1.504
		C4.001,6.891,2.511,5.776,2.511,5.776L2.053,6.464z"/>
</g>
</svg>
