<?php
if(!isset($color) || $color=="" || strtolower($color)=="black"){$color="000";}
if(strtolower($color)=="red"){$color="ed1c24";}
if(strtolower($color)=="blue"){$color="1c75bc";}
if(strtolower($color)=="green"){$color="00a651";}
if(strtolower($color)=="white"){$color="fff";}
header('Content-Type: text/xml');
// echo xml tag just in case short_open_tags is enabled in PHP config
echo '<?xml version="1.0" encoding="UTF-8"?>';
?>
<!-- Generator: Adobe Illustrator 15.0.0, SVG Export Plug-In . SVG Version: 6.00 Build 0)  -->
<!DOCTYPE svg PUBLIC "-//W3C//DTD SVG 1.1//EN" "http://www.w3.org/Graphics/SVG/1.1/DTD/svg11.dtd">
<svg version="1.1" id="Layer_1" xmlns="http://www.w3.org/2000/svg" xmlns:xlink="http://www.w3.org/1999/xlink" x="0px" y="0px"
	 width="10.393px" height="10.392px" viewBox="0 0 10.393 10.392" enable-background="new 0 0 10.393 10.392" xml:space="preserve">
<rect fill="#<?php echo $color; ?>" width="10.393" height="10.392"/>
<g>
	<path fill="#FFFFFF" d="M9.345,5.768c0-1.082-0.88-1.96-1.956-1.96c-1.083,0-1.962,0.878-1.962,1.96
		c0,1.079,0.879,1.961,1.962,1.961C8.465,7.729,9.345,6.847,9.345,5.768"/>
	<path fill="#FFFFFF" d="M4.959,7.449c0-1.084-0.878-1.961-1.959-1.961c-1.08,0-1.959,0.877-1.959,1.961
		c0,1.08,0.879,1.959,1.959,1.959C4.081,9.408,4.959,8.529,4.959,7.449"/>
	<path fill="#FFFFFF" d="M5.335,2.875c0-1.081-0.88-1.959-1.962-1.959c-1.08,0-1.957,0.878-1.957,1.959
		c0,1.082,0.877,1.962,1.957,1.962C4.455,4.836,5.335,3.957,5.335,2.875"/>
</g>
</svg>
