<?php
if(!isset($color) || $color=="" || strtolower($color)=="black"){$color="000";}
if(strtolower($color)=="red"){$color="ed1c24";}
if(strtolower($color)=="blue"){$color="1c75bc";}
if(strtolower($color)=="green"){$color="00a651";}
if(strtolower($color)=="white"){$color="fff";}
header('Content-Type: text/xml');
// echo xml tag just in case short_open_tags is enabled in PHP config
echo '<?xml version="1.0" encoding="UTF-8"?>';
?>
<!-- Generator: Adobe Illustrator 15.0.0, SVG Export Plug-In . SVG Version: 6.00 Build 0)  -->
<!DOCTYPE svg PUBLIC "-//W3C//DTD SVG 1.1//EN" "http://www.w3.org/Graphics/SVG/1.1/DTD/svg11.dtd">
<svg version="1.1" id="Layer_1" xmlns="http://www.w3.org/2000/svg" xmlns:xlink="http://www.w3.org/1999/xlink" x="0px" y="0px"
	 width="10.393px" height="10.392px" viewBox="0 0 10.393 10.392" enable-background="new 0 0 10.393 10.392" xml:space="preserve">
<rect fill="#<?php echo $color; ?>" x="0.001" width="10.392" height="10.392"/>
<g>
	<defs>
		<rect fill="#<?php echo $color; ?>" id="SVGID_1_" y="0.001" width="10.392" height="10.391"/>
	</defs>
	<clipPath id="SVGID_2_">
		<use xlink:href="#SVGID_1_"  overflow="visible"/>
	</clipPath>
	<path clip-path="url(#SVGID_2_)" fill="#FFFFFF" d="M2.448,3.663C1.771,2.501,1.852,0.358,1.852,0.358h1.2
		c0,0,0.021,1.94,0.552,2.648c0.677,0.902,1.563,0.771,1.563,0.771V1.83l3.157,3.157H5.211C5.211,4.987,3.281,5.092,2.448,3.663
		 M2.448,6.644C1.771,7.806,1.852,9.948,1.852,9.948h1.2c0,0,0.021-1.94,0.552-2.649c0.677-0.9,1.563-0.771,1.563-0.771v1.948
		l3.157-3.157H5.211C5.211,5.319,3.281,5.215,2.448,6.644"/>
</g>
</svg>
