<?php
if(!isset($color) || $color=="" || strtolower($color)=="black"){$color="000";}
if(strtolower($color)=="red"){$color="ed1c24";}
if(strtolower($color)=="blue"){$color="1c75bc";}
if(strtolower($color)=="green"){$color="00a651";}
if(strtolower($color)=="white"){$color="fff";}
header('Content-Type: text/xml');
// echo xml tag just in case short_open_tags is enabled in PHP config
echo '<?xml version="1.0" encoding="UTF-8"?>';
?>
<!-- Generator: Adobe Illustrator 15.0.0, SVG Export Plug-In . SVG Version: 6.00 Build 0)  -->
<!DOCTYPE svg PUBLIC "-//W3C//DTD SVG 1.1//EN" "http://www.w3.org/Graphics/SVG/1.1/DTD/svg11.dtd">
<svg version="1.1" id="Layer_1" xmlns="http://www.w3.org/2000/svg" xmlns:xlink="http://www.w3.org/1999/xlink" x="0px" y="0px"
	 width="10.393px" height="10.392px" viewBox="0 0 10.393 10.392" enable-background="new 0 0 10.393 10.392" xml:space="preserve">
<rect fill="#<?php echo $color; ?>" x="0.001" width="10.392" height="10.392"/>
<g>
	<defs>
		<rect fill="#<?php echo $color; ?>" id="SVGID_1_" width="10.392" height="10.392"/>
	</defs>
	<clipPath id="SVGID_2_">
		<use xlink:href="#SVGID_1_"  overflow="visible"/>
	</clipPath>
	<path clip-path="url(#SVGID_2_)" fill="#FFFFFF" d="M6.188,9.622v-2.3l1.681-2.929L7.235,4.031L5.821,6.497H5.582
		c0.24-0.138,0.404-0.395,0.404-0.692c0-0.442-0.359-0.803-0.803-0.803s-0.802,0.36-0.802,0.803c0,0.298,0.164,0.555,0.404,0.692
		H4.563L3.146,4.031L2.516,4.394l1.663,2.9v2.328H3.42l0.018-1.881c0,0,0.01-0.14,0-0.211c-0.009-0.071-0.071-0.14-0.071-0.14
		l-1.437-2.5c0,0-0.218-0.354-0.218-0.664c0-0.995,0.343-0.755,0.51-1.568C2.34,2.084,2.173,1.859,2.173,1.859
		S2.501,1.817,2.626,2.07c0.178,0.363-0.11,1.21,0.429,1.054c0.624-0.18-0.136-0.912-0.109-1.422
		c0.031-0.608,0.681-0.656,0.681-0.656S3.109,2.109,3.97,2.077c0.858-0.031,0.156-1.453,0.156-1.453S4.958,0.89,5.001,1.421
		c0.086,1.07-0.559,0.758-0.619,1.625C4.345,3.57,4.469,4.13,5.273,4.234c0.796,0.101,1.211-0.579,0.86-1.329
		C5.868,2.339,5.337,2.32,5.462,1.46c0.113-0.781,0.929-0.741,0.929-0.741S5.97,1.062,6.188,1.469
		c0.146,0.267,0.623,0.329,0.773,0.586c0.185,0.317-0.023,0.828,0.289,0.843C7.869,2.93,7.195,1.766,7.195,1.766
		s1.008-0.095,1.411,1.101c0.286,0.847-0.066,1.86-0.066,1.86L7.035,7.339c0,0-0.071,0.102-0.084,0.143
		C6.922,7.581,6.93,7.658,6.93,7.658v1.964H6.188z"/>
</g>
</svg>
