<?php
if(!isset($color) || $color=="" || strtolower($color)=="black"){$color="000";}
if(strtolower($color)=="red"){$color="ed1c24";}
if(strtolower($color)=="blue"){$color="1c75bc";}
if(strtolower($color)=="green"){$color="00a651";}
if(strtolower($color)=="white"){$color="fff";}
header('Content-Type: text/xml');
// echo xml tag just in case short_open_tags is enabled in PHP config
echo '<?xml version="1.0" encoding="UTF-8"?>';
?>
<!-- Generator: Adobe Illustrator 15.0.0, SVG Export Plug-In . SVG Version: 6.00 Build 0)  -->
<!DOCTYPE svg PUBLIC "-//W3C//DTD SVG 1.1//EN" "http://www.w3.org/Graphics/SVG/1.1/DTD/svg11.dtd">
<svg version="1.1" id="Layer_1" xmlns="http://www.w3.org/2000/svg" xmlns:xlink="http://www.w3.org/1999/xlink" x="0px" y="0px"
	 width="10.392px" height="10.394px" viewBox="0 0 10.392 10.394" enable-background="new 0 0 10.392 10.394" xml:space="preserve">
<rect fill="#<?php echo $color; ?>" width="10.392" height="10.392"/>
<g>
	<defs>
		<rect fill="#<?php echo $color; ?>" id="SVGID_1_" y="0.001" width="10.392" height="10.393"/>
	</defs>
	<clipPath id="SVGID_2_">
		<use xlink:href="#SVGID_1_"  overflow="visible"/>
	</clipPath>
	<path clip-path="url(#SVGID_2_)" fill="#FFFFFF" d="M6.839,7.475V6.844H5.633V4.466c0.655-0.203,1.135-0.809,1.135-1.531
		c0-0.889-0.722-1.609-1.611-1.609c-0.89,0-1.612,0.721-1.612,1.609c0,0.729,0.489,1.338,1.154,1.537v4.525h1.8h0.34V8.366H6.602
		V7.475H6.839z M5.123,3.745c-0.434-0.02-0.78-0.373-0.78-0.811c0-0.45,0.364-0.814,0.815-0.814c0.449,0,0.814,0.364,0.814,0.814
		c0,0.438-0.347,0.791-0.78,0.811H5.123z"/>
</g>
</svg>
