<?php
if(!isset($color) || $color=="" || strtolower($color)=="black"){$color="000";}
if(strtolower($color)=="red"){$color="ed1c24";}
if(strtolower($color)=="blue"){$color="1c75bc";}
if(strtolower($color)=="green"){$color="00a651";}
if(strtolower($color)=="white"){$color="fff";}
header('Content-Type: text/xml');
// echo xml tag just in case short_open_tags is enabled in PHP config
echo '<?xml version="1.0" encoding="UTF-8"?>';
?>
<!-- Generator: Adobe Illustrator 15.0.0, SVG Export Plug-In . SVG Version: 6.00 Build 0)  -->
<!DOCTYPE svg PUBLIC "-//W3C//DTD SVG 1.1//EN" "http://www.w3.org/Graphics/SVG/1.1/DTD/svg11.dtd">
<svg version="1.1" id="Layer_1" xmlns="http://www.w3.org/2000/svg" xmlns:xlink="http://www.w3.org/1999/xlink" x="0px" y="0px"
	 width="10.392px" height="10.392px" viewBox="0 0 10.392 10.392" enable-background="new 0 0 10.392 10.392" xml:space="preserve">
<rect fill="#<?php echo $color; ?>" width="10.392" height="10.392"/>
<g>
	<defs>
		<rect fill="#<?php echo $color; ?>" id="SVGID_1_" y="0.001" width="10.392" height="10.391"/>
	</defs>
	<clipPath id="SVGID_2_">
		<use xlink:href="#SVGID_1_"  overflow="visible"/>
	</clipPath>
	<path clip-path="url(#SVGID_2_)" fill="#FFFFFF" d="M8.603,1.212c0-1.051-6.868-1.027-6.868-0.001
		C1.735,2.192,8.603,2.31,8.603,1.212 M5.17,1.013c2.207,0,2.725,0.234,2.725,0.234S7.321,1.396,5.17,1.396
		c-2.153,0-2.599-0.148-2.599-0.148S3.181,1.013,5.17,1.013 M9.432,4.767H8.33V9.22H1.94V4.767H0.837l0.501-0.312l0.649-0.401V2.345
		h1.356v0.867l1.791-1.109l3.797,2.353L9.432,4.767z"/>
</g>
</svg>
