<?php
if(!isset($color) || $color=="" || strtolower($color)=="black"){$color="000";}
if(strtolower($color)=="red"){$color="ed1c24";}
if(strtolower($color)=="blue"){$color="1c75bc";}
if(strtolower($color)=="green"){$color="00a651";}
if(strtolower($color)=="white"){$color="fff";}
header('Content-Type: text/xml');
// echo xml tag just in case short_open_tags is enabled in PHP config
echo '<?xml version="1.0" encoding="UTF-8"?>';
?>
<!-- Generator: Adobe Illustrator 15.0.0, SVG Export Plug-In . SVG Version: 6.00 Build 0)  -->
<!DOCTYPE svg PUBLIC "-//W3C//DTD SVG 1.1//EN" "http://www.w3.org/Graphics/SVG/1.1/DTD/svg11.dtd">
<svg version="1.1" id="Layer_1" xmlns="http://www.w3.org/2000/svg" xmlns:xlink="http://www.w3.org/1999/xlink" x="0px" y="0px"
	 width="27.638px" height="21.375px" viewBox="0 0 27.638 21.375" enable-background="new 0 0 27.638 21.375" xml:space="preserve">
<g>
	<g>
		<g>
			<g>
				<path fill="#<?php echo $color; ?>" d="M23.775,8.33l-6.64-3.238l-1.403-0.686c-0.565-0.159-1.217-0.252-1.915-0.252c-0.697,0-1.35,0.093-1.915,0.252
					L10.5,5.092L3.863,8.33c0,0-3.863,1.734-3.863,5.844c0,6.643,7.115,5.545,7.115,5.545s-3.505-0.364-3.505-3.93
					c0-4.445,6.605-4.05,6.605-4.05l-0.782,1.827l1.623,0.428c0,4.933,1.288,4.873,1.288,4.873c-0.28-0.822-0.195-2.315-0.195-2.315
					l1.555,0.213l0.115,0.015l0.115-0.015l1.555-0.213c0,0,0.085,1.493-0.195,2.315c0,0,1.288,0.06,1.288-4.873l1.625-0.428
					l-0.783-1.827c0,0,6.603-0.396,6.603,4.05c0,3.565-3.507,3.93-3.507,3.93s7.12,1.098,7.12-5.545
					C27.638,10.064,23.775,8.33,23.775,8.33 M11.188,11.406c-0.663-0.662-0.845-1.552-0.845-1.552s0.892,0.183,1.552,0.845
					c0.663,0.662,0.848,1.553,0.848,1.553S11.853,12.069,11.188,11.406 M16.448,11.406c-0.663,0.663-1.555,0.846-1.555,0.846
					s0.185-0.891,0.848-1.553c0.662-0.662,1.55-0.845,1.55-0.845S17.11,10.744,16.448,11.406"/>
			</g>
		</g>
	</g>
</g>
</svg>
