<?php
if(!isset($color) || $color=="" || strtolower($color)=="black"){$color="000";}
if(strtolower($color)=="red"){$color="ed1c24";}
if(strtolower($color)=="blue"){$color="1c75bc";}
if(strtolower($color)=="green"){$color="00a651";}
if(strtolower($color)=="white"){$color="fff";}
header('Content-Type: text/xml');
// echo xml tag just in case short_open_tags is enabled in PHP config
echo '<?xml version="1.0" encoding="UTF-8"?>';
?>
<!-- Generator: Adobe Illustrator 15.0.0, SVG Export Plug-In . SVG Version: 6.00 Build 0)  -->
<!DOCTYPE svg PUBLIC "-//W3C//DTD SVG 1.1//EN" "http://www.w3.org/Graphics/SVG/1.1/DTD/svg11.dtd">
<svg version="1.1" id="Layer_1" xmlns="http://www.w3.org/2000/svg" xmlns:xlink="http://www.w3.org/1999/xlink" x="0px" y="0px"
	 width="11.849px" height="10.454px" viewBox="0 0 11.849 10.454" enable-background="new 0 0 11.849 10.454" xml:space="preserve">
<g>
	<path fill="#<?php echo $color; ?>" d="M7.729,4.989V4.979c0-0.312-0.826-0.563-1.847-0.563c-0.994,0-1.805,0.24-1.843,0.541L4.038,4.954c0,0,0,0.004,0.002,0.012
		c0,0.004-0.002,0.009-0.002,0.013c0,0.013,0.002,0.026,0.005,0.04c0.043,0.589,0.294,5.122-2.216,5.122
		c0,0,0.451,0.271,0.993,0.181c0.12-0.019,0.232-0.017,0.339-0.005c0.17,0.021,0.325,0.069,0.46,0.095
		c0.131-0.028,0.251-0.045,0.301-0.004c0.033-0.015,0.066-0.033,0.096-0.063c0.112-0.112,0.308-0.021,0.5,0.07
		c0.164-0.024,0.344-0.049,0.513-0.049c0.006,0,0.01,0.002,0.016,0.002c0.119-0.367,0.38-0.131,0.74,0.043
		c0.041,0.021,0.078,0.032,0.113,0.043c0.037-0.011,0.073-0.022,0.113-0.043c0.359-0.174,0.621-0.41,0.741-0.043
		c0.005,0,0.01-0.002,0.016-0.002c0.169,0,0.348,0.024,0.513,0.049c0.192-0.092,0.387-0.183,0.5-0.07
		c0.029,0.029,0.062,0.048,0.095,0.063c0.051-0.041,0.169-0.024,0.301,0.004c0.136-0.025,0.289-0.074,0.463-0.095
		c0.104-0.012,0.217-0.014,0.337,0.005c0.542,0.09,0.991-0.181,0.991-0.181C7.284,10.141,7.729,4.989,7.729,4.989"/>
	<path fill="#<?php echo $color; ?>" d="M11.836,2.478c0.067-0.185-0.13-0.436-0.474-0.654c-0.104-0.251-0.508-0.548-1.04-0.739
		c-0.229-0.081-0.453-0.132-0.654-0.153C9.494,0.814,9.275,0.704,9.031,0.617C8.743,0.513,8.466,0.461,8.233,0.452
		c-0.19-0.197-0.662-0.336-1.217-0.336c-0.385,0-0.729,0.068-0.968,0.174C5.834,0.117,5.394,0,4.883,0
		C4.212,0,3.661,0.202,3.587,0.463C3.335,0.423,3.003,0.44,2.65,0.521C2.187,0.628,1.804,0.824,1.616,1.025
		C1.604,1.026,1.592,1.028,1.581,1.033C0.878,1.194,0.362,1.555,0.427,1.837C0.43,1.849,0.436,1.86,0.438,1.872
		c-0.18,0.135-0.276,0.285-0.245,0.416c0.004,0.021,0.014,0.04,0.023,0.06C0.077,2.591,0,2.845,0,3.108
		c0,1.046,1.193,1.959,2.966,2.447C2.564,5.394,2.332,5.202,2.332,4.992c0-0.547,1.596-0.991,3.565-0.991
		c1.971,0,3.566,0.444,3.566,0.991c0,0.21-0.234,0.401-0.633,0.563c1.771-0.488,2.964-1.401,2.964-2.447
		c0-0.073-0.005-0.146-0.017-0.217c0.036-0.068,0.053-0.133,0.036-0.195c-0.009-0.04-0.031-0.076-0.061-0.109
		C11.792,2.556,11.821,2.521,11.836,2.478"/>
</g>
</svg>
