<?php
if(!isset($color) || $color=="" || strtolower($color)=="black"){$color="000";}
if(strtolower($color)=="red"){$color="ed1c24";}
if(strtolower($color)=="blue"){$color="1c75bc";}
if(strtolower($color)=="green"){$color="00a651";}
if(strtolower($color)=="white"){$color="fff";}
header('Content-Type: text/xml');
// echo xml tag just in case short_open_tags is enabled in PHP config
echo '<?xml version="1.0" encoding="UTF-8"?>';
?>
<!-- Generator: Adobe Illustrator 15.0.0, SVG Export Plug-In . SVG Version: 6.00 Build 0)  -->
<!DOCTYPE svg PUBLIC "-//W3C//DTD SVG 1.1//EN" "http://www.w3.org/Graphics/SVG/1.1/DTD/svg11.dtd">
<svg version="1.1" id="Layer_1" xmlns="http://www.w3.org/2000/svg" xmlns:xlink="http://www.w3.org/1999/xlink" x="0px" y="0px"
	 width="10.63px" height="9.803px" viewBox="0 0 10.63 9.803" enable-background="new 0 0 10.63 9.803" xml:space="preserve">
<g>
	<path fill="#<?php echo $color; ?>" d="M7.191,1.218c-0.695,0-1.314-0.379-1.725-0.971C5.412,0.168,5.361,0.086,5.314,0C5.269,0.086,5.216,0.168,5.162,0.247
		c-0.41,0.592-1.029,0.971-1.724,0.971c-0.49,0-0.941-0.188-1.311-0.505C2.212,1.586,2.426,3.498,2.8,4.762
		c0.382,1.284,1.847,2.256,2.517,2.641C5.987,7.018,7.45,6.046,7.83,4.762c0.375-1.265,0.59-3.18,0.674-4.052
		C8.133,1.028,7.682,1.218,7.191,1.218"/>
	<path fill="#<?php echo $color; ?>" d="M4.598,8.656C4.778,8.612,3.18,8.748,2.193,8.193c-0.214-0.119-0.556-0.49-0.539-0.679c0.323,0.496,0.983,0.077,1.623,0.46
		C2.71,7.436,1.742,7.285,1.069,6.955c-0.443-0.218-0.61-0.582-0.604-0.854c0.169,0.411,0.735,0.098,1.495,0.672
		C1.763,6.457,1.483,5.937,1.112,5.785C0.278,5.444-0.02,5.058,0.001,4.461C0.083,4.826,0.716,4.759,1.122,5.32
		c-0.174-0.484-0.63-0.914-0.71-1.424C0.34,3.441,0.776,2.988,0.916,2.459c0.091,0.338,0.17,0.652,0.168,1.035
		C1.08,4.082,0.825,4.746,1.183,5.181C1.087,4.711,1.483,4.084,1.534,3.58c0.171,0.277,0.257,0.561,0.263,0.888
		c0.004,0.251-0.221,0.485-0.26,0.706C1.443,5.707,1.611,6.259,2.024,6.672C1.823,6.275,2.007,5.979,1.945,5.563
		c-0.013-0.079-0.144-0.466-0.104-0.48c0.348,0.289,0.657,0.399,0.572,0.916C2.354,6.36,2.388,6.645,2.458,6.981
		c0.076,0.358,0.51,0.681,0.983,0.897c-0.514-0.387-0.33-0.992-0.627-1.426C3.389,6.64,3.56,7.189,3.81,7.578
		C3.97,7.83,4.074,8.125,4.309,8.273c0,0,0.277,0.111,0.396,0.111C4.825,8.385,4.598,8.656,4.598,8.656"/>
	<path fill="#<?php echo $color; ?>" d="M6.033,8.656c-0.18-0.044,1.418,0.092,2.404-0.463c0.214-0.119,0.555-0.49,0.538-0.679
		c-0.324,0.496-0.984,0.077-1.623,0.46c0.566-0.539,1.535-0.689,2.208-1.02c0.444-0.218,0.611-0.582,0.605-0.854
		C9.995,6.513,9.431,6.199,8.67,6.773c0.196-0.316,0.478-0.837,0.848-0.988c0.835-0.341,1.133-0.728,1.111-1.324
		c-0.083,0.365-0.716,0.298-1.12,0.859c0.172-0.484,0.63-0.914,0.71-1.424c0.071-0.455-0.364-0.908-0.505-1.438
		C9.623,2.797,9.545,3.111,9.547,3.494c0.003,0.588,0.259,1.252-0.1,1.687c0.097-0.47-0.3-1.097-0.354-1.601
		c-0.169,0.277-0.255,0.561-0.26,0.888c-0.006,0.251,0.22,0.485,0.259,0.706c0.094,0.533-0.072,1.085-0.486,1.498
		c0.202-0.396,0.019-0.693,0.08-1.109c0.011-0.079,0.141-0.466,0.101-0.48c-0.345,0.289-0.655,0.399-0.57,0.916
		C8.275,6.36,8.241,6.645,8.172,6.981C8.096,7.34,7.662,7.662,7.188,7.879C7.701,7.492,7.52,6.887,7.816,6.453
		C7.241,6.64,7.07,7.189,6.821,7.578C6.659,7.83,6.558,8.125,6.322,8.273c0,0-0.277,0.111-0.396,0.111
		C5.807,8.385,6.033,8.656,6.033,8.656"/>
	<path fill="#FFFFFF" d="M6.285,8.704c0,0.537-0.434,0.972-0.968,0.972c-0.535,0-0.971-0.435-0.971-0.972
		c0-0.532,0.436-0.967,0.971-0.967C5.852,7.737,6.285,8.172,6.285,8.704"/>
	<path fill="#<?php echo $color; ?>" d="M4.22,8.704c0-0.604,0.491-1.097,1.097-1.097c0.606,0,1.097,0.493,1.097,1.097c0,0.608-0.49,1.099-1.097,1.099
		C4.711,9.803,4.22,9.313,4.22,8.704 M4.476,8.704C4.477,9.17,4.852,9.547,5.316,9.547S6.157,9.17,6.157,8.704
		c0-0.463-0.376-0.84-0.841-0.84S4.477,8.241,4.476,8.704"/>
</g>
</svg>
