<?php
if(!isset($color) || $color=="" || strtolower($color)=="black"){$color="000";}
if(strtolower($color)=="red"){$color="ed1c24";}
if(strtolower($color)=="blue"){$color="1c75bc";}
if(strtolower($color)=="green"){$color="00a651";}
if(strtolower($color)=="white"){$color="fff";}
header('Content-Type: text/xml');
// echo xml tag just in case short_open_tags is enabled in PHP config
echo '<?xml version="1.0" encoding="UTF-8"?>';
?>
<!-- Generator: Adobe Illustrator 15.0.0, SVG Export Plug-In . SVG Version: 6.00 Build 0)  -->
<!DOCTYPE svg PUBLIC "-//W3C//DTD SVG 1.1//EN" "http://www.w3.org/Graphics/SVG/1.1/DTD/svg11.dtd">
<svg version="1.1" id="Layer_1" xmlns="http://www.w3.org/2000/svg" xmlns:xlink="http://www.w3.org/1999/xlink" x="0px" y="0px"
	 width="8.482px" height="10.24px" viewBox="0 0 8.482 10.24" enable-background="new 0 0 8.482 10.24" xml:space="preserve">
<g>
	<path fill="#FFFFFF" d="M4.264,0.23L4.242,0.248L4.22,0.23c0,0-3.989-0.045-3.989,4.044c0,2.573,1.535,4.175,2.701,5.009
		C3.617,9.774,4.178,10,4.22,10c0.005,0,0.013,0.002,0.022,0.004C4.25,10.001,4.259,10,4.264,10c0.042,0,0.602-0.226,1.288-0.717
		c1.168-0.834,2.7-2.436,2.7-5.009C8.252,0.185,4.264,0.23,4.264,0.23"/>
	<path fill="#<?php echo $color; ?>" d="M4.192,10.228c-0.026-0.002-0.034-0.006-0.047-0.008c-0.016-0.004-0.026-0.008-0.04-0.014
		c-0.027-0.01-0.061-0.021-0.098-0.037c-0.075-0.031-0.175-0.076-0.296-0.139C3.473,9.908,3.151,9.724,2.796,9.47
		c-0.6-0.43-1.296-1.057-1.847-1.914C0.399,6.699,0,5.607,0,4.274c0-1.036,0.249-1.837,0.634-2.443
		c0.387-0.607,0.904-1.014,1.418-1.283C3.083,0.009,4.11,0.001,4.213,0h0.014h0.016h0.014H4.27c0.078,0,0.674,0.006,1.402,0.235
		C6.398,0.463,7.269,0.92,7.849,1.831c0.386,0.606,0.634,1.407,0.634,2.443c0,1.333-0.398,2.425-0.949,3.282S6.287,9.041,5.687,9.47
		c-0.499,0.357-0.931,0.576-1.166,0.679c-0.081,0.036-0.135,0.058-0.184,0.071c-0.012,0.002-0.02,0.006-0.046,0.008L4.242,10.24
		L4.192,10.228z M2.949,0.674C2.286,0.883,1.525,1.289,1.023,2.078C0.689,2.606,0.461,3.31,0.46,4.274
		c0.001,1.24,0.369,2.237,0.877,3.032C1.847,8.101,2.5,8.69,3.065,9.095c0.468,0.336,0.876,0.543,1.082,0.633
		C4.187,9.746,4.22,9.759,4.242,9.767c0.013-0.006,0.032-0.014,0.055-0.023C4.36,9.718,4.451,9.677,4.562,9.621
		c0.222-0.113,0.522-0.287,0.855-0.525C5.982,8.69,6.638,8.101,7.146,7.306c0.509-0.795,0.876-1.792,0.876-3.032
		c0-0.964-0.229-1.668-0.563-2.196C7.123,1.551,6.676,1.197,6.217,0.956C5.421,0.537,4.59,0.471,4.341,0.461L4.143,0.462
		C3.964,0.469,3.493,0.503,2.949,0.674"/>
	<path fill="#<?php echo $color; ?>" d="M1.057,4.75C1.062,5.369,1.299,5.988,1.772,6.46c0.472,0.471,1.09,0.709,1.709,0.715C3.477,6.556,3.238,5.937,2.767,5.464
		C2.293,4.992,1.677,4.753,1.057,4.75"/>
	<path fill="none" stroke="#<?php echo $color; ?>" stroke-width="0.096" d="M1.057,4.75C1.062,5.369,1.299,5.988,1.772,6.46
		c0.472,0.471,1.09,0.709,1.709,0.715C3.477,6.556,3.238,5.937,2.767,5.464C2.293,4.992,1.677,4.753,1.057,4.75z"/>
	<path fill="#<?php echo $color; ?>" d="M7.484,4.75C7.479,5.369,7.242,5.988,6.77,6.46C6.297,6.931,5.68,7.169,5.06,7.175c0.005-0.619,0.243-1.238,0.716-1.711
		C6.246,4.992,6.865,4.753,7.484,4.75"/>
	<path fill="none" stroke="#<?php echo $color; ?>" stroke-width="0.096" d="M7.484,4.75C7.479,5.369,7.242,5.988,6.77,6.46
		C6.297,6.931,5.68,7.169,5.06,7.175c0.005-0.619,0.243-1.238,0.716-1.711C6.246,4.992,6.865,4.753,7.484,4.75z"/>
</g>
</svg>
