<?php
if(!isset($color) || $color=="" || strtolower($color)=="black"){$color="000";}
if(strtolower($color)=="red"){$color="ed1c24";}
if(strtolower($color)=="blue"){$color="1c75bc";}
if(strtolower($color)=="green"){$color="00a651";}
if(strtolower($color)=="white"){$color="fff";}
header('Content-Type: text/xml');
// echo xml tag just in case short_open_tags is enabled in PHP config
echo '<?xml version="1.0" encoding="UTF-8"?>';
?>
<!-- Generator: Adobe Illustrator 15.0.0, SVG Export Plug-In . SVG Version: 6.00 Build 0)  -->
<!DOCTYPE svg PUBLIC "-//W3C//DTD SVG 1.1//EN" "http://www.w3.org/Graphics/SVG/1.1/DTD/svg11.dtd">
<svg version="1.1" id="Layer_1" xmlns="http://www.w3.org/2000/svg" xmlns:xlink="http://www.w3.org/1999/xlink" x="0px" y="0px"
	 width="10.08px" height="9.803px" viewBox="0 0 10.08 9.803" enable-background="new 0 0 10.08 9.803" xml:space="preserve">
<g>
	<path fill="#<?php echo $color; ?>" d="M10.08,9.708L8.926,5.433V2.53H8.143L7.968,1.885H7.376C7.142,0.808,6.187,0,5.04,0C3.893,0,2.938,0.808,2.704,1.885H2.112
		L1.938,2.53H1.154v2.902L0,9.708H10.08z"/>
	<path fill="#FFFFFF" d="M6.881,1.858c-0.183-0.85-0.938-1.484-1.84-1.484c-0.903,0-1.658,0.635-1.841,1.484H6.881z"/>
	<rect x="1.954" y="3.005" fill="#FFFFFF" width="0.355" height="0.916"/>
	<rect x="2.681" y="3.005" fill="#FFFFFF" width="0.356" height="0.916"/>
	<rect x="3.409" y="3.005" fill="#FFFFFF" width="0.354" height="0.916"/>
	<rect x="4.135" y="3.005" fill="#FFFFFF" width="0.356" height="0.916"/>
	<rect x="4.861" y="3.005" fill="#FFFFFF" width="0.357" height="0.916"/>
	<rect x="5.59" y="3.005" fill="#FFFFFF" width="0.356" height="0.916"/>
	<rect x="6.317" y="3.005" fill="#FFFFFF" width="0.356" height="0.916"/>
	<rect x="7.044" y="3.005" fill="#FFFFFF" width="0.354" height="0.916"/>
	<rect x="7.771" y="3.005" fill="#FFFFFF" width="0.354" height="0.916"/>
	<rect x="1.954" y="4.46" fill="#FFFFFF" width="0.355" height="0.916"/>
	<rect x="2.681" y="4.46" fill="#FFFFFF" width="0.356" height="0.916"/>
	<rect x="3.409" y="4.46" fill="#FFFFFF" width="0.354" height="0.916"/>
	<rect x="4.135" y="4.46" fill="#FFFFFF" width="0.356" height="0.916"/>
	<rect x="4.861" y="4.46" fill="#FFFFFF" width="0.357" height="0.916"/>
	<rect x="5.59" y="4.46" fill="#FFFFFF" width="0.356" height="0.916"/>
	<rect x="6.317" y="4.46" fill="#FFFFFF" width="0.356" height="0.916"/>
	<rect x="7.044" y="4.46" fill="#FFFFFF" width="0.354" height="0.916"/>
	<rect x="7.771" y="4.46" fill="#FFFFFF" width="0.354" height="0.916"/>
	<rect x="1.954" y="5.917" fill="#FFFFFF" width="0.355" height="0.915"/>
	<rect x="2.681" y="5.917" fill="#FFFFFF" width="0.356" height="0.915"/>
	<rect x="3.409" y="5.917" fill="#FFFFFF" width="0.354" height="0.915"/>
	<rect x="4.135" y="5.917" fill="#FFFFFF" width="0.356" height="0.915"/>
	<rect x="4.861" y="5.917" fill="#FFFFFF" width="0.357" height="0.915"/>
	<rect x="5.59" y="5.917" fill="#FFFFFF" width="0.356" height="0.915"/>
	<rect x="6.317" y="5.917" fill="#FFFFFF" width="0.356" height="0.915"/>
	<rect x="7.044" y="5.917" fill="#FFFFFF" width="0.354" height="0.915"/>
	<rect x="7.771" y="5.917" fill="#FFFFFF" width="0.354" height="0.915"/>
	<polygon fill="#FFFFFF" points="4.588,8.682 5.49,8.682 5.49,9.803 5.774,9.803 5.774,8.397 4.305,8.397 4.305,9.803 4.588,9.803 	
		"/>
</g>
</svg>
