<?php
if(!isset($color) || $color=="" || strtolower($color)=="black"){$color="000";}
if(strtolower($color)=="red"){$color="ed1c24";}
if(strtolower($color)=="blue"){$color="1c75bc";}
if(strtolower($color)=="green"){$color="00a651";}
if(strtolower($color)=="white"){$color="fff";}
header('Content-Type: text/xml');
// echo xml tag just in case short_open_tags is enabled in PHP config
echo '<?xml version="1.0" encoding="UTF-8"?>';
?>
<!-- Generator: Adobe Illustrator 15.0.0, SVG Export Plug-In . SVG Version: 6.00 Build 0)  -->
<!DOCTYPE svg PUBLIC "-//W3C//DTD SVG 1.1//EN" "http://www.w3.org/Graphics/SVG/1.1/DTD/svg11.dtd">
<svg version="1.1" id="Layer_1" xmlns="http://www.w3.org/2000/svg" xmlns:xlink="http://www.w3.org/1999/xlink" x="0px" y="0px"
	 width="21.651px" height="21.76px" viewBox="0 0 21.651 21.76" enable-background="new 0 0 21.651 21.76" xml:space="preserve">
<g>
	<path fill="#<?php echo $color; ?>" d="M3.473,13.255c0.992-0.256,1.504-0.042,1.602,0.44c2.477-1.148,3.177-2.761,1.233-2.847c1.913,0.084,1.273-1.483-1.1-2.797
		C4.944,8.225,4.48,8.189,3.79,7.857C6.38,9.105,3.956,10.694,0,10.343C3.956,10.694,6.176,12.557,3.473,13.255 M18.938,11.457
		c-0.848-0.017-1.286-0.231-1.394-0.557c-2.907,0.076-4.216,1.217-2.305,2.027c-1.923-0.816-2.006,0.946-0.147,3.106
		c-1.859-2.16-3.591-2.487-3.055-0.576c-0.536-1.911-1.964-0.878-2.519,1.823c0.372-1.812,0.122-3.104-0.44-3.307l2.03-1.066
		l2.098,1.103l-0.401-2.337l1.639-1.598c0.32,0.489,1.449,0.85,3.098,0.822c-0.256-0.776,1.397-2.188,4.109-3.073
		c-3.852,1.259-6.576,0.27-4.261-1.551c-2.315,1.82-2.479-1.073-0.256-4.523c-2.223,3.45-4.946,4.441-4.259,1.552
		C12.188,6.192,10.202,4.082,9.768,0c0.434,4.082-1.013,6.593-2.264,3.927c1.251,2.666-1.628,2.324-4.502-0.532
		c2.102,2.089,2.929,4.171,2.212,4.652C7.617,9.292,9.248,8.826,8.095,7.18c1.172,1.674,2.009,0.124,1.479-2.736
		c0.53,2.86,1.95,3.905,2.503,1.846c-0.553,2.06,1.182,1.75,3.061-0.549c-1.879,2.299-1.812,4.059,0.118,3.106
		c-0.778,0.384-1.02,0.801-0.846,1.16l-2.254-0.328l-1.048-2.127l-1.05,2.127l-2.346,0.34l1.698,1.655l-0.391,2.281
		c-0.266-0.057-0.595,0.115-0.957,0.578c1.185-1.51-0.508-1.981-2.986-0.838c0.168,0.833-0.9,2.469-2.909,3.902
		c3.175-2.266,6.073-2.267,4.533-0.003c1.54-2.264,2.684,0.4,1.789,4.165c0.895-3.765,3.114-5.631,3.471-2.916
		c-0.357-2.715,2.231-1.41,4.049,2.042c-1.818-3.452-1.315-6.306,0.785-4.466c-2.1-1.84,0.72-2.504,4.412-1.038
		C17.514,13.916,16.064,11.406,18.938,11.457"/>
</g>
</svg>
