<?php
if(!isset($color) || $color=="" || strtolower($color)=="black"){$color="000";}
if(strtolower($color)=="red"){$color="ed1c24";}
if(strtolower($color)=="blue"){$color="1c75bc";}
if(strtolower($color)=="green"){$color="00a651";}
if(strtolower($color)=="white"){$color="fff";}
header('Content-Type: text/xml');
// echo xml tag just in case short_open_tags is enabled in PHP config
echo '<?xml version="1.0" encoding="UTF-8"?>';
?>
<!-- Generator: Adobe Illustrator 15.0.0, SVG Export Plug-In . SVG Version: 6.00 Build 0)  -->
<!DOCTYPE svg PUBLIC "-//W3C//DTD SVG 1.1//EN" "http://www.w3.org/Graphics/SVG/1.1/DTD/svg11.dtd">
<svg version="1.1" id="Layer_1" xmlns="http://www.w3.org/2000/svg" xmlns:xlink="http://www.w3.org/1999/xlink" x="0px" y="0px"
	 width="21.843px" height="21.723px" viewBox="0 0 21.843 21.723" enable-background="new 0 0 21.843 21.723" xml:space="preserve">
<g>
	<path fill="#<?php echo $color; ?>" d="M2.643,15.25c0.756-0.194,1.145-0.031,1.22,0.335c1.884-0.875,2.418-2.102,0.938-2.166
		c1.457,0.064,0.969-1.129-0.838-2.128c-0.2,0.13-0.553,0.104-1.078-0.149C4.856,12.094,3.011,13.301,0,13.033
		C3.011,13.301,4.701,14.719,2.643,15.25 M14.413,13.88c-0.646-0.011-0.978-0.175-1.062-0.422c-2.211,0.059-3.208,0.926-1.753,1.542
		c-1.464-0.62-1.527,0.722-0.111,2.364c-1.416-1.643-2.733-1.892-2.326-0.438c-0.407-1.454-1.494-0.668-1.918,1.388
		c0.285-1.381,0.094-2.364-0.335-2.518l1.545-0.811l1.598,0.84l-0.305-1.779l1.248-1.216c0.243,0.372,1.102,0.646,2.357,0.626
		c-0.196-0.591,1.061-1.664,3.125-2.339c-2.931,0.957-5.003,0.204-3.241-1.179c-1.762,1.383-1.887-0.819-0.196-3.444
		c-1.691,2.625-3.763,3.38-3.241,1.181C9.276,9.875,7.764,8.27,7.434,5.162c0.33,3.107-0.771,5.019-1.723,2.988
		c0.952,2.03-1.239,1.77-3.425-0.404c1.6,1.59,2.229,3.174,1.682,3.54c1.829,0.948,3.07,0.594,2.194-0.66
		c0.891,1.274,1.529,0.095,1.125-2.081c0.404,2.176,1.483,2.972,1.905,1.403c-0.422,1.568,0.899,1.332,2.329-0.417
		c-1.43,1.749-1.379,3.088,0.09,2.365c-0.592,0.292-0.776,0.608-0.644,0.881l-1.714-0.248l-0.8-1.619l-0.798,1.619L5.87,12.788
		l1.291,1.259l-0.298,1.736c-0.202-0.042-0.452,0.087-0.728,0.439c0.902-1.148-0.387-1.508-2.272-0.638
		c0.129,0.635-0.684,1.878-2.213,2.97c2.415-1.725,4.621-1.725,3.449-0.002c1.172-1.723,2.043,0.305,1.362,3.17
		c0.681-2.865,2.37-4.286,2.642-2.22c-0.272-2.066,1.697-1.072,3.081,1.555c-1.384-2.627-1.001-4.799,0.597-3.399
		c-1.598-1.399,0.549-1.904,3.358-0.791C13.33,15.754,12.227,13.843,14.413,13.88"/>
	<path fill="#<?php echo $color; ?>" d="M20.688,2.221c-1.695,1.208-3.239,1.208-2.419,0.001C17.449,3.429,16.838,2.008,17.316,0
		c-0.478,2.008-1.661,3.003-1.852,1.556c0.191,1.447-1.19,0.752-2.159-1.089c0.969,1.841,0.701,3.362-0.419,2.381
		c1.12,0.981-0.385,1.336-2.353,0.555c1.968,0.781,2.742,2.12,1.209,2.093c0.452,0.008,0.686,0.122,0.745,0.296
		c1.548-0.041,2.248-0.648,1.229-1.081c1.025,0.436,1.069-0.504,0.077-1.655c0.992,1.151,1.916,1.324,1.63,0.307
		c0.286,1.018,1.048,0.468,1.344-0.972c-0.202,0.979-0.058,1.662,0.251,1.754l-1.099,0.577L14.8,4.134l0.214,1.245L14.129,6.24
		c-0.165-0.264-0.756-0.461-1.641-0.446c0.136,0.413-0.747,1.165-2.191,1.638c2.054-0.672,3.506-0.145,2.271,0.827
		c1.235-0.972,1.323,0.572,0.137,2.413c1.186-1.841,2.637-2.369,2.272-0.828c0.365-1.541,1.424-0.416,1.656,1.762
		c-0.232-2.178,0.54-3.518,1.208-2.094c-0.668-1.424,0.868-1.24,2.4,0.282c-1.119-1.112-1.56-2.221-1.181-2.479
		c-1.28-0.661-2.149-0.415-1.535,0.461c-0.625-0.892-1.071-0.066-0.788,1.46c-0.283-1.526-1.04-2.084-1.336-0.984
		c0.296-1.1-0.629-0.934-1.632,0.292c1.003-1.226,0.967-2.165-0.063-1.656c0.418-0.206,0.537-0.429,0.441-0.619l1.213,0.175
		l0.559,1.134l0.559-1.134l1.251-0.181l-0.904-0.883l0.211-1.23c0.142,0.031,0.313-0.046,0.508-0.293
		c-0.633,0.804,0.272,1.056,1.595,0.445C19.049,3.856,19.615,2.984,20.688,2.221 M21.843,6.089c-2.11-0.187-3.294-1.18-1.852-1.554
		c-0.53,0.137-0.799,0.021-0.852-0.234c-1.322,0.611-1.698,1.473-0.661,1.519c-1.02-0.045-0.676,0.79,0.589,1.49
		c0.141-0.09,0.388-0.071,0.754,0.104C18.441,6.748,19.733,5.902,21.843,6.089"/>
</g>
</svg>
