<?php
if(!isset($color) || $color=="" || strtolower($color)=="black"){$color="000";}
if(strtolower($color)=="red"){$color="ed1c24";}
if(strtolower($color)=="blue"){$color="1c75bc";}
if(strtolower($color)=="green"){$color="00a651";}
if(strtolower($color)=="white"){$color="fff";}
header('Content-Type: text/xml');
// echo xml tag just in case short_open_tags is enabled in PHP config
echo '<?xml version="1.0" encoding="UTF-8"?>';
?>
<!-- Generator: Adobe Illustrator 15.0.0, SVG Export Plug-In . SVG Version: 6.00 Build 0)  -->
<!DOCTYPE svg PUBLIC "-//W3C//DTD SVG 1.1//EN" "http://www.w3.org/Graphics/SVG/1.1/DTD/svg11.dtd">
<svg version="1.1" id="Layer_1" xmlns="http://www.w3.org/2000/svg" xmlns:xlink="http://www.w3.org/1999/xlink" x="0px" y="0px"
	 width="10.249px" height="10.704px" viewBox="0 0 10.249 10.704" enable-background="new 0 0 10.249 10.704" xml:space="preserve">
<g>
	<path fill="#<?php echo $color; ?>" d="M9.779,4.522l0.47-0.302L9.842,3.834l0.333-0.487l-0.6-0.192l0.156-0.469l-0.467,0.06L9.438,2.05L8.949,2.18L8.887,1.388
		L8.449,1.825L8.325,0.982L7.908,1.484L7.731,0.735L7.357,1.298L7.176,0.561L6.832,1.098L6.614,0.33L6.287,0.886L6.025,0.088
		L5.669,0.764L5.458,0.048L5.137,0.606L4.791,0L4.579,0.717L4.222,0.043L3.961,0.839L3.634,0.283L3.416,1.052L3.073,0.516L2.89,1.25
		L2.517,0.689L2.342,1.437l-0.419-0.5L1.801,1.78L1.361,1.34L1.3,2.134l-0.49-0.13l0.175,0.697L0.517,2.639l0.155,0.468L0.073,3.299
		l0.335,0.488L0,4.174l0.47,0.302L0.25,5.014l0.48-0.012L0.652,5.745l0.568-0.313l0.197,0.616l0.315-0.586l0.159,0.381l0.194-0.456
		l0.204,0.312l0.106-0.449l0.209,0.297l0.092-0.43l0.225,0.338L3.02,5.029l0.207,0.351l0.118-0.422l0.204,0.385l0.128-0.247
		c0.003,0.002,0.007,0.003,0.01,0.006L3.88,5.577L3.924,5.42c0.016,0.02,0.047,0.037,0.06,0.057C4.126,5.706,4.126,6.895,4.126,7.18
		c0,0.286-0.143,0.974-0.214,1.259c-0.07,0.286-0.426,0.399-0.925,0.743c-0.5,0.343-0.643,0.803-0.785,1.259
		c0,0,0.196,0.449,0.428,0.172c0.285-0.344,0.285-0.458,0.926-0.744c0.643-0.286,1.069-0.228,1.142,0
		c0.021,0.073,0.045,0.168,0.066,0.274c-0.007,0.088,0.159,0.135,0.334,0.139c0.19,0.005,0.394-0.041,0.387-0.139
		c0.022-0.106,0.046-0.201,0.068-0.274c0.071-0.228,0.499-0.286,1.14,0c0.643,0.286,0.643,0.4,0.928,0.744
		c0.229,0.277,0.426-0.172,0.426-0.172C7.903,9.985,7.763,9.525,7.264,9.182C6.763,8.838,6.409,8.725,6.337,8.439
		C6.266,8.154,6.123,7.466,6.123,7.18c0-0.285,0-1.475,0.143-1.703c0.01-0.016,0.036-0.03,0.05-0.046l0.056,0.192l0.197-0.49
		l0.133,0.256l0.202-0.385l0.119,0.42l0.206-0.348L7.326,5.5l0.225-0.338L7.642,5.59l0.209-0.297l0.107,0.451l0.205-0.31
		l0.191,0.453l0.16-0.38l0.316,0.587l0.198-0.618l0.566,0.314L9.521,5.052L9.999,5.06L9.779,4.522z"/>
</g>
</svg>
