<?php
if(!isset($color) || $color=="" || strtolower($color)=="black"){$color="000";}
if(strtolower($color)=="red"){$color="ed1c24";}
if(strtolower($color)=="blue"){$color="1c75bc";}
if(strtolower($color)=="green"){$color="00a651";}
if(strtolower($color)=="white"){$color="fff";}
header('Content-Type: text/xml');
// echo xml tag just in case short_open_tags is enabled in PHP config
echo '<?xml version="1.0" encoding="UTF-8"?>';
?>
<!-- Generator: Adobe Illustrator 15.0.0, SVG Export Plug-In . SVG Version: 6.00 Build 0)  -->
<!DOCTYPE svg PUBLIC "-//W3C//DTD SVG 1.1//EN" "http://www.w3.org/Graphics/SVG/1.1/DTD/svg11.dtd">
<svg version="1.1" id="Layer_1" xmlns="http://www.w3.org/2000/svg" xmlns:xlink="http://www.w3.org/1999/xlink" x="0px" y="0px"
	 width="10.167px" height="10.631px" viewBox="0 0 10.167 10.631" enable-background="new 0 0 10.167 10.631" xml:space="preserve">
<g>
	<path fill="#<?php echo $color; ?>" d="M8.653,5.653C7.717,4.894,7.637,4.95,7.644,4.927c0.248-0.898,0.243-1.311,0.243-1.966C7.885,0.325,6.376,0,6.376,0
		L6.364,0.244c0,0,0.599,1.237,0.599,2.26c0,0.964-0.649,1.744-0.725,1.873c0,0-0.642-0.121-1.14-0.121
		c-0.497,0-1.169,0.121-1.169,0.121C3.854,4.248,3.204,3.468,3.204,2.504c0-1.023,0.6-2.26,0.6-2.26L3.792,0
		c0,0-1.503,0.322-1.511,2.946c-0.002,0.658-0.008,1.076,0.241,1.98C2.529,4.95,2.45,4.894,1.514,5.653
		c-0.937,0.761-1.668,2.004-1.486,2.35l0.004,0.012c0.183,0.344,0.549,0.438,0.82,0.207l2.31-2.025c0.002,0,0.005-0.001,0.006-0.002
		l0.597,2.543c0,0.374,0.438,1.894,0.658,1.894h1.321c0.222,0,0.657-1.52,0.657-1.894L7,6.194c0.001,0.001,0.002,0.002,0.004,0.002
		l2.31,2.025c0.273,0.231,0.639,0.137,0.82-0.207l0.006-0.012C10.321,7.657,9.588,6.414,8.653,5.653 M4.389,6.06
		C4.272,6.211,4.076,6.257,3.834,6.075S3.4,5.551,3.515,5.397C3.632,5.244,3.816,5.188,4.057,5.37
		C4.297,5.553,4.504,5.905,4.389,6.06 M6.333,6.075C6.092,6.257,5.894,6.211,5.779,6.06C5.661,5.905,5.868,5.553,6.11,5.37
		c0.241-0.182,0.425-0.126,0.541,0.027S6.573,5.894,6.333,6.075"/>
</g>
</svg>
