<?php
if(!isset($color) || $color=="" || strtolower($color)=="black"){$color="000";}
if(strtolower($color)=="red"){$color="ed1c24";}
if(strtolower($color)=="blue"){$color="1c75bc";}
if(strtolower($color)=="green"){$color="00a651";}
if(strtolower($color)=="white"){$color="fff";}
header('Content-Type: text/xml');
// echo xml tag just in case short_open_tags is enabled in PHP config
echo '<?xml version="1.0" encoding="UTF-8"?>';
?>
<!-- Generator: Adobe Illustrator 15.0.0, SVG Export Plug-In . SVG Version: 6.00 Build 0)  -->
<!DOCTYPE svg PUBLIC "-//W3C//DTD SVG 1.1//EN" "http://www.w3.org/Graphics/SVG/1.1/DTD/svg11.dtd">
<svg version="1.1" id="Layer_1" xmlns="http://www.w3.org/2000/svg" xmlns:xlink="http://www.w3.org/1999/xlink" x="0px" y="0px"
	 width="10.487px" height="10.487px" viewBox="0 0 10.487 10.487" enable-background="new 0 0 10.487 10.487" xml:space="preserve">
<g>
	<path fill="#<?php echo $color; ?>" d="M6.848,5.243c0,0.887-0.72,1.605-1.605,1.605S3.64,6.13,3.64,5.243c0-0.886,0.717-1.604,1.603-1.604
		S6.848,4.357,6.848,5.243"/>
	<path fill="#<?php echo $color; ?>" d="M6.317,1.075c0,0.593-0.481,1.075-1.074,1.075c-0.594,0-1.075-0.481-1.075-1.075C4.168,0.482,4.649,0,5.243,0
		C5.836,0,6.317,0.482,6.317,1.075"/>
	<path fill="#<?php echo $color; ?>" d="M8.951,3.056c-0.419,0.42-1.102,0.42-1.521,0c-0.42-0.42-0.419-1.101,0-1.52c0.42-0.42,1.101-0.42,1.521-0.001
		C9.37,1.955,9.371,2.636,8.951,3.056"/>
	<path fill="#<?php echo $color; ?>" d="M9.412,6.319C8.819,6.317,8.337,5.835,8.337,5.243c0-0.594,0.483-1.074,1.075-1.074c0.593,0,1.075,0.48,1.075,1.074
		C10.487,5.835,10.005,6.317,9.412,6.319"/>
	<path fill="#<?php echo $color; ?>" d="M7.431,8.951c-0.419-0.42-0.419-1.101,0.001-1.521c0.42-0.419,1.1-0.418,1.52,0.001c0.419,0.42,0.421,1.1,0.001,1.519
		C8.531,9.371,7.852,9.37,7.431,8.951"/>
	<path fill="#<?php echo $color; ?>" d="M4.168,9.413C4.169,8.82,4.651,8.338,5.244,8.337c0.593,0.002,1.073,0.484,1.074,1.076
		c-0.001,0.592-0.481,1.076-1.074,1.074C4.65,10.487,4.17,10.005,4.168,9.413"/>
	<path fill="#<?php echo $color; ?>" d="M1.535,7.432c0.42-0.419,1.101-0.419,1.521,0.001c0.418,0.421,0.416,1.099-0.002,1.519c-0.419,0.419-1.1,0.424-1.519,0.001
		C1.116,8.531,1.117,7.852,1.535,7.432"/>
	<path fill="#<?php echo $color; ?>" d="M1.074,4.169C1.667,4.17,2.149,4.651,2.149,5.245C2.146,5.838,1.667,6.317,1.074,6.319C0.482,6.317-0.002,5.838,0,5.245
		C0,4.651,0.482,4.17,1.074,4.169"/>
	<path fill="#<?php echo $color; ?>" d="M3.056,1.536c0.419,0.42,0.419,1.102,0,1.521C2.633,3.474,1.955,3.474,1.535,3.056c-0.418-0.42-0.422-1.102-0.001-1.519
		C1.955,1.117,2.635,1.118,3.056,1.536"/>
</g>
</svg>
