<?php
if(!isset($color) || $color=="" || strtolower($color)=="black"){$color="000";}
if(strtolower($color)=="red"){$color="ed1c24";}
if(strtolower($color)=="blue"){$color="1c75bc";}
if(strtolower($color)=="green"){$color="00a651";}
if(strtolower($color)=="white"){$color="fff";}
header('Content-Type: text/xml');
// echo xml tag just in case short_open_tags is enabled in PHP config
echo '<?xml version="1.0" encoding="UTF-8"?>';
?>
<!-- Generator: Adobe Illustrator 15.0.0, SVG Export Plug-In . SVG Version: 6.00 Build 0)  -->
<!DOCTYPE svg PUBLIC "-//W3C//DTD SVG 1.1//EN" "http://www.w3.org/Graphics/SVG/1.1/DTD/svg11.dtd">
<svg version="1.1" id="Layer_1" xmlns="http://www.w3.org/2000/svg" xmlns:xlink="http://www.w3.org/1999/xlink" x="0px" y="0px"
	 width="11px" height="9.539px" viewBox="0 0 11 9.539" enable-background="new 0 0 11 9.539" xml:space="preserve">
<g>
	<path fill="#<?php echo $color; ?>" d="M4.34,5.276l0.568-0.283C4.906,4.967,4.901,4.942,4.901,4.915c0-0.25,0.152-0.464,0.369-0.553L5.228,3.735
		C3.551,3.597,2.748,2.619,2.748,1.177c0-0.421,0.095-0.82,0.264-1.177C2.67,0.491,2.47,1.088,2.47,1.732
		c0,0.656,0.21,1.263,0.565,1.76c-0.609-0.06-1.239,0.063-1.809,0.391C0.669,4.204,0.253,4.677,0,5.217
		c0.224-0.323,0.521-0.604,0.886-0.815C2.135,3.681,3.379,3.894,4.34,5.276 M6.389,5.749L5.863,5.39
		C5.763,5.468,5.638,5.517,5.501,5.517c-0.138,0-0.262-0.049-0.363-0.127L4.613,5.749C5.33,7.272,4.888,8.446,3.639,9.168
		c-0.364,0.21-0.758,0.328-1.15,0.359c0.596,0.052,1.213-0.072,1.77-0.396c0.569-0.328,0.991-0.813,1.243-1.37
		c0.251,0.558,0.673,1.042,1.243,1.37C7.3,9.455,7.916,9.579,8.513,9.527c-0.394-0.031-0.786-0.149-1.15-0.359
		C6.114,8.446,5.672,7.272,6.389,5.749 M9.773,3.883c-0.567-0.327-1.199-0.45-1.808-0.391c0.355-0.497,0.566-1.104,0.566-1.76
		c0-0.644-0.2-1.241-0.543-1.732c0.169,0.357,0.263,0.756,0.263,1.177c0,1.442-0.801,2.42-2.478,2.559L5.73,4.362
		C5.948,4.451,6.1,4.665,6.1,4.915c0,0.027-0.004,0.052-0.007,0.078l0.57,0.283c0.959-1.383,2.202-1.596,3.451-0.875
		C10.478,4.612,10.777,4.894,11,5.217C10.748,4.677,10.331,4.204,9.773,3.883"/>
	<path fill="#<?php echo $color; ?>" d="M4.628,6.563c-0.655-0.332-1.063-0.992-1.06-1.772l0.008-0.093L3.531,4.667C3.38,4.562,3.213,4.47,3.035,4.393L2.918,4.344
		L2.902,4.469C2.888,4.59,2.876,4.713,2.876,4.838c0,1.088,0.655,2.049,1.668,2.442l0.115,0.047l0.014-0.124
		C4.695,7.021,4.696,6.829,4.68,6.643L4.673,6.589L4.628,6.563z M8.098,4.481L8.08,4.354L7.965,4.407
		c-0.171,0.074-0.338,0.17-0.496,0.285l-0.035,0.1v0.05c0,0.716-0.396,1.368-1.028,1.707L6.36,6.571L6.355,6.622
		C6.337,6.815,6.337,7.006,6.356,7.19L6.37,7.316L6.489,7.27c0.993-0.405,1.635-1.36,1.635-2.432
		C8.124,4.718,8.113,4.599,8.098,4.481 M6.604,3.257l0.049-0.023C6.834,3.149,6.997,3.05,7.141,2.944L7.237,2.87L7.143,2.793
		c-0.47-0.38-1.038-0.58-1.645-0.58c-0.588,0-1.165,0.2-1.625,0.567L3.776,2.856l0.098,0.074C4.016,3.04,4.181,3.138,4.359,3.224
		l0.048,0.023l0.045-0.029c0.313-0.204,0.674-0.311,1.046-0.311c0.378,0,0.746,0.11,1.062,0.319L6.604,3.257z"/>
</g>
</svg>
