<?php
if(!isset($color) || $color=="" || strtolower($color)=="black"){$color="000";}
if(strtolower($color)=="red"){$color="ed1c24";}
if(strtolower($color)=="blue"){$color="1c75bc";}
if(strtolower($color)=="green"){$color="00a651";}
if(strtolower($color)=="white"){$color="fff";}
header('Content-Type: text/xml');
// echo xml tag just in case short_open_tags is enabled in PHP config
echo '<?xml version="1.0" encoding="UTF-8"?>';
?>
<!-- Generator: Adobe Illustrator 15.0.0, SVG Export Plug-In . SVG Version: 6.00 Build 0)  -->
<!DOCTYPE svg PUBLIC "-//W3C//DTD SVG 1.1//EN" "http://www.w3.org/Graphics/SVG/1.1/DTD/svg11.dtd">
<svg version="1.1" id="Layer_1" xmlns="http://www.w3.org/2000/svg" xmlns:xlink="http://www.w3.org/1999/xlink" x="0px" y="0px"
	 width="10.013px" height="10.226px" viewBox="0 0 10.013 10.226" enable-background="new 0 0 10.013 10.226" xml:space="preserve">
<g>
	<path fill="#<?php echo $color; ?>" d="M9.838,4.866C9.79,5.366,9.663,5.86,9.467,6.329C9.506,5.263,9.2,4.216,8.607,3.346c0.257,0.711,0.354,1.482,0.265,2.252
		C8.473,4.511,7.713,3.604,6.731,3.03c0.484,0.482,0.859,1.07,1.113,1.722C6.45,3.601,0,0,0,0s3.503,6.276,4.703,7.788
		C4.021,7.466,3.422,7.009,2.959,6.435c0.472,1.034,1.296,1.885,2.336,2.394C4.52,8.838,3.764,8.663,3.082,8.333
		c0.804,0.68,1.814,1.092,2.88,1.161C5.474,9.643,4.97,9.718,4.467,9.713c0.801,0.212,2.521,1.234,4.337-0.388
		C10.48,7.826,9.967,5.682,9.838,4.866"/>
</g>
</svg>
