<?php
if(!isset($color) || $color=="" || strtolower($color)=="black"){$color="000";}
if(strtolower($color)=="red"){$color="ed1c24";}
if(strtolower($color)=="blue"){$color="1c75bc";}
if(strtolower($color)=="green"){$color="00a651";}
if(strtolower($color)=="white"){$color="fff";}
header('Content-Type: text/xml');
// echo xml tag just in case short_open_tags is enabled in PHP config
echo '<?xml version="1.0" encoding="UTF-8"?>';
?>
<!-- Generator: Adobe Illustrator 15.0.0, SVG Export Plug-In . SVG Version: 6.00 Build 0)  -->
<!DOCTYPE svg PUBLIC "-//W3C//DTD SVG 1.1//EN" "http://www.w3.org/Graphics/SVG/1.1/DTD/svg11.dtd">
<svg version="1.1" id="Layer_1" xmlns="http://www.w3.org/2000/svg" xmlns:xlink="http://www.w3.org/1999/xlink" x="0px" y="0px"
	 width="9.336px" height="9.335px" viewBox="0 0 9.336 9.335" enable-background="new 0 0 9.336 9.335" xml:space="preserve">
<g>
	<g>
		<g>
			<g>
				<path fill="#<?php echo $color; ?>" d="M4.668,0C2.091,0,0,2.09,0,4.669c0,2.578,2.091,4.666,4.668,4.666c2.577,0,4.667-2.088,4.667-4.666
					C9.336,2.09,7.246,0,4.668,0 M8.193,5.044C8.108,4.97,8.086,4.606,8.086,4.606C8.377,4.735,8.193,5.044,8.193,5.044
					 M0.379,4.669C0.384,2.3,2.3,0.384,4.668,0.38c0.683,0.001,1.326,0.166,1.9,0.451C6.459,0.945,6.291,1.117,6.203,1.179
					c0,0-0.098,0.054-0.161,0.118c0,0-0.354,0.428-0.494,0.846c0,0-0.994,0.257-1.669,1.553L3.835,3.759c0,0-0.578,0.012-0.76-0.771
					c0,0-0.16-0.685,0.503-0.878c0,0,0.418-0.086,0.332,0.59c0,0-0.064,0.17-0.172,0.225c0,0,0.579-0.193,0.332-0.729
					c0,0-0.165-0.526-0.717-0.434c-0.01,0-0.022,0.002-0.032,0.006C2.743,1.886,2.55,2.475,2.508,3.17c0,0,0.021,0.567,0.503,0.91
					c0,0-0.953,0.098-0.997,0.857c0,0,0.235-0.429,0.643-0.46c0,0,0.428-0.021,0.536,0.063c0,0,0.193,0.086,0.311,0.032
					c0,0-0.021,0.129-0.096,0.246c0,0-0.943-0.171-1.381,1.338c0,0-0.471,0.109-0.685-0.342c0,0-0.15-0.373,0.311-0.643
					c0,0-0.129-0.258-0.557,0.386c0,0-0.397,0.536,0.707,0.975c0,0,0.07,0.021,0.186,0.042C1.961,6.702,1.941,6.96,2.08,7.315
					c0,0,0.132,0.26-0.133,0.663C0.992,7.192,0.382,6.003,0.379,4.669 M3.097,5.591c-0.171,0.61-0.653,0.547-0.653,0.547
					C2.743,5.667,3.097,5.591,3.097,5.591 M8.462,6.608c0,0-0.269,0.557-0.782-0.066c0,0-0.038,0.56,0.527,0.543
					C7.667,7.873,6.872,8.47,5.941,8.761c0.082-0.123,0.13-0.268,0.13-0.424c0-0.424-0.342-0.767-0.764-0.767
					c-0.421,0-0.764,0.343-0.764,0.767c0,0.252,0.125,0.475,0.313,0.613C4.795,8.952,4.731,8.956,4.668,8.956
					c-0.988-0.002-1.895-0.34-2.619-0.9c0.192-0.153,0.383-0.41,0.277-0.795c0,0-0.084-0.445,0.027-0.66
					c0.327-0.004,0.739-0.09,1.075-0.42c0,0,0.365-0.397,0.418-0.738c0,0,0.729-0.119,0.889-0.354c0,0,0.107,1.103-0.332,1.124
					c0,0-0.397,0.074-0.397-0.289c0,0,0.008-0.15,0.065-0.191C3.963,5.776,3.63,5.969,3.985,6.533c0,0,0.525,0.481,1.178-0.386
					c0,0,0.172-0.46,0.149-0.738c0,0,0.022-0.514,0.15-0.653c0,0,0.407-0.194,0.504-0.226c0,0,0.127,0.365-0.075,0.653
					c0,0-0.172,0.226-0.227,0.129c0,0-0.053-0.183,0.074-0.235c0,0-0.362,0.063-0.159,0.428c0,0,0.321,0.204,0.642-0.332
					c0,0,0.258-0.375,0.246-0.471c0,0,0.086,0.418-0.054,0.664c0,0-0.18,0.729,0.439,0.76c0,0-0.417-0.215-0.246-0.76
					c0,0,0.246-0.61,0.246-0.686c0,0,0.13-0.601-0.096-0.707l0.139-0.182c0,0-0.085,0.342,0.633,0.717c0,0-0.012,0.461,0.385,0.9
					c0,0-0.408,0.577-0.032,0.898c0,0,0.021-0.706,0.214-0.631C8.098,5.677,8.612,6.147,8.462,6.608 M8.677,5.976
					c0,0-0.087-0.299-0.312-0.652c0,0,0.399-0.451,0.272-0.844h0.311C8.95,4.542,8.956,4.604,8.956,4.669
					c0,0.51-0.093,0.996-0.257,1.448C8.692,6.072,8.685,6.026,8.677,5.976 M3.707,7.408c-0.292,0-0.529,0.236-0.529,0.529
					c0,0.292,0.237,0.528,0.529,0.528c0.293,0,0.53-0.236,0.53-0.528C4.236,7.645,4,7.408,3.707,7.408 M4.721,1.638
					c0.216,0,0.391-0.176,0.391-0.393S4.938,0.854,4.721,0.854c-0.216,0-0.393,0.176-0.393,0.392S4.505,1.638,4.721,1.638
					 M5.836,6.168c-0.176,0-0.318,0.142-0.318,0.318c0,0.175,0.142,0.319,0.318,0.319c0.176,0,0.319-0.145,0.319-0.319
					C6.155,6.31,6.012,6.168,5.836,6.168"/>
			</g>
		</g>
	</g>
</g>
</svg>
