<?php
if(!isset($color) || $color=="" || strtolower($color)=="black"){$color="000";}
if(strtolower($color)=="red"){$color="ed1c24";}
if(strtolower($color)=="blue"){$color="1c75bc";}
if(strtolower($color)=="green"){$color="00a651";}
if(strtolower($color)=="white"){$color="fff";}
header('Content-Type: text/xml');
// echo xml tag just in case short_open_tags is enabled in PHP config
echo '<?xml version="1.0" encoding="UTF-8"?>';
?>
<!-- Generator: Adobe Illustrator 15.0.0, SVG Export Plug-In . SVG Version: 6.00 Build 0)  -->
<!DOCTYPE svg PUBLIC "-//W3C//DTD SVG 1.1//EN" "http://www.w3.org/Graphics/SVG/1.1/DTD/svg11.dtd">
<svg version="1.1" id="Layer_1" xmlns="http://www.w3.org/2000/svg" xmlns:xlink="http://www.w3.org/1999/xlink" x="0px" y="0px"
	 width="9.329px" height="9.278px" viewBox="0 0 9.329 9.278" enable-background="new 0 0 9.329 9.278" xml:space="preserve">
<g>
	<path fill="#<?php echo $color; ?>" d="M4.665,0.188c2.468,0,4.476,1.997,4.476,4.451c0,2.455-2.008,4.452-4.476,4.452c-2.469,0-4.477-1.997-4.477-4.452
		C0.188,2.185,2.196,0.188,4.665,0.188 M4.665,0C2.088,0,0,2.077,0,4.639c0,2.563,2.088,4.64,4.665,4.64
		c2.576,0,4.664-2.077,4.664-4.64C9.329,2.077,7.241,0,4.665,0"/>
	<path fill="#<?php echo $color; ?>" d="M4.652,0.366c2.369,0,4.297,1.917,4.297,4.272c0,2.356-1.928,4.273-4.297,4.273S0.356,6.995,0.356,4.639
		C0.356,2.283,2.283,0.366,4.652,0.366 M4.652,0.031c-2.559,0-4.633,2.063-4.633,4.607c0,2.545,2.074,4.608,4.633,4.608
		c2.56,0,4.634-2.063,4.634-4.608C9.286,2.094,7.212,0.031,4.652,0.031"/>
	<path fill="#<?php echo $color; ?>" d="M3.152,0.781L3.152,0.781c0.361,0,0.712,0.074,1.042,0.22c0.204,0.09,0.396,0.207,0.57,0.346
		C4.943,1.49,5.102,1.656,5.237,1.842l0.066,0.091c-0.209-0.05-0.425-0.076-0.646-0.076c-0.414,0-0.814,0.093-1.178,0.268
		c0.066-0.459-0.104-0.941-0.494-1.252C2.952,0.845,2.917,0.819,2.88,0.795C2.971,0.786,3.062,0.781,3.152,0.781 M6.587,0.848
		c0.002,0,0.004,0.001,0.005,0.002C6.436,0.935,6.295,1.05,6.18,1.193C5.96,1.464,5.855,1.801,5.883,2.146
		c-0.051-0.026-0.102-0.05-0.154-0.072l0.058-0.363c0.028-0.183,0.104-0.354,0.221-0.498C6.155,1.029,6.359,0.902,6.587,0.848
		 M0.954,2.607C1.037,2.75,1.146,2.877,1.279,2.983c0.241,0.192,0.544,0.3,0.853,0.3c0.048,0,0.096-0.003,0.143-0.008
		c-0.037,0.068-0.071,0.139-0.102,0.21l-0.388-0.06c-0.184-0.029-0.356-0.105-0.5-0.22C1.11,3.066,0.984,2.875,0.926,2.661
		C0.936,2.643,0.944,2.625,0.954,2.607 M8.42,2.721c0.001,0.001,0.001,0.003,0.002,0.004c0.064,0.47-0.004,0.948-0.198,1.382
		C8.133,4.311,8.016,4.5,7.876,4.674C7.732,4.852,7.564,5.01,7.378,5.144L7.281,5.213C7.332,5.016,7.359,4.809,7.363,4.6
		c0.009-0.426-0.082-0.838-0.262-1.21C7.147,3.395,7.194,3.396,7.24,3.396c0.415,0,0.802-0.185,1.063-0.506
		C8.346,2.836,8.386,2.78,8.42,2.721 M2.037,3.885C1.883,4.492,1.943,5.143,2.222,5.717C2.16,5.709,2.099,5.704,2.037,5.704
		c-0.415,0-0.802,0.185-1.062,0.506c-0.032,0.04-0.063,0.081-0.09,0.124C0.878,6.317,0.869,6.301,0.861,6.283
		c-0.04-0.436,0.032-0.876,0.21-1.275c0.091-0.202,0.208-0.393,0.348-0.566c0.145-0.178,0.312-0.336,0.498-0.47L2.037,3.885
		 M7.137,5.631L7.51,5.689c0.184,0.029,0.356,0.104,0.501,0.22c0.175,0.14,0.301,0.331,0.358,0.546
		c-0.005,0.01-0.01,0.019-0.015,0.027c-0.081-0.137-0.188-0.26-0.315-0.361C7.798,5.928,7.495,5.822,7.187,5.822
		c-0.05,0-0.099,0.002-0.147,0.008C7.074,5.766,7.107,5.699,7.137,5.631 M3.392,6.928c0.059,0.031,0.118,0.06,0.18,0.086L3.51,7.404
		C3.48,7.586,3.404,7.759,3.289,7.902C3.155,8.066,2.974,8.188,2.771,8.25c-0.016-0.008-0.03-0.016-0.045-0.022
		c0.141-0.082,0.267-0.189,0.372-0.319C3.33,7.621,3.425,7.268,3.392,6.928 M5.839,6.971C5.821,7.086,5.818,7.203,5.831,7.322
		c0.04,0.359,0.218,0.684,0.501,0.91c0.032,0.025,0.065,0.05,0.1,0.072C6.42,8.311,6.407,8.316,6.395,8.322
		C6.312,8.33,6.228,8.334,6.144,8.334c-0.361,0-0.712-0.074-1.043-0.221c-0.203-0.09-0.396-0.205-0.569-0.346
		C4.353,7.625,4.193,7.459,4.059,7.273L3.97,7.151c0.222,0.058,0.453,0.087,0.689,0.087C5.073,7.238,5.476,7.146,5.839,6.971
		 M3.152,0.478c-0.142,0-0.283,0.01-0.423,0.031C2.509,0.613,2.295,0.736,2.09,0.879c0.015,0,0.029-0.001,0.044-0.001
		c0.232,0,0.466,0.075,0.661,0.231C3.25,1.473,3.322,2.134,2.956,2.587C2.748,2.845,2.441,2.979,2.132,2.979
		c-0.232,0-0.466-0.076-0.661-0.232C1.188,2.521,1.054,2.18,1.079,1.846C0.893,2.091,0.734,2.352,0.604,2.623
		c0.057,0.313,0.223,0.607,0.489,0.82c0.189,0.151,0.412,0.247,0.645,0.283C1.53,3.875,1.343,4.052,1.182,4.252
		C1.024,4.445,0.894,4.658,0.793,4.885C0.58,5.361,0.508,5.871,0.563,6.363c0.115,0.254,0.254,0.5,0.419,0.733
		C0.973,6.854,1.048,6.605,1.213,6.4c0.209-0.258,0.516-0.393,0.824-0.393c0.232,0,0.467,0.076,0.662,0.232
		C3.154,6.604,3.227,7.266,2.86,7.718C2.651,7.976,2.346,8.109,2.036,8.109c-0.023,0-0.048-0.001-0.072-0.002
		c0.245,0.182,0.504,0.338,0.773,0.465C3.039,8.51,3.32,8.348,3.526,8.092c0.152-0.188,0.248-0.41,0.285-0.641
		C3.961,7.658,4.139,7.844,4.34,8.005C4.534,8.16,4.749,8.291,4.977,8.391c0.377,0.167,0.774,0.247,1.167,0.247
		c0.111,0,0.222-0.007,0.332-0.019c0.244-0.107,0.48-0.238,0.707-0.393c-0.231,0-0.465-0.075-0.659-0.23
		C6.068,7.632,5.996,6.971,6.362,6.518C6.571,6.26,6.877,6.125,7.187,6.125c0.232,0,0.466,0.076,0.661,0.232
		C8.121,6.576,8.255,6.901,8.24,7.225c0.176-0.23,0.326-0.475,0.451-0.729C8.636,6.182,8.47,5.887,8.202,5.672
		C8.013,5.521,7.79,5.426,7.558,5.39C7.765,5.24,7.953,5.063,8.114,4.863C8.271,4.67,8.401,4.457,8.503,4.23
		c0.229-0.514,0.296-1.066,0.215-1.595C8.6,2.387,8.457,2.147,8.29,1.919c0.032,0.27-0.04,0.553-0.226,0.782
		C7.855,2.958,7.549,3.093,7.24,3.093c-0.232,0-0.467-0.076-0.662-0.232C6.124,2.497,6.052,1.835,6.417,1.383
		C6.626,1.125,6.932,0.992,7.24,0.992c0.052,0,0.104,0.004,0.155,0.011C7.154,0.818,6.898,0.66,6.632,0.53
		c-0.329,0.049-0.64,0.217-0.863,0.493c-0.151,0.188-0.248,0.41-0.284,0.641C5.334,1.458,5.156,1.271,4.955,1.11
		C4.761,0.955,4.547,0.824,4.318,0.724C3.942,0.558,3.546,0.478,3.152,0.478 M4.659,6.936c-0.63,0-1.259-0.246-1.73-0.732
		C2.01,5.254,2.039,3.742,2.994,2.828C3.46,2.382,4.06,2.161,4.658,2.161c0.63,0,1.259,0.245,1.729,0.732
		c0.92,0.949,0.891,2.461-0.064,3.375C5.857,6.713,5.258,6.936,4.659,6.936"/>
	<path fill="#<?php echo $color; ?>" d="M6.511,3.723C6.07,2.424,5.629,1.126,4.415,0.537C4.709,1.403,4.543,2.407,3.696,2.9C3.609,2.926,3.527,2.955,3.443,2.982
		l-0.008-0.01C2.37,3.303,1.2,3.742,0.639,4.768c0.764,0.01,1.83,0.165,2.28,0.745C3.36,6.812,3.802,8.11,5.016,8.699
		c-0.294-0.866-0.129-1.87,0.718-2.363C5.82,6.31,5.903,6.281,5.987,6.254l0.008,0.009C7.06,5.934,8.229,5.494,8.792,4.469
		C8.028,4.459,6.962,4.303,6.511,3.723"/>
	<path fill="none" stroke="#<?php echo $color; ?>" stroke-width="0.4809" d="M6.511,3.723C6.07,2.424,5.629,1.126,4.415,0.537
		C4.709,1.403,4.543,2.407,3.696,2.9C3.609,2.926,3.527,2.955,3.443,2.982l-0.008-0.01C2.37,3.303,1.2,3.742,0.639,4.768
		c0.764,0.01,1.83,0.165,2.28,0.745C3.36,6.812,3.802,8.11,5.016,8.699c-0.294-0.866-0.129-1.87,0.718-2.363
		C5.82,6.31,5.903,6.281,5.987,6.254l0.008,0.009C7.06,5.934,8.229,5.494,8.792,4.469C8.028,4.459,6.962,4.303,6.511,3.723z"/>
	<path fill="#FFFFFF" d="M5.092,5.559C5.644,5.424,6.195,5.29,6.438,4.836C6.07,4.926,5.64,4.834,5.423,4.493
		C5.411,4.459,5.398,4.426,5.386,4.393L5.39,4.391C5.24,3.969,5.044,3.504,4.603,3.258c0.001,0.295-0.058,0.703-0.302,0.861
		c-0.552,0.135-1.103,0.27-1.346,0.723c0.368-0.09,0.798,0.002,1.016,0.344c0.012,0.034,0.024,0.066,0.036,0.1L4.003,5.288
		C4.152,5.709,4.349,6.174,4.791,6.42C4.789,6.125,4.848,5.717,5.092,5.559"/>
	<path fill="#FFFFFF" d="M8.255,4.822C7.73,4.783,7.047,4.651,6.61,4.335c0.056,0.196,0.081,0.403,0.065,0.618
		C6.644,5.406,6.442,5.811,6.134,6.117C6.954,5.893,7.783,5.557,8.255,4.822"/>
	<path fill="#FFFFFF" d="M6.211,3.617C5.938,2.622,5.597,1.68,4.71,1.176C4.883,1.837,4.752,2.568,4.223,3
		c0.191-0.043,0.393-0.06,0.599-0.047C5.384,2.989,5.875,3.242,6.211,3.617"/>
	<path fill="#FFFFFF" d="M3.322,6.193c0.261,0.859,0.619,1.641,1.398,2.084C4.575,7.721,4.646,7.115,4.986,6.68
		C4.846,6.7,4.7,6.707,4.552,6.697C4.074,6.667,3.646,6.48,3.322,6.193"/>
	<path fill="#FFFFFF" d="M3.59,3.261C2.68,3.486,1.703,3.81,1.176,4.631c0.481,0.037,1.097,0.15,1.532,0.413
		C2.693,4.932,2.689,4.816,2.697,4.698C2.741,4.091,3.089,3.572,3.59,3.261"/>
	<path fill="#FFFFFF" d="M4.284,3.559c0,0.128-0.11,0.231-0.245,0.231c-0.136,0-0.246-0.104-0.246-0.231
		c0-0.127,0.11-0.23,0.246-0.23C4.174,3.328,4.284,3.432,4.284,3.559"/>
	<path fill="#FFFFFF" d="M6.305,4.145c0,0.127-0.109,0.23-0.245,0.23s-0.246-0.104-0.246-0.23c0-0.128,0.11-0.231,0.246-0.231
		S6.305,4.017,6.305,4.145"/>
	<path fill="#FFFFFF" d="M3.525,5.492c0,0.129-0.109,0.231-0.245,0.231S3.034,5.621,3.034,5.492c0-0.127,0.11-0.23,0.246-0.23
		S3.525,5.365,3.525,5.492"/>
	<path fill="#FFFFFF" d="M5.586,6.107c0,0.127-0.109,0.23-0.245,0.23s-0.246-0.104-0.246-0.23c0-0.128,0.11-0.231,0.246-0.231
		S5.586,5.979,5.586,6.107"/>
	<path fill="#<?php echo $color; ?>" d="M4.652,0.268c2.424,0,4.396,1.961,4.396,4.371c0,2.411-1.973,4.372-4.396,4.372S0.257,7.05,0.257,4.639
		C0.257,2.229,2.229,0.268,4.652,0.268 M4.652,0.031c-2.559,0-4.633,2.063-4.633,4.607c0,2.545,2.074,4.608,4.633,4.608
		c2.56,0,4.634-2.063,4.634-4.608C9.286,2.094,7.212,0.031,4.652,0.031"/>
</g>
</svg>
