<?php
if(!isset($color) || $color=="" || strtolower($color)=="black"){$color="000";}
if(strtolower($color)=="red"){$color="ed1c24";}
if(strtolower($color)=="blue"){$color="1c75bc";}
if(strtolower($color)=="green"){$color="00a651";}
if(strtolower($color)=="white"){$color="fff";}
header('Content-Type: text/xml');
// echo xml tag just in case short_open_tags is enabled in PHP config
echo '<?xml version="1.0" encoding="UTF-8"?>';
?>
<!-- Generator: Adobe Illustrator 15.0.0, SVG Export Plug-In . SVG Version: 6.00 Build 0)  -->
<!DOCTYPE svg PUBLIC "-//W3C//DTD SVG 1.1//EN" "http://www.w3.org/Graphics/SVG/1.1/DTD/svg11.dtd">
<svg version="1.1" id="Layer_1" xmlns="http://www.w3.org/2000/svg" xmlns:xlink="http://www.w3.org/1999/xlink" x="0px" y="0px"
	 width="10.081px" height="9.853px" viewBox="0 0 10.081 9.853" enable-background="new 0 0 10.081 9.853" xml:space="preserve">
<g>
	<path fill="#<?php echo $color; ?>" d="M4.883,8.168c0.062-0.058,0.115-0.123,0.158-0.194l0,0l0,0l0,0l0,0l0,0C5.198,8.239,5.5,8.418,5.848,8.418
		c0.072,0,0.142-0.009,0.209-0.023L5.918,7.589C5.911,7.55,5.907,7.51,5.907,7.47c0-0.575,0.754-1.042,1.685-1.042
		c0.069,0,0.139,0.003,0.206,0.008c0.203,0.016,0.395,0.053,0.568,0.109c0.305,0.098,0.555,0.25,0.715,0.438
		c0.022,0.025,0.043,0.052,0.062,0.078L8.468,5.75c-0.004-0.007-0.007-0.014-0.01-0.019C8.331,5.487,8.246,5.094,8.626,4.98
		c0.295-0.089,0.887,0.128,1.455,0.55L6.55,1.897L6.41,1.752l0.049,0.166L7.493,5.41l0.016,0.052l0.038,0.128
		c0,0.007,0.001,0.014,0.001,0.021c0,0.34-0.444,0.614-0.993,0.614c-0.505,0-0.921-0.233-0.984-0.534L5.3,4.306
		C5.837,4.4,6.306,4.783,6.616,5.334l-1.516-5.13L5.041,0L4.98,0.204l-1.516,5.13c0.311-0.552,0.779-0.934,1.316-1.028L4.511,5.69
		C4.447,5.991,4.031,6.224,3.526,6.224c-0.549,0-0.993-0.274-0.993-0.614c0-0.007,0.001-0.014,0.001-0.021l0.038-0.128L2.588,5.41
		l1.035-3.491l0.048-0.166l-0.14,0.145L0,5.53c0.569-0.422,1.161-0.639,1.455-0.55C1.836,5.094,1.75,5.487,1.623,5.732
		C1.621,5.737,1.617,5.744,1.614,5.75L0.939,7.061C0.958,7.035,0.979,7.008,1,6.983c0.161-0.188,0.411-0.34,0.715-0.438
		c0.174-0.057,0.366-0.094,0.568-0.109C2.351,6.431,2.42,6.428,2.489,6.428c0.931,0,1.686,0.467,1.686,1.042
		c0,0.04-0.004,0.08-0.012,0.119L4.024,8.395c0.067,0.015,0.138,0.023,0.21,0.023C4.487,8.418,4.716,8.323,4.883,8.168"/>
	<path fill="#FFFFFF" d="M8.708,7.185c-0.18,0.5-0.522,0.839-0.917,0.839c-0.296,0-0.563-0.191-0.753-0.497
		C6.975,7.424,6.919,7.31,6.874,7.185c-0.179,0.5-0.522,0.839-0.917,0.839c-0.394,0-0.737-0.339-0.916-0.839
		c-0.18,0.5-0.522,0.839-0.917,0.839c-0.246,0-0.473-0.133-0.652-0.354C3.364,7.538,3.274,7.373,3.207,7.185
		c-0.045,0.125-0.1,0.239-0.163,0.342C2.853,7.833,2.586,8.024,2.29,8.024c-0.395,0-0.737-0.339-0.917-0.839
		c-0.135,0.378-0.364,0.663-0.638,0.78C0.808,8.042,0.883,8.118,0.96,8.19c1.035,0.975,2.493,1.582,4.109,1.582
		S8.144,9.165,9.179,8.19c0.072-0.068,0.142-0.138,0.21-0.209C9.096,7.876,8.851,7.582,8.708,7.185"/>
	<path fill="none" stroke="#<?php echo $color; ?>" stroke-width="0.1634" d="M8.708,7.185c-0.18,0.5-0.522,0.839-0.917,0.839
		c-0.296,0-0.563-0.191-0.753-0.497C6.975,7.424,6.919,7.31,6.874,7.185c-0.179,0.5-0.522,0.839-0.917,0.839
		c-0.394,0-0.737-0.339-0.916-0.839c-0.18,0.5-0.522,0.839-0.917,0.839c-0.246,0-0.473-0.133-0.652-0.354
		C3.364,7.538,3.274,7.373,3.207,7.185c-0.045,0.125-0.1,0.239-0.163,0.342C2.853,7.833,2.586,8.024,2.29,8.024
		c-0.395,0-0.737-0.339-0.917-0.839c-0.135,0.378-0.364,0.663-0.638,0.78C0.808,8.042,0.883,8.118,0.96,8.19
		c1.035,0.975,2.493,1.582,4.109,1.582S8.144,9.165,9.179,8.19c0.072-0.068,0.142-0.138,0.21-0.209
		C9.096,7.876,8.851,7.582,8.708,7.185z"/>
</g>
</svg>
