<?php
if(!isset($color) || $color=="" || strtolower($color)=="black"){$color="000";}
if(strtolower($color)=="red"){$color="ed1c24";}
if(strtolower($color)=="blue"){$color="1c75bc";}
if(strtolower($color)=="green"){$color="00a651";}
if(strtolower($color)=="white"){$color="fff";}
header('Content-Type: text/xml');
// echo xml tag just in case short_open_tags is enabled in PHP config
echo '<?xml version="1.0" encoding="UTF-8"?>';
?>
<!-- Generator: Adobe Illustrator 15.0.0, SVG Export Plug-In . SVG Version: 6.00 Build 0)  -->
<!DOCTYPE svg PUBLIC "-//W3C//DTD SVG 1.1//EN" "http://www.w3.org/Graphics/SVG/1.1/DTD/svg11.dtd">
<svg version="1.1" id="Layer_1" xmlns="http://www.w3.org/2000/svg" xmlns:xlink="http://www.w3.org/1999/xlink" x="0px" y="0px"
	 width="10.08px" height="10.08px" viewBox="0 0 10.08 10.08" enable-background="new 0 0 10.08 10.08" xml:space="preserve">
<g>
	<path fill="#<?php echo $color; ?>" d="M5.04,9.98c-2.725,0-4.94-2.216-4.94-4.94S2.315,0.1,5.04,0.1c2.724,0,4.939,2.216,4.939,4.94
		S7.764,9.98,5.04,9.98"/>
	<path fill="#<?php echo $color; ?>" d="M5.04,0.199c2.669,0,4.841,2.172,4.841,4.841S7.709,9.881,5.04,9.881S0.199,7.709,0.199,5.04S2.371,0.199,5.04,0.199
		 M5.04,0C2.256,0,0,2.257,0,5.04c0,2.784,2.256,5.04,5.04,5.04s5.04-2.256,5.04-5.04C10.08,2.257,7.824,0,5.04,0"/>
	<path fill="#<?php echo $color; ?>" d="M10.08,5.04c0,2.784-2.256,5.04-5.04,5.04S0,7.824,0,5.04S2.256,0,5.04,0S10.08,2.256,10.08,5.04"/>
	<path fill="#<?php echo $color; ?>" d="M9.193,5.107c0-2.288-1.856-4.145-4.146-4.145S0.904,2.819,0.904,5.107c0,2.289,1.854,4.146,4.144,4.146
		S9.193,7.396,9.193,5.107"/>
	<path fill="#FFFFFF" d="M2.472,3.929l0.468-0.811L2.472,2.307H2.009C1.702,2.646,1.45,3.036,1.267,3.464l0.27,0.465H2.472z"/>
	<path fill="#FFFFFF" d="M3.1,3.027h0.937l0.468-0.811L4.036,1.406h-0.85C3.145,1.428,3.103,1.45,3.062,1.473l-0.43,0.744L3.1,3.027
		z"/>
	<path fill="#FFFFFF" d="M4.62,2.121h0.936L6.024,1.31l-0.16-0.278c-0.259-0.051-0.526-0.078-0.8-0.078
		c-0.256,0-0.505,0.024-0.746,0.068L4.152,1.31L4.62,2.121z"/>
	<path fill="#FFFFFF" d="M5.672,2.217L6.14,3.028h0.937l0.469-0.812L7.139,1.514C7.074,1.476,7.008,1.44,6.941,1.406H6.14
		L5.672,2.217z"/>
	<path fill="#FFFFFF" d="M7.236,3.085l0.468,0.811h0.937l0.232-0.402c-0.188-0.454-0.457-0.865-0.786-1.22H7.704L7.236,3.085z"/>
	<path fill="#FFFFFF" d="M1.42,3.985L1.207,3.616C1.066,3.987,0.978,4.384,0.95,4.796h0.002L1.42,3.985z"/>
	<polygon fill="#FFFFFF" points="2.472,4.081 1.536,4.081 1.068,4.892 1.536,5.703 2.472,5.703 2.939,4.892 	"/>
	<path fill="#FFFFFF" d="M0.952,4.966H0.941C0.94,5.003,0.938,5.041,0.938,5.079c0,0.423,0.064,0.83,0.183,1.214L1.42,5.776
		L0.952,4.966z"/>
	<path fill="#FFFFFF" d="M2.94,6.683L2.472,5.872H1.536L1.184,6.48C1.315,6.846,1.497,7.186,1.72,7.493h0.752L2.94,6.683z"/>
	<path fill="#FFFFFF" d="M2.472,7.662H1.849c0.289,0.36,0.639,0.67,1.031,0.915l0.06-0.104L2.472,7.662z"/>
	<polygon fill="#FFFFFF" points="4.036,4.802 4.504,3.991 4.036,3.181 3.101,3.181 2.632,3.991 3.101,4.802 	"/>
	<polygon fill="#FFFFFF" points="5.557,3.896 6.024,3.085 5.557,2.274 4.62,2.274 4.152,3.085 4.62,3.896 	"/>
	<polygon fill="#FFFFFF" points="6.141,4.802 7.076,4.802 7.544,3.991 7.076,3.181 6.141,3.181 5.672,3.991 	"/>
	<polygon fill="#FFFFFF" points="4.036,6.593 4.504,5.782 4.036,4.971 3.101,4.971 2.632,5.782 3.101,6.593 	"/>
	<polygon fill="#FFFFFF" points="4.62,4.064 4.152,4.876 4.62,5.687 5.556,5.687 6.024,4.876 5.556,4.064 	"/>
	<polygon fill="#FFFFFF" points="6.141,4.971 5.672,5.782 6.141,6.593 7.076,6.593 7.544,5.782 7.076,4.971 	"/>
	<polygon fill="#FFFFFF" points="3.1,6.761 2.632,7.572 3.1,8.384 4.036,8.384 4.504,7.572 4.036,6.761 	"/>
	<polygon fill="#FFFFFF" points="5.557,5.854 4.62,5.854 4.152,6.666 4.62,7.477 5.557,7.477 6.024,6.666 	"/>
	<polygon fill="#FFFFFF" points="6.141,6.761 5.672,7.572 6.141,8.384 7.076,8.384 7.544,7.572 7.076,6.761 	"/>
	<polygon fill="#FFFFFF" points="8.641,4.048 7.705,4.048 7.237,4.858 7.705,5.67 8.641,5.67 9.108,4.858 	"/>
	<path fill="#FFFFFF" d="M9.169,4.667C9.134,4.312,9.053,3.97,8.934,3.646L8.757,3.952L9.169,4.667z"/>
	<path fill="#FFFFFF" d="M7.704,5.839L7.236,6.649L7.704,7.46h0.728C8.658,7.141,8.841,6.786,8.97,6.407L8.641,5.839H7.704z"/>
	<path fill="#FFFFFF" d="M9.029,6.216c0.104-0.361,0.16-0.742,0.16-1.137c0-0.027-0.002-0.056-0.002-0.082L8.757,5.743L9.029,6.216z
		"/>
	<path fill="#FFFFFF" d="M7.236,8.439l0.063,0.107c0.384-0.249,0.725-0.56,1.007-0.918H7.704L7.236,8.439z"/>
	<path fill="#FFFFFF" d="M3.1,8.536L3.025,8.665C3.44,8.901,3.9,9.067,4.39,9.149L4.036,8.536H3.1z"/>
	<path fill="#FFFFFF" d="M5.557,7.63H4.62L4.152,8.44l0.424,0.734c0.16,0.019,0.323,0.029,0.488,0.029
		c0.183,0,0.363-0.013,0.54-0.035l0.42-0.729L5.557,7.63z"/>
	<path fill="#FFFFFF" d="M6.141,8.536L5.792,9.139C6.275,9.053,6.729,8.883,7.14,8.644L7.076,8.536H6.141z"/>
	<circle fill="none" stroke="#<?php echo $color; ?>" stroke-width="0.365" cx="5.049" cy="5.107" r="4.145"/>
</g>
<polygon fill="#<?php echo $color; ?>" points="7.905,5.694 7.324,5.539 6.893,5.349 6.618,5.031 6.469,4.95 6.277,4.942 5.93,4.929 5.896,4.869 5.888,4.699 
	5.945,4.633 5.962,4.567 5.945,4.464 5.879,4.375 5.879,4.315 5.896,4.14 5.912,4.036 5.912,3.948 5.888,3.853 5.837,3.683 
	6.111,3.41 6.179,3.263 6.179,2.622 6.262,2.283 6.561,1.406 6.46,1.377 6.369,1.649 6.262,1.907 6.128,2.364 6.054,2.606 
	6.054,3.292 5.904,3.44 5.821,3.572 5.671,3.558 5.771,3.447 5.621,3.336 5.522,3.3 5.764,3.278 5.896,3.233 5.904,3.151 
	5.945,3.071 5.987,2.909 5.945,2.806 5.854,2.703 5.738,2.622 5.605,2.569 5.48,2.533 5.356,2.526 5.248,2.444 5.206,2.379 
	5.605,1.959 5.289,2.224 5.198,2.29 5.131,2.239 5.106,2.327 5.04,2.294 5.04,2.261 5.008,2.276 4.975,2.261 4.975,2.294 
	4.907,2.327 4.883,2.239 4.816,2.29 4.725,2.224 4.409,1.959 4.808,2.379 4.767,2.444 4.658,2.526 4.533,2.533 4.409,2.569 
	4.276,2.622 4.16,2.703 4.068,2.806 4.027,2.909 4.068,3.071 4.11,3.151 4.118,3.233 4.251,3.278 4.492,3.3 4.393,3.336 
	4.243,3.447 4.343,3.558 4.193,3.572 4.11,3.44 3.96,3.292 3.96,2.606 3.887,2.364 3.753,1.907 3.646,1.649 3.555,1.377 
	3.454,1.406 3.753,2.283 3.836,2.622 3.836,3.263 3.902,3.41 4.177,3.683 4.126,3.853 4.103,3.948 4.103,4.036 4.118,4.14 
	4.136,4.315 4.136,4.375 4.068,4.464 4.053,4.567 4.068,4.633 4.126,4.699 4.118,4.869 4.085,4.929 3.736,4.942 3.545,4.95 
	3.396,5.031 3.122,5.349 2.69,5.539 2.109,5.694 1.818,5.724 1.844,5.827 2.184,5.79 2.89,5.562 3.188,5.458 3.529,5.067 
	3.67,5.104 3.812,5.134 3.985,5.164 4.126,5.149 4.126,5.2 4.16,5.312 4.227,5.362 4.16,5.547 4.068,5.76 4.035,5.841 3.919,5.937 
	3.745,6.033 3.62,6.194 3.495,6.394 3.495,6.563 3.495,6.806 3.521,7.108 3.604,7.322 3.578,7.478 3.495,7.875 3.421,8.222 
	3.329,8.457 3.23,8.61 3.305,8.647 3.396,8.538 3.513,8.302 3.703,7.44 3.753,7.3 3.679,7.079 3.604,6.88 3.596,6.578 3.721,6.327 
	3.911,6.217 3.978,6.181 3.96,6.513 4.002,6.806 4.068,6.998 4.219,7.278 4.343,7.483 4.442,7.653 4.583,7.794 4.741,7.882 
	4.842,7.97 4.99,8.007 5.008,8.005 5.023,8.007 5.174,7.97 5.273,7.882 5.431,7.794 5.572,7.653 5.671,7.483 5.796,7.278 
	5.945,6.998 6.013,6.806 6.054,6.513 6.037,6.181 6.104,6.217 6.294,6.327 6.419,6.578 6.41,6.88 6.336,7.079 6.262,7.3 6.312,7.44 
	6.502,8.302 6.618,8.538 6.709,8.647 6.784,8.61 6.685,8.457 6.594,8.222 6.519,7.875 6.436,7.478 6.41,7.322 6.493,7.108 
	6.519,6.806 6.519,6.563 6.519,6.394 6.395,6.194 6.27,6.033 6.096,5.937 5.979,5.841 5.945,5.76 5.854,5.547 5.787,5.362 
	5.854,5.312 5.888,5.2 5.888,5.149 6.028,5.164 6.203,5.134 6.345,5.104 6.485,5.067 6.825,5.458 7.124,5.562 7.83,5.79 
	8.171,5.827 8.196,5.724 "/>
<polygon fill="none" stroke="#<?php echo $color; ?>" stroke-width="0.509" stroke-linecap="round" stroke-linejoin="round" points="7.905,5.694 
	7.324,5.539 6.893,5.349 6.618,5.031 6.469,4.95 6.277,4.942 5.93,4.929 5.896,4.869 5.888,4.699 5.945,4.633 5.962,4.567 
	5.945,4.464 5.879,4.375 5.879,4.315 5.896,4.14 5.912,4.036 5.912,3.948 5.888,3.853 5.837,3.683 6.111,3.41 6.179,3.263 
	6.179,2.622 6.262,2.283 6.561,1.406 6.46,1.377 6.369,1.649 6.262,1.907 6.128,2.364 6.054,2.606 6.054,3.292 5.904,3.44 
	5.821,3.572 5.671,3.558 5.771,3.447 5.621,3.336 5.522,3.3 5.764,3.278 5.896,3.233 5.904,3.151 5.945,3.071 5.987,2.909 
	5.945,2.806 5.854,2.703 5.738,2.622 5.605,2.569 5.48,2.533 5.356,2.526 5.248,2.444 5.206,2.379 5.605,1.959 5.289,2.224 
	5.198,2.29 5.131,2.239 5.106,2.327 5.04,2.294 5.04,2.261 5.008,2.276 4.975,2.261 4.975,2.294 4.907,2.327 4.883,2.239 
	4.816,2.29 4.725,2.224 4.409,1.959 4.808,2.379 4.767,2.444 4.658,2.526 4.533,2.533 4.409,2.569 4.276,2.622 4.16,2.703 
	4.068,2.806 4.027,2.909 4.068,3.071 4.11,3.151 4.118,3.233 4.251,3.278 4.492,3.3 4.393,3.336 4.243,3.447 4.343,3.558 
	4.193,3.572 4.11,3.44 3.96,3.292 3.96,2.606 3.887,2.364 3.753,1.907 3.646,1.649 3.555,1.377 3.454,1.406 3.753,2.283 
	3.836,2.622 3.836,3.263 3.902,3.41 4.177,3.683 4.126,3.853 4.103,3.948 4.103,4.036 4.118,4.14 4.136,4.315 4.136,4.375 
	4.068,4.464 4.053,4.567 4.068,4.633 4.126,4.699 4.118,4.869 4.085,4.929 3.736,4.942 3.545,4.95 3.396,5.031 3.122,5.349 
	2.69,5.539 2.109,5.694 1.818,5.724 1.844,5.827 2.184,5.79 2.89,5.562 3.188,5.458 3.529,5.067 3.67,5.104 3.812,5.134 
	3.985,5.164 4.126,5.149 4.126,5.2 4.16,5.312 4.227,5.362 4.16,5.547 4.068,5.76 4.035,5.841 3.919,5.937 3.745,6.033 3.62,6.194 
	3.495,6.394 3.495,6.563 3.495,6.806 3.521,7.108 3.604,7.322 3.578,7.478 3.495,7.875 3.421,8.222 3.329,8.457 3.23,8.61 
	3.305,8.647 3.396,8.538 3.513,8.302 3.703,7.44 3.753,7.3 3.679,7.079 3.604,6.88 3.596,6.578 3.721,6.327 3.911,6.217 
	3.978,6.181 3.96,6.513 4.002,6.806 4.068,6.998 4.219,7.278 4.343,7.483 4.442,7.653 4.583,7.794 4.741,7.882 4.842,7.97 
	4.99,8.007 5.008,8.005 5.023,8.007 5.174,7.97 5.273,7.882 5.431,7.794 5.572,7.653 5.671,7.483 5.796,7.278 5.945,6.998 
	6.013,6.806 6.054,6.513 6.037,6.181 6.104,6.217 6.294,6.327 6.419,6.578 6.41,6.88 6.336,7.079 6.262,7.3 6.312,7.44 6.502,8.302 
	6.618,8.538 6.709,8.647 6.784,8.61 6.685,8.457 6.594,8.222 6.519,7.875 6.436,7.478 6.41,7.322 6.493,7.108 6.519,6.806 
	6.519,6.563 6.519,6.394 6.395,6.194 6.27,6.033 6.096,5.937 5.979,5.841 5.945,5.76 5.854,5.547 5.787,5.362 5.854,5.312 
	5.888,5.2 5.888,5.149 6.028,5.164 6.203,5.134 6.345,5.104 6.485,5.067 6.825,5.458 7.124,5.562 7.83,5.79 8.171,5.827 
	8.196,5.724 "/>
<polygon fill="#FFFFFF" points="7.905,5.694 7.324,5.539 6.893,5.349 6.618,5.031 6.469,4.95 6.277,4.942 5.93,4.929 5.896,4.869 
	5.888,4.699 5.945,4.633 5.962,4.567 5.945,4.464 5.879,4.375 5.879,4.315 5.896,4.14 5.912,4.036 5.912,3.948 5.888,3.853 
	5.837,3.683 6.111,3.41 6.179,3.263 6.179,2.622 6.262,2.283 6.561,1.406 6.46,1.377 6.369,1.649 6.262,1.907 6.128,2.364 
	6.054,2.606 6.054,3.292 5.904,3.44 5.821,3.572 5.671,3.558 5.771,3.447 5.621,3.336 5.522,3.3 5.764,3.278 5.896,3.233 
	5.904,3.151 5.945,3.071 5.987,2.909 5.945,2.806 5.854,2.703 5.738,2.622 5.605,2.569 5.48,2.533 5.356,2.526 5.248,2.444 
	5.206,2.379 5.605,1.959 5.289,2.224 5.198,2.29 5.131,2.239 5.106,2.327 5.04,2.294 5.04,2.261 5.008,2.276 4.975,2.261 
	4.975,2.294 4.907,2.327 4.883,2.239 4.816,2.29 4.725,2.224 4.409,1.959 4.808,2.379 4.767,2.444 4.658,2.526 4.533,2.533 
	4.409,2.569 4.276,2.622 4.16,2.703 4.068,2.806 4.027,2.909 4.068,3.071 4.11,3.151 4.118,3.233 4.251,3.278 4.492,3.3 
	4.393,3.336 4.243,3.447 4.343,3.558 4.193,3.572 4.11,3.44 3.96,3.292 3.96,2.606 3.887,2.364 3.753,1.907 3.646,1.649 
	3.555,1.377 3.454,1.406 3.753,2.283 3.836,2.622 3.836,3.263 3.902,3.41 4.177,3.683 4.126,3.853 4.103,3.948 4.103,4.036 
	4.118,4.14 4.136,4.315 4.136,4.375 4.068,4.464 4.053,4.567 4.068,4.633 4.126,4.699 4.118,4.869 4.085,4.929 3.736,4.942 
	3.545,4.95 3.396,5.031 3.122,5.349 2.69,5.539 2.109,5.694 1.818,5.724 1.844,5.827 2.184,5.79 2.89,5.562 3.188,5.458 
	3.529,5.067 3.67,5.104 3.812,5.134 3.985,5.164 4.126,5.149 4.126,5.2 4.16,5.312 4.227,5.362 4.16,5.547 4.068,5.76 4.035,5.841 
	3.919,5.937 3.745,6.033 3.62,6.194 3.495,6.394 3.495,6.563 3.495,6.806 3.521,7.108 3.604,7.322 3.578,7.478 3.495,7.875 
	3.421,8.222 3.329,8.457 3.23,8.61 3.305,8.647 3.396,8.538 3.513,8.302 3.703,7.44 3.753,7.3 3.679,7.079 3.604,6.88 3.596,6.578 
	3.721,6.327 3.911,6.217 3.978,6.181 3.96,6.513 4.002,6.806 4.068,6.998 4.219,7.278 4.343,7.483 4.442,7.653 4.583,7.794 
	4.741,7.882 4.842,7.97 4.99,8.007 5.008,8.005 5.023,8.007 5.174,7.97 5.273,7.882 5.431,7.794 5.572,7.653 5.671,7.483 
	5.796,7.278 5.945,6.998 6.013,6.806 6.054,6.513 6.037,6.181 6.104,6.217 6.294,6.327 6.419,6.578 6.41,6.88 6.336,7.079 
	6.262,7.3 6.312,7.44 6.502,8.302 6.618,8.538 6.709,8.647 6.784,8.61 6.685,8.457 6.594,8.222 6.519,7.875 6.436,7.478 6.41,7.322 
	6.493,7.108 6.519,6.806 6.519,6.563 6.519,6.394 6.395,6.194 6.27,6.033 6.096,5.937 5.979,5.841 5.945,5.76 5.854,5.547 
	5.787,5.362 5.854,5.312 5.888,5.2 5.888,5.149 6.028,5.164 6.203,5.134 6.345,5.104 6.485,5.067 6.825,5.458 7.124,5.562 
	7.83,5.79 8.171,5.827 8.196,5.724 "/>
<polygon fill="#<?php echo $color; ?>" points="4.572,3.392 4.384,3.521 4.326,3.676 4.343,3.837 4.401,3.911 4.442,3.978 4.567,4.008 4.692,3.971 4.816,3.954 
	4.965,3.954 4.965,3.388 4.841,3.403 4.609,3.366 "/>
<g>
	<path fill="#<?php echo $color; ?>" d="M4.667,5.245c0,0,0.042,0.073,0.05,0.096c0.008,0.021,0.016,0.059,0.016,0.08c0,0.022,0.067,0.125,0.067,0.125l0.231,0.109
		L5.01,5.062L4.667,5.087V5.245z"/>
	<path fill="#<?php echo $color; ?>" d="M4.426,7.101l0.224,0.045L4.8,7.183l0.182,0.014V6.563L4.833,6.571L4.642,6.549L4.434,6.504c0,0-0.008-0.028-0.058-0.036
		S4.234,6.453,4.234,6.453L4.127,6.476L4.094,6.608l0.108,0.228L4.4,7.042L4.426,7.101z"/>
	<polygon fill="#<?php echo $color; ?>" points="4.293,6.283 4.467,6.313 4.609,6.408 4.741,6.445 4.966,6.417 4.974,5.673 4.874,5.701 4.717,5.687 4.675,5.649 
		4.609,5.568 4.492,5.539 4.434,5.546 4.376,5.613 4.235,5.849 4.168,6.033 4.094,6.085 4.085,6.15 4.094,6.343 	"/>
	<path fill="#<?php echo $color; ?>" d="M4.186,3.182C4.21,3.175,4.326,3.175,4.326,3.175L4.55,3.212l0.092,0.014l0.041-0.109c0,0-0.008-0.207,0-0.244
		c0.01-0.036-0.008-0.295-0.008-0.295L4.459,2.629c0,0-0.316,0.133-0.349,0.288l0.092,0.199C4.202,3.116,4.16,3.188,4.186,3.182"/>
	<path fill="#<?php echo $color; ?>" d="M4.874,2.726l0.143-0.008l0.132,0.008L5.106,2.629c0,0-0.025-0.147,0.017-0.177s-0.05-0.066-0.05-0.066L5.018,2.33V2.327
		L5.017,2.328L5.016,2.327v0.002L4.949,2.386c0,0-0.092,0.037-0.05,0.066C4.94,2.481,4.916,2.629,4.916,2.629L4.874,2.726z"/>
	<polygon fill="#<?php echo $color; ?>" points="4.916,3.115 5.01,3.115 5.013,3.115 5.106,3.115 5.182,3.05 5.189,2.976 5.157,2.901 5.013,2.794 5.013,2.792 
		5.011,2.792 5.01,2.792 5.01,2.794 4.866,2.901 4.833,2.976 4.841,3.05 	"/>
	<polygon fill="#<?php echo $color; ?>" points="5.639,3.521 5.451,3.392 5.414,3.366 5.182,3.403 5.058,3.388 5.058,3.956 5.206,3.956 5.331,3.97 5.455,4.007 
		5.58,3.978 5.621,3.911 5.681,3.837 5.696,3.676 	"/>
	<polygon fill="#<?php echo $color; ?>" points="5.422,4.994 5.522,4.892 5.646,4.751 5.688,4.545 5.671,4.294 5.646,4.185 5.422,4.095 5.189,4.044 5.011,4.08 
		4.832,4.044 4.601,4.095 4.376,4.185 4.352,4.294 4.334,4.545 4.376,4.751 4.5,4.892 4.601,4.994 4.625,5.09 4.85,5.097 
		5.013,5.076 5.013,5.077 5.174,5.097 5.397,5.09 	"/>
	<path fill="#<?php echo $color; ?>" d="M5.026,5.651l0.197-0.105c0,0,0.065-0.103,0.065-0.125c0-0.021,0.009-0.059,0.018-0.08
		c0.008-0.022,0.049-0.096,0.049-0.096V5.087l-0.35-0.025L5.026,5.651z"/>
	<polygon fill="#<?php echo $color; ?>" points="5.012,7.308 4.708,7.3 4.376,7.183 4.393,7.345 4.468,7.499 4.642,7.705 5.008,7.863 5.008,7.867 5.012,7.865 
		5.016,7.867 5.016,7.863 5.38,7.705 5.556,7.499 5.63,7.345 5.646,7.183 5.314,7.3 	"/>
	<path fill="#<?php echo $color; ?>" d="M5.788,6.452c0,0-0.091,0.008-0.142,0.016c-0.05,0.007-0.058,0.037-0.058,0.037L5.381,6.549L5.189,6.571L5.041,6.563v0.633
		l0.182-0.015l0.15-0.036l0.224-0.045l0.025-0.059L5.82,6.836l0.108-0.228L5.896,6.475L5.788,6.452z"/>
	<polygon fill="#<?php echo $color; ?>" points="5.929,6.085 5.854,6.032 5.788,5.849 5.646,5.613 5.589,5.546 5.531,5.539 5.414,5.568 5.348,5.649 5.306,5.687 
		5.148,5.701 5.049,5.671 5.057,6.417 5.281,6.445 5.414,6.408 5.555,6.313 5.729,6.283 5.929,6.343 5.937,6.15 	"/>
	<path fill="#<?php echo $color; ?>" d="M5.339,3.115l0.042,0.111l0.092-0.015l0.224-0.037c0,0,0.116,0,0.141,0.007c0.025,0.008-0.016-0.066-0.016-0.066
		l0.091-0.198C5.879,2.761,5.563,2.63,5.563,2.63L5.348,2.577c0,0-0.017,0.258-0.009,0.295C5.348,2.909,5.339,3.115,5.339,3.115"/>
	<path fill="#<?php echo $color; ?>" d="M4.923,5.74L4.842,5.659L4.71,5.542l-0.08-0.08l-0.009-0.06L4.674,5.3L4.453,4.97c0,0-0.08-0.096-0.08-0.117
		c0-0.022-0.081-0.184-0.081-0.184L4.027,4.948L3.528,5.747l-0.132,0.26L3.375,6.033l0.012-0.007L3.33,6.136L3.214,6.335
		L3.161,6.429L3.06,6.62L2.876,6.929L2.752,7.324L2.686,7.546L2.69,7.777c-0.002,0.005-0.004,0.008-0.005,0.01l0.006,0.019
		l0.001,0.048l0.037,0.183l0.06,0.065L2.803,8.14l0.006-0.019L2.84,8.153c0,0,0.183,0.088,0.205,0.074
		c0.021-0.016,0.183-0.074,0.183-0.074l0.22-0.102c0,0,0.104-0.06,0.133-0.082c0.029-0.021,0.315-0.271,0.315-0.271
		s0.228-0.213,0.257-0.228c0.029-0.014,0.234-0.19,0.234-0.19l0.25-0.301c0,0,0.103-0.125,0.125-0.147
		c0.021-0.021,0.183-0.382,0.183-0.382l0.044-0.183l0.016-0.221l-0.03-0.213L4.923,5.74z"/>
	<path fill="none" stroke="#<?php echo $color; ?>" stroke-width="0.278" stroke-linecap="round" stroke-linejoin="round" d="M4.923,5.74
		L4.842,5.659L4.71,5.542l-0.08-0.08l-0.009-0.06L4.674,5.3L4.453,4.97c0,0-0.08-0.096-0.08-0.117c0-0.022-0.081-0.184-0.081-0.184
		L4.027,4.948L3.528,5.747l-0.132,0.26L3.375,6.033l0.012-0.007L3.33,6.136L3.214,6.335L3.161,6.429L3.06,6.62L2.876,6.929
		L2.752,7.324L2.686,7.546L2.69,7.777c-0.002,0.005-0.004,0.008-0.005,0.01l0.006,0.019l0.001,0.048l0.037,0.183l0.06,0.065
		L2.803,8.14l0.006-0.019L2.84,8.153c0,0,0.183,0.088,0.205,0.074c0.021-0.016,0.183-0.074,0.183-0.074l0.22-0.102
		c0,0,0.104-0.06,0.133-0.082c0.029-0.021,0.315-0.271,0.315-0.271s0.228-0.213,0.257-0.228c0.029-0.014,0.234-0.19,0.234-0.19
		l0.25-0.301c0,0,0.103-0.125,0.125-0.147c0.021-0.021,0.183-0.382,0.183-0.382l0.044-0.183l0.016-0.221l-0.03-0.213L4.923,5.74z"/>
	<path fill="#<?php echo $color; ?>" d="M7.363,7.777l0.005-0.231L7.303,7.324L7.179,6.929L6.994,6.62L6.893,6.429L6.841,6.335L6.724,6.136L6.667,6.026L6.68,6.033
		L6.656,6.007l-0.131-0.26L6.026,4.948L5.763,4.669c0,0-0.081,0.161-0.081,0.184c0,0.021-0.081,0.117-0.081,0.117L5.381,5.3
		l0.052,0.103l-0.008,0.06l-0.08,0.08L5.212,5.659L5.131,5.74L5.08,5.835L5.051,6.048l0.015,0.221l0.044,0.183
		c0,0,0.161,0.36,0.183,0.382C5.314,6.855,5.417,6.98,5.417,6.98l0.249,0.3c0,0,0.206,0.176,0.235,0.191
		c0.03,0.015,0.257,0.228,0.257,0.228S6.444,7.948,6.474,7.97c0.029,0.022,0.133,0.082,0.133,0.082l0.22,0.102
		c0,0,0.161,0.059,0.184,0.074c0.021,0.014,0.205-0.074,0.205-0.074l0.03-0.032L7.251,8.14l0.014-0.039l0.06-0.064l0.037-0.183
		l0.001-0.048l0.006-0.019C7.367,7.785,7.365,7.782,7.363,7.777"/>
	<path fill="none" stroke="#<?php echo $color; ?>" stroke-width="0.278" stroke-linecap="round" stroke-linejoin="round" d="M7.363,7.777
		l0.005-0.231L7.303,7.324L7.179,6.929L6.994,6.62L6.893,6.429L6.841,6.335L6.724,6.136L6.667,6.026L6.68,6.033L6.656,6.007
		l-0.131-0.26L6.026,4.948L5.763,4.669c0,0-0.081,0.161-0.081,0.184c0,0.021-0.081,0.117-0.081,0.117L5.381,5.3l0.052,0.103
		l-0.008,0.06l-0.08,0.08L5.212,5.659L5.131,5.74L5.08,5.835L5.051,6.048l0.015,0.221l0.044,0.183c0,0,0.161,0.36,0.183,0.382
		C5.314,6.855,5.417,6.98,5.417,6.98l0.249,0.3c0,0,0.206,0.176,0.235,0.191c0.03,0.015,0.257,0.228,0.257,0.228
		S6.444,7.948,6.474,7.97c0.029,0.022,0.133,0.082,0.133,0.082l0.22,0.102c0,0,0.161,0.059,0.184,0.074
		c0.021,0.014,0.205-0.074,0.205-0.074l0.03-0.032L7.251,8.14l0.014-0.039l0.06-0.064l0.037-0.183l0.001-0.048l0.006-0.019
		C7.367,7.785,7.365,7.782,7.363,7.777z"/>
	<polyline fill="none" stroke="#<?php echo $color; ?>" stroke-width="0.063" points="3.396,5.991 3.555,5.896 3.842,5.678 3.963,5.401 
		4.145,5.079 4.394,4.772 	"/>
	<path fill="none" stroke="#<?php echo $color; ?>" stroke-width="0.063" d="M3.177,6.396c0,0,0.166-0.03,0.188-0.045
		c0.023-0.016,0.25-0.239,0.266-0.262c0.015-0.022,0.181-0.291,0.204-0.313c0.022-0.022,0.241-0.284,0.241-0.284l0.129-0.21
		L4.47,4.886"/>
	<path fill="none" stroke="#<?php echo $color; ?>" stroke-width="0.063" d="M2.686,7.778c0.022-0.029,0.265-0.59,0.265-0.59L3.177,6.71
		c0,0,0.227-0.248,0.249-0.263c0.023-0.015,0.189-0.231,0.212-0.254S3.94,5.827,3.94,5.827l0.144-0.246l0.068-0.203L4.046,5.819
		L3.819,6.29L3.615,6.619L3.435,6.874L3.229,7.21L2.987,7.658L2.807,8.138"/>
	<polyline fill="none" stroke="#<?php echo $color; ?>" stroke-width="0.063" points="3.056,8.228 3.631,7.218 3.646,7.054 3.758,6.715 3.895,6.47 
		3.949,6.258 4.137,5.729 4.228,5.431 4.553,4.997 	"/>
	<line fill="none" stroke="#<?php echo $color; ?>" stroke-width="0.063" x1="3.623" y1="6.59" x2="3.789" y2="6.665"/>
	<polyline fill="none" stroke="#<?php echo $color; ?>" stroke-width="0.063" points="3.63,7.218 3.857,7.157 3.985,7.255 4.046,7.293 4.106,7.517 
		4.038,6.956 4.076,6.665 4.152,6.366 4.318,5.94 4.387,5.596 4.447,5.379 4.674,5.161 	"/>
	<polyline fill="none" stroke="#<?php echo $color; ?>" stroke-width="0.063" points="4.682,5.349 4.516,5.813 4.478,6.126 4.462,6.396 4.439,6.68 
		4.349,6.829 4.288,7.121 4.25,7.39 	"/>
	<polyline fill="none" stroke="#<?php echo $color; ?>" stroke-width="0.063" points="4.439,6.68 4.605,6.716 4.772,6.657 4.848,6.725 	"/>
	<polyline fill="none" stroke="#<?php echo $color; ?>" stroke-width="0.063" points="4.772,6.657 4.739,6.47 4.734,6.029 4.811,5.73 4.84,5.573 	
		"/>
	<polyline fill="none" stroke="#<?php echo $color; ?>" stroke-width="0.063" points="6.669,6.013 6.513,5.917 6.229,5.702 6.11,5.428 5.932,5.109 
		5.686,4.806 	"/>
	<path fill="none" stroke="#<?php echo $color; ?>" stroke-width="0.063" d="M6.885,6.413c0,0-0.164-0.03-0.187-0.045s-0.246-0.236-0.261-0.26
		C6.423,6.087,6.259,5.821,6.236,5.798C6.215,5.776,5.998,5.517,5.998,5.517L5.871,5.31L5.61,4.917"/>
	<path fill="none" stroke="#<?php echo $color; ?>" stroke-width="0.063" d="M7.369,7.782C7.347,7.753,7.107,7.198,7.107,7.198L6.885,6.724
		c0,0-0.224-0.244-0.246-0.259C6.617,6.45,6.453,6.234,6.43,6.212C6.408,6.19,6.132,5.85,6.132,5.85L5.991,5.605l-0.067-0.2
		l0.104,0.438l0.225,0.466l0.201,0.326l0.179,0.252L6.833,7.22L7.07,7.665l0.18,0.474"/>
	<polyline fill="none" stroke="#<?php echo $color; ?>" stroke-width="0.063" points="7.004,8.228 6.438,7.228 6.423,7.063 6.312,6.729 
		6.177,6.487 6.123,6.276 5.938,5.753 5.849,5.457 5.528,5.028 	"/>
	<line fill="none" stroke="#<?php echo $color; ?>" stroke-width="0.063" x1="6.445" y1="6.604" x2="6.281" y2="6.679"/>
	<polyline fill="none" stroke="#<?php echo $color; ?>" stroke-width="0.063" points="6.438,7.228 6.215,7.168 6.088,7.265 6.027,7.302 
		5.969,7.523 6.035,6.968 5.998,6.679 5.924,6.384 5.76,5.962 5.692,5.62 5.633,5.405 5.409,5.19 	"/>
	<polyline fill="none" stroke="#<?php echo $color; ?>" stroke-width="0.063" points="5.402,5.376 5.566,5.835 5.604,6.146 5.618,6.413 
		5.641,6.694 5.73,6.842 5.789,7.131 5.827,7.397 	"/>
	<polyline fill="none" stroke="#<?php echo $color; ?>" stroke-width="0.063" points="5.641,6.694 5.477,6.731 5.313,6.672 5.238,6.739 	"/>
	<polyline fill="none" stroke="#<?php echo $color; ?>" stroke-width="0.063" points="5.313,6.672 5.345,6.485 5.35,6.05 5.275,5.754 5.246,5.599 	
		"/>
	<path fill="#FFFFFF" d="M5.762,4.669l0.265,0.279l0.499,0.799l0.198,0.389L6.84,6.334L6.994,6.62l0.184,0.309l0.125,0.396
		l0.066,0.221L7.361,7.853L7.325,8.036L7.214,8.153c0,0-0.183,0.089-0.205,0.074C6.987,8.212,6.826,8.153,6.826,8.153l-0.22-0.102
		c0,0-0.104-0.06-0.132-0.082c-0.03-0.021-0.316-0.271-0.316-0.271S5.932,7.486,5.901,7.472c-0.029-0.015-0.234-0.19-0.234-0.19
		l-0.25-0.302c0,0-0.102-0.125-0.124-0.146C5.271,6.812,5.109,6.452,5.109,6.452L5.065,6.269L5.05,6.048l0.03-0.213L5.131,5.74
		l0.081-0.081l0.132-0.117l0.081-0.08l0.008-0.059L5.38,5.3l0.222-0.33c0,0,0.08-0.096,0.08-0.117
		C5.682,4.83,5.762,4.669,5.762,4.669"/>
	<path fill="#FFFFFF" d="M4.292,4.669L4.027,4.948L3.528,5.747L3.331,6.136L3.214,6.334L3.06,6.62L2.876,6.929L2.752,7.325
		L2.685,7.546l0.008,0.307l0.036,0.184L2.84,8.153c0,0,0.183,0.089,0.205,0.074c0.021-0.016,0.183-0.074,0.183-0.074l0.22-0.102
		c0,0,0.104-0.06,0.133-0.082c0.029-0.021,0.315-0.271,0.315-0.271s0.228-0.213,0.257-0.228s0.234-0.19,0.234-0.19l0.25-0.302
		c0,0,0.103-0.125,0.124-0.146s0.184-0.381,0.184-0.381l0.044-0.184l0.016-0.221l-0.03-0.213L4.923,5.74L4.842,5.659L4.71,5.542
		l-0.081-0.08L4.622,5.403L4.673,5.3l-0.22-0.33c0,0-0.08-0.096-0.08-0.117C4.373,4.83,4.292,4.669,4.292,4.669"/>
</g>
</svg>
