<?php
if(!isset($color) || $color=="" || strtolower($color)=="black"){$color="000";}
if(strtolower($color)=="red"){$color="ed1c24";}
if(strtolower($color)=="blue"){$color="1c75bc";}
if(strtolower($color)=="green"){$color="00a651";}
if(strtolower($color)=="white"){$color="fff";}
header('Content-Type: text/xml');
// echo xml tag just in case short_open_tags is enabled in PHP config
echo '<?xml version="1.0" encoding="UTF-8"?>';
?>
<!-- Generator: Adobe Illustrator 15.0.0, SVG Export Plug-In . SVG Version: 6.00 Build 0)  -->
<!DOCTYPE svg PUBLIC "-//W3C//DTD SVG 1.1//EN" "http://www.w3.org/Graphics/SVG/1.1/DTD/svg11.dtd">
<svg version="1.1" id="Layer_1" xmlns="http://www.w3.org/2000/svg" xmlns:xlink="http://www.w3.org/1999/xlink" x="0px" y="0px"
	 width="10.08px" height="10.08px" viewBox="0 0 10.08 10.08" enable-background="new 0 0 10.08 10.08" xml:space="preserve">
<g>
	<path fill="#<?php echo $color; ?>" d="M10.08,5.04c0,2.784-2.256,5.04-5.04,5.04S0,7.824,0,5.04S2.256,0,5.04,0S10.08,2.256,10.08,5.04"/>
	<path fill="#FFFFFF" d="M4.781,8.552c0,0-0.188-0.625-0.05-1.049c0,0,0.262,0.637,0.361,0.674C5.093,8.177,5.205,8.563,4.781,8.552
		"/>
	<polyline fill="#FFFFFF" points="5.343,8.364 5.218,8.539 5.242,8.726 5.367,8.788 5.505,8.776 5.567,8.763 5.642,8.813 
		5.729,8.863 5.903,8.838 5.991,8.875 6.092,8.851 6.153,8.925 6.278,8.925 6.353,8.875 6.478,8.713 6.291,8.688 6.179,8.713 
		6.179,8.64 6.078,8.589 5.979,8.601 5.917,8.651 5.866,8.576 5.741,8.526 5.567,8.576 5.518,8.651 5.518,8.526 5.454,8.427 
		5.393,8.401 	"/>
	<path fill="#FFFFFF" d="M6.615,8.501c0.075,0,0.2-0.025,0.236-0.037c0.037-0.013,0.176-0.088,0.176-0.088l0.312-0.137L7.214,8.464
		L7.039,8.638L6.877,8.813l-0.15,0.062L6.628,8.9L6.615,8.813L6.64,8.677L6.615,8.501z"/>
	<path fill="#FFFFFF" d="M5.192,4.459L5.105,4.646l0.087,0.138l0.101,0.013l0.125-0.037V4.597h0.062l0.013-0.051v-0.05l0.063-0.037
		l0.063-0.075V4.31c0,0,0-0.075-0.013-0.112S5.58,4.022,5.58,4.022L5.479,4.147L5.404,4.259L5.393,4.384L5.354,4.347L5.293,4.372
		l-0.088,0.05"/>
	<polygon fill="#FFFFFF" points="5.741,3.761 5.705,4.022 5.729,4.646 5.979,4.435 6.078,4.272 6.129,4.011 6.179,3.724 
		6.179,3.561 	"/>
	<path fill="#FFFFFF" d="M6.266,3.61l0.15-0.037L6.49,3.772l0.124,0.014l0.088-0.038L6.79,3.573L6.84,3.61l0.111,0.088
		c0,0,0.101,0.037,0.138,0.037c0.038,0,0.2-0.05,0.2-0.05l0.05-0.149L7.4,3.735l0.101,0.025l0.162,0.012l0.199-0.074l-0.05,0.149
		v0.087l0.075,0.113l0.087-0.025L8.137,3.86L8.074,3.673L7.763,3.448L7.313,3.299L7.026,3.286l-0.299,0.05L6.466,3.461l-0.2,0.112"
		/>
	<polygon fill="#FFFFFF" points="7.925,4.173 7.95,4.409 8,4.609 8.025,4.884 8,5.095 8.212,4.933 8.299,4.733 8.349,4.484 
		8.349,4.222 8.287,3.972 8.175,3.985 8.037,4.11 	"/>
	<path fill="#FFFFFF" d="M6.765,5.271l0.137-0.063l0.263,0.037l0.111-0.037c0,0,0.063-0.038,0.063-0.075V5.095l0.075-0.062l0.1-0.05
		V4.908l0.112-0.013l0.05-0.074l0.062-0.1h0.176l-0.101-0.25L7.65,4.446L7.612,4.521l0.075,0.088L7.476,4.56L7.351,4.571
		L7.238,4.696l0.101,0.05L7.177,4.758L7.04,4.858L6.765,5.271z"/>
	<path fill="#FFFFFF" d="M4.544,6.019l0.137,0.275c0,0,0.025,0.187,0.025,0.224c0,0.038-0.025,0.362-0.025,0.362v0.248l0.112,0.226
		l0.213,0.349l0.112,0.213c0,0,0.273,0.262,0.312,0.274c0.037,0.013,0.162,0.05,0.162,0.05l0.125-0.175c0,0-0.024,0.087-0.024,0.125
		c0,0.037,0.024,0.087,0.087,0.087s0.05,0.025,0.175,0.014c0.125-0.014,0.212-0.039,0.249-0.075c0.038-0.038,0.25-0.2,0.25-0.2
		s0.024-0.299,0.012-0.362C6.453,7.591,6.403,7.378,6.403,7.378s0.012-0.174,0.037-0.25C6.465,7.055,6.528,6.93,6.528,6.755
		c0-0.176,0.012-0.313,0-0.362c-0.014-0.05,0.037-0.024-0.075-0.187S6.415,6.068,6.341,6.044C6.266,6.019,6.104,5.919,6.104,5.919
		L6.079,6.144l0.062,0.212c0,0,0.051,0.224,0.037,0.263C6.166,6.655,6.166,6.842,6.129,6.866c-0.038,0.025-0.1,0.213-0.1,0.213
		L5.941,7.241c0,0-0.025,0.112-0.037,0.149C5.891,7.429,5.866,7.553,5.866,7.553L5.829,7.454c0,0,0-0.263,0.037-0.326
		c0.038-0.062,0.113-0.223,0.113-0.223S6.004,6.78,6.004,6.729c0-0.05,0.012-0.313,0.012-0.313L5.929,6.105l-0.05-0.149L5.792,5.882
		L5.667,5.818L5.442,5.77c0,0-0.149-0.026-0.199-0.026s-0.2-0.074-0.2-0.074S4.956,5.731,4.918,5.743
		C4.881,5.757,4.781,5.831,4.781,5.831l-0.212,0.15"/>
	<path fill="#FFFFFF" d="M5.667,3.698L5.18,4.16L4.606,4.97l-0.3,0.362L4.295,6.043l0.037,0.724l0.087,0.35L4.443,7.79l0.101,0.512
		c0,0-0.063-0.662-0.037-0.711c0.025-0.05,0.037-0.736,0.037-0.736L4.419,6.343c0,0,0.024-0.398,0.05-0.474S4.794,5.17,4.794,5.17
		l0.199-0.511L5.18,4.358L5.667,3.698z"/>
	<path fill="#FFFFFF" d="M8.087,5.232L7.875,5.981L7.75,6.493L7.513,7.079L7.201,7.665L6.815,8.339L6.54,8.364l0.25-0.138
		L6.728,7.878l-0.025-0.1c0,0,0.088-0.188,0.15-0.275c0.062-0.088,0.212-0.336,0.236-0.375c0.025-0.036,0.188-0.236,0.188-0.236
		l0.175-0.374c0,0,0.162-0.549,0.212-0.599C7.713,5.868,7.9,5.395,7.9,5.395L8.087,5.232z"/>
	<path fill="#FFFFFF" d="M8.486,3.211c0-0.036-0.162-0.312-0.162-0.312L8.236,2.638L8.1,2.413L7.851,2.276c0,0-0.275-0.1-0.337-0.1
		H7.352L7.089,2.251L6.864,2.126L6.603,1.914L6.354,1.789L6.116,1.827c0,0-0.188,0.124-0.237,0.174
		c-0.05,0.051-0.188,0.176-0.225,0.225C5.616,2.276,5.492,2.488,5.442,2.55c-0.05,0.063-0.15,0.549-0.2,0.625
		C5.192,3.249,5.03,3.724,4.931,3.823l0.262-0.162c0,0,0.337-0.188,0.375-0.225c0.037-0.037,0.149-0.112,0.187-0.125
		C5.791,3.3,5.929,3.187,5.979,3.175C6.028,3.161,6.253,3.05,6.253,3.05l0.188-0.1l0.137-0.014l0.212,0.063l0.113,0.088l0.149,0.051
		l0.324,0.023l0.199,0.014L7.95,3.261l0.336,0.325c0,0,0.088,0.212,0.101,0.274s0.037,0.337,0.037,0.337l0.175-0.349l0.013-0.301
		C8.611,3.548,8.486,3.249,8.486,3.211 M7.039,2.726c-0.05-0.014-0.287-0.112-0.287-0.112L6.627,2.538L6.34,2.376L6.19,2.263
		l0.125-0.137c0,0,0.063-0.025,0.112-0.025S6.54,2.14,6.577,2.163c0.038,0.025,0.101,0.05,0.15,0.075
		C6.777,2.263,6.853,2.45,6.853,2.45l0.174,0.175C7.026,2.625,7.089,2.737,7.039,2.726 M7.962,2.7c0,0-0.161,0.087-0.199,0.087
		H7.538l-0.1-0.013L7.238,2.7h0.05c0.113-0.025,0.139-0.051,0.226-0.075S7.7,2.55,7.7,2.55L7.938,2.5l0.087,0.113L7.962,2.7z"/>
	<path fill="#FFFFFF" d="M5.816,1.59L5.393,1.353L5.143,1.34l-0.199,0.1L4.731,1.564c0,0,0.063,0.125,0.099,0.125
		c0.038,0,0.4-0.025,0.45-0.013c0.049,0.013,0.263,0.05,0.263,0.05L5.816,1.59z"/>
	<path fill="#FFFFFF" d="M7.438,2.038c0,0,0.125,0.025,0.162,0.037c0.038,0.014,0.162,0.101,0.2,0.113
		C7.838,2.2,8.088,2.276,8.088,2.276s0.099-0.025,0.062-0.063C8.112,2.176,7.987,2.002,7.987,2.002L7.851,1.877H7.726
		c-0.038,0-0.15,0.012-0.15,0.012L7.438,2.038z"/>
	<path fill="#FFFFFF" d="M3.628,4.937l0.89-0.855L3.297,3.896L2.758,2.783L2.204,3.888L0.98,4.056l0.879,0.869L1.641,6.142
		l1.099-0.567l1.089,0.582L3.628,4.937z M2.741,5.232L1.982,5.624l0.149-0.841L1.525,4.183l0.846-0.116l0.384-0.765l0.372,0.77
		L3.972,4.2L3.356,4.792l0.138,0.844L2.741,5.232z"/>
	<polygon fill="#FFFFFF" points="2.749,3.802 2.915,4.313 3.452,4.313 3.019,4.628 3.185,5.138 2.749,4.823 2.314,5.138 2.48,4.628 
		2.046,4.313 2.583,4.313 	"/>
</g>
</svg>
