<?php
if(!isset($color) || $color=="" || strtolower($color)=="black"){$color="000";}
if(strtolower($color)=="red"){$color="ed1c24";}
if(strtolower($color)=="blue"){$color="1c75bc";}
if(strtolower($color)=="green"){$color="00a651";}
if(strtolower($color)=="white"){$color="fff";}
header('Content-Type: text/xml');
// echo xml tag just in case short_open_tags is enabled in PHP config
echo '<?xml version="1.0" encoding="UTF-8"?>';
?>
<!-- Generator: Adobe Illustrator 15.0.0, SVG Export Plug-In . SVG Version: 6.00 Build 0)  -->
<!DOCTYPE svg PUBLIC "-//W3C//DTD SVG 1.1//EN" "http://www.w3.org/Graphics/SVG/1.1/DTD/svg11.dtd">
<svg version="1.1" id="Layer_1" xmlns="http://www.w3.org/2000/svg" xmlns:xlink="http://www.w3.org/1999/xlink" x="0px" y="0px"
	 width="8.467px" height="10.629px" viewBox="0 0 8.467 10.629" enable-background="new 0 0 8.467 10.629" xml:space="preserve">
<g>
	<g>
		<g>
			<g>
				<path fill="#<?php echo $color; ?>" d="M6.39,2.459c-0.004-0.116-0.011-0.22-0.021-0.292C6.312,1.77,6.133,1.749,5.871,1.483C5.433,1.04,5.321,0.582,5.351,0
					C4.942,0.477,4.793,0.873,4.932,1.464C4.994,1.729,5.037,2.03,5.018,2.329c-0.32,0.043-0.624,0.134-0.906,0.268
					c-0.093-0.101-0.183-0.19-0.247-0.245C3.559,2.093,3.412,2.196,3.04,2.172C2.417,2.13,2.029,1.862,1.665,1.407
					C1.676,2.035,1.828,2.431,2.324,2.78c0.252,0.178,0.514,0.41,0.705,0.69c-0.22,0.282-0.391,0.603-0.502,0.954
					C2.44,4.414,2.361,4.408,2.303,4.407C1.9,4.399,1.852,4.572,1.55,4.789C1.041,5.149,0.571,5.188,0,5.064
					c0.405,0.48,0.773,0.691,1.379,0.648C1.705,5.689,2.078,5.708,2.42,5.821c0.056,0.348,0.172,0.674,0.335,0.972
					C2.723,6.826,2.694,6.856,2.672,6.882C2.407,7.183,2.507,7.333,2.476,7.704c-0.054,0.621-0.33,1.003-0.791,1.357
					C2.312,9.063,2.71,8.919,3.071,8.431c0.157-0.215,0.354-0.437,0.588-0.613c0.279,0.199,0.593,0.351,0.933,0.449
					c-0.07,0.373,0.087,0.459,0.24,0.789c0.262,0.567,0.213,1.035-0.012,1.573c0.546-0.31,0.82-0.632,0.89-1.237
					c0.04-0.35,0.133-0.744,0.337-1.074C7.37,8.042,8.394,6.903,8.464,5.49C8.531,4.097,7.649,2.88,6.39,2.459 M6.373,7.188
					C5.377,7.142,4.609,6.293,4.657,5.298c0.049-0.996,0.896-1.764,1.892-1.715c0.995,0.048,1.762,0.895,1.716,1.891
					C8.215,6.469,7.368,7.237,6.373,7.188"/>
			</g>
		</g>
	</g>
</g>
</svg>
