<?php
if(!isset($color) || $color=="" || strtolower($color)=="black"){$color="000";}
if(strtolower($color)=="red"){$color="ed1c24";}
if(strtolower($color)=="blue"){$color="1c75bc";}
if(strtolower($color)=="green"){$color="00a651";}
if(strtolower($color)=="white"){$color="fff";}
header('Content-Type: text/xml');
// echo xml tag just in case short_open_tags is enabled in PHP config
echo '<?xml version="1.0" encoding="UTF-8"?>';
?>
<!-- Generator: Adobe Illustrator 15.0.0, SVG Export Plug-In . SVG Version: 6.00 Build 0)  -->
<!DOCTYPE svg PUBLIC "-//W3C//DTD SVG 1.1//EN" "http://www.w3.org/Graphics/SVG/1.1/DTD/svg11.dtd">
<svg version="1.1" id="Layer_1" xmlns="http://www.w3.org/2000/svg" xmlns:xlink="http://www.w3.org/1999/xlink" x="0px" y="0px"
	 width="8.33px" height="9.921px" viewBox="0 0 8.33 9.921" enable-background="new 0 0 8.33 9.921" xml:space="preserve">
<g>
	<g>
		<g>
			<g>
				<path fill="#<?php echo $color; ?>" d="M8.33,2.229C7.099,0.405,4.544,0.047,4.187,0.005V0c0,0-0.008,0.001-0.022,0.003C4.152,0.001,4.144,0,4.144,0v0.005
					C3.787,0.047,1.234,0.405,0,2.229c0,0,0.507,5.684,4.144,7.668v0.024C4.151,9.917,4.158,9.914,4.165,9.91
					c0.007,0.004,0.014,0.007,0.022,0.011V9.896C7.823,7.912,8.33,2.229,8.33,2.229"/>
				<path fill="#FFFFFF" d="M7.415,4.205c0,1.795-1.455,3.25-3.249,3.25S0.917,6,0.917,4.205c0-1.793,1.455-3.249,3.249-3.249
					S7.415,2.412,7.415,4.205"/>
				<path fill="#<?php echo $color; ?>" d="M5.515,1.726L3.387,1.702C3.045,1.699,2.772,1.861,2.77,2.067L2.711,6.584c0,0.056,0.048,0.101,0.105,0.101l2.115,0.024
					c0.333,0.004,0.621-0.164,0.623-0.373l0.048-2.992c0-0.055-0.05-0.1-0.107-0.102L4.265,3.229c-0.058,0-0.108,0.045-0.108,0.1
					L4.149,3.846c-0.001,0.054,0.048,0.1,0.105,0.101l0.151,0.003L4.376,5.951L3.922,5.946L3.97,2.414l1.537,0.017
					c0.056,0.001,0.107-0.045,0.108-0.099l0.007-0.505C5.622,1.772,5.573,1.726,5.515,1.726"/>
			</g>
		</g>
	</g>
</g>
</svg>
