<?php
if(!isset($color) || $color=="" || strtolower($color)=="black"){$color="000";}
if(strtolower($color)=="red"){$color="ed1c24";}
if(strtolower($color)=="blue"){$color="1c75bc";}
if(strtolower($color)=="green"){$color="00a651";}
if(strtolower($color)=="white"){$color="fff";}
header('Content-Type: text/xml');
// echo xml tag just in case short_open_tags is enabled in PHP config
echo '<?xml version="1.0" encoding="UTF-8"?>';
?>
<!-- Generator: Adobe Illustrator 15.0.0, SVG Export Plug-In . SVG Version: 6.00 Build 0)  -->
<!DOCTYPE svg PUBLIC "-//W3C//DTD SVG 1.1//EN" "http://www.w3.org/Graphics/SVG/1.1/DTD/svg11.dtd">
<svg version="1.1" id="Layer_1" xmlns="http://www.w3.org/2000/svg" xmlns:xlink="http://www.w3.org/1999/xlink" x="0px" y="0px"
	 width="8.882px" height="9.213px" viewBox="0 0 8.882 9.213" enable-background="new 0 0 8.882 9.213" xml:space="preserve">
<g>
	<g>
		<g>
			<g>
				<path fill="#<?php echo $color; ?>" d="M8.882,5.728L8.31,5.817l-0.468-0.06L7.573,5.571l0.13-0.318l-0.037,0.01l0.013-0.033L7.445,5.288L6.992,5.124
					l0.241-0.326l-0.03-0.014l0.007-0.01L6.857,4.612l-0.183-0.17L6.631,4.254L6.88,3.96L6.851,3.942l0.006-0.006L6.759,3.875
					L6.66,3.606L6.601,3.271L6.88,3.151l-0.031-0.02l0.008-0.003L6.695,3.021L6.454,2.638L6.395,2.315l0.324-0.221l-0.04-0.012
					l0.016-0.012L6.373,1.968L6.029,1.625l0.176-0.279L6.173,1.339l0.008-0.016L5.668,1.205L5.387,1.032L5.5,0.876L5.457,0.878
					l0.019-0.025L4.991,0.882L4.654,0.76l0.083-0.178L4.696,0.594l0.017-0.035l-0.28,0.087L4.086,0.591L4.06,0.42L4.043,0.436
					L4.037,0.397L3.86,0.559L3.595,0.612L3.62,0.465H3.592l0.004-0.024H3.493L2.697,0.729C2.663,0.733,2.62,0.738,2.571,0.748
					L2.553,0.735L2.554,0.75C2.435,0.771,2.286,0.809,2.169,0.866C2.155,0.874,2.14,0.881,2.126,0.888v0.001
					C2.083,0.912,2.047,0.939,2.018,0.97C1.976,0.967,1.666,0.937,1.584,0.69c0,0-0.004,0.003-0.01,0.009
					c0-0.001-0.001-0.001-0.001-0.002c0,0-0.19,0.146-0.178,0.496l-0.222,0.07c0,0-0.618-0.029-0.852-1.263
					c0,0-0.005,0.006-0.01,0.016C0.31,0.013,0.31,0.009,0.309,0.006c0,0-0.456,0.631-0.192,1.366c0,0,0.235,0.367,0.134,0.544
					L0.145,1.968L0.133,1.976v0.205L0,2.372l0.059,0.027L0.22,2.679V2.653l0.013,0.02V2.54l0.208,0.139L0.44,2.666l0.013,0.007
					L0.438,2.542l0.034-0.023L0.66,2.591l0.003-0.009l0.01,0.004l0.026-0.128l0.08,0.133l0.005-0.018l0.007,0.013l0.058-0.219
					l0.165-0.056L1.19,2.399l0.003-0.01l0.009,0.006l0.029-0.147l0.095-0.082l0.099,0.03l0.006-0.01l0.006,0.002L1.51,2.086
					l0.135-0.067L1.562,2.687l-0.238-0.1l0.004,0.014L1.313,2.593l0.044,0.148L1.22,2.837L1.074,2.778L1.073,2.789L1.062,2.785
					L1.048,2.927L0.942,2.94L0.81,2.896l-0.003,0.01L0.799,2.901L0.755,3.088L0.589,3.103L0.486,2.999v0.018L0.475,3.005v0.219
					L0.368,3.265l-0.16-0.104l0.001,0.014L0.196,3.166l0.028,0.206l0.06,0.104L0.137,3.771l0.28,0.176L0.314,4.444
					c0,0,0.146,0.603,0.777,0.543l0.004-0.006h0.008l0.147-0.32l0.121-0.039l0.003-0.004l0.009-0.002l0.274-0.305l0.507,0.017
					l0.007-0.007h0.005l0.108-0.096c0.017,0.008,0.174,0.082,0.174,0.264c0,0,0.004-0.006,0.011-0.012v0.006
					c0,0,0.264-0.275,0.187-0.445l0.01,0.006L2.912,4.14l0.009,0.163L2.7,4.495l0.015,0.133L2.42,4.817L2.391,4.994L2.158,5.187
					L2.114,5.333L1.878,5.494v0.147L1.539,5.948v0.236L1.334,6.376l0.047,0.002l-0.023,0.02l0.026,0.002l-0.05,0.02l0.037,0.082
					L1.41,6.659L1.363,6.86l0.162,0.322l0.023,0.038l0.131,0.537L1.627,7.844l0.112,0.159l0.012,0.055l-0.064,0.17l0.132,0.276
					l0.088,0.267l0.017,0.002L1.93,8.793L1.926,8.774l1.709,0.438l0.306-0.015l0.002,0.006L3.941,9.198l0.314-0.018
					c0,0,0.066-0.014,0.169-0.033c0.365-0.035,1.113-0.11,1.237-0.146c0.165-0.047,0.793-0.454,0.864-0.5
					c0.071-0.048,1.022-0.748,1.022-0.748l0.059-0.279l0.436-0.662l0.619-0.363L8.882,5.728z M1.783,1.583L1.638,1.717L1.514,1.75
					L1.362,1.61l0.16-0.102l0.206-0.048l0.204,0.067L1.783,1.583z"/>
			</g>
		</g>
	</g>
</g>
</svg>
