<?php
if(!isset($color) || $color=="" || strtolower($color)=="black"){$color="000";}
if(strtolower($color)=="red"){$color="ed1c24";}
if(strtolower($color)=="blue"){$color="1c75bc";}
if(strtolower($color)=="green"){$color="00a651";}
if(strtolower($color)=="white"){$color="fff";}
header('Content-Type: text/xml');
// echo xml tag just in case short_open_tags is enabled in PHP config
echo '<?xml version="1.0" encoding="UTF-8"?>';
?>
<!-- Generator: Adobe Illustrator 15.0.0, SVG Export Plug-In . SVG Version: 6.00 Build 0)  -->
<!DOCTYPE svg PUBLIC "-//W3C//DTD SVG 1.1//EN" "http://www.w3.org/Graphics/SVG/1.1/DTD/svg11.dtd">
<svg version="1.1" id="Layer_1" xmlns="http://www.w3.org/2000/svg" xmlns:xlink="http://www.w3.org/1999/xlink" x="0px" y="0px"
	 width="10.392px" height="10.393px" viewBox="0 0 10.392 10.393" enable-background="new 0 0 10.392 10.393" xml:space="preserve">
<rect fill="#<?php echo $color; ?>" width="10.392" height="10.393"/>
<g>
	<defs>
		<rect id="SVGID_1_" y="0.001" width="10.392" height="10.392"/>
	</defs>
	<clipPath id="SVGID_2_">
		<use xlink:href="#SVGID_1_"  overflow="visible"/>
	</clipPath>
	<path clip-path="url(#SVGID_2_)" fill="#FFFFFF" d="M5.908,4.544c0,0.396-0.321,0.717-0.716,0.717
		c-0.396,0-0.717-0.321-0.717-0.717c0-0.396,0.321-0.718,0.717-0.718C5.587,3.826,5.908,4.147,5.908,4.544"/>
	<path clip-path="url(#SVGID_2_)" fill="#FFFFFF" d="M3.537,8.157c0.211,0.122,0.44,0.218,0.679,0.293
		c-0.181,0.228-0.41,0.415-0.679,0.538c0.487,0.282,1.052,0.446,1.654,0.446c0.605,0,1.168-0.164,1.657-0.446
		C6.58,8.865,6.352,8.678,6.17,8.448c0.237-0.073,0.466-0.169,0.679-0.291C6.58,8.034,6.352,7.846,6.17,7.618
		c0.237-0.075,0.466-0.171,0.679-0.291c-0.634-0.296-1.077-0.934-1.077-1.68c0-0.063,0.012-0.122,0.018-0.184L5.781,5.45
		C5.609,5.551,5.409,5.613,5.193,5.613S4.778,5.551,4.604,5.45L4.597,5.464c0.007,0.062,0.018,0.121,0.018,0.184
		c0,0.746-0.441,1.384-1.077,1.68c0.211,0.12,0.44,0.216,0.679,0.291C4.035,7.847,3.806,8.034,3.537,8.157"/>
	<path clip-path="url(#SVGID_2_)" fill="#FFFFFF" d="M9.149,4.169c0-0.243-0.031-0.489-0.087-0.732
		c0.289,0.042,0.566,0.147,0.807,0.317c0-0.562-0.14-1.132-0.44-1.656C9.125,1.576,8.702,1.17,8.215,0.888
		C8.242,1.18,8.193,1.474,8.086,1.745C7.901,1.576,7.707,1.426,7.495,1.303c0.025,0.293-0.022,0.586-0.13,0.857
		c-0.184-0.168-0.38-0.318-0.591-0.441c0.062,0.696-0.27,1.399-0.915,1.772c-0.056,0.03-0.113,0.05-0.169,0.074L5.683,3.58
		c0.173,0.099,0.328,0.241,0.437,0.427c0.107,0.188,0.152,0.392,0.152,0.592h0.016c0.051-0.035,0.095-0.075,0.15-0.106
		c0.646-0.374,1.42-0.31,1.993,0.092c0-0.242-0.033-0.488-0.088-0.731C8.631,3.894,8.908,4,9.149,4.169"/>
	<path clip-path="url(#SVGID_2_)" fill="#FFFFFF" d="M2.889,1.304c-0.21,0.122-0.407,0.273-0.591,0.442
		C2.189,1.475,2.144,1.182,2.17,0.889c-0.487,0.28-0.911,0.686-1.213,1.21C0.656,2.622,0.515,3.19,0.515,3.755
		c0.24-0.169,0.519-0.274,0.808-0.317C1.267,3.681,1.235,3.926,1.234,4.17c0.24-0.168,0.519-0.274,0.808-0.316
		C1.987,4.097,1.955,4.342,1.955,4.586c0.572-0.401,1.346-0.465,1.992-0.093c0.055,0.03,0.099,0.071,0.149,0.107h0.017
		C4.112,4.401,4.157,4.195,4.264,4.01c0.109-0.188,0.264-0.328,0.438-0.429L4.693,3.567C4.637,3.542,4.58,3.522,4.523,3.492
		C3.879,3.119,3.547,2.416,3.61,1.72C3.398,1.842,3.202,1.992,3.018,2.161C2.91,1.891,2.863,1.597,2.889,1.304"/>
</g>
</svg>
