<?php
if(!isset($color) || $color=="" || strtolower($color)=="black"){$color="000";}
if(strtolower($color)=="red"){$color="ed1c24";}
if(strtolower($color)=="blue"){$color="1c75bc";}
if(strtolower($color)=="green"){$color="00a651";}
if(strtolower($color)=="white"){$color="fff";}
header('Content-Type: text/xml');
// echo xml tag just in case short_open_tags is enabled in PHP config
echo '<?xml version="1.0" encoding="UTF-8"?>';
?>
<!-- Generator: Adobe Illustrator 15.0.0, SVG Export Plug-In . SVG Version: 6.00 Build 0)  -->
<!DOCTYPE svg PUBLIC "-//W3C//DTD SVG 1.1//EN" "http://www.w3.org/Graphics/SVG/1.1/DTD/svg11.dtd">
<svg version="1.1" id="Layer_1" xmlns="http://www.w3.org/2000/svg" xmlns:xlink="http://www.w3.org/1999/xlink" x="0px" y="0px"
	 width="10.392px" height="10.393px" viewBox="0 0 10.392 10.393" enable-background="new 0 0 10.392 10.393" xml:space="preserve">
<rect fill="#<?php echo $color; ?>" width="10.392" height="10.393"/>
<g>
	<defs>
		<rect id="SVGID_1_" width="10.392" height="10.393"/>
	</defs>
	<clipPath id="SVGID_2_">
		<use xlink:href="#SVGID_1_"  overflow="visible"/>
	</clipPath>
	<path clip-path="url(#SVGID_2_)" fill="#FFFFFF" d="M8.51,5.509c-1.298-1.08-0.151-2.588-0.151-2.588
		C7.058,3.481,6.796,5.396,6.715,5.339C6.634,5.284,5.74,4.855,6.417,3.197S5.092,0.604,5.092,0.604
		c1.146,0.789,0.541,2.054-0.813,3.655C2.928,5.862,3.063,7.166,3.063,7.166C2.575,6.646,2.711,6.438,3.035,5.524
		C3.36,4.612,1.979,3.679,1.979,3.679c0.65,1.243,0.161,1.962-0.405,2.778C0.266,8.352,1.953,9.496,1.953,9.496
		C1.358,8.321,2.224,7.764,2.224,7.764C2.062,8.862,3.116,9.291,3.116,9.291c-0.419-0.289-0.27-1.527,1.272-2.423
		C5.931,5.975,5.39,4.539,5.39,4.539C6.769,6.215,5.715,6.29,5.715,7.241c0,0.95,1.135,1.267,1.135,1.267
		C5.687,7.707,7.066,6.515,7.066,6.515C6.769,6.718,7.014,7.596,7.823,8.153c0.813,0.56,0.244,1.565,0.244,1.565
		C9.42,8.452,9.808,6.589,8.51,5.509 M8.098,6.257C7.653,5.713,7.871,5.277,7.871,5.277C7.896,5.722,8.394,5.753,8.71,6.086
		c0.482,0.513,0.201,1.06,0.201,1.06C8.686,6.612,8.544,6.802,8.098,6.257 M3.911,3.847c0.011-0.458-0.319-0.831-0.026-1.165
		c0,0-0.461,0.156-0.528,0.856c-0.064,0.699,0.17,0.665-0.045,1.203C3.312,4.741,3.896,4.548,3.911,3.847"/>
</g>
</svg>
