<?php
if(!isset($color) || $color=="" || strtolower($color)=="black"){$color="000";}
if(strtolower($color)=="red"){$color="ed1c24";}
if(strtolower($color)=="blue"){$color="1c75bc";}
if(strtolower($color)=="green"){$color="00a651";}
if(strtolower($color)=="white"){$color="fff";}
header('Content-Type: text/xml');
// echo xml tag just in case short_open_tags is enabled in PHP config
echo '<?xml version="1.0" encoding="UTF-8"?>';
?>
<!-- Generator: Adobe Illustrator 15.0.0, SVG Export Plug-In . SVG Version: 6.00 Build 0)  -->
<!DOCTYPE svg PUBLIC "-//W3C//DTD SVG 1.1//EN" "http://www.w3.org/Graphics/SVG/1.1/DTD/svg11.dtd">
<svg version="1.1" id="Layer_1" xmlns="http://www.w3.org/2000/svg" xmlns:xlink="http://www.w3.org/1999/xlink" x="0px" y="0px"
	 width="10.392px" height="10.392px" viewBox="0 0 10.392 10.392" enable-background="new 0 0 10.392 10.392" xml:space="preserve">
<rect fill="#<?php echo $color; ?>" width="10.392" height="10.392"/>
<polygon fill="#FFFFFF" points="7.303,2.622 8.293,4.016 7.229,5.773 5.251,5.48 4.628,4.161 5.507,3.173 6.387,3.318 "/>
<polygon fill="#FFFFFF" points="6.276,2.622 7.155,1.89 5.653,1.304 3.749,1.011 3.491,2.146 4.188,2.658 4.628,3.062 5.396,2.439 
	"/>
<polygon fill="#FFFFFF" points="4.078,3.611 3.126,2.659 2.282,2.879 1.367,3.429 2.21,4.491 3.198,5.261 "/>
<polygon fill="#FFFFFF" points="4.225,4.381 4.773,5.59 5.066,6.579 3.932,6.396 3.419,6.03 "/>
<polygon fill="#FFFFFF" points="5.443,6.24 5.736,7.01 8.008,7.778 9.4,7.121 "/>
<polygon fill="#FFFFFF" points="7.537,6.153 7.884,5.44 8.353,5.081 8.859,4.457 9.388,5.347 9.575,6.726 "/>
<polygon fill="#FFFFFF" points="2.942,5.554 2.063,5.005 0.707,5.773 0.928,6.616 2.282,7.495 "/>
<polygon fill="#FFFFFF" points="3.309,6.396 3.969,7.056 4.885,7.056 5.544,8.852 4.408,8.997 2.905,7.717 "/>
<polygon fill="#FFFFFF" points="5.772,7.522 7.312,8.256 6.433,8.659 5.846,8.366 "/>
</svg>
