<?php
if(!isset($color) || $color=="" || strtolower($color)=="black"){$color="000";}
if(strtolower($color)=="red"){$color="ed1c24";}
if(strtolower($color)=="blue"){$color="1c75bc";}
if(strtolower($color)=="green"){$color="00a651";}
if(strtolower($color)=="white"){$color="fff";}
header('Content-Type: text/xml');
// echo xml tag just in case short_open_tags is enabled in PHP config
echo '<?xml version="1.0" encoding="UTF-8"?>';
?>
<!-- Generator: Adobe Illustrator 15.0.0, SVG Export Plug-In . SVG Version: 6.00 Build 0)  -->
<!DOCTYPE svg PUBLIC "-//W3C//DTD SVG 1.1//EN" "http://www.w3.org/Graphics/SVG/1.1/DTD/svg11.dtd">
<svg version="1.1" id="Layer_1" xmlns="http://www.w3.org/2000/svg" xmlns:xlink="http://www.w3.org/1999/xlink" x="0px" y="0px"
	 width="10.392px" height="10.393px" viewBox="0 0 10.392 10.393" enable-background="new 0 0 10.392 10.393" xml:space="preserve">
<rect fill="#<?php echo $color; ?>" width="10.392" height="10.393"/>
<g>
	<path fill="#<?php echo $color; ?>" d="M9.166,5.196c0,2.193-1.777,3.969-3.971,3.969c-2.191,0-3.97-1.775-3.97-3.969
		c0-2.192,1.778-3.97,3.97-3.97C7.389,1.227,9.166,3.004,9.166,5.196"/>
	<path fill="#FFFFFF" d="M7.159,3.959C6.384,5.463,5.222,5.288,5.222,5.288S6.385,4.877,6.58,3.85
		c0.295-1.549-0.157-2.531-0.157-2.531l1.03,0.339C7.453,1.657,7.672,2.961,7.159,3.959 M8.839,3.38c0,0-0.566,1.288-1.593,1.844
		C6.057,5.868,5.222,5.288,5.222,5.288S5.72,6.085,7.093,5.846c1.375-0.24,2.259-1.517,2.259-1.517L8.839,3.38z M8.805,7.579
		L9.177,6.51c0,0-1.271,0.57-2.366,0.24C5.218,6.271,5.222,5.288,5.222,5.288S5.007,6.393,6.188,7.089
		C7.356,7.775,8.805,7.579,8.805,7.579 M7.148,9.052c0,0-1.713-0.894-2.008-1.701C4.531,5.747,5.222,5.288,5.222,5.288
		s-0.768,0.153-0.67,1.931c0.055,0.994,1.362,2.084,1.362,2.084L7.148,9.052z M3.854,9.325c0,0-0.515-1.669-0.207-2.585
		c0.469-1.396,1.574-1.452,1.574-1.452S4.05,4.995,3.188,6.38c-0.656,1.056-0.37,2.65-0.37,2.65L3.854,9.325z M1.389,7.263
		c0,0,0.852-1.789,1.985-2.127c1.135-0.338,1.855,0.153,1.855,0.153S4.764,4.43,3.254,4.668C2.076,4.854,1.04,6.096,1.04,6.096
		L1.389,7.263z M1.291,3.948c0,0,1.538-0.558,2.65-0.066c1.112,0.49,1.276,1.385,1.276,1.385s0.239-1.242-1.473-2.05
		C2.8,2.772,1.487,2.966,1.487,2.966L1.291,3.948z M3.167,1.461c0,0,1.451,0.796,2.051,1.768c0.6,0.97,0.004,2.06,0.004,2.06
		s0.923-0.599,0.477-2.3c-0.198-0.96-1.463-1.92-1.463-1.92S3.156,1.472,3.167,1.461"/>
	<circle fill="none" stroke="#FFFFFF" stroke-width="0.5" cx="5.196" cy="5.196" r="3.228"/>
	<circle fill="none" stroke="#FFFFFF" cx="5.195" cy="5.196" r="4.406"/>
	<circle fill="none" stroke="#FFFFFF" stroke-width="0.25" cx="5.196" cy="5.196" r="2.498"/>
</g>
</svg>
