<?php
if(!isset($color) || $color=="" || strtolower($color)=="black"){$color="000";}
if(strtolower($color)=="red"){$color="ed1c24";}
if(strtolower($color)=="blue"){$color="1c75bc";}
if(strtolower($color)=="green"){$color="00a651";}
if(strtolower($color)=="white"){$color="fff";}
header('Content-Type: text/xml');
// echo xml tag just in case short_open_tags is enabled in PHP config
echo '<?xml version="1.0" encoding="UTF-8"?>';
?>
<!-- Generator: Adobe Illustrator 15.0.0, SVG Export Plug-In . SVG Version: 6.00 Build 0)  -->
<!DOCTYPE svg PUBLIC "-//W3C//DTD SVG 1.1//EN" "http://www.w3.org/Graphics/SVG/1.1/DTD/svg11.dtd">
<svg version="1.1" id="Layer_1" xmlns="http://www.w3.org/2000/svg" xmlns:xlink="http://www.w3.org/1999/xlink" x="0px" y="0px"
	 width="8.634px" height="8.051px" viewBox="0 0 8.634 8.051" enable-background="new 0 0 8.634 8.051" xml:space="preserve">
<g>
	<path fill="#<?php echo $color; ?>" fill-rule="evenodd" clip-rule="evenodd" d="M3.983,2.963C4.007,3.004,4.027,3.05,4.037,3.107
		c0.031,0.051,0.062,0.118,0.101,0.168c0.025,0.032,0.074,0.072,0.057,0.144C4.189,3.446,4.152,3.473,4.129,3.5
		C4.111,3.52,4.066,3.55,4.063,3.579c-0.002,0.028,0.032,0.064,0.06,0.086c0.057,0.045,0.106,0.078,0.17,0.117
		c0.054,0.032,0.109,0.048,0.14,0.104c0.04,0.072,0.021,0.182,0.03,0.3C4.469,4.251,4.484,4.313,4.476,4.38
		C4.473,4.396,4.462,4.414,4.458,4.436C4.454,4.449,4.455,4.466,4.451,4.481C4.446,4.505,4.426,4.539,4.418,4.567
		C4.409,4.604,4.412,4.635,4.397,4.66C4.379,4.691,4.334,4.704,4.299,4.727c-0.015,0.01-0.03,0.026-0.047,0.037
		C4.233,4.776,4.213,4.784,4.204,4.798c-0.013,0.019-0.02,0.046-0.03,0.067C4.14,4.932,4.124,4.991,4.093,5.067
		c0.042,0.138-0.081,0.198-0.155,0.255C3.919,5.346,3.893,5.365,3.869,5.39C3.835,5.423,3.803,5.461,3.732,5.444
		c-0.031-0.007-0.071-0.025-0.104-0.04C3.586,5.387,3.547,5.356,3.511,5.332C3.474,5.305,3.448,5.269,3.416,5.236
		C3.384,5.205,3.349,5.175,3.32,5.141C3.291,5.106,3.268,5.065,3.236,5.037C3.221,5.023,3.2,5.018,3.183,5.006
		c-0.036-0.025-0.065-0.06-0.098-0.073C3.042,4.89,3.022,4.825,2.988,4.761C2.973,4.73,2.95,4.702,2.932,4.668
		C2.919,4.645,2.891,4.596,2.887,4.564C2.885,4.546,2.894,4.529,2.896,4.505c0.003-0.028-0.005-0.063,0-0.092
		c0.002-0.014,0.012-0.021,0.015-0.036c0.013-0.063,0.003-0.143,0.003-0.215c0-0.071-0.006-0.148,0-0.215
		C2.928,3.8,2.979,3.697,3.031,3.604C3.032,3.579,3.048,3.569,3.045,3.54c0.034-0.043,0.053-0.103,0.11-0.129
		C3.173,3.403,3.2,3.398,3.225,3.392c0.024-0.006,0.051-0.016,0.068-0.018c0.016-0.002,0.032,0.002,0.051,0
		c0.029-0.003,0.062-0.017,0.096-0.022c0.039-0.005,0.075-0.006,0.104-0.018C3.58,3.319,3.621,3.293,3.657,3.272
		C3.696,3.25,3.742,3.238,3.774,3.217c0.065-0.044,0.147-0.116,0.134-0.243C3.927,2.965,3.954,2.962,3.983,2.963 M3.622,3.837
		C3.547,3.855,3.49,3.875,3.457,3.932C3.453,3.94,3.453,3.951,3.448,3.96C3.442,3.971,3.432,3.977,3.427,3.987
		c-0.01,0.025-0.006,0.055-0.012,0.089c-0.002,0.013-0.01,0.026-0.012,0.04c-0.003,0.031,0.005,0.067,0,0.102
		c-0.002,0.016-0.01,0.021-0.012,0.037C3.386,4.323,3.433,4.355,3.454,4.408C3.458,4.417,3.456,4.428,3.46,4.439
		c0.004,0.01,0.016,0.02,0.021,0.03C3.496,4.499,3.5,4.533,3.493,4.573C3.491,4.583,3.485,4.591,3.484,4.601
		C3.483,4.615,3.491,4.631,3.49,4.647C3.489,4.675,3.485,4.676,3.493,4.7c0.003,0.009,0.003,0.022,0.006,0.027
		C3.521,4.77,3.587,4.81,3.627,4.816C3.67,4.822,3.693,4.794,3.72,4.779c0.023-0.013,0.041-0.025,0.063-0.037
		C3.81,4.668,3.831,4.59,3.914,4.573c0.039-0.025,0.034-0.094,0.015-0.144C3.923,4.415,3.911,4.407,3.908,4.392
		c-0.013-0.066,0.036-0.19,0.05-0.254c0.019-0.079,0.004-0.149-0.002-0.24C3.941,3.879,3.923,3.863,3.911,3.84
		C3.843,3.789,3.695,3.819,3.622,3.837"/>
	<path fill="#<?php echo $color; ?>" fill-rule="evenodd" clip-rule="evenodd" d="M2.815,6.442c0.101,0.006,0.173-0.048,0.242-0.095
		c0.019-0.014,0.06-0.045,0.078-0.046C3.152,6.3,3.179,6.318,3.194,6.325c0.038,0.017,0.062,0.039,0.114,0.031
		c0.04-0.006,0.056-0.032,0.086-0.052c0.033-0.023,0.082-0.048,0.128-0.059C3.549,6.239,3.597,6.26,3.63,6.264
		c0.116,0.015,0.22-0.015,0.332-0.019c0.073-0.002,0.149-0.009,0.227-0.009c0.079,0,0.159,0.007,0.233-0.002
		C4.454,6.229,4.47,6.196,4.505,6.19C4.54,6.184,4.583,6.192,4.621,6.184c0.055-0.009,0.103-0.04,0.141-0.045
		C4.853,6.125,4.934,6.156,5.015,6.16c0.032,0.001,0.067-0.005,0.102-0.009c0.035-0.004,0.072-0.002,0.108-0.004
		c0.064-0.002,0.142-0.003,0.196-0.021C5.458,6.114,5.46,6.081,5.497,6.064c0.042-0.02,0.101-0.023,0.152-0.034
		c0.05-0.01,0.102-0.025,0.146-0.037c0.05-0.014,0.099-0.024,0.146-0.04c0.046-0.017,0.09-0.035,0.135-0.05
		c0.09-0.03,0.186-0.067,0.28-0.088C6.464,5.791,6.573,5.802,6.69,5.782C6.457,5.755,6.223,5.751,5.995,5.721
		c-0.12-0.016-0.219-0.029-0.31-0.067C5.622,5.627,5.56,5.585,5.502,5.549C5.441,5.51,5.344,5.484,5.365,5.371
		c0.013-0.069,0.042-0.107,0.069-0.168c0.017-0.04,0.04-0.08,0.045-0.126c0.01-0.104-0.056-0.154-0.039-0.28
		c-0.013-0.001-0.038,0.009-0.057,0.01C5.342,4.839,5.318,4.889,5.29,4.938c-0.008,0.016-0.021,0.03-0.026,0.046
		C5.25,5.024,5.252,5.071,5.239,5.113C5.218,5.188,5.129,5.242,5.066,5.28C5.039,5.296,5.012,5.311,4.977,5.294
		C4.958,5.286,4.903,5.202,4.896,5.178C4.874,5.1,4.854,5.012,4.807,4.938C4.762,4.87,4.719,4.793,4.711,4.708
		C4.707,4.664,4.713,4.61,4.708,4.564C4.704,4.531,4.69,4.495,4.681,4.459c-0.02-0.07-0.054-0.16-0.036-0.254
		C4.666,4.1,4.708,4.019,4.711,3.893C4.713,3.78,4.69,3.669,4.675,3.552C4.67,3.511,4.667,3.472,4.663,3.436
		C4.658,3.384,4.659,3.333,4.643,3.282C4.612,3.192,4.493,3.18,4.451,3.107c0.018-0.116,0.061-0.194,0.155-0.242
		C4.632,2.852,4.672,2.836,4.699,2.84c0.043,0.006,0.06,0.055,0.093,0.07C4.826,2.927,4.87,2.933,4.908,2.947
		c0.035,0.014,0.07,0.032,0.105,0.046C5.048,3.009,5.087,3.019,5.12,3.037C5.134,3.044,5.146,3.06,5.162,3.07
		c0.016,0.01,0.036,0.017,0.048,0.028c0.025,0.024,0.061,0.076,0.065,0.11C5.28,3.245,5.256,3.292,5.242,3.316
		C5.214,3.362,5.144,3.407,5.135,3.45C5.129,3.483,5.144,3.522,5.147,3.552c0.004,0.045,0,0.094,0,0.142
		c0,0.043,0.008,0.085,0.011,0.128C5.167,3.929,5.157,4.05,5.201,4.12c0.034-0.048,0.077-0.104,0.095-0.163
		c0.005-0.014,0.005-0.046,0.009-0.067C5.315,3.84,5.333,3.791,5.35,3.749c0.017-0.044,0.04-0.084,0.069-0.117
		C5.472,3.569,5.531,3.5,5.622,3.469c0.023,0.018,0.023,0.047,0.033,0.074C5.673,3.598,5.702,3.65,5.723,3.705
		c0.023,0.057,0.038,0.116,0.063,0.169C5.833,3.976,5.915,4.07,5.914,4.205c0.05-0.133,0.089-0.281,0.128-0.423
		c0.014-0.05,0.019-0.102,0.033-0.15c0.014-0.05,0.041-0.094,0.05-0.145c0.01-0.058,0.008-0.109,0.021-0.163
		c0.007-0.03,0.014-0.065,0.024-0.092c0.021-0.054,0.079-0.092,0.104-0.15c0.012-0.027,0.021-0.062,0.033-0.095
		C6.331,2.924,6.34,2.853,6.347,2.767c0.026-0.031,0.063-0.02,0.099-0.037c0.025-0.013,0.046-0.059,0.065-0.092
		c0.018-0.031,0.042-0.075,0.063-0.092c0.015-0.012,0.049-0.033,0.071-0.031C6.7,2.52,6.708,2.609,6.732,2.656
		c0.018-0.034,0.04-0.08,0.072-0.12C6.83,2.504,6.867,2.454,6.906,2.447c0.051-0.008,0.104,0.016,0.14,0.04
		c0.005,0.093-0.018,0.158-0.021,0.242c0.019,0.023,0.051,0.034,0.081,0.046c0.018,0.035,0.066,0.05,0.087,0.092
		c0.015,0.03,0.023,0.085,0.032,0.129C7.246,3.1,7.252,3.186,7.198,3.251c-0.023,0.029-0.06,0.043-0.077,0.08
		c0.025,0.031,0.07,0.026,0.092,0.062C7.244,3.441,7.222,3.517,7.21,3.577C7.161,3.628,7.085,3.628,7.022,3.65
		C6.958,3.673,6.898,3.707,6.843,3.733c-0.03,0.014-0.063,0.059-0.096,0.092C6.66,3.917,6.591,4.03,6.523,4.138
		C6.452,4.25,6.396,4.367,6.338,4.491c-0.02,0.042-0.045,0.076-0.066,0.114c-0.013,0.022-0.016,0.05-0.027,0.07
		C6.233,4.699,6.214,4.719,6.201,4.746C6.189,4.769,6.174,4.794,6.165,4.822C6.156,4.85,6.153,4.884,6.144,4.914
		C6.135,4.943,6.12,4.967,6.115,4.997C6.102,5.054,6.09,5.118,6.09,5.2c0,0.088-0.009,0.201,0.027,0.248
		c0.031,0.04,0.117,0.073,0.179,0.083c0.079,0.013,0.17,0.01,0.269,0.01c0.094,0,0.2,0.011,0.275,0
		c0.017-0.002,0.037-0.015,0.057-0.021c0.129-0.043,0.318-0.056,0.436-0.111c0.056-0.026,0.092-0.073,0.144-0.104
		c0.051-0.03,0.1-0.049,0.183-0.061C7.81,5.221,7.955,5.218,8.061,5.156c0.027-0.015,0.047-0.051,0.083-0.052
		c0.043,0,0.093,0.039,0.125,0.065C8.305,5.195,8.351,5.223,8.39,5.24c0.03,0.013,0.077,0.024,0.104,0.036
		c0.066,0.028,0.118,0.085,0.14,0.147c-0.02,0.047-0.04,0.088-0.063,0.129c-0.024,0.042-0.06,0.071-0.081,0.116
		C8.458,5.738,8.47,5.824,8.443,5.896C8.432,5.923,8.402,5.944,8.401,5.979c-0.001,0.04,0.03,0.065,0.018,0.114
		C8.394,6.195,8.203,6.168,8.087,6.187C8.043,6.194,7.995,6.2,7.941,6.202c-0.05,0.002-0.109,0.004-0.148-0.006
		C7.774,6.192,7.752,6.176,7.729,6.166c-0.045-0.02-0.079-0.038-0.134-0.052C7.569,6.106,7.544,6.096,7.521,6.098
		C7.496,6.101,7.468,6.117,7.439,6.125c-0.106,0.035-0.221,0.056-0.37,0.056c-0.062,0-0.13,0.005-0.197,0.015
		C6.838,6.201,6.807,6.198,6.774,6.202c-0.075,0.011-0.142,0.071-0.209,0.08C6.484,6.293,6.408,6.275,6.341,6.273
		C6.209,6.269,6.106,6.35,5.992,6.374C5.919,6.39,5.843,6.38,5.774,6.396c-0.078,0.037-0.15,0.093-0.239,0.123
		C5.492,6.533,5.448,6.54,5.404,6.546C5.359,6.552,5.31,6.544,5.251,6.55C5.219,6.552,5.187,6.563,5.153,6.571
		C5.119,6.579,5.084,6.581,5.052,6.59C4.989,6.604,4.926,6.629,4.87,6.648C4.809,6.667,4.74,6.678,4.675,6.693
		C4.608,6.709,4.539,6.73,4.478,6.733C4.4,6.736,4.315,6.721,4.23,6.721c-0.086,0-0.168,0.006-0.248,0.012
		c-0.051,0.004-0.101,0-0.152,0.006C3.74,6.75,3.644,6.77,3.547,6.773C3.495,6.774,3.443,6.772,3.391,6.776
		C3.367,6.778,3.344,6.785,3.32,6.786C3.242,6.788,3.168,6.79,3.099,6.8C3.012,6.814,2.925,6.829,2.857,6.874
		c-0.001,0.131-0.02,0.255-0.039,0.38c-0.006,0.041-0.017,0.081-0.021,0.12C2.79,7.451,2.805,7.53,2.813,7.61
		c0.002,0.024-0.002,0.05,0,0.074c0.009,0.115,0.049,0.235,0.021,0.354c-0.04,0.026-0.122,0.011-0.159-0.01
		C2.65,8.014,2.625,7.98,2.603,7.958c-0.048-0.051-0.091-0.087-0.14-0.141C2.439,7.79,2.41,7.762,2.397,7.733
		C2.378,7.688,2.369,7.639,2.343,7.592C2.297,7.509,2.261,7.414,2.239,7.307C2.228,7.253,2.206,7.2,2.2,7.154
		C2.197,7.128,2.202,7.104,2.197,7.083c-0.004-0.02-0.012-0.04-0.018-0.058c-0.011-0.037-0.025-0.069-0.03-0.119
		c-0.052-0.008-0.1-0.019-0.146-0.013C1.947,6.9,1.91,6.937,1.863,6.942c-0.028,0.003-0.061,0-0.092-0.003
		C1.736,6.935,1.695,6.937,1.663,6.929C1.625,6.92,1.589,6.89,1.538,6.88C1.513,6.876,1.465,6.878,1.442,6.883
		C1.391,6.895,1.353,6.946,1.311,6.964C1.223,7,1.098,6.995,0.994,7.009c-0.104,0.014-0.2,0.056-0.305,0.058
		C0.632,7.069,0.575,7.059,0.517,7.059c-0.057,0-0.114,0.009-0.17,0.009C0.233,7.067,0.118,7.053,0,7.055
		c0.026-0.063,0.079-0.102,0.146-0.123c0.051-0.033,0.098-0.075,0.162-0.088C0.374,6.83,0.451,6.857,0.525,6.85
		c0.019-0.001,0.037-0.011,0.057-0.015C0.643,6.82,0.7,6.812,0.75,6.789c0.033-0.016,0.06-0.041,0.093-0.055
		c0.034-0.015,0.071-0.036,0.104-0.04c0.082-0.011,0.15,0,0.221-0.012c0.067-0.012,0.115-0.039,0.159-0.083
		c0.02-0.021,0.042-0.054,0.06-0.055c0.018-0.001,0.049,0.015,0.072,0.021C1.482,6.572,1.503,6.583,1.52,6.592
		C1.538,6.581,1.563,6.585,1.585,6.58c0.019-0.004,0.032-0.018,0.05-0.024c0.042-0.015,0.085-0.021,0.129-0.04
		C1.804,6.499,1.849,6.49,1.89,6.476c0.083-0.029,0.169-0.047,0.23-0.102c-0.013-0.002-0.018,0.004-0.03,0.003
		C2.084,6.371,2.103,6.367,2.105,6.347c0-0.008-0.007-0.024-0.009-0.04C2.089,6.264,2.086,6.22,2.081,6.178
		C2.073,6.119,2.05,6.064,2.063,6.012c0.017-0.063,0.084-0.077,0.096-0.145C2.157,5.82,2.146,5.772,2.146,5.724
		c0-0.082,0.018-0.158-0.006-0.224c-0.023-0.062-0.07-0.101-0.089-0.159C2.046,5.325,2.046,5.308,2.042,5.292
		C2.036,5.269,2.02,5.249,2.015,5.227c-0.019-0.084,0.002-0.19-0.033-0.273C1.928,4.826,1.774,4.741,1.69,4.641
		C1.67,4.618,1.658,4.59,1.636,4.568C1.56,4.488,1.495,4.391,1.451,4.276C1.46,4.345,1.449,4.419,1.454,4.494
		c0.002,0.029,0.011,0.051,0.009,0.08C1.456,4.659,1.426,4.735,1.454,4.807c0.02,0.051,0.089,0.083,0.102,0.138
		C1.566,4.992,1.562,5.032,1.552,5.07C1.534,5.145,1.466,5.184,1.454,5.254c-0.011,0.064,0.003,0.144,0,0.215
		C1.451,5.537,1.435,5.602,1.43,5.657C1.418,5.784,1.459,5.953,1.409,6.052C1.396,6.079,1.365,6.098,1.34,6.123
		C1.317,6.146,1.292,6.168,1.269,6.19C1.228,6.229,1.17,6.315,1.113,6.322c-0.094,0.011-0.173-0.02-0.238-0.04
		C0.838,6.271,0.802,6.265,0.77,6.254c-0.023-0.007-0.072-0.023-0.09-0.04C0.656,6.192,0.629,6.104,0.624,6.052
		C0.616,5.974,0.64,5.957,0.678,5.92c0.02-0.019,0.035-0.039,0.054-0.052c0.04-0.029,0.09-0.049,0.14-0.08
		c0.067-0.04,0.135-0.07,0.117-0.184C0.984,5.58,0.981,5.552,0.977,5.534C0.968,5.502,0.935,5.473,0.938,5.435
		c0.002-0.023,0.037-0.057,0.051-0.079C1.004,5.33,1.03,5.299,1.036,5.273c0.033-0.13-0.051-0.208-0.075-0.294
		C0.94,4.9,0.955,4.821,0.943,4.736C0.938,4.696,0.918,4.641,0.902,4.608C0.891,4.586,0.868,4.57,0.86,4.549
		C0.848,4.516,0.851,4.476,0.857,4.448c0.014-0.064,0.067-0.1,0.077-0.167c0.005-0.033,0-0.068,0.003-0.098
		c0.003-0.029,0.009-0.055,0.015-0.083c0.012-0.052,0.037-0.104,0.042-0.153c0.009-0.083-0.001-0.168,0-0.261
		c0-0.04,0.008-0.077,0.015-0.113C1.016,3.537,1.03,3.491,1.024,3.46c-0.01-0.047-0.079-0.069-0.102-0.11
		C0.921,3.238,0.929,3.126,0.914,3.015c-0.019-0.139,0.019-0.31-0.03-0.415c-0.01-0.022-0.037-0.06-0.054-0.08
		c-0.04-0.047-0.096-0.076-0.12-0.129C0.669,2.303,0.697,2.139,0.708,2.015c0.002-0.021-0.001-0.041,0-0.058
		C0.71,1.922,0.72,1.888,0.716,1.85C0.71,1.776,0.67,1.729,0.648,1.662C0.633,1.616,0.615,1.527,0.626,1.475
		c0.007-0.027,0.024-0.06,0.042-0.088c0.026-0.044,0.055-0.123,0.11-0.126c0.057-0.003,0.064,0.056,0.099,0.083
		C0.905,1.441,0.936,1.529,0.97,1.616C0.986,1.655,1.063,1.697,1.102,1.72C1.148,1.748,1.19,1.767,1.254,1.788
		C1.292,1.8,1.343,1.81,1.355,1.834c0.01,0.02,0.013,0.073,0.018,0.11c0.006,0.041,0.014,0.079,0.018,0.11
		c0.011,0.082,0.013,0.162,0.024,0.233C1.426,2.36,1.443,2.433,1.454,2.506C1.465,2.583,1.47,2.66,1.48,2.736
		c0.005,0.035,0.011,0.075,0.021,0.107c0.035,0.11,0.158,0.149,0.212,0.255c0.012,0.022,0.018,0.051,0.03,0.076
		c0.012,0.025,0.02,0.051,0.03,0.077c0.019,0.048,0.042,0.094,0.068,0.142C1.868,3.438,1.885,3.489,1.908,3.54
		C1.93,3.59,1.955,3.639,1.971,3.687c0.018,0.055,0.03,0.11,0.05,0.162C2.04,3.898,2.07,3.941,2.089,3.991
		c0.043,0.103,0.073,0.207,0.123,0.3C2.24,4.342,2.28,4.383,2.311,4.429C2.297,4.351,2.275,4.27,2.26,4.181
		C2.252,4.133,2.244,4.082,2.233,4.033C2.224,3.995,2.208,3.96,2.203,3.92c-0.007-0.065,0-0.14,0-0.211
		c0-0.069-0.002-0.14,0.003-0.206c0.001-0.02,0.01-0.039,0.012-0.059c0.007-0.072,0.015-0.145,0.021-0.218
		c0.007-0.084-0.002-0.17,0.002-0.251C2.244,2.938,2.25,2.899,2.254,2.862c0.01-0.106,0.037-0.164,0.084-0.239
		c0.074-0.122,0.148-0.257,0.25-0.341C2.632,2.23,2.602,2.153,2.58,2.085c-0.016-0.046-0.03-0.09-0.048-0.125
		C2.502,1.903,2.46,1.861,2.427,1.803c-0.011-0.02-0.026-0.039-0.03-0.056C2.381,1.686,2.394,1.594,2.394,1.531
		c0-0.076-0.01-0.147-0.009-0.209C2.387,1.256,2.414,1.175,2.4,1.107C2.391,1.062,2.365,1.016,2.343,0.975
		C2.28,0.853,2.168,0.778,2.12,0.637c0.011-0.074,0.05-0.119,0.078-0.174c0.059-0.052,0.096-0.118,0.134-0.185
		c0.036-0.063,0.085-0.14,0.146-0.172c0.039-0.02,0.101-0.028,0.152-0.046c0.022-0.008,0.044-0.018,0.066-0.028
		c0.025-0.011,0.051-0.026,0.078-0.03c0.051-0.008,0.168,0.004,0.212,0.022c0.034,0.013,0.062,0.052,0.083,0.085
		c0.02,0.029,0.06,0.08,0.06,0.111c0,0.037-0.048,0.104-0.075,0.15C3.007,0.451,2.939,0.53,2.911,0.628
		c-0.03,0.105,0.021,0.21,0.03,0.297C2.945,0.97,2.938,1.019,2.947,1.07c0.007,0.044,0.017,0.088,0.018,0.132
		c0.002,0.099,0.017,0.192,0.024,0.272c0.002,0.024-0.002,0.052,0,0.071c0.009,0.095,0.035,0.2,0.018,0.289
		c-0.008,0.043-0.08,0.106-0.11,0.138C2.859,2.01,2.792,2.059,2.791,2.113C2.79,2.159,2.83,2.188,2.848,2.214
		c0.022,0.121,0.039,0.272-0.003,0.38C2.827,2.641,2.795,2.675,2.78,2.721c-0.008,0.022-0.013,0.05-0.019,0.076
		C2.756,2.823,2.746,2.848,2.744,2.871c-0.005,0.044,0.007,0.1,0.012,0.141c0.008,0.071,0,0.148,0,0.221
		c0,0.072-0.007,0.141-0.012,0.208C2.739,3.502,2.763,3.558,2.768,3.619c0.003,0.045,0.003,0.088,0.009,0.132
		c0.016,0.116,0.027,0.273,0.006,0.402C2.778,4.179,2.77,4.205,2.768,4.233c-0.004,0.043,0.002,0.088,0,0.132
		C2.766,4.406,2.756,4.444,2.755,4.484c-0.003,0.125,0.04,0.255,0.021,0.399C2.758,5.028,2.688,5.156,2.684,5.294
		C2.68,5.429,2.73,5.534,2.761,5.653c0.014,0.055,0.023,0.118,0.027,0.182c0.006,0.095-0.009,0.193,0,0.291
		c0.002,0.023,0.013,0.047,0.018,0.071C2.822,6.271,2.824,6.359,2.815,6.442"/>
</g>
</svg>
