<?php
if(!isset($color) || $color=="" || strtolower($color)=="black"){$color="000";}
if(strtolower($color)=="red"){$color="ed1c24";}
if(strtolower($color)=="blue"){$color="1c75bc";}
if(strtolower($color)=="green"){$color="00a651";}
if(strtolower($color)=="white"){$color="fff";}
header('Content-Type: text/xml');
// echo xml tag just in case short_open_tags is enabled in PHP config
echo '<?xml version="1.0" encoding="UTF-8"?>';
?>
<!-- Generator: Adobe Illustrator 15.0.0, SVG Export Plug-In . SVG Version: 6.00 Build 0)  -->
<!DOCTYPE svg PUBLIC "-//W3C//DTD SVG 1.1//EN" "http://www.w3.org/Graphics/SVG/1.1/DTD/svg11.dtd">
<svg version="1.1" id="Layer_1" xmlns="http://www.w3.org/2000/svg" xmlns:xlink="http://www.w3.org/1999/xlink" x="0px" y="0px"
	 width="17.899px" height="19.739px" viewBox="0 0 17.899 19.739" enable-background="new 0 0 17.899 19.739" xml:space="preserve">
<polygon fill="#<?php echo $color; ?>" points="0,0 0,12.038 4.866,19.739 13.202,19.739 17.899,12.081 17.899,0 "/>
<polygon fill="#FFFFFF" points="0.613,0.55 17.327,0.55 17.327,11.679 12.649,19.062 5.429,19.082 0.613,11.89 "/>
<rect fill="#<?php echo $color; ?>" x="1.629" y="1.65" width="14.79" height="2.475"/>
<polygon fill="#<?php echo $color; ?>" points="1.629,5.12 6.601,5.12 6.601,11.636 6.262,11.636 5.733,10.452 4.115,11.827 1.625,11.827 "/>
<polyline fill="#939598" points="1.625,11.827 5.839,18.152 6.601,18.152 6.601,14.217 6.326,14.196 5.606,15.278 3.078,12.795 
	4.115,11.827 "/>
<polygon fill="#939598" points="16.415,5.12 11.443,5.12 11.443,11.636 11.782,11.636 12.31,10.452 13.929,11.827 16.418,11.827 "/>
<polyline fill="#<?php echo $color; ?>" points="16.418,11.827 12.205,18.152 11.443,18.152 11.443,14.217 11.718,14.196 12.437,15.278 
	14.965,12.795 13.929,11.827 "/>
<polygon fill="#<?php echo $color; ?>" points="9.065,9.012 10.478,10.542 9.747,10.75 9.743,12.249 8.346,12.249 8.346,10.753 7.591,10.552 "/>
<polygon fill="#<?php echo $color; ?>" points="14.137,12.968 12.608,14.381 12.4,13.649 8.782,13.646 8.782,12.249 12.396,12.249 12.598,11.495 
	"/>
<polygon fill="#<?php echo $color; ?>" points="9.024,18.303 7.612,16.774 8.345,16.566 8.348,13.417 9.745,13.417 9.745,16.562 10.499,16.764 "/>
<polygon fill="#<?php echo $color; ?>" points="3.953,12.926 5.482,11.513 5.69,12.246 9.308,12.249 9.308,13.645 5.694,13.645 5.491,14.4 "/>
<rect fill="#<?php echo $color; ?>" x="7.701" y="7.745" width="2.549" height="0.629"/>
<polygon fill="#<?php echo $color; ?>" points="9.035,5.326 9.7,6.336 10.424,6.045 10.208,7.309 7.701,7.309 7.516,5.94 8.362,6.347 "/>
</svg>
