<?php
if(!isset($color) || $color=="" || strtolower($color)=="black"){$color="000";}
if(strtolower($color)=="red"){$color="ed1c24";}
if(strtolower($color)=="blue"){$color="1c75bc";}
if(strtolower($color)=="green"){$color="00a651";}
if(strtolower($color)=="white"){$color="fff";}
header('Content-Type: text/xml');
// echo xml tag just in case short_open_tags is enabled in PHP config
echo '<?xml version="1.0" encoding="UTF-8"?>';
?>
<!-- Generator: Adobe Illustrator 15.0.0, SVG Export Plug-In . SVG Version: 6.00 Build 0)  -->
<!DOCTYPE svg PUBLIC "-//W3C//DTD SVG 1.1//EN" "http://www.w3.org/Graphics/SVG/1.1/DTD/svg11.dtd">
<svg version="1.1" id="Layer_1" xmlns="http://www.w3.org/2000/svg" xmlns:xlink="http://www.w3.org/1999/xlink" x="0px" y="0px"
	 width="16.779px" height="20.916px" viewBox="0 0 16.779 20.916" enable-background="new 0 0 16.779 20.916" xml:space="preserve">
<g>
	<rect fill="#<?php echo $color; ?>" x="10.916" width="0.798" height="0.784"/>
	<rect fill="#<?php echo $color; ?>" x="10.06" y="0.784" width="0.856" height="0.885"/>
	<polygon fill="#<?php echo $color; ?>" points="6.721,1.669 10.06,1.669 10.06,2.454 10.916,2.454 10.916,3.31 16.779,3.31 16.779,4.964 
		15.14,4.964 15.096,13.384 16.779,13.384 16.779,20.031 0,20.031 0,13.369 1.658,13.372 1.684,4.979 0,4.979 0,3.31 5.898,3.315 
		5.893,2.454 6.724,2.457 	"/>
	<rect x="3.324" y="4.979" fill="#FFFFFF" width="10.157" height="1.666"/>
	<rect x="3.324" y="8.323" fill="#FFFFFF" width="10.157" height="1.666"/>
	<rect x="3.312" y="11.698" fill="#FFFFFF" width="10.157" height="1.666"/>
	<rect x="6.657" y="15.029" fill="#FFFFFF" width="3.416" height="1.666"/>
	<polygon fill="#FFFFFF" points="10.073,16.695 11.75,16.695 11.75,20.031 16.779,20.031 16.779,20.916 0,20.916 0,20.031 
		4.978,20.031 4.979,16.695 6.657,16.695 6.657,20.031 10.073,20.031 	"/>
</g>
</svg>
