<?php
if(!isset($color) || $color=="" || strtolower($color)=="black"){$color="000";}
if(strtolower($color)=="red"){$color="ed1c24";}
if(strtolower($color)=="blue"){$color="1c75bc";}
if(strtolower($color)=="green"){$color="00a651";}
if(strtolower($color)=="white"){$color="fff";}
header('Content-Type: text/xml');
// echo xml tag just in case short_open_tags is enabled in PHP config
echo '<?xml version="1.0" encoding="UTF-8"?>';
?>
<!-- Generator: Adobe Illustrator 15.0.0, SVG Export Plug-In . SVG Version: 6.00 Build 0)  -->
<!DOCTYPE svg PUBLIC "-//W3C//DTD SVG 1.1//EN" "http://www.w3.org/Graphics/SVG/1.1/DTD/svg11.dtd">
<svg version="1.1" id="Layer_1" xmlns="http://www.w3.org/2000/svg" xmlns:xlink="http://www.w3.org/1999/xlink" x="0px" y="0px"
	 width="8.936px" height="10.109px" viewBox="0 0 8.936 10.109" enable-background="new 0 0 8.936 10.109" xml:space="preserve">
<g>
	<defs>
		<rect id="SVGID_1_" x="0.001" y="0.001" width="8.934" height="10.108"/>
	</defs>
	<clipPath id="SVGID_2_">
		<use xlink:href="#SVGID_1_"  overflow="visible"/>
	</clipPath>
	<path clip-path="url(#SVGID_2_)" fill="#FFFFFF" d="M8.671,5.005c0-2.741-1.894-4.963-4.229-4.963c-2.336,0-4.23,2.222-4.23,4.963
		c0,2.742,1.895,4.963,4.23,4.963C6.777,9.968,8.671,7.747,8.671,5.005"/>
	<path fill="#<?php echo $color; ?>" clip-path="url(#SVGID_2_)" d="M5.114,0L3.811,0.062C1.66,0.074,0.003,2.308,0,5.056c0.003,2.747,1.66,4.981,3.821,4.993
		l1.282,0.059l0.011-0.221v0.221c2.165-0.013,3.821-2.306,3.821-5.052C8.936,2.309,7.279,0.017,5.114,0 M0.444,5.056
		c0.001-2.364,1.302-4.192,2.908-4.498c-1.294,0.78-2.178,2.507-2.178,4.498c0,1.987,0.884,3.715,2.175,4.494
		C1.74,9.239,0.445,7.412,0.444,5.056 M5.122,9.665L3.997,9.611C2.519,9.077,1.4,7.26,1.398,5.056
		C1.4,2.851,2.519,1.032,3.997,0.497l1.126-0.051c1.8,0.005,3.363,2.018,3.365,4.61C8.486,7.642,6.928,9.655,5.122,9.665"/>
</g>
</svg>
