<?php
if(!isset($color) || $color=="" || strtolower($color)=="black"){$color="000";}
if(strtolower($color)=="red"){$color="ed1c24";}
if(strtolower($color)=="blue"){$color="1c75bc";}
if(strtolower($color)=="green"){$color="00a651";}
if(strtolower($color)=="white"){$color="fff";}
header('Content-Type: text/xml');
// echo xml tag just in case short_open_tags is enabled in PHP config
echo '<?xml version="1.0" encoding="UTF-8"?>';
?>
<!-- Generator: Adobe Illustrator 15.0.0, SVG Export Plug-In . SVG Version: 6.00 Build 0)  -->
<!DOCTYPE svg PUBLIC "-//W3C//DTD SVG 1.1//EN" "http://www.w3.org/Graphics/SVG/1.1/DTD/svg11.dtd">
<svg version="1.1" id="Layer_1" xmlns="http://www.w3.org/2000/svg" xmlns:xlink="http://www.w3.org/1999/xlink" x="0px" y="0px"
	 width="10.701px" height="10.315px" viewBox="0 0 10.701 10.315" enable-background="new 0 0 10.701 10.315" xml:space="preserve">
<path fill="#<?php echo $color; ?>" d="M10.701,2.763c0-0.552-0.166-1.062-0.444-1.493C9.766,0.507,8.912,0,7.938,0C6.984,0,6.155,0.491,5.661,1.227
	c-0.124,0.186-0.232,0.383-0.31,0.596C5.273,1.607,5.163,1.408,5.038,1.221C4.543,0.488,3.715,0,2.764,0
	c-0.937,0-1.76,0.468-2.26,1.18C0.189,1.629,0,2.174,0,2.763c0,0.572,0.175,1.103,0.472,1.543l0.026,0.032L0.62,4.489l4.756,5.826
	l4.715-5.826h-0.012C10.462,4.014,10.701,3.419,10.701,2.763"/>
</svg>
