<?php
if(!isset($color) || $color=="" || strtolower($color)=="black"){$color="000";}
if(strtolower($color)=="red"){$color="ed1c24";}
if(strtolower($color)=="blue"){$color="1c75bc";}
if(strtolower($color)=="green"){$color="00a651";}
if(strtolower($color)=="white"){$color="fff";}
header('Content-Type: text/xml');
// echo xml tag just in case short_open_tags is enabled in PHP config
echo '<?xml version="1.0" encoding="UTF-8"?>';
?>
<!-- Generator: Adobe Illustrator 15.0.0, SVG Export Plug-In . SVG Version: 6.00 Build 0)  -->
<!DOCTYPE svg PUBLIC "-//W3C//DTD SVG 1.1//EN" "http://www.w3.org/Graphics/SVG/1.1/DTD/svg11.dtd">
<svg version="1.1" id="Layer_1" xmlns="http://www.w3.org/2000/svg" xmlns:xlink="http://www.w3.org/1999/xlink" x="0px" y="0px"
	 width="14.402px" height="11.5px" viewBox="0 0 14.402 11.5" enable-background="new 0 0 14.402 11.5" xml:space="preserve">
<polygon fill="#<?php echo $color; ?>" points="13.361,9.937 14.402,9.937 13.678,9.442 14.111,8.545 12.37,6.086 10.653,3.662 10.175,4.479 10.071,4.279 
	8.844,1.93 8.617,2.109 7.383,0 4.885,3.528 4.731,3.744 4.193,2.623 2.111,6.03 0.284,9.021 0.773,9.409 0,9.937 1.04,9.937 
	0.657,10.32 3.535,10.32 3.059,10.796 5.626,10.796 5.475,10.948 4.922,11.5 9.479,11.5 8.775,10.796 11.343,10.796 10.866,10.32 
	13.744,10.32 "/>
<polygon fill="#<?php echo $color; ?>" points="8.837,11.234 5.564,11.234 5.663,11.136 6.09,10.708 6.268,10.53 6.017,10.53 3.701,10.53 3.999,10.231 
	4.177,10.054 3.925,10.054 1.299,10.054 1.504,9.849 1.682,9.671 1.431,9.671 0.861,9.671 1.104,9.505 1.221,9.425 1.11,9.337 
	0.634,8.959 2.269,6.282 2.511,6.522 2.583,6.595 2.656,6.524 3.249,5.955 3.304,6.009 3.391,6.097 3.463,5.996 5.03,3.782 
	5.404,4.156 5.478,4.23 5.552,4.156 5.968,3.74 6.124,4.238 6.175,4.402 6.297,4.281 7.23,3.348 7.766,4.439 7.83,4.57 7.933,4.467 
	8.544,3.856 9.505,4.779 9.579,4.85 9.651,4.777 9.901,4.528 10.64,5.944 10.737,6.13 10.771,6.058 11.358,6.644 11.48,6.767 
	11.531,6.601 11.618,6.323 11.856,6.562 11.929,6.635 12.003,6.562 12.224,6.34 13.804,8.57 13.378,9.452 13.339,9.533 
	13.412,9.584 13.54,9.671 12.971,9.671 12.719,9.671 12.897,9.849 13.102,10.054 10.476,10.054 10.224,10.054 10.402,10.231 
	10.7,10.53 8.385,10.53 8.133,10.53 8.311,10.708 "/>
<path fill="#FFFFFF" d="M7.259,3.172l0.6,1.221L8.542,3.71l1.035,0.994l0.35-0.35l0.805,1.542l0.008-0.017l0.692,0.69l0.138-0.441
	l0.359,0.359l0.308-0.309l1.687,2.382l-0.453,0.938l0.406,0.276H12.97l0.383,0.384h-2.877l0.476,0.476H8.384l0.705,0.704H5.313
	l0.277-0.276l0.427-0.428H3.449l0.476-0.476H1.048l0.383-0.384H0.523l0.522-0.355L0.497,8.982l1.752-2.868l0.335,0.334L3.251,5.81
	l0.126,0.127l1.64-2.315l0.461,0.462l0.538-0.539l0.207,0.663L7.259,3.172z M7.2,3.525L6.371,4.354L6.127,4.598L6.025,4.269
	L5.92,3.935L5.625,4.23L5.479,4.377L5.331,4.23L5.044,3.943L3.547,6.056L3.405,6.258L3.248,6.101l-0.52,0.498L2.581,6.741
	L2.438,6.596L2.289,6.448L0.771,8.935l0.404,0.321l0.221,0.175L1.198,9.566h0.233h0.503L1.578,9.923L1.551,9.95h2.374h0.503
	l-0.355,0.355l-0.121,0.12h2.064h0.504l-0.356,0.356L5.816,11.13h2.769l-0.348-0.348l-0.356-0.356h0.503h2.065l-0.121-0.12
	L9.973,9.95h0.503h2.374l-0.027-0.027l-0.356-0.356h0.503h0.236l0.078-0.159l0.399-0.826l-1.473-2.08l-0.133,0.134l-0.148,0.147
	l-0.147-0.147l-0.116-0.116L11.63,6.633l-0.102,0.328l-0.244-0.243l-0.483-0.484L10.74,6.36l-0.193-0.367L9.874,4.702L9.725,4.851
	L9.58,4.996L9.433,4.854L8.545,4.002L8.006,4.541L7.8,4.746L7.672,4.485L7.2,3.525z"/>
<polygon fill="#FFFFFF" points="6.017,3.544 6.224,4.207 7.259,3.171 7.86,4.393 8.542,3.71 9.578,4.703 9.928,4.354 8.791,2.178 
	8.572,2.351 7.371,0.298 5.017,3.621 5.479,4.082 "/>
<polygon fill="#FFFFFF" points="11.57,6.128 11.432,6.569 10.741,5.879 10.34,6.694 9.883,6.239 9.192,6.901 8.959,6.669 
	9.717,5.215 9.864,5.331 10.666,3.96 12.237,6.179 11.929,6.487 "/>
<polygon fill="#FFFFFF" points="3.251,5.809 3.691,6.249 4.078,5.462 4.744,6.129 4.878,5.702 5.224,6.049 5.517,5.756 4.176,2.961 
	2.25,6.114 2.584,6.448 "/>
</svg>
