<?php
if(!isset($color) || $color=="" || strtolower($color)=="black"){$color="000";}
if(strtolower($color)=="red"){$color="ed1c24";}
if(strtolower($color)=="blue"){$color="1c75bc";}
if(strtolower($color)=="green"){$color="00a651";}
if(strtolower($color)=="white"){$color="fff";}
header('Content-Type: text/xml');
// echo xml tag just in case short_open_tags is enabled in PHP config
echo '<?xml version="1.0" encoding="UTF-8"?>';
?>
<!-- Generator: Adobe Illustrator 15.0.0, SVG Export Plug-In . SVG Version: 6.00 Build 0)  -->
<!DOCTYPE svg PUBLIC "-//W3C//DTD SVG 1.1//EN" "http://www.w3.org/Graphics/SVG/1.1/DTD/svg11.dtd">
<svg version="1.1" id="Layer_1" xmlns="http://www.w3.org/2000/svg" xmlns:xlink="http://www.w3.org/1999/xlink" x="0px" y="0px"
	 width="15.606px" height="11.5px" viewBox="0 0 15.606 11.5" enable-background="new 0 0 15.606 11.5" xml:space="preserve">
<g>
	<path fill="#<?php echo $color; ?>" d="M15.606,5.526l-0.03-0.053l-1.037-1.828l-1.756-0.401h-0.269c-0.043-0.1-0.082-0.195-0.111-0.275
		c-0.038-0.101-0.057-0.188-0.054-0.198c-0.003-0.075-0.029-0.111-0.052-0.153c-0.094-0.145-0.29-0.336-0.547-0.573
		c-0.769-0.7-2.049-1.703-2.051-1.705L9.653,0.304l-4.08,0.291L5.54,0.689c0,0.001-0.095,0.267-0.237,0.646
		C5.174,1.68,5.007,2.117,4.838,2.528L3.042,2.079L0.537,3.501L0,5.848v1.32l0.968,0.774c-0.06,0.289-0.103,0.557-0.103,0.767
		c0.005,0.14,0.007,0.259,0.106,0.37c0.282,0.282,1.197,1.197,1.197,1.197l0.1,0.1l0.937-0.813l0.223,0.509l1.353,0.034l0.124,0.576
		l0.597,0.348l0.394,0.123l0.35-0.236l0.185-0.238l1.234,0.394l1.659-0.326l0.284-0.821l0.5,0.37l-0.023,0.038l-0.032,0.053
		l0.154,0.711l0.509,0.297l0.342,0.106l0.305-0.206l0.284-0.367l0.212-0.959l-0.223-0.093l0.243-0.243l0.069,0.193l0.618,0.232
		l0.061-0.031c0.001,0,0.432-0.225,0.865-0.475c0.217-0.125,0.434-0.255,0.601-0.369c0.084-0.058,0.155-0.11,0.211-0.16
		c0.028-0.026,0.052-0.051,0.074-0.079c0.021-0.03,0.047-0.064,0.05-0.134c0.001-0.043-0.019-0.096-0.053-0.127
		c-0.04-0.039-0.179-0.211-0.334-0.398l1.058-0.73L15.606,5.526z"/>
	<path fill="#FFFFFF" d="M15.444,5.244l-1.004-1.77l-1.674-0.382h-0.351c-0.121-0.272-0.218-0.521-0.218-0.625
		c0-0.281-2.591-2.312-2.591-2.312L5.683,0.436c0,0-0.381,1.073-0.755,1.967L3.065,1.937L0.67,3.296L0.152,5.561v1.23l0.971,0.776
		l0.015,0.005C1.025,8.085,0.964,8.554,1.079,8.668C1.36,8.949,2.275,9.864,2.275,9.864l0.987-0.855l0.267,0.609l1.375,0.036
		L5.04,10.28l0.525,0.306l0.306,0.097l0.27-0.182l0.235-0.305l1.298,0.415l1.535-0.302l0.323-0.936l0.778,0.577l-0.095,0.157
		l0.126,0.586l0.437,0.254l0.256,0.08l0.224-0.151l0.248-0.321l0.177-0.801l-0.315-0.132l0.574-0.573l0.126,0.354l0.489,0.183
		c0,0,1.849-0.963,1.712-1.101c-0.066-0.065-0.257-0.306-0.451-0.537l1.148-0.792L15.444,5.244z"/>
	<path fill="#<?php echo $color; ?>" d="M10.716,11.089l-0.509-0.298l-0.154-0.711l0.032-0.052l0.023-0.038l-0.5-0.37l-0.284,0.822l-1.659,0.324l-1.234-0.393
		l-0.185,0.239l-0.35,0.235l-0.393-0.123l-0.598-0.349L4.781,9.804L3.428,9.769l-0.223-0.51l-0.937,0.813l-0.1-0.101
		c0,0-0.915-0.914-1.197-1.196C0.872,8.664,0.87,8.546,0.865,8.404c0.001-0.209,0.043-0.478,0.103-0.766L0,6.864v-1.32l0.537-2.348
		l2.506-1.422l1.795,0.449c0.169-0.41,0.337-0.848,0.466-1.192C5.445,0.652,5.54,0.385,5.54,0.385l0.033-0.094L9.653,0l0.046,0.036
		c0.002,0.001,1.282,1.004,2.051,1.705c0.258,0.236,0.453,0.427,0.547,0.573c0.024,0.042,0.049,0.078,0.052,0.153
		c-0.002,0.009,0.017,0.097,0.055,0.198c0.028,0.08,0.067,0.174,0.11,0.275h0.269l1.756,0.401l1.037,1.828l-0.132,0.075l0.132-0.075
		l0.03,0.053l-0.507,2.027l-1.058,0.73c0.155,0.188,0.295,0.359,0.334,0.398c0.035,0.032,0.054,0.086,0.053,0.127
		c-0.003,0.07-0.029,0.104-0.049,0.133c-0.023,0.029-0.047,0.055-0.075,0.08c-0.056,0.051-0.127,0.103-0.211,0.16
		c-0.167,0.114-0.384,0.245-0.601,0.37c-0.433,0.249-0.864,0.474-0.865,0.474l-0.06,0.031l-0.619-0.232l-0.069-0.193L11.636,9.57
		l0.223,0.094l-0.212,0.958l-0.284,0.367l-0.305,0.206L10.716,11.089z M10.512,9.911l-0.136,0.225l0.1,0.461l0.364,0.211
		l0.169,0.054l0.144-0.097l0.212-0.274l0.142-0.644l-0.406-0.172l0.904-0.902l0.182,0.514l0.359,0.135
		c0.082-0.044,0.239-0.127,0.426-0.229c0.275-0.151,0.612-0.343,0.858-0.503c0.106-0.068,0.198-0.137,0.253-0.182
		c-0.095-0.111-0.235-0.285-0.382-0.461l-0.107-0.128l1.238-0.854l0.45-1.798l-0.941-1.658l-1.592-0.364h-0.433l-0.04-0.09
		c-0.061-0.138-0.117-0.271-0.159-0.386c-0.038-0.109-0.066-0.194-0.071-0.281c-0.002-0.003-0.004-0.007-0.007-0.012
		c-0.012-0.02-0.036-0.052-0.069-0.089c-0.065-0.076-0.163-0.176-0.283-0.288c-0.238-0.226-0.561-0.505-0.883-0.776
		C10.26,0.867,9.716,0.436,9.558,0.311L5.793,0.58C5.692,0.861,5.378,1.72,5.069,2.461L5.018,2.582L3.087,2.099L0.803,3.395
		L0.304,5.578v1.139l0.895,0.716l0.116,0.043L1.286,7.605C1.217,7.919,1.169,8.218,1.169,8.404c0,0.049,0.004,0.09,0.009,0.118
		C1.182,8.546,1.187,8.56,1.189,8.563c0.227,0.227,0.85,0.849,1.094,1.093l1.036-0.897l0.31,0.711l1.398,0.035l0.147,0.678
		l0.452,0.264l0.221,0.068l0.189-0.127l0.285-0.369l1.362,0.436l1.41-0.277L9.456,9.13L10.512,9.911z M14.135,8.456L14.135,8.456z"
		/>
	<polygon fill="#FFFFFF" points="1.123,7.567 2.87,8.214 6.624,7.892 6.948,4.461 5.653,2.584 3.065,1.937 0.67,3.296 0.152,5.561 
		0.152,6.791 	"/>
	<path fill="#<?php echo $color; ?>" d="M1.083,7.675l0.04-0.107l0.071-0.09l-0.071,0.09L1.083,7.675L1.066,7.667L0.038,6.846V5.548L0.57,3.222l2.478-1.407
		l2.675,0.669l1.342,1.947L6.729,7.997L2.855,8.331L1.083,7.675z M2.886,8.099l3.634-0.313l0.31-3.294L5.584,2.685L3.081,2.059
		L0.771,3.371L0.266,5.573v1.162L1.18,7.466L2.886,8.099z"/>
	<path fill="#FFFFFF" d="M3.331,8.949l1.408-1.9L3.366,5.677L1.572,5.993c0,0-0.775,2.393-0.493,2.676
		c0.281,0.28,1.196,1.195,1.196,1.195L3.331,8.949z"/>
	<path fill="#<?php echo $color; ?>" d="M2.195,9.944c-0.001,0-0.915-0.914-1.196-1.195C0.913,8.653,0.907,8.542,0.904,8.405c0.003-0.74,0.559-2.439,0.559-2.446
		l0.022-0.066l1.92-0.339l1.484,1.484L3.423,9.017l-0.007,0.01L2.27,10.02L2.195,9.944z M1.405,6.967
		C1.267,7.478,1.131,8.082,1.132,8.405c-0.001,0.086,0.011,0.15,0.023,0.172c0.003,0.009,0.005,0.01,0.005,0.01
		c0.232,0.232,0.897,0.896,1.121,1.122l0.966-0.837L4.589,7.06L3.328,5.8L1.66,6.094C1.616,6.232,1.511,6.574,1.405,6.967"/>
	<path fill="#FFFFFF" d="M4.283,3.587c0.28,0,1.401-3.152,1.401-3.152l3.922-0.28c0,0,2.591,2.031,2.591,2.312
		c0,0.28,0.701,1.61,0.701,1.61l-2.101,2.382L6.879,8.88L4.148,7.271L4.283,3.587z"/>
	<path fill="#<?php echo $color; ?>" d="M4.031,7.333l0.138-3.75l0.004-0.11h0.089C4.263,3.472,4.264,3.471,4.265,3.47c0.014-0.014,0.037-0.042,0.063-0.082
		C4.381,3.31,4.446,3.19,4.517,3.045c0.142-0.291,0.308-0.683,0.465-1.076c0.314-0.785,0.593-1.57,0.594-1.572l0.025-0.07
		l4.04-0.288l0.035,0.027c0.001,0.001,1.282,1.004,2.048,1.703c0.257,0.235,0.452,0.428,0.54,0.565
		c0.023,0.039,0.044,0.072,0.047,0.133c-0.003,0.029,0.036,0.17,0.101,0.327c0.064,0.161,0.151,0.352,0.238,0.534
		c0.174,0.365,0.348,0.696,0.348,0.696l0.037,0.07l-2.164,2.453L6.88,9.015L4.031,7.333z M4.264,7.206l2.614,1.541l3.844-2.376
		l2.038-2.31c-0.102-0.197-0.396-0.772-0.56-1.182c-0.064-0.166-0.112-0.294-0.117-0.402c-0.002-0.004-0.006-0.012-0.012-0.022
		C12.057,2.432,12.032,2.4,12,2.361c-0.067-0.077-0.166-0.178-0.286-0.291c-0.239-0.227-0.562-0.506-0.885-0.777
		C10.269,0.826,9.711,0.384,9.57,0.272L5.765,0.544C5.653,0.858,5.183,2.15,4.807,2.966C4.66,3.28,4.539,3.516,4.424,3.633
		c-0.009,0.009-0.019,0.018-0.03,0.026L4.264,7.206z"/>
	<polygon fill="#FFFFFF" points="11.284,3.809 10.806,5.1 11.044,7.874 13.579,8.113 14.966,7.157 15.444,5.244 14.439,3.474 
		12.766,3.092 11.858,3.092 	"/>
	<path fill="#<?php echo $color; ?>" d="M10.939,7.979l-0.25-2.895l0.487-1.315l0.007-0.018l0.619-0.774h0.977l1.735,0.396l1.052,1.853l-0.5,1.999l-1.457,1.005
		L10.939,7.979z M10.921,5.116l0.229,2.654l2.398,0.226l1.317-0.909l0.457-1.827l-0.957-1.686l-1.612-0.368h-0.841l-0.528,0.66
		L10.921,5.116z"/>
	<path fill="#FFFFFF" d="M12.068,9.403l-0.336-0.947l0.611-0.582c0,0,0.856-0.427,0.978-0.427c0.123,0,0.811,0.902,0.948,1.04
		c0.138,0.138-1.712,1.101-1.712,1.101L12.068,9.403z"/>
	<path fill="#<?php echo $color; ?>" d="M12.027,9.511l0.04-0.107l0.108-0.038l-0.108,0.038L12.027,9.511l-0.049-0.02l-0.379-1.066l0.677-0.645l0.015-0.007
		c0.004-0.002,0.652-0.327,0.917-0.416c0.04-0.013,0.068-0.023,0.113-0.025c0.08,0.007,0.101,0.037,0.142,0.065
		c0.037,0.03,0.076,0.068,0.12,0.113c0.087,0.091,0.19,0.209,0.293,0.331c0.204,0.244,0.417,0.51,0.473,0.564
		c0.027,0.025,0.042,0.068,0.041,0.1c-0.002,0.056-0.024,0.084-0.042,0.11c-0.02,0.026-0.043,0.05-0.07,0.074
		c-0.054,0.048-0.124,0.101-0.207,0.157c-0.165,0.113-0.382,0.244-0.598,0.367c-0.432,0.25-0.863,0.474-0.864,0.475l-0.045,0.023
		L12.027,9.511z M12.549,9.462c0.078-0.041,0.249-0.131,0.455-0.246c0.281-0.153,0.625-0.351,0.87-0.512
		c0.116-0.074,0.214-0.15,0.262-0.193c-0.063-0.072-0.153-0.184-0.257-0.309c-0.135-0.164-0.29-0.351-0.413-0.484
		c-0.067-0.072-0.13-0.131-0.159-0.152C13.3,7.567,13.291,7.57,13.28,7.573c-0.031,0.01-0.073,0.026-0.12,0.046
		c-0.095,0.039-0.212,0.093-0.326,0.146c-0.192,0.089-0.373,0.179-0.425,0.205l-0.546,0.518l0.294,0.828L12.549,9.462z
		 M14.167,8.476L14.167,8.476z M13.294,7.556L13.294,7.556"/>
	<path fill="#FFFFFF" d="M8.192,8.382l2.538,1.881l1.832-1.834L12.14,6.032c0,0-3.196-1.034-3.572-0.658S6.97,6.973,6.97,6.973
		L8.192,8.382z"/>
	<path fill="#<?php echo $color; ?>" d="M8.125,8.474l0.068-0.091l0.086-0.075L8.193,8.383L8.125,8.474l-0.01-0.007l-1.3-1.5L6.89,6.892
		c0.002-0.001,1.222-1.222,1.598-1.597C8.596,5.193,8.74,5.182,8.92,5.179c0.974,0.003,3.248,0.745,3.255,0.746l0.065,0.021
		l0.446,2.523l-1.945,1.942L8.125,8.474z M10.719,10.111l1.721-1.721l-0.4-2.27c-0.169-0.053-0.642-0.201-1.19-0.348
		c-0.684-0.185-1.49-0.367-1.93-0.366C8.761,5.402,8.656,5.439,8.649,5.456c-0.32,0.319-1.251,1.251-1.523,1.522l1.144,1.32
		L10.719,10.111z"/>
	<polygon fill="#FFFFFF" points="3.345,6.624 4.911,6.209 6.017,7.315 6.431,8.743 5.326,9.664 3.529,9.618 3.207,8.882 	"/>
	<path fill="#<?php echo $color; ?>" d="M3.453,9.731l-0.362-0.83l0.14-2.284l0.005-0.082l1.709-0.453l1.173,1.173l0.444,1.528L5.366,9.78L3.453,9.731z
		 M3.322,8.86l0.282,0.646l1.682,0.043l1.015-0.845L5.915,7.375L4.877,6.336L3.454,6.713L3.322,8.86z"/>
	<polygon fill="#FFFFFF" points="9.738,8.778 9.209,10.31 7.674,10.611 6.258,10.158 6.11,8.728 7.15,7.261 7.941,7.405 	"/>
	<path fill="#<?php echo $color; ?>" d="M6.152,10.245L5.991,8.696l1.107-1.56l0.89,0.161l1.819,1.39L9.738,8.778l0.069-0.092l0.065,0.051l-0.577,1.672
		l-1.628,0.318L6.152,10.245z M6.228,8.759l0.136,1.314l1.318,0.42l1.441-0.283l0.481-1.391l-1.71-1.307L7.2,7.387L6.228,8.759z"/>
	<polygon fill="#FFFFFF" points="11.258,10.878 11.506,10.556 11.684,9.755 10.992,9.466 10.518,9.612 10.214,10.108 10.341,10.693 
		10.778,10.948 11.034,11.028 	"/>
	<path fill="#<?php echo $color; ?>" d="M10.732,11.054l-0.492-0.287l-0.147-0.68l0.349-0.572l0.555-0.17l0.818,0.342l-0.203,0.92l-0.264,0.341l-0.011,0.015
		l-0.285,0.192L10.732,11.054z M10.592,9.708l-0.257,0.42l0.107,0.492l0.383,0.223l0.19,0.061l0.164-0.11l0.221-0.286l0.151-0.684
		l-0.566-0.236L10.592,9.708z"/>
	<polygon fill="#FFFFFF" points="6.142,10.501 6.439,10.114 6.651,9.152 5.82,8.804 5.251,8.98 4.887,9.577 5.04,10.28 
		5.564,10.587 5.872,10.683 	"/>
	<path fill="#<?php echo $color; ?>" d="M5.518,10.69l-0.579-0.337L4.766,9.556l0.41-0.671l0.65-0.202l0.957,0.4l-0.238,1.082l-0.314,0.406L6.22,10.585
		l-0.33,0.223L5.518,10.69z M5.326,9.077l-0.318,0.52l0.132,0.609l0.471,0.275l0.242,0.075l0.209-0.142l0.271-0.351L6.52,9.221
		L5.815,8.925L5.326,9.077z"/>
	<polygon fill="#<?php echo $color; ?>" points="11.61,5.839 12.616,5.404 13.466,5.404 14.418,5.444 15.321,5.098 15.348,5.169 14.432,5.521 13.465,5.48 
		12.631,5.48 11.64,5.909 	"/>
	<polygon fill="#<?php echo $color; ?>" points="4.269,3.623 4.296,3.552 5.898,4.161 7.002,3.885 8.164,3.204 9.328,2.963 10.12,2.646 10.85,1.998 12.078,2.234 
		12.064,2.308 10.872,2.079 10.161,2.712 9.35,3.036 8.192,3.276 7.031,3.956 5.893,4.241 	"/>
	<path fill="#<?php echo $color; ?>" d="M8.215,3.245L8.215,3.245z M8.141,3.234l0.201-1.327l0.486-0.972L9.579,0.13l0.055,0.051L8.891,0.979L8.416,1.93
		l-0.2,1.315L8.141,3.234z"/>
	<polygon fill="#<?php echo $color; ?>" points="7.683,1.593 6.478,1.191 5.712,0.587 5.759,0.527 6.515,1.123 7.713,1.523 8.396,1.885 8.361,1.952 	"/>
	<polygon fill="#<?php echo $color; ?>" points="8.531,7.819 10.493,7.648 11.12,7.412 12.155,6.251 12.211,6.302 11.164,7.477 10.509,7.723 8.538,7.896 	"/>
	<polygon fill="#<?php echo $color; ?>" points="7.495,9.245 6.649,9.19 6.654,9.114 7.498,9.169 8.183,9.188 8.561,8.811 9.621,8.655 9.632,8.73 8.597,8.882 
		8.214,9.266 	"/>
	<rect fill="#<?php echo $color; ?>" x="6.296" y="4.148" transform="matrix(-0.9716 0.2365 -0.2365 -0.9716 13.9074 10.3239)" width="0.076" height="3.696"/>
	<polygon fill="#<?php echo $color; ?>" points="0.655,3.331 0.655,3.331 0.685,3.261 1.377,3.562 2.321,3.522 2.843,3.242 3.477,3.242 4.455,2.264 4.509,2.317 
		3.508,3.317 2.862,3.317 2.342,3.598 1.363,3.639 	"/>
	<polygon fill="#<?php echo $color; ?>" points="2.305,3.587 2.358,3.533 2.86,4.036 3.301,3.853 3.457,3.27 3.53,3.289 3.365,3.908 2.844,4.126 	"/>
	<polygon fill="#<?php echo $color; ?>" points="2.628,5.794 2.774,4.92 2.814,4.079 2.89,4.083 2.849,4.928 2.703,5.807 	"/>
	<polygon fill="#<?php echo $color; ?>" points="3.31,8.917 4.029,8.442 4.409,8.342 5.24,8.415 6.188,8.001 6.218,8.071 5.253,8.493 4.416,8.419 4.061,8.513 
		3.352,8.981 	"/>
	<path fill="#<?php echo $color; ?>" d="M2.621,7.664l-0.788-0.12L1.259,7.001l0.052-0.055l0.557,0.527l0.765,0.116l0.65,0.096L3.272,7.76L2.621,7.664z
		 M1.259,7.001L1.259,7.001z"/>
</g>
</svg>
