<?php
if(!isset($color) || $color=="" || strtolower($color)=="black"){$color="000";}
if(strtolower($color)=="red"){$color="ed1c24";}
if(strtolower($color)=="blue"){$color="1c75bc";}
if(strtolower($color)=="green"){$color="00a651";}
if(strtolower($color)=="white"){$color="fff";}
header('Content-Type: text/xml');
// echo xml tag just in case short_open_tags is enabled in PHP config
echo '<?xml version="1.0" encoding="UTF-8"?>';
?>
<!-- Generator: Adobe Illustrator 15.0.0, SVG Export Plug-In . SVG Version: 6.00 Build 0)  -->
<!DOCTYPE svg PUBLIC "-//W3C//DTD SVG 1.1//EN" "http://www.w3.org/Graphics/SVG/1.1/DTD/svg11.dtd">
<svg version="1.1" id="Layer_1" xmlns="http://www.w3.org/2000/svg" xmlns:xlink="http://www.w3.org/1999/xlink" x="0px" y="0px"
	 width="13.633px" height="11.5px" viewBox="0 0 13.633 11.5" enable-background="new 0 0 13.633 11.5" xml:space="preserve">
<g>
	<path fill="#<?php echo $color; ?>" d="M3.47,8.355c-0.045,0-0.091,0-0.139-0.002H2.51C2.47,8.355,2.424,8.355,2.377,8.355c-1.09,0-1.828-0.635-1.859-0.663
		l-0.22-0.192L0.59,7.486c0.375-0.019,0.735-0.181,1.077-0.482C1.136,6.837,0.807,6.553,0.79,6.54L0.57,6.347l0.292-0.014
		c0.365-0.019,0.715-0.193,1.043-0.52C1.397,5.675,1.078,5.4,1.063,5.386l-0.22-0.192l0.292-0.015
		c0.353-0.017,0.688-0.207,0.999-0.564C1.656,4.509,1.352,4.246,1.338,4.233L1.116,4.041l0.292-0.015
		c0.75-0.037,1.218-1.019,1.385-1.439l0.021-0.052l0.111-0.289l0.109,0.29c0.006,0.016,0.013,0.033,0.02,0.05
		c0.167,0.421,0.636,1.403,1.385,1.44L4.73,4.041l-0.22,0.192C4.495,4.246,4.19,4.509,3.713,4.615
		c0.311,0.357,0.646,0.547,0.998,0.564l0.293,0.015L4.783,5.386C4.769,5.4,4.449,5.675,3.941,5.813
		C4.27,6.14,4.619,6.314,4.984,6.333l0.293,0.014L5.057,6.54C5.041,6.553,4.711,6.837,4.18,7.004
		c0.342,0.301,0.704,0.463,1.078,0.482L5.55,7.501L5.33,7.693C5.3,7.72,4.56,8.355,3.47,8.355"/>
	<path fill="#FFFFFF" d="M2.924,2.578C2.93,2.594,2.937,2.612,2.943,2.63c0.182,0.457,0.675,1.473,1.489,1.514
		c0,0-0.375,0.327-0.939,0.387C3.794,4.93,4.198,5.272,4.706,5.297c0,0-0.391,0.341-0.991,0.446C4.046,6.124,4.467,6.425,4.979,6.45
		c0,0-0.401,0.352-1.033,0.495c0.356,0.363,0.791,0.633,1.307,0.659c0,0-0.725,0.634-1.782,0.634c-0.044,0-0.088-0.002-0.132-0.004
		H2.51C2.465,8.237,2.421,8.238,2.378,8.238c-1.059,0-1.783-0.634-1.783-0.634C1.11,7.578,1.546,7.308,1.9,6.945
		C1.27,6.802,0.868,6.45,0.868,6.45C1.38,6.425,1.801,6.124,2.133,5.743C1.531,5.638,1.142,5.297,1.142,5.297
		C1.649,5.272,2.053,4.93,2.354,4.531c-0.564-0.06-0.938-0.387-0.938-0.387C2.229,4.103,2.722,3.087,2.902,2.63
		C2.911,2.612,2.917,2.594,2.924,2.578 M2.925,1.914L2.703,2.493c-0.006,0.016-0.014,0.033-0.021,0.05
		c-0.123,0.312-0.58,1.33-1.28,1.365L0.818,3.937l0.44,0.385c0.014,0.012,0.26,0.224,0.655,0.354C1.664,4.918,1.4,5.048,1.13,5.061
		L0.546,5.09l0.439,0.385C1,5.487,1.257,5.709,1.676,5.863C1.413,6.082,1.139,6.2,0.856,6.214L0.271,6.243l0.441,0.386
		c0.014,0.012,0.28,0.241,0.716,0.416c-0.271,0.2-0.555,0.308-0.845,0.323L0,7.397l0.439,0.385C0.472,7.81,1.244,8.475,2.378,8.475
		c0.046,0,0.092-0.002,0.138-0.004h0.816C3.378,8.473,3.424,8.475,3.47,8.475c1.134,0,1.906-0.665,1.938-0.692l0.439-0.385
		L5.264,7.368C4.974,7.353,4.69,7.245,4.418,7.045C4.854,6.87,5.12,6.641,5.135,6.629l0.44-0.386L4.991,6.214
		C4.709,6.2,4.434,6.082,4.172,5.863C4.59,5.709,4.848,5.487,4.86,5.475l0.44-0.385L4.718,5.061
		C4.445,5.048,4.183,4.918,3.933,4.676c0.396-0.13,0.643-0.342,0.655-0.354l0.439-0.385L4.443,3.908
		C3.745,3.873,3.287,2.855,3.164,2.543C3.157,2.526,3.15,2.509,3.145,2.494L2.925,1.914z"/>
	<path fill="#<?php echo $color; ?>" d="M11.199,8.533L11.199,8.533c-0.047,0-0.094-0.001-0.143-0.004L10.209,8.53c-0.042,0.002-0.09,0.003-0.136,0.003
		c-1.123,0-1.886-0.655-1.917-0.683L7.936,7.658l0.292-0.015c0.39-0.019,0.766-0.188,1.119-0.502
		c-0.551-0.172-0.893-0.466-0.909-0.48l-0.22-0.193L8.51,6.455c0.379-0.019,0.743-0.201,1.083-0.542
		C9.066,5.771,8.735,5.485,8.72,5.471L8.5,5.279l0.292-0.015c0.366-0.018,0.715-0.216,1.037-0.588
		C9.333,4.568,9.017,4.295,9.002,4.282l-0.22-0.193l0.292-0.014c0.774-0.039,1.259-1.053,1.431-1.487
		c0.007-0.018,0.014-0.036,0.021-0.052l0.109-0.29l0.111,0.289c0.006,0.017,0.013,0.034,0.021,0.053
		c0.173,0.434,0.656,1.448,1.432,1.487l0.292,0.014L12.27,4.282c-0.015,0.013-0.332,0.286-0.826,0.394
		c0.321,0.372,0.67,0.57,1.035,0.588l0.293,0.015l-0.221,0.192c-0.015,0.014-0.346,0.299-0.872,0.441
		c0.34,0.341,0.703,0.523,1.082,0.542l0.292,0.014l-0.22,0.193c-0.016,0.014-0.358,0.308-0.909,0.48
		c0.354,0.314,0.73,0.483,1.119,0.502l0.292,0.015l-0.22,0.192C13.083,7.878,12.322,8.533,11.199,8.533"/>
	<path fill="#FFFFFF" d="M10.636,2.578c0.006,0.018,0.013,0.036,0.021,0.055c0.186,0.47,0.694,1.519,1.534,1.561
		c0,0-0.386,0.338-0.969,0.399c0.312,0.412,0.728,0.764,1.251,0.79c0,0-0.401,0.352-1.021,0.459
		c0.342,0.394,0.775,0.704,1.303,0.731c0,0-0.414,0.362-1.065,0.51c0.367,0.374,0.816,0.653,1.348,0.679
		c0,0-0.747,0.654-1.838,0.654c-0.045,0-0.09-0.002-0.137-0.004h-0.854c-0.046,0.002-0.091,0.004-0.136,0.004
		c-1.093,0-1.839-0.654-1.839-0.654c0.531-0.026,0.98-0.305,1.347-0.679c-0.65-0.148-1.065-0.51-1.065-0.51
		C9.044,6.545,9.478,6.235,9.82,5.841C9.2,5.734,8.798,5.382,8.798,5.382c0.524-0.026,0.94-0.378,1.251-0.79
		C9.466,4.531,9.08,4.193,9.08,4.193c0.84-0.042,1.348-1.091,1.535-1.561C10.622,2.613,10.629,2.596,10.636,2.578 M10.636,1.915
		l-0.221,0.579c-0.006,0.016-0.013,0.033-0.021,0.051C10.23,2.958,9.773,3.921,9.068,3.958L8.484,3.986l0.439,0.385
		c0.014,0.012,0.272,0.234,0.686,0.367C9.347,4.996,9.071,5.132,8.786,5.146L8.202,5.175l0.439,0.385
		c0.016,0.013,0.284,0.245,0.722,0.403C9.088,6.196,8.8,6.321,8.504,6.335L7.92,6.366L8.361,6.75
		C8.375,6.764,8.653,7.002,9.11,7.183C8.824,7.396,8.527,7.511,8.222,7.525L7.639,7.555l0.44,0.385
		c0.033,0.029,0.827,0.712,1.994,0.712c0.047,0,0.095-0.001,0.142-0.003h0.842c0.047,0.002,0.096,0.003,0.143,0.003
		c1.166,0,1.961-0.683,1.994-0.712l0.439-0.385l-0.584-0.029c-0.304-0.015-0.602-0.13-0.887-0.343
		c0.456-0.18,0.733-0.419,0.749-0.432l0.44-0.385l-0.585-0.03c-0.296-0.014-0.583-0.139-0.858-0.372
		c0.438-0.158,0.707-0.39,0.721-0.403l0.44-0.385l-0.584-0.029c-0.285-0.014-0.561-0.151-0.822-0.408
		c0.413-0.133,0.671-0.355,0.685-0.367l0.44-0.385l-0.584-0.029c-0.707-0.036-1.164-1-1.327-1.412
		c-0.008-0.019-0.014-0.036-0.021-0.052L10.636,1.915z"/>
	<path fill="#<?php echo $color; ?>" d="M7.803,11.382L7.803,11.382c-0.084,0-0.17-0.002-0.254-0.006H6.004c-0.077,0.004-0.163,0.006-0.247,0.006
		c-2.003,0-3.359-1.167-3.416-1.216l-0.22-0.193l0.292-0.014C3.189,9.92,3.935,9.566,4.631,8.906
		c-1.075-0.295-1.749-0.875-1.778-0.9L2.632,7.813l0.292-0.014C3.682,7.761,4.403,7.38,5.071,6.666
		c-1.027-0.233-1.678-0.795-1.707-0.82l-0.22-0.192l0.292-0.015c0.733-0.037,1.425-0.45,2.057-1.228
		C4.527,4.248,3.903,3.71,3.876,3.686l-0.22-0.192l0.292-0.015c1.462-0.073,2.364-1.955,2.683-2.76
		c0.015-0.034,0.026-0.067,0.038-0.097l0.11-0.289l0.111,0.288c0.011,0.031,0.023,0.063,0.037,0.097
		c0.319,0.806,1.221,2.688,2.684,2.761l0.292,0.015l-0.22,0.192C9.655,3.71,9.031,4.248,8.065,4.411
		c0.632,0.778,1.324,1.191,2.057,1.228l0.293,0.015l-0.221,0.192c-0.029,0.025-0.68,0.587-1.707,0.82
		c0.668,0.714,1.39,1.095,2.147,1.133l0.293,0.014l-0.222,0.193c-0.029,0.025-0.702,0.605-1.778,0.9
		c0.696,0.66,1.442,1.014,2.219,1.053l0.292,0.014l-0.22,0.193C11.161,10.215,9.806,11.382,7.803,11.382"/>
	<path fill="#FFFFFF" d="M6.779,0.663c0.012,0.032,0.024,0.064,0.039,0.099C7.157,1.617,8.08,3.521,9.605,3.597
		c0,0-0.701,0.613-1.76,0.725c0.564,0.747,1.32,1.387,2.271,1.435c0,0-0.73,0.638-1.856,0.834c0.621,0.714,1.409,1.278,2.368,1.325
		c0,0-0.753,0.658-1.935,0.927c0.666,0.679,1.48,1.185,2.445,1.233c0,0-1.355,1.188-3.338,1.188c-0.081,0-0.164-0.002-0.247-0.007
		H6.004c-0.083,0.005-0.165,0.007-0.247,0.007c-1.981,0-3.338-1.188-3.338-1.188c0.965-0.049,1.78-0.555,2.446-1.233
		C3.684,8.574,2.93,7.916,2.93,7.916c0.958-0.047,1.747-0.611,2.368-1.325C4.172,6.395,3.442,5.757,3.442,5.757
		c0.951-0.048,1.707-0.688,2.271-1.435C4.655,4.21,3.954,3.597,3.954,3.597c1.525-0.076,2.448-1.981,2.787-2.835
		C6.755,0.727,6.769,0.694,6.779,0.663 M6.778,0l-0.22,0.58C6.547,0.61,6.535,0.641,6.521,0.675C6.21,1.459,5.336,3.291,3.942,3.361
		L3.358,3.39l0.439,0.385c0.027,0.023,0.591,0.509,1.477,0.712C4.7,5.141,4.081,5.488,3.43,5.521L2.847,5.55l0.439,0.385
		C3.314,5.959,3.904,6.468,4.844,6.73C4.238,7.327,3.592,7.647,2.919,7.68L2.334,7.709l0.441,0.385
		C2.804,8.12,3.413,8.645,4.397,8.96c-0.632,0.55-1.3,0.847-1.99,0.88L1.823,9.869l0.439,0.385C2.321,10.305,3.71,11.5,5.757,11.5
		c0.084,0,0.169-0.002,0.253-0.006h1.539C7.633,11.498,7.718,11.5,7.802,11.5c2.047,0,3.437-1.195,3.494-1.246l0.44-0.385
		L11.152,9.84c-0.691-0.033-1.359-0.33-1.99-0.88c0.984-0.315,1.593-0.84,1.622-0.866l0.44-0.385L10.64,7.68
		C9.967,7.647,9.321,7.327,8.715,6.73c0.94-0.262,1.53-0.771,1.559-0.795l0.439-0.385l-0.584-0.029
		c-0.65-0.033-1.27-0.38-1.844-1.034C9.17,4.284,9.734,3.798,9.761,3.775l0.44-0.385L9.617,3.361
		c-1.395-0.07-2.269-1.902-2.579-2.686C7.024,0.641,7.012,0.609,7,0.579L6.778,0z"/>
</g>
</svg>
